<svg version="1.1" xmlns="http://www.w3.org/2000/svg" xmlns:xlink="http://www.w3.org/1999/xlink" width="71.72247" height="32.07365" viewBox="0,0,71.72247,32.07365"><defs><linearGradient x1="239.77854" y1="166.96108" x2="239.77854" y2="197.69878" gradientUnits="userSpaceOnUse" id="color-1"><stop offset="0" stop-color="#83e6f3"/><stop offset="1" stop-color="#1392ed"/></linearGradient><radialGradient cx="239.30869" cy="182.70054" r="35.04" gradientTransform="translate(-466.36683,-414.60114) scale(2.28311,2.20361)" gradientUnits="userSpaceOnUse" id="color-2"><stop offset="0" stop-color="#e3e3e3"/><stop offset="1" stop-color="#f0f0f0"/></radialGradient></defs><g transform="translate(-203.98394,-166.34659)"><g data-paper-data="{&quot;isPaintingLayer&quot;:true}" fill-rule="nonzero" stroke-linejoin="miter" stroke-miterlimit="10" stroke-dasharray="" stroke-dashoffset="0" style="mix-blend-mode: normal"><path d="M205.48572,197.69877l-0.72682,-30.52174l70.03928,-0.21596v30.7377z" fill="url(#color-1)" stroke="none" stroke-width="0" stroke-linecap="butt"/><path d="M204.44639,190.17095c0,0 0.96196,3.68919 2.76493,5.70022c1.63454,1.82315 5.67783,2.29912 5.67783,2.29912l-8.64868,-0.17776z" data-paper-data="{&quot;index&quot;:null}" fill="#affbe1" stroke="#b0fecf" stroke-width="0.5" stroke-linecap="round"/><path d="M275.31025,197.68661l-8.64868,0.14974c0,0 4.04329,-0.40094 5.67783,-1.93673c1.80297,-1.69404 2.76493,-4.80176 2.76493,-4.80176z" data-paper-data="{&quot;index&quot;:null}" fill="#affbe1" stroke="#b0fecf" stroke-width="0.5" stroke-linecap="round"/><path d="M204.57768,166.77537l8.64868,-0.17878c0,0 -4.04329,0.47869 -5.67783,2.31229c-1.80297,2.02255 -2.76493,5.73288 -2.76493,5.73288z" fill="#b0fecf" stroke="#b0fecf" stroke-width="0.5" stroke-linecap="round"/><path d="M275.244,174.77581c0,0 -0.96196,-3.71034 -2.76493,-5.73288c-1.63454,-1.83361 -5.67783,-2.31229 -5.67783,-2.31229l8.64868,0.17878z" data-paper-data="{&quot;index&quot;:null}" fill="#b0fecf" stroke="#b0fecf" stroke-width="0.5" stroke-linecap="round"/><text transform="translate(204.26867,188.146) scale(0.438,0.4538)" font-size="40" xml:space="preserve" fill="url(#color-2)" fill-rule="nonzero" stroke="#000000" stroke-width="1" stroke-linecap="butt" stroke-linejoin="miter" stroke-miterlimit="10" stroke-dasharray="" stroke-dashoffset="0" font-family="Handwriting" font-weight="normal" text-anchor="start" style="mix-blend-mode: normal"><tspan x="0" dy="0">文字教程</tspan></text></g></g></svg>