<svg version="1.1" xmlns="http://www.w3.org/2000/svg" xmlns:xlink="http://www.w3.org/1999/xlink" width="208.80282" height="71.43365" viewBox="0,0,208.80282,71.43365"><defs><radialGradient cx="238.75001" cy="179.37501" r="35.375" gradientUnits="userSpaceOnUse" id="color-1"><stop offset="0" stop-color="#ffffff"/><stop offset="1" stop-color="#ca3bd9"/></radialGradient><linearGradient x1="240.45389" y1="171.92945" x2="240.45389" y2="163.85642" gradientUnits="userSpaceOnUse" id="color-2"><stop offset="0" stop-color="#d5d5d5"/><stop offset="1" stop-color="#ffffff"/></linearGradient><linearGradient x1="240.63389" y1="157.04153" x2="240.63389" y2="165.11456" gradientUnits="userSpaceOnUse" id="color-3"><stop offset="0" stop-color="#d5d5d5"/><stop offset="1" stop-color="#ffffff"/></linearGradient><linearGradient x1="231.87413" y1="159.78674" x2="231.87413" y2="167.96435" gradientUnits="userSpaceOnUse" id="color-4"><stop offset="0" stop-color="#9c9c9c"/><stop offset="1" stop-color="#e9e9e9"/></linearGradient><linearGradient x1="228.7692" y1="161.6559" x2="228.7692" y2="163.29143" gradientUnits="userSpaceOnUse" id="color-5"><stop offset="0" stop-color="#ffffff"/><stop offset="1" stop-color="#dbdbdb"/></linearGradient><linearGradient x1="235.08258" y1="161.88956" x2="235.08258" y2="163.52508" gradientUnits="userSpaceOnUse" id="color-6"><stop offset="0" stop-color="#ffffff"/><stop offset="1" stop-color="#dbdbdb"/></linearGradient><linearGradient x1="248.22065" y1="159.51873" x2="248.22065" y2="167.69634" gradientUnits="userSpaceOnUse" id="color-7"><stop offset="0" stop-color="#9c9c9c"/><stop offset="1" stop-color="#e9e9e9"/></linearGradient><linearGradient x1="245.11571" y1="161.3879" x2="245.11571" y2="163.02342" gradientUnits="userSpaceOnUse" id="color-8"><stop offset="0" stop-color="#ffffff"/><stop offset="1" stop-color="#dbdbdb"/></linearGradient><linearGradient x1="251.42903" y1="161.62154" x2="251.42903" y2="163.25706" gradientUnits="userSpaceOnUse" id="color-9"><stop offset="0" stop-color="#ffffff"/><stop offset="1" stop-color="#dbdbdb"/></linearGradient><linearGradient x1="240.03342" y1="159.56907" x2="240.03342" y2="163.80218" gradientUnits="userSpaceOnUse" id="color-10"><stop offset="0" stop-color="#000000"/><stop offset="1" stop-color="#ffffff"/></linearGradient><linearGradient x1="239.98471" y1="168.03529" x2="239.98471" y2="163.80218" gradientUnits="userSpaceOnUse" id="color-11"><stop offset="0" stop-color="#000000"/><stop offset="1" stop-color="#ffffff"/></linearGradient></defs><g transform="translate(-202.37501,-142.44136)"><g data-paper-data="{&quot;isPaintingLayer&quot;:true}" fill-rule="nonzero" stroke-linejoin="miter" stroke-miterlimit="10" stroke-dasharray="" stroke-dashoffset="0" style="mix-blend-mode: normal"><path d="M203.37501,212.87501v-67h70.75v67z" fill="url(#color-1)" stroke="#000000" stroke-width="2" stroke-linecap="butt"/><path d="M233.74657,207.94508v-55.89016h12.50689v55.89016z" fill="#656565" stroke="#000000" stroke-width="1" stroke-linecap="butt"/><path d="M240.04609,154.7908l-0.31568,41.03823" fill="none" stroke="#ffffff" stroke-width="1.5" stroke-linecap="round"/><path d="M239.77315,195.96401l-0.08499,9.26435" fill="none" stroke="#ff9708" stroke-width="1.5" stroke-linecap="round"/><path d="M236.11841,200.82946l2.97479,-4.16471" fill="none" stroke="#ff9708" stroke-width="0.5" stroke-linecap="round"/><path d="M239.17126,199.46267l-2.97479,4.16471" fill="none" stroke="#ff9708" stroke-width="0.5" stroke-linecap="round"/><path d="M236.35957,206.17032l2.97479,-4.16471" fill="none" stroke="#ff9708" stroke-width="0.5" stroke-linecap="round"/><text transform="translate(241.07768,156.85168) scale(0.0502,0.0502)" font-size="40" xml:space="preserve" fill="#ffffff" fill-rule="nonzero" stroke="none" stroke-width="1" stroke-linecap="butt" stroke-linejoin="miter" stroke-miterlimit="10" stroke-dasharray="" stroke-dashoffset="0" font-family="Sans Serif" font-weight="normal" text-anchor="start" style="mix-blend-mode: normal"><tspan x="0" dy="0">MAX</tspan></text><text transform="translate(241.07768,205.78076) scale(0.06085,0.06085)" font-size="40" xml:space="preserve" fill="#ffffff" fill-rule="nonzero" stroke="none" stroke-width="1" stroke-linecap="butt" stroke-linejoin="miter" stroke-miterlimit="10" stroke-dasharray="" stroke-dashoffset="0" font-family="Sans Serif" font-weight="normal" text-anchor="start" style="mix-blend-mode: normal"><tspan x="0" dy="0">反推</tspan></text><text transform="translate(279.06064,164.19136) scale(0.5,0.5)" font-size="40" xml:space="preserve" fill="#ffffff" fill-rule="nonzero" stroke="none" stroke-width="1" stroke-linecap="butt" stroke-linejoin="miter" stroke-miterlimit="10" stroke-dasharray="" stroke-dashoffset="0" font-family="Sans Serif" font-weight="normal" text-anchor="start" style="mix-blend-mode: normal"><tspan x="0" dy="0">最大推力120%</tspan></text><g><path d="M246.46887,163.85642v8.07304h-12.03004v-8.07304z" data-paper-data="{&quot;index&quot;:null}" fill="url(#color-2)" stroke="#000000" stroke-width="0.35" stroke-linecap="butt"/><path d="M234.61884,165.11456v-8.07304h12.03005v8.07304z" fill="url(#color-3)" stroke="#000000" stroke-width="0.35" stroke-linecap="butt"/><g><path d="M232.18339,166.7382c-2.07829,0.01939 -6.62256,1.22614 -6.62256,1.22614v-8.06078c0,0 3.73151,1.98599 6.41683,1.98599c2.68532,0 6.20984,-2.10281 6.20984,-2.10281l-0.1035,8.06078c0,0 -3.80466,-1.12888 -5.90062,-1.10932z" fill="url(#color-4)" stroke="#000000" stroke-width="0.25" stroke-linecap="round"/><path d="M226.59576,160.37085v7.47667" fill="none" stroke="#000000" stroke-width="0.25" stroke-linecap="round"/><path d="M237.049,167.7307v-7.47667" fill="none" stroke="#000000" stroke-width="0.25" stroke-linecap="round"/><path d="M227.2168,161.6559l3.20841,1.5187l-3.31191,0.11683z" fill="url(#color-5)" stroke="none" stroke-width="0" stroke-linecap="round"/><path d="M236.73855,163.52508l-3.31191,-0.11683l3.20841,-1.5187z" data-paper-data="{&quot;index&quot;:null}" fill="url(#color-6)" stroke="none" stroke-width="0" stroke-linecap="round"/><path d="M225.45731,163.52508h0.93148" fill="none" stroke="#000000" stroke-width="0.25" stroke-linecap="round"/><path d="M237.87699,163.6419h-0.93148" fill="none" stroke="#000000" stroke-width="0.25" stroke-linecap="round"/><path d="M254.43045,167.57951c0,0 -3.80466,-1.12888 -5.90062,-1.10932c-2.07828,0.01939 -6.62254,1.22614 -6.62254,1.22614v-8.06078c0,0 3.73151,1.98599 6.41683,1.98599c2.68533,0 6.20984,-2.10281 6.20984,-2.10281l-0.1035,8.06078z" fill="url(#color-7)" stroke="#000000" stroke-width="0.25" stroke-linecap="round"/><path d="M242.94227,167.57952v-7.47667" fill="none" stroke="#000000" stroke-width="0.25" stroke-linecap="round"/><path d="M253.39553,167.46269v-7.47667" fill="none" stroke="#000000" stroke-width="0.25" stroke-linecap="round"/><path d="M243.56324,161.3879l3.20841,1.5187l-3.31191,0.11683z" fill="url(#color-8)" stroke="none" stroke-width="0" stroke-linecap="round"/><path d="M253.085,163.25706l-3.31191,-0.11683l3.20841,-1.5187z" data-paper-data="{&quot;index&quot;:null}" fill="url(#color-9)" stroke="none" stroke-width="0" stroke-linecap="round"/><path d="M241.80378,163.25706h0.93148" fill="none" stroke="#000000" stroke-width="0.25" stroke-linecap="round"/><path d="M253.29202,163.37389h0.93148" fill="none" stroke="#000000" stroke-width="0.25" stroke-linecap="round"/><path d="M238.28009,163.80218v-4.23311h3.50674v4.23311z" fill="url(#color-10)" stroke="none" stroke-width="NaN" stroke-linecap="butt"/><path d="M241.73811,163.80218v4.23311h-3.50674v-4.23311z" data-paper-data="{&quot;index&quot;:null}" fill="url(#color-11)" stroke="none" stroke-width="NaN" stroke-linecap="butt"/></g></g><text transform="translate(240.61779,167.48626) scale(0.5,0.5)" font-size="40" xml:space="preserve" fill="#ff3b3b" fill-rule="nonzero" stroke="none" stroke-width="1" stroke-linecap="butt" stroke-linejoin="miter" stroke-miterlimit="10" stroke-dasharray="" stroke-dashoffset="0" font-family="Sans Serif" font-weight="normal" text-anchor="start" style="mix-blend-mode: normal"><tspan x="0" dy="0">＋</tspan></text><text transform="translate(220.42089,167.28255) scale(0.5,0.5)" font-size="40" xml:space="preserve" fill="#e43535" fill-rule="nonzero" stroke="none" stroke-width="1" stroke-linecap="butt" stroke-linejoin="miter" stroke-miterlimit="10" stroke-dasharray="" stroke-dashoffset="0" font-family="Sans Serif" font-weight="normal" text-anchor="start" style="mix-blend-mode: normal"><tspan x="0" dy="0">＋</tspan></text><g stroke="none" stroke-width="1" stroke-linecap="butt"><path d="M212.2635,154.43047l-1.82577,-1.98453l1.82577,-3.8103z" fill="#b20000"/><path d="M212.18415,154.43047l-6.033,-1.3495l4.20724,-0.63504z" fill="#dc0000"/><path d="M212.3429,154.43047v-5.79487l1.82577,3.8103z" fill="#e80000"/><path d="M212.2635,154.43047l1.82577,-1.98453l4.20724,0.63505z" fill="#ff0000"/><path d="M212.2635,154.43047l6.03305,-1.3495l-3.01653,2.93712z" fill="#b20000"/><path d="M215.28003,155.93872l0.71445,4.20721l-3.73093,-5.71547z" fill="#ff0000"/><path d="M212.2635,154.43047l-3.01653,1.58763l-3.01653,-2.93712z" fill="#b20000"/><path d="M212.2635,154.50983l-3.73096,5.71547l0.71445,-4.20724z" fill="#dc0000"/><path d="M212.2635,154.43047v3.73096l-3.73096,1.98453z" fill="#b20000"/><path d="M215.99448,160.22534l-3.73093,-1.98453v-3.8103c0,0 0.33149,0.51487 0.6156,0.95614c0.63912,0.99268 3.11533,4.83869 3.11533,4.83869z" fill="#e80000"/></g><g stroke="none" stroke-width="1" stroke-linecap="butt"><path d="M212.60759,164.90806l-1.82577,-1.98453l1.82577,-3.8103z" fill="#b20000"/><path d="M212.52817,164.90806l-6.033,-1.3495l4.20724,-0.63504z" fill="#dc0000"/><path d="M212.68692,164.90806v-5.79487l1.82577,3.8103z" fill="#e80000"/><path d="M212.60759,164.90806l1.82577,-1.98453l4.20724,0.63505z" fill="#ff0000"/><path d="M212.60759,164.90806l6.03305,-1.3495l-3.01653,2.93712z" fill="#b20000"/><path d="M215.62406,166.41631l0.71445,4.20721l-3.73093,-5.71547z" fill="#ff0000"/><path d="M212.60759,164.90806l-3.01653,1.58763l-3.01653,-2.93712z" fill="#b20000"/><path d="M212.60759,164.98742l-3.73096,5.71547l0.71445,-4.20724z" fill="#dc0000"/><path d="M212.60759,164.90806v3.73096l-3.73096,1.98453z" fill="#b20000"/><path d="M216.33852,170.70293l-3.73093,-1.98453v-3.8103c0,0 0.33149,0.51487 0.6156,0.95614c0.63912,0.99268 3.11533,4.83869 3.11533,4.83869z" fill="#e80000"/></g><g stroke="none" stroke-width="1" stroke-linecap="butt"><path d="M212.2635,174.97142l-1.82577,-1.98453l1.82577,-3.8103z" fill="#b20000"/><path d="M212.18414,174.97142l-6.033,-1.3495l4.20724,-0.63504z" fill="#dc0000"/><path d="M212.3429,174.97142v-5.79487l1.82577,3.8103z" fill="#e80000"/><path d="M212.2635,174.97142l1.82577,-1.98453l4.20724,0.63505z" fill="#ff0000"/><path d="M212.2635,174.97142l6.03305,-1.3495l-3.01653,2.93712z" fill="#b20000"/><path d="M215.28002,176.47967l0.71445,4.20721l-3.73093,-5.71547z" fill="#ff0000"/><path d="M212.2635,174.97142l-3.01653,1.58763l-3.01653,-2.93712z" fill="#b20000"/><path d="M212.2635,175.05078l-3.73096,5.71547l0.71445,-4.20724z" fill="#dc0000"/><path d="M212.2635,174.97142v3.73096l-3.73096,1.98453z" fill="#b20000"/><path d="M215.99447,180.76629l-3.73093,-1.98453v-3.8103c0,0 0.33149,0.51487 0.6156,0.95614c0.63912,0.99268 3.11533,4.83869 3.11533,4.83869z" fill="#e80000"/></g><g stroke="none" stroke-width="1" stroke-linecap="butt"><path d="M212.53738,186.74822l-1.82577,-1.98453l1.82577,-3.8103z" fill="#b20000"/><path d="M212.45797,186.74822l-6.033,-1.3495l4.20724,-0.63504z" fill="#dc0000"/><path d="M212.61673,186.74822v-5.79487l1.82577,3.8103z" fill="#e80000"/><path d="M212.53738,186.74822l1.82577,-1.98453l4.20724,0.63505z" fill="#ff0000"/><path d="M212.53738,186.74822l6.03305,-1.3495l-3.01653,2.93712z" fill="#b20000"/><path d="M215.55386,188.25647l0.71445,4.20721l-3.73093,-5.71547z" fill="#ff0000"/><path d="M212.53738,186.74822l-3.01653,1.58763l-3.01653,-2.93712z" fill="#b20000"/><path d="M212.53738,186.82758l-3.73096,5.71547l0.71445,-4.20724z" fill="#dc0000"/><path d="M212.53738,186.74822v3.73096l-3.73096,1.98453z" fill="#b20000"/><path d="M216.26831,192.54309l-3.73093,-1.98453v-3.8103c0,0 0.33149,0.51487 0.6156,0.95614c0.63912,0.99268 3.11533,4.83869 3.11533,4.83869z" fill="#e80000"/></g></g></g></svg>