<svg version="1.1" xmlns="http://www.w3.org/2000/svg" xmlns:xlink="http://www.w3.org/1999/xlink" width="207.99811" height="71.43364" viewBox="0,0,207.99811,71.43364"><defs><radialGradient cx="238.75001" cy="179.375" r="35.375" gradientUnits="userSpaceOnUse" id="color-1"><stop offset="0" stop-color="#ffffff"/><stop offset="1" stop-color="#d93b3b"/></radialGradient></defs><g transform="translate(-202.37501,-142.44136)"><g data-paper-data="{&quot;isPaintingLayer&quot;:true}" fill-rule="nonzero" stroke-linejoin="miter" stroke-miterlimit="10" stroke-dasharray="" stroke-dashoffset="0" style="mix-blend-mode: normal"><path d="M203.37501,212.875v-67h70.75v67z" fill="url(#color-1)" stroke="#000000" stroke-width="2" stroke-linecap="butt"/><text transform="translate(279.06062,164.19136) scale(0.5,0.5)" font-size="40" xml:space="preserve" fill="#ffffff" fill-rule="nonzero" stroke="none" stroke-width="1" stroke-linecap="butt" stroke-linejoin="miter" stroke-miterlimit="10" stroke-dasharray="" stroke-dashoffset="0" font-family="Sans Serif" font-weight="normal" text-anchor="start" style="mix-blend-mode: normal"><tspan x="0" dy="0">油价21币/单位</tspan></text><path d="M246.33109,189.87985c0,4.13288 -3.14934,7.48325 -7.03425,7.48325c-3.88491,0 -7.03425,-3.35036 -7.03425,-7.48325c0,-4.13288 7.18392,-16.16381 7.18392,-16.16381c0,0 6.88459,12.03093 6.88459,16.16381z" fill="#ff9708" stroke="#ff9708" stroke-width="0.5" stroke-linecap="butt"/><path d="M255.09253,178.11077c0,2.73499 -2.08412,4.95215 -4.65502,4.95215c-2.5709,0 -4.65502,-2.21716 -4.65502,-4.95215c0,-2.73499 4.75406,-10.69664 4.75406,-10.69664c0,0 4.55598,7.96165 4.55598,10.69664z" fill="#ff9708" stroke="#ff9708" stroke-width="0.5" stroke-linecap="butt"/><text transform="translate(233.65359,192.58152) scale(0.26641,0.26641)" font-size="40" xml:space="preserve" fill="#ffffff" fill-rule="nonzero" stroke="none" stroke-width="1" stroke-linecap="butt" stroke-linejoin="miter" stroke-miterlimit="10" stroke-dasharray="" stroke-dashoffset="0" font-family="Sans Serif" font-weight="normal" text-anchor="start" style="mix-blend-mode: normal"><tspan x="0" dy="0">油</tspan></text><path d="M232.09857,172.88911c0,3.19471 -2.43444,5.78453 -5.43746,5.78453c-3.00302,0 -5.43746,-2.58983 -5.43746,-5.78453c0,-3.19471 5.55315,-12.49459 5.55315,-12.49459c0,0 5.32177,9.29988 5.32177,12.49459z" fill="#ff9708" stroke="#ff9708" stroke-width="0.5" stroke-linecap="butt"/><path d="M262.99613,178.85041l-2.95762,3.34842l-0.12859,-13.39369l-0.74021,0.0371l-0.12859,13.39369l-2.95762,-3.34842" fill="none" stroke="#9bff08" stroke-width="1.5" stroke-linecap="round"/><path d="M223.83179,198.1082l-2.95762,3.34841l-0.12859,-13.39369l-0.74021,0.0371l-0.12859,13.3937l-2.95762,-3.34843" fill="none" stroke="#9bff08" stroke-width="1.5" stroke-linecap="round"/><g stroke="none" stroke-width="1" stroke-linecap="butt"><path d="M212.26353,154.43047l-1.82577,-1.98453l1.82577,-3.8103z" fill="#b20000"/><path d="M212.18415,154.43047l-6.033,-1.3495l4.20724,-0.63504z" fill="#dc0000"/><path d="M212.34291,154.43047v-5.79487l1.82577,3.8103z" fill="#e80000"/><path d="M212.26353,154.43047l1.82577,-1.98453l4.20724,0.63505z" fill="#ff0000"/><path d="M212.26353,154.43047l6.03305,-1.3495l-3.01653,2.93712z" fill="#b20000"/><path d="M215.28003,155.93872l0.71445,4.20721l-3.73093,-5.71547z" fill="#ff0000"/><path d="M212.26353,154.43047l-3.01653,1.58763l-3.01653,-2.93712z" fill="#b20000"/><path d="M212.26353,154.50983l-3.73096,5.71547l0.71445,-4.20724z" fill="#dc0000"/><path d="M212.26353,154.43047v3.73096l-3.73096,1.98453z" fill="#b20000"/><path d="M215.99448,160.22534l-3.73093,-1.98453v-3.8103c0,0 0.33149,0.51487 0.6156,0.95614c0.63912,0.99268 3.11533,4.83869 3.11533,4.83869z" fill="#e80000"/></g><g stroke="none" stroke-width="1" stroke-linecap="butt"><path d="M256.73949,154.95093l-1.82577,-1.98453l1.82577,-3.8103z" fill="#b20000"/><path d="M256.66011,154.95093l-6.033,-1.3495l4.20724,-0.63504z" fill="#dc0000"/><path d="M256.81887,154.95093v-5.79487l1.82577,3.8103z" fill="#e80000"/><path d="M256.73949,154.95093l1.82577,-1.98453l4.20724,0.63505z" fill="#ff0000"/><path d="M256.73949,154.95093l6.03305,-1.3495l-3.01653,2.93712z" fill="#b20000"/><path d="M259.75599,156.45918l0.71445,4.20721l-3.73093,-5.71547z" fill="#ff0000"/><path d="M256.73949,154.95093l-3.01653,1.58763l-3.01653,-2.93712z" fill="#b20000"/><path d="M256.73949,155.03029l-3.73096,5.71547l0.71445,-4.20724z" fill="#dc0000"/><path d="M256.73949,154.95093v3.73096l-3.73096,1.98453z" fill="#b20000"/><path d="M260.47044,160.7458l-3.73093,-1.98453v-3.8103c0,0 0.33149,0.51487 0.6156,0.95614c0.63912,0.99268 3.11533,4.83869 3.11533,4.83869z" fill="#e80000"/></g><g stroke="none" stroke-width="1" stroke-linecap="butt"><path d="M224.22332,154.63147l-1.82577,-1.98453l1.82577,-3.8103z" fill="#b20000"/><path d="M224.14394,154.63147l-6.033,-1.3495l4.20724,-0.63504z" fill="#dc0000"/><path d="M224.3027,154.63147v-5.79487l1.82577,3.8103z" fill="#e80000"/><path d="M224.22332,154.63147l1.82577,-1.98453l4.20724,0.63505z" fill="#ff0000"/><path d="M224.22332,154.63147l6.03305,-1.3495l-3.01653,2.93712z" fill="#b20000"/><path d="M227.23982,156.13972l0.71445,4.20721l-3.73093,-5.71547z" fill="#ff0000"/><path d="M224.22332,154.63147l-3.01653,1.58763l-3.01653,-2.93712z" fill="#b20000"/><path d="M224.22332,154.71083l-3.73096,5.71547l0.71445,-4.20724z" fill="#dc0000"/><path d="M224.22332,154.63147v3.73096l-3.73096,1.98453z" fill="#b20000"/><path d="M227.95427,160.42634l-3.73093,-1.98453v-3.8103c0,0 0.33149,0.51487 0.6156,0.95614c0.63912,0.99268 3.11533,4.83869 3.11533,4.83869z" fill="#e80000"/></g><g stroke="none" stroke-width="1" stroke-linecap="butt"><path d="M233.4229,154.59199l-1.82577,-1.98453l1.82577,-3.8103z" fill="#b20000"/><path d="M233.34352,154.59199l-6.033,-1.3495l4.20724,-0.63504z" fill="#dc0000"/><path d="M233.50228,154.59199v-5.79487l1.82577,3.8103z" fill="#e80000"/><path d="M233.4229,154.59199l1.82577,-1.98453l4.20724,0.63505z" fill="#ff0000"/><path d="M233.4229,154.59199l6.03305,-1.3495l-3.01653,2.93712z" fill="#b20000"/><path d="M236.4394,156.10024l0.71445,4.20721l-3.73093,-5.71547z" fill="#ff0000"/><path d="M233.4229,154.59199l-3.01653,1.58763l-3.01653,-2.93712z" fill="#b20000"/><path d="M233.4229,154.67135l-3.73096,5.71547l0.71445,-4.20724z" fill="#dc0000"/><path d="M233.4229,154.59199v3.73096l-3.73096,1.98453z" fill="#b20000"/><path d="M237.15385,160.38686l-3.73093,-1.98453v-3.8103c0,0 0.33149,0.51487 0.6156,0.95614c0.63912,0.99268 3.11533,4.83869 3.11533,4.83869z" fill="#e80000"/></g><g stroke="none" stroke-width="1" stroke-linecap="butt"><path d="M245.98212,154.5525l-1.82577,-1.98453l1.82577,-3.8103z" fill="#b20000"/><path d="M245.90274,154.5525l-6.033,-1.3495l4.20724,-0.63504z" fill="#dc0000"/><path d="M246.0615,154.5525v-5.79487l1.82577,3.8103z" fill="#e80000"/><path d="M245.98212,154.5525l1.82577,-1.98453l4.20724,0.63505z" fill="#ff0000"/><path d="M245.98212,154.5525l6.03305,-1.3495l-3.01653,2.93712z" fill="#b20000"/><path d="M248.99862,156.06075l0.71445,4.20721l-3.73093,-5.71547z" fill="#ff0000"/><path d="M245.98212,154.5525l-3.01653,1.58763l-3.01653,-2.93712z" fill="#b20000"/><path d="M245.98212,154.63186l-3.73096,5.71547l0.71445,-4.20724z" fill="#dc0000"/><path d="M245.98212,154.5525v3.73096l-3.73096,1.98453z" fill="#b20000"/><path d="M249.71307,160.34737l-3.73093,-1.98453v-3.8103c0,0 0.33149,0.51487 0.6156,0.95614c0.63912,0.99268 3.11533,4.83869 3.11533,4.83869z" fill="#e80000"/></g></g></g></svg>