<svg version="1.1" xmlns="http://www.w3.org/2000/svg" xmlns:xlink="http://www.w3.org/1999/xlink" width="69.72585" height="69.2973" viewBox="0,0,69.72585,69.2973"><g transform="translate(-205.08489,-145.25719)"><g data-paper-data="{&quot;isPaintingLayer&quot;:true}" fill-rule="nonzero" stroke-linejoin="miter" stroke-miterlimit="10" stroke-dasharray="" stroke-dashoffset="0" style="mix-blend-mode: normal"><g><path d="M239.83338,146.21561l0.01438,5.87154" fill="none" stroke="#000000" stroke-width="1.5" stroke-linecap="round"/><path d="M273.75332,179.90585c0,18.58364 -15.14809,33.64865 -33.83421,33.64865c-18.68612,0 -33.83421,-15.06501 -33.83421,-33.64865c0,-18.58364 15.14809,-33.64865 33.83421,-33.64865c18.68612,0 33.83421,15.06501 33.83421,33.64865z" fill="none" stroke="#000000" stroke-width="2" stroke-linecap="butt"/><path d="M268.18919,179.79359h5.87156" fill="none" stroke="#000000" stroke-width="1.5" stroke-linecap="round"/><text transform="translate(262.40336,176.27232) rotate(89.75234) scale(0.18392,0.18392)" font-size="40" xml:space="preserve" fill="#000000" fill-rule="nonzero" stroke="none" stroke-width="1" stroke-linecap="butt" stroke-linejoin="miter" stroke-miterlimit="10" stroke-dasharray="" stroke-dashoffset="0" font-family="Sans Serif" font-weight="normal" text-anchor="start" style="mix-blend-mode: normal"><tspan x="0" dy="0">北</tspan></text><path d="M206.03323,179.56423h5.87156" fill="none" stroke="#000000" stroke-width="1.5" stroke-linecap="round"/><text transform="translate(216.89633,184.683) rotate(-89.79545) scale(0.13725,0.13725)" font-size="40" xml:space="preserve" fill="#000000" fill-rule="nonzero" stroke="none" stroke-width="1" stroke-linecap="butt" stroke-linejoin="miter" stroke-miterlimit="10" stroke-dasharray="" stroke-dashoffset="0" font-family="Sans Serif" font-weight="normal" text-anchor="start" style="mix-blend-mode: normal"><tspan x="0" dy="0">180</tspan></text><path d="M239.78751,207.91286l0.01438,5.87154" fill="none" stroke="#000000" stroke-width="1.5" stroke-linecap="round"/><text transform="translate(244.56742,202.97557) rotate(179.50322) scale(0.13725,0.13725)" font-size="40" xml:space="preserve" fill="#000000" fill-rule="nonzero" stroke="none" stroke-width="1" stroke-linecap="butt" stroke-linejoin="miter" stroke-miterlimit="10" stroke-dasharray="" stroke-dashoffset="0" font-family="Sans Serif" font-weight="normal" text-anchor="start" style="mix-blend-mode: normal"><tspan x="0" dy="0">270</tspan></text><text transform="translate(236.86254,156.5502) rotate(0.5907) scale(0.13725,0.13725)" font-size="40" xml:space="preserve" fill="#000000" fill-rule="nonzero" stroke="none" stroke-width="1" stroke-linecap="butt" stroke-linejoin="miter" stroke-miterlimit="10" stroke-dasharray="" stroke-dashoffset="0" font-family="Sans Serif" font-weight="normal" text-anchor="start" style="mix-blend-mode: normal"><tspan x="0" dy="0">90</tspan></text><path d="M264.09254,156.13248l-4.19203,4.11121" fill="none" stroke="#000000" stroke-width="1" stroke-linecap="round"/><path d="M220.00998,160.28956l-4.19203,-4.11122" data-paper-data="{&quot;index&quot;:null}" fill="none" stroke="#000000" stroke-width="1" stroke-linecap="round"/><path d="M220.23934,199.43523l-4.19203,4.11122" data-paper-data="{&quot;index&quot;:null}" fill="none" stroke="#000000" stroke-width="1" stroke-linecap="round"/><path d="M260.12987,199.66459l4.19203,4.11121" data-paper-data="{&quot;index&quot;:null}" fill="none" stroke="#000000" stroke-width="1" stroke-linecap="round"/><text transform="translate(254.8011,160.83655) rotate(45.84087) scale(0.12455,0.12455)" font-size="40" xml:space="preserve" fill="#000000" fill-rule="nonzero" stroke="none" stroke-width="1" stroke-linecap="butt" stroke-linejoin="miter" stroke-miterlimit="10" stroke-dasharray="" stroke-dashoffset="0" font-family="Sans Serif" font-weight="normal" text-anchor="start" style="mix-blend-mode: normal"><tspan x="0" dy="0">45</tspan></text><text transform="translate(219.74837,166.04019) rotate(-44.02242) scale(0.12454,0.12454)" font-size="40" xml:space="preserve" fill="#000000" fill-rule="nonzero" stroke="none" stroke-width="1" stroke-linecap="butt" stroke-linejoin="miter" stroke-miterlimit="10" stroke-dasharray="" stroke-dashoffset="0" font-family="Sans Serif" font-weight="normal" text-anchor="start" style="mix-blend-mode: normal"><tspan x="0" dy="0">135</tspan></text><text transform="translate(227.23191,198.50186) rotate(-136.1631) scale(0.12454,0.12454)" font-size="40" xml:space="preserve" fill="#000000" fill-rule="nonzero" stroke="none" stroke-width="1" stroke-linecap="butt" stroke-linejoin="miter" stroke-miterlimit="10" stroke-dasharray="" stroke-dashoffset="0" font-family="Sans Serif" font-weight="normal" text-anchor="start" style="mix-blend-mode: normal"><tspan x="0" dy="0">225</tspan></text><text transform="translate(259.45293,192.04835) rotate(135.38383) scale(0.12455,0.12455)" font-size="40" xml:space="preserve" fill="#000000" fill-rule="nonzero" stroke="none" stroke-width="1" stroke-linecap="butt" stroke-linejoin="miter" stroke-miterlimit="10" stroke-dasharray="" stroke-dashoffset="0" font-family="Sans Serif" font-weight="normal" text-anchor="start" style="mix-blend-mode: normal"><tspan x="0" dy="0">315</tspan></text><path d="M267.87548,175.21265l5.76504,-1.11335" fill="none" stroke="#000000" stroke-width="0.5" stroke-linecap="round"/><path d="M266.57481,170.87785l5.33885,-2.44375" fill="none" stroke="#000000" stroke-width="0.5" stroke-linecap="round"/><path d="M262.25284,162.00072l4.71671,-3.49683" fill="none" stroke="#000000" stroke-width="0.5" stroke-linecap="round"/><path d="M264.67963,166.19443l5.00078,-3.07692" fill="none" stroke="#000000" stroke-width="0.5" stroke-linecap="round"/><g fill="none" stroke="#000000" stroke-width="0.5" stroke-linecap="round"><path d="M245.97313,147.35559l-1.15238,5.75736" data-paper-data="{&quot;index&quot;:null}"/><path d="M249.14664,154.44296l2.47986,-5.32217" data-paper-data="{&quot;index&quot;:null}"/><path d="M257.53681,158.63837l3.52871,-4.69291" data-paper-data="{&quot;index&quot;:null}"/><path d="M253.8171,156.36983l3.11073,-4.97981" data-paper-data="{&quot;index&quot;:null}"/></g><g data-paper-data="{&quot;index&quot;:null}" fill="none" stroke="#000000" stroke-width="0.5" stroke-linecap="round"><path d="M233.10803,146.73335l1.48275,5.68126" data-paper-data="{&quot;index&quot;:null}"/><path d="M227.56597,148.8219l2.7829,5.17017" data-paper-data="{&quot;index&quot;:null}"/><path d="M222.21483,158.66474l-3.79369,-4.48142" data-paper-data="{&quot;index&quot;:null}"/><path d="M225.7974,156.18529l-3.39296,-4.79197" data-paper-data="{&quot;index&quot;:null}"/></g><g data-paper-data="{&quot;index&quot;:null}" fill="none" stroke="#000000" stroke-width="0.5" stroke-linecap="round"><path d="M205.93926,173.58031l5.65125,1.59331" data-paper-data="{&quot;index&quot;:null}"/><path d="M208.13553,168.08004l5.11489,2.88324" data-paper-data="{&quot;index&quot;:null}"/><path d="M218.0809,162.92195l-4.40655,-3.8804" data-paper-data="{&quot;index&quot;:null}"/><path d="M215.53202,166.45547l-4.72487,-3.4858" data-paper-data="{&quot;index&quot;:null}"/></g><g data-paper-data="{&quot;index&quot;:null}" fill="none" stroke="#000000" stroke-width="0.5" stroke-linecap="round"><path d="M206.99431,185.91009l5.65125,-1.59331" data-paper-data="{&quot;index&quot;:null}"/><path d="M214.30547,188.52711l-5.11489,2.88324" data-paper-data="{&quot;index&quot;:null}"/><path d="M219.13594,196.56844l-4.40655,3.8804" data-paper-data="{&quot;index&quot;:null}"/><path d="M216.58707,193.03493l-4.72487,3.4858" data-paper-data="{&quot;index&quot;:null}"/></g><g data-paper-data="{&quot;index&quot;:null}" fill="none" stroke="#000000" stroke-width="0.5" stroke-linecap="round"><path d="M218.89337,205.7028l3.56188,-4.66779" data-paper-data="{&quot;index&quot;:null}"/><path d="M223.95261,208.78185l2.35836,-5.37711" data-paper-data="{&quot;index&quot;:null}"/><path d="M235.00252,206.93369l-1.19315,5.74905" data-paper-data="{&quot;index&quot;:null}"/><path d="M230.84244,205.63899l-1.68464,5.6247" data-paper-data="{&quot;index&quot;:null}"/></g><g data-paper-data="{&quot;index&quot;:null}" fill="none" stroke="#000000" stroke-width="0.5" stroke-linecap="round"><path d="M260.8282,205.65693l-3.56188,-4.66779" data-paper-data="{&quot;index&quot;:null}"/><path d="M253.4106,203.35887l2.35836,5.37712" data-paper-data="{&quot;index&quot;:null}"/><path d="M244.71906,206.88782l1.19314,5.74905" data-paper-data="{&quot;index&quot;:null}"/><path d="M248.87913,205.59312l1.68464,5.6247" data-paper-data="{&quot;index&quot;:null}"/></g><g data-paper-data="{&quot;index&quot;:null}" fill="none" stroke="#000000" stroke-width="0.5" stroke-linecap="round"><path d="M261.70088,197.20751l4.82459,3.34643" data-paper-data="{&quot;index&quot;:null}"/><path d="M263.89324,193.24824l5.47858,2.11197" data-paper-data="{&quot;index&quot;:null}"/><path d="M267.02422,184.40554l5.79726,0.93108" data-paper-data="{&quot;index&quot;:null}"/><path d="M265.9196,188.62007l5.69534,1.42771" data-paper-data="{&quot;index&quot;:null}"/></g></g></g></g></svg>