<svg version="1.1" xmlns="http://www.w3.org/2000/svg" xmlns:xlink="http://www.w3.org/1999/xlink" width="1570.74943" height="548.96902" viewBox="0,0,1570.74943,548.96902"><defs><linearGradient x1="-21.19184" y1="216.01346" x2="-21.19184" y2="340.89071" gradientUnits="userSpaceOnUse" id="color-1"><stop offset="0" stop-color="#ffffff"/><stop offset="1" stop-color="#b0a3b5"/></linearGradient><linearGradient x1="373.80815" y1="72.01346" x2="373.80815" y2="196.89071" gradientUnits="userSpaceOnUse" id="color-2"><stop offset="0" stop-color="#ffffff"/><stop offset="1" stop-color="#adb6ad"/></linearGradient><linearGradient x1="-38.19185" y1="-54.98654" x2="-38.19185" y2="69.89071" gradientUnits="userSpaceOnUse" id="color-3"><stop offset="0" stop-color="#ffffff"/><stop offset="1" stop-color="#adb6ad"/></linearGradient><linearGradient x1="165.80815" y1="28.01346" x2="165.80815" y2="152.89071" gradientUnits="userSpaceOnUse" id="color-4"><stop offset="0" stop-color="#ffffff"/><stop offset="1" stop-color="#b0a3b5"/></linearGradient><linearGradient x1="-25.19185" y1="89.01346" x2="-25.19185" y2="213.89071" gradientUnits="userSpaceOnUse" id="color-5"><stop offset="0" stop-color="#ffffff"/><stop offset="1" stop-color="#adb6ad"/></linearGradient><linearGradient x1="173.80815" y1="149.01346" x2="173.80815" y2="273.89071" gradientUnits="userSpaceOnUse" id="color-6"><stop offset="0" stop-color="#ffffff"/><stop offset="1" stop-color="#adb6ad"/></linearGradient><linearGradient x1="199.80815" y1="277.01346" x2="199.80815" y2="401.89071" gradientUnits="userSpaceOnUse" id="color-7"><stop offset="0" stop-color="#ffffff"/><stop offset="1" stop-color="#adb6ad"/></linearGradient><linearGradient x1="479.80816" y1="309.15408" x2="479.80816" y2="434.03133" gradientUnits="userSpaceOnUse" id="color-8"><stop offset="0" stop-color="#ffffff"/><stop offset="1" stop-color="#adb6ad"/></linearGradient><linearGradient x1="698.80816" y1="235.01346" x2="698.80816" y2="359.89071" gradientUnits="userSpaceOnUse" id="color-9"><stop offset="0" stop-color="#ffffff"/><stop offset="1" stop-color="#adb6ad"/></linearGradient><linearGradient x1="345.80816" y1="179.01346" x2="345.80816" y2="303.89071" gradientUnits="userSpaceOnUse" id="color-10"><stop offset="0" stop-color="#ffffff"/><stop offset="1" stop-color="#adb6ad"/></linearGradient><linearGradient x1="593.80816" y1="157.01346" x2="593.80816" y2="281.89071" gradientUnits="userSpaceOnUse" id="color-11"><stop offset="0" stop-color="#ffffff"/><stop offset="1" stop-color="#b5a3a3"/></linearGradient><linearGradient x1="1025.80815" y1="70.01346" x2="1025.80815" y2="194.89071" gradientUnits="userSpaceOnUse" id="color-12"><stop offset="0" stop-color="#ffffff"/><stop offset="1" stop-color="#adb6ad"/></linearGradient><linearGradient x1="573.80815" y1="-0.98654" x2="573.80815" y2="123.89071" gradientUnits="userSpaceOnUse" id="color-13"><stop offset="0" stop-color="#ffffff"/><stop offset="1" stop-color="#adb6ad"/></linearGradient><linearGradient x1="817.80816" y1="26.01346" x2="817.80816" y2="150.89071" gradientUnits="userSpaceOnUse" id="color-14"><stop offset="0" stop-color="#ffffff"/><stop offset="1" stop-color="#b5a3a3"/></linearGradient><linearGradient x1="626.80816" y1="87.01346" x2="626.80816" y2="211.89071" gradientUnits="userSpaceOnUse" id="color-15"><stop offset="0" stop-color="#ffffff"/><stop offset="1" stop-color="#adb6ad"/></linearGradient><linearGradient x1="818.80816" y1="118.01346" x2="818.80816" y2="242.89071" gradientUnits="userSpaceOnUse" id="color-16"><stop offset="0" stop-color="#ffffff"/><stop offset="1" stop-color="#adb6ad"/></linearGradient><linearGradient x1="966.80816" y1="-45.98654" x2="966.80816" y2="78.89071" gradientUnits="userSpaceOnUse" id="color-17"><stop offset="0" stop-color="#ffffff"/><stop offset="1" stop-color="#adb6ad"/></linearGradient><linearGradient x1="773.80816" y1="-68.98654" x2="773.80816" y2="55.89071" gradientUnits="userSpaceOnUse" id="color-18"><stop offset="0" stop-color="#ffffff"/><stop offset="1" stop-color="#adb6ad"/></linearGradient><linearGradient x1="1232.80816" y1="168.01346" x2="1232.80816" y2="292.89071" gradientUnits="userSpaceOnUse" id="color-19"><stop offset="0" stop-color="#ffffff"/><stop offset="1" stop-color="#adb6ad"/></linearGradient><linearGradient x1="997.80816" y1="177.01346" x2="997.80816" y2="301.89071" gradientUnits="userSpaceOnUse" id="color-20"><stop offset="0" stop-color="#ffffff"/><stop offset="1" stop-color="#adb6ad"/></linearGradient><linearGradient x1="574.30816" y1="-77.98654" x2="574.30816" y2="46.8907" gradientUnits="userSpaceOnUse" id="color-21"><stop offset="0" stop-color="#ffffff"/><stop offset="1" stop-color="#b0b5b1"/></linearGradient><linearGradient x1="294.80816" y1="-97.98654" x2="294.80816" y2="26.89071" gradientUnits="userSpaceOnUse" id="color-22"><stop offset="0" stop-color="#ffffff"/><stop offset="1" stop-color="#adb6ad"/></linearGradient></defs><g transform="translate(185.27411,114.93767)"><g data-paper-data="{&quot;isPaintingLayer&quot;:true}" fill-rule="nonzero" stroke="none" stroke-width="0" stroke-linecap="butt" stroke-linejoin="miter" stroke-miterlimit="10" stroke-dasharray="" stroke-dashoffset="0" style="mix-blend-mode: normal"><path d="M131.02687,278.45209c0,26.26944 -39.54927,39.93497 -95.55647,49.15452c-17.51349,2.88297 -36.63625,13.28411 -56.66224,13.28411c-16.97792,0 -31.25702,-13.58349 -45.70151,-14.444c-57.07901,-3.40049 -94.15428,-1.37602 -94.15428,-28.89574c0,-10.06558 -7.55843,-14.88739 -7.21513,-27.16624c0.20425,-7.30516 14.02287,-16.54799 23.07639,-20.19525c8.63114,-3.47709 17.57779,-1.57751 24.71177,-9.18646c1.94456,-2.07401 17.42004,3.06082 24.97216,-0.10324c6.19783,-2.59667 4.53639,-13.66069 7.15272,-14.38946c20.25641,-5.64231 30.68989,-19.3117 54.79497,-19.3117c4.30991,0 16.60176,-8.00384 27.05339,-8.13504c9.07649,-0.11393 16.38527,7.51522 20.60838,8.97212c21.08479,7.27397 18.51109,20.06555 33.77267,24.81169c5.01983,1.5611 20.2795,1.11691 30.55691,-2.27342c10.09048,-3.32865 26.02875,6.55744 29.82071,7.885c28.36831,9.9317 22.76958,21.47431 22.76958,39.99312z" fill="url(#color-1)"/><path d="M526.02687,134.45209c0,26.26944 -39.54927,39.93497 -95.55647,49.15452c-17.51349,2.88297 -36.63625,13.28411 -56.66224,13.28411c-16.97792,0 -31.25702,-13.58349 -45.70151,-14.444c-57.07901,-3.40049 -94.15428,-1.37602 -94.15428,-28.89574c0,-10.06558 -7.55843,-14.88739 -7.21513,-27.16624c0.20425,-7.30516 14.02287,-16.54799 23.07639,-20.19525c8.63114,-3.47709 17.57779,-1.57751 24.71177,-9.18646c1.94456,-2.07401 17.42004,3.06082 24.97216,-0.10324c6.19783,-2.59667 4.53639,-13.66069 7.15272,-14.38946c20.25641,-5.64231 30.68989,-19.3117 54.79497,-19.3117c4.30991,0 16.60176,-8.00384 27.05339,-8.13504c9.07649,-0.11393 16.38527,7.51522 20.60838,8.97212c21.08479,7.27397 18.51109,20.06555 33.77267,24.81169c5.01983,1.5611 20.2795,1.11691 30.55691,-2.27342c10.09048,-3.32865 26.02875,6.55744 29.82071,7.885c28.36831,9.9317 22.76958,21.47431 22.76958,39.99312z" fill="url(#color-2)"/><path d="M114.02687,7.45209c0,26.26944 -39.54927,39.93497 -95.55647,49.15452c-17.51349,2.88297 -36.63625,13.28411 -56.66224,13.28411c-16.97792,0 -31.25702,-13.58349 -45.70151,-14.444c-57.07901,-3.40049 -94.15428,-1.37602 -94.15428,-28.89574c0,-10.06558 -7.55843,-14.88739 -7.21513,-27.16624c0.20425,-7.30516 14.02287,-16.54799 23.07639,-20.19525c8.63114,-3.47709 17.57779,-1.57751 24.71177,-9.18646c1.94456,-2.07401 17.42004,3.06082 24.97216,-0.10324c6.19783,-2.59667 4.53639,-13.66069 7.15272,-14.38946c20.25641,-5.64231 30.68989,-19.3117 54.79497,-19.3117c4.30991,0 16.60176,-8.00384 27.05339,-8.13504c9.07649,-0.11393 16.38527,7.51522 20.60838,8.97212c21.08479,7.27397 18.51109,20.06555 33.77267,24.81169c5.01983,1.5611 20.2795,1.11691 30.55691,-2.27342c10.09048,-3.32865 26.02875,6.55744 29.82071,7.885c28.36831,9.9317 22.76958,21.47431 22.76958,39.99312z" fill="url(#color-3)"/><path d="M318.02687,90.45209c0,26.26944 -39.54927,39.93497 -95.55647,49.15452c-17.51349,2.88297 -36.63625,13.28411 -56.66224,13.28411c-16.97792,0 -31.25702,-13.58349 -45.70151,-14.444c-57.07901,-3.40049 -94.15428,-1.37602 -94.15428,-28.89574c0,-10.06558 -7.55843,-14.88739 -7.21513,-27.16624c0.20425,-7.30516 14.02287,-16.54799 23.07639,-20.19525c8.63114,-3.47709 17.57779,-1.57751 24.71177,-9.18646c1.94456,-2.07401 17.42004,3.06082 24.97216,-0.10324c6.19783,-2.59667 4.53639,-13.66069 7.15272,-14.38946c20.25641,-5.64231 30.68989,-19.3117 54.79497,-19.3117c4.30991,0 16.60176,-8.00384 27.05339,-8.13504c9.07649,-0.11393 16.38527,7.51522 20.60838,8.97212c21.08479,7.27397 18.51109,20.06555 33.77267,24.81169c5.01983,1.5611 20.2795,1.11691 30.55691,-2.27342c10.09048,-3.32865 26.02875,6.55744 29.82071,7.885c28.36831,9.9317 22.76958,21.47431 22.76958,39.99312z" fill="url(#color-4)"/><path d="M127.02687,151.45209c0,26.26944 -39.54927,39.93497 -95.55647,49.15452c-17.51349,2.88297 -36.63625,13.28411 -56.66224,13.28411c-16.97792,0 -31.25702,-13.58349 -45.70151,-14.444c-57.07901,-3.40049 -94.15428,-1.37602 -94.15428,-28.89574c0,-10.06558 -7.55843,-14.88739 -7.21513,-27.16624c0.20425,-7.30516 14.02287,-16.54799 23.07639,-20.19525c8.63114,-3.47709 17.57779,-1.57751 24.71177,-9.18646c1.94456,-2.07401 17.42004,3.06082 24.97216,-0.10324c6.19783,-2.59667 4.53639,-13.66069 7.15272,-14.38946c20.25641,-5.64231 30.68989,-19.3117 54.79497,-19.3117c4.30991,0 16.60176,-8.00384 27.05339,-8.13504c9.07649,-0.11393 16.38527,7.51522 20.60838,8.97212c21.08479,7.27397 18.51109,20.06555 33.77267,24.81169c5.01983,1.5611 20.2795,1.11691 30.55691,-2.27342c10.09048,-3.32865 26.02875,6.55744 29.82071,7.885c28.36831,9.9317 22.76958,21.47431 22.76958,39.99312z" fill="url(#color-5)"/><path d="M326.02687,211.45209c0,26.26944 -39.54927,39.93497 -95.55647,49.15452c-17.51349,2.88297 -36.63625,13.28411 -56.66224,13.28411c-16.97792,0 -31.25702,-13.58349 -45.70151,-14.444c-57.07901,-3.40049 -94.15428,-1.37602 -94.15428,-28.89574c0,-10.06558 -7.55843,-14.88739 -7.21513,-27.16624c0.20425,-7.30516 14.02287,-16.54799 23.07639,-20.19525c8.63114,-3.47709 17.57779,-1.57751 24.71177,-9.18646c1.94456,-2.07401 17.42004,3.06082 24.97216,-0.10324c6.19783,-2.59667 4.53639,-13.66069 7.15272,-14.38946c20.25641,-5.64231 30.68989,-19.3117 54.79497,-19.3117c4.30991,0 16.60176,-8.00384 27.05339,-8.13504c9.07649,-0.11393 16.38527,7.51522 20.60838,8.97212c21.08479,7.27397 18.51109,20.06555 33.77267,24.81169c5.01983,1.5611 20.2795,1.11691 30.55691,-2.27342c10.09048,-3.32865 26.02875,6.55744 29.82071,7.885c28.36831,9.9317 22.76958,21.47431 22.76958,39.99312z" fill="url(#color-6)"/><path d="M352.02687,339.45209c0,26.26944 -39.54927,39.93497 -95.55647,49.15452c-17.51349,2.88297 -36.63625,13.28411 -56.66224,13.28411c-16.97792,0 -31.25702,-13.58349 -45.70151,-14.444c-57.07901,-3.40049 -94.15428,-1.37602 -94.15428,-28.89574c0,-10.06558 -7.55843,-14.88739 -7.21513,-27.16624c0.20425,-7.30516 14.02287,-16.54799 23.07639,-20.19525c8.63114,-3.47709 17.57779,-1.57751 24.71177,-9.18646c1.94456,-2.07401 17.42004,3.06082 24.97216,-0.10324c6.19783,-2.59667 4.53639,-13.66069 7.15272,-14.38946c20.25641,-5.64231 30.68989,-19.3117 54.79497,-19.3117c4.30991,0 16.60176,-8.00384 27.05339,-8.13504c9.07649,-0.11393 16.38527,7.51522 20.60838,8.97212c21.08479,7.27397 18.51109,20.06555 33.77267,24.81169c5.01983,1.5611 20.2795,1.11691 30.55691,-2.27342c10.09048,-3.32865 26.02875,6.55744 29.82071,7.885c28.36831,9.9317 22.76958,21.47431 22.76958,39.99312z" fill="url(#color-7)"/><path d="M632.02688,371.59271c0,26.26944 -39.54927,39.93497 -95.55647,49.15452c-17.51349,2.88297 -36.63625,13.28411 -56.66224,13.28411c-16.97792,0 -31.25702,-13.58349 -45.70151,-14.444c-57.07901,-3.40049 -94.15428,-1.37602 -94.15428,-28.89574c0,-10.06558 -7.55843,-14.88739 -7.21513,-27.16624c0.20425,-7.30516 14.02287,-16.54799 23.07639,-20.19525c8.63114,-3.47709 17.57779,-1.57751 24.71177,-9.18646c1.94456,-2.07401 17.42004,3.06082 24.97216,-0.10324c6.19783,-2.59667 4.53639,-13.66069 7.15272,-14.38946c20.25641,-5.64231 30.68989,-19.3117 54.79497,-19.3117c4.30991,0 16.60176,-8.00384 27.05339,-8.13504c9.07649,-0.11393 16.38527,7.51522 20.60838,8.97212c21.08479,7.27397 18.51109,20.06555 33.77267,24.81169c5.01983,1.5611 20.2795,1.11691 30.55691,-2.27342c10.09048,-3.32865 26.02875,6.55744 29.82071,7.885c28.36831,9.9317 22.76958,21.47431 22.76958,39.99312z" fill="url(#color-8)"/><path d="M851.02688,297.45209c0,26.26944 -39.54927,39.93497 -95.55647,49.15452c-17.51349,2.88297 -36.63625,13.28411 -56.66224,13.28411c-16.97792,0 -31.25702,-13.58349 -45.70151,-14.444c-57.07901,-3.40049 -94.15428,-1.37602 -94.15428,-28.89574c0,-10.06558 -7.55843,-14.88739 -7.21513,-27.16624c0.20425,-7.30516 14.02287,-16.54799 23.07639,-20.19525c8.63114,-3.47709 17.57779,-1.57751 24.71177,-9.18646c1.94456,-2.07401 17.42004,3.06082 24.97216,-0.10324c6.19783,-2.59667 4.53639,-13.66069 7.15272,-14.38946c20.25641,-5.64231 30.68989,-19.3117 54.79497,-19.3117c4.30991,0 16.60176,-8.00384 27.05339,-8.13504c9.07649,-0.11393 16.38527,7.51522 20.60838,8.97212c21.08479,7.27397 18.51109,20.06555 33.77267,24.81169c5.01983,1.5611 20.2795,1.11691 30.55691,-2.27342c10.09048,-3.32865 26.02875,6.55744 29.82071,7.885c28.36831,9.9317 22.76958,21.47431 22.76958,39.99312z" fill="url(#color-9)"/><path d="M498.02688,241.45209c0,26.26944 -39.54927,39.93497 -95.55647,49.15452c-17.51349,2.88297 -36.63625,13.28411 -56.66224,13.28411c-16.97792,0 -31.25702,-13.58349 -45.70151,-14.444c-57.07901,-3.40049 -94.15428,-1.37602 -94.15428,-28.89574c0,-10.06558 -7.55843,-14.88739 -7.21513,-27.16624c0.20425,-7.30516 14.02287,-16.54799 23.07639,-20.19525c8.63114,-3.47709 17.57779,-1.57751 24.71177,-9.18646c1.94456,-2.07401 17.42004,3.06082 24.97216,-0.10324c6.19783,-2.59667 4.53639,-13.66069 7.15272,-14.38946c20.25641,-5.64231 30.68989,-19.3117 54.79497,-19.3117c4.30991,0 16.60176,-8.00384 27.05339,-8.13504c9.07649,-0.11393 16.38527,7.51522 20.60838,8.97212c21.08479,7.27397 18.51109,20.06555 33.77267,24.81169c5.01983,1.5611 20.2795,1.11691 30.55691,-2.27342c10.09048,-3.32865 26.02875,6.55744 29.82071,7.885c28.36831,9.9317 22.76958,21.47431 22.76958,39.99312z" fill="url(#color-10)"/><path d="M746.02688,219.45209c0,26.26944 -39.54927,39.93497 -95.55647,49.15452c-17.51349,2.88297 -36.63625,13.28411 -56.66224,13.28411c-16.97792,0 -31.25702,-13.58349 -45.70151,-14.444c-57.07901,-3.40049 -94.15428,-1.37602 -94.15428,-28.89574c0,-10.06558 -7.55843,-14.88739 -7.21513,-27.16624c0.20425,-7.30516 14.02287,-16.54799 23.07639,-20.19525c8.63114,-3.47709 17.57779,-1.57751 24.71177,-9.18646c1.94456,-2.07401 17.42004,3.06082 24.97216,-0.10324c6.19783,-2.59667 4.53639,-13.66069 7.15272,-14.38946c20.25641,-5.64231 30.68989,-19.3117 54.79497,-19.3117c4.30991,0 16.60176,-8.00384 27.05339,-8.13504c9.07649,-0.11393 16.38527,7.51522 20.60838,8.97212c21.08479,7.27397 18.51109,20.06555 33.77267,24.81169c5.01983,1.5611 20.2795,1.11691 30.55691,-2.27342c10.09048,-3.32865 26.02875,6.55744 29.82071,7.885c28.36831,9.9317 22.76958,21.47431 22.76958,39.99312z" fill="url(#color-11)"/><path d="M1178.02688,132.45209c0,26.26944 -39.54927,39.93497 -95.55647,49.15452c-17.51349,2.88297 -36.63625,13.28411 -56.66224,13.28411c-16.97792,0 -31.25702,-13.58349 -45.70151,-14.444c-57.07901,-3.40049 -94.15428,-1.37602 -94.15428,-28.89574c0,-10.06558 -7.55843,-14.88739 -7.21513,-27.16624c0.20425,-7.30516 14.02287,-16.54799 23.07639,-20.19525c8.63114,-3.47709 17.57779,-1.57751 24.71177,-9.18646c1.94456,-2.07401 17.42004,3.06082 24.97216,-0.10324c6.19783,-2.59667 4.53639,-13.66069 7.15272,-14.38946c20.25641,-5.64231 30.68989,-19.3117 54.79497,-19.3117c4.30991,0 16.60176,-8.00384 27.05339,-8.13504c9.07649,-0.11393 16.38527,7.51522 20.60838,8.97212c21.08479,7.27397 18.51109,20.06555 33.77267,24.81169c5.01983,1.5611 20.2795,1.11691 30.55691,-2.27342c10.09048,-3.32865 26.02875,6.55744 29.82071,7.885c28.36831,9.9317 22.76958,21.47431 22.76958,39.99312z" fill="url(#color-12)"/><path d="M726.02687,61.45209c0,26.26944 -39.54927,39.93497 -95.55647,49.15452c-17.51349,2.88297 -36.63625,13.28411 -56.66224,13.28411c-16.97792,0 -31.25702,-13.58349 -45.70151,-14.444c-57.07901,-3.40049 -94.15428,-1.37602 -94.15428,-28.89574c0,-10.06558 -7.55843,-14.88739 -7.21513,-27.16624c0.20425,-7.30516 14.02287,-16.54799 23.07639,-20.19525c8.63114,-3.47709 17.57779,-1.57751 24.71177,-9.18646c1.94456,-2.07401 17.42004,3.06082 24.97216,-0.10324c6.19783,-2.59667 4.53639,-13.66069 7.15272,-14.38946c20.25641,-5.64231 30.68989,-19.3117 54.79497,-19.3117c4.30991,0 16.60176,-8.00384 27.05339,-8.13504c9.07649,-0.11393 16.38527,7.51522 20.60838,8.97212c21.08479,7.27397 18.51109,20.06555 33.77267,24.81169c5.01983,1.5611 20.2795,1.11691 30.55691,-2.27342c10.09048,-3.32865 26.02875,6.55744 29.82071,7.885c28.36831,9.9317 22.76958,21.47431 22.76958,39.99312z" fill="url(#color-13)"/><path d="M970.02688,88.45209c0,26.26944 -39.54927,39.93497 -95.55647,49.15452c-17.51349,2.88297 -36.63625,13.28411 -56.66224,13.28411c-16.97792,0 -31.25702,-13.58349 -45.70151,-14.444c-57.07901,-3.40049 -94.15428,-1.37602 -94.15428,-28.89574c0,-10.06558 -7.55843,-14.88739 -7.21513,-27.16624c0.20425,-7.30516 14.02287,-16.54799 23.07639,-20.19525c8.63114,-3.47709 17.57779,-1.57751 24.71177,-9.18646c1.94456,-2.07401 17.42004,3.06082 24.97216,-0.10324c6.19783,-2.59667 4.53639,-13.66069 7.15272,-14.38946c20.25641,-5.64231 30.68989,-19.3117 54.79497,-19.3117c4.30991,0 16.60176,-8.00384 27.05339,-8.13504c9.07649,-0.11393 16.38527,7.51522 20.60838,8.97212c21.08479,7.27397 18.51109,20.06555 33.77267,24.81169c5.01983,1.5611 20.2795,1.11691 30.55691,-2.27342c10.09048,-3.32865 26.02875,6.55744 29.82071,7.885c28.36831,9.9317 22.76958,21.47431 22.76958,39.99312z" fill="url(#color-14)"/><path d="M779.02688,149.45209c0,26.26944 -39.54927,39.93497 -95.55647,49.15452c-17.51349,2.88297 -36.63625,13.28411 -56.66224,13.28411c-16.97792,0 -31.25702,-13.58349 -45.70151,-14.444c-57.07901,-3.40049 -94.15428,-1.37602 -94.15428,-28.89574c0,-10.06558 -7.55843,-14.88739 -7.21513,-27.16624c0.20425,-7.30516 14.02287,-16.54799 23.07639,-20.19525c8.63114,-3.47709 17.57779,-1.57751 24.71177,-9.18646c1.94456,-2.07401 17.42004,3.06082 24.97216,-0.10324c6.19783,-2.59667 4.53639,-13.66069 7.15272,-14.38946c20.25641,-5.64231 30.68989,-19.3117 54.79497,-19.3117c4.30991,0 16.60176,-8.00384 27.05339,-8.13504c9.07649,-0.11393 16.38527,7.51522 20.60838,8.97212c21.08479,7.27397 18.51109,20.06555 33.77267,24.81169c5.01983,1.5611 20.2795,1.11691 30.55691,-2.27342c10.09048,-3.32865 26.02875,6.55744 29.82071,7.885c28.36831,9.9317 22.76958,21.47431 22.76958,39.99312z" fill="url(#color-15)"/><path d="M971.02688,180.45209c0,26.26944 -39.54927,39.93497 -95.55647,49.15452c-17.51349,2.88297 -36.63625,13.28411 -56.66224,13.28411c-16.97792,0 -31.25702,-13.58349 -45.70151,-14.444c-57.07901,-3.40049 -94.15428,-1.37602 -94.15428,-28.89574c0,-10.06558 -7.55843,-14.88739 -7.21513,-27.16624c0.20425,-7.30516 14.02287,-16.54799 23.07639,-20.19525c8.63114,-3.47709 17.57779,-1.57751 24.71177,-9.18646c1.94456,-2.07401 17.42004,3.06082 24.97216,-0.10324c6.19783,-2.59667 4.53639,-13.66069 7.15272,-14.38946c20.25641,-5.64231 30.68989,-19.3117 54.79497,-19.3117c4.30991,0 16.60176,-8.00384 27.05339,-8.13504c9.07649,-0.11393 16.38527,7.51522 20.60838,8.97212c21.08479,7.27397 18.51109,20.06555 33.77267,24.81169c5.01983,1.5611 20.2795,1.11691 30.55691,-2.27342c10.09048,-3.32865 26.02875,6.55744 29.82071,7.885c28.36831,9.9317 22.76958,21.47431 22.76958,39.99312z" fill="url(#color-16)"/><path d="M1119.02688,16.45209c0,26.26944 -39.54927,39.93497 -95.55647,49.15452c-17.51349,2.88297 -36.63625,13.28411 -56.66224,13.28411c-16.97792,0 -31.25702,-13.58349 -45.70151,-14.444c-57.07901,-3.40049 -94.15428,-1.37602 -94.15428,-28.89574c0,-10.06558 -7.55843,-14.88739 -7.21513,-27.16624c0.20425,-7.30516 14.02287,-16.54799 23.07639,-20.19525c8.63114,-3.47709 17.57779,-1.57751 24.71177,-9.18646c1.94456,-2.07401 17.42004,3.06082 24.97216,-0.10324c6.19783,-2.59667 4.53639,-13.66069 7.15272,-14.38946c20.25641,-5.64231 30.68989,-19.3117 54.79497,-19.3117c4.30991,0 16.60176,-8.00384 27.05339,-8.13504c9.07649,-0.11393 16.38527,7.51522 20.60838,8.97212c21.08479,7.27397 18.51109,20.06555 33.77267,24.81169c5.01983,1.5611 20.2795,1.11691 30.55691,-2.27342c10.09048,-3.32865 26.02875,6.55744 29.82071,7.885c28.36831,9.9317 22.76958,21.47431 22.76958,39.99312z" fill="url(#color-17)"/><path d="M926.02688,-6.54791c0,26.26944 -39.54927,39.93497 -95.55647,49.15452c-17.51349,2.88297 -36.63625,13.28411 -56.66224,13.28411c-16.97792,0 -31.25702,-13.58349 -45.70151,-14.444c-57.07901,-3.40049 -94.15428,-1.37602 -94.15428,-28.89574c0,-10.06558 -7.55843,-14.88739 -7.21513,-27.16624c0.20425,-7.30516 14.02287,-16.54799 23.07639,-20.19525c8.63114,-3.47709 17.57779,-1.57751 24.71177,-9.18646c1.94456,-2.07401 17.42004,3.06082 24.97216,-0.10324c6.19783,-2.59667 4.53639,-13.66069 7.15272,-14.38946c20.25641,-5.64231 30.68989,-19.3117 54.79497,-19.3117c4.30991,0 16.60176,-8.00384 27.05339,-8.13504c9.07649,-0.11393 16.38527,7.51522 20.60838,8.97212c21.08479,7.27397 18.51109,20.06555 33.77267,24.81169c5.01983,1.5611 20.2795,1.11691 30.55691,-2.27342c10.09048,-3.32865 26.02875,6.55744 29.82071,7.885c28.36831,9.9317 22.76958,21.47431 22.76958,39.99312z" fill="url(#color-18)"/><path d="M1385.02688,230.45209c0,26.26944 -39.54927,39.93497 -95.55647,49.15452c-17.51349,2.88297 -36.63625,13.28411 -56.66224,13.28411c-16.97792,0 -31.25702,-13.58349 -45.70151,-14.444c-57.07901,-3.40049 -94.15428,-1.37602 -94.15428,-28.89574c0,-10.06558 -7.55843,-14.88739 -7.21513,-27.16624c0.20425,-7.30516 14.02287,-16.54799 23.07639,-20.19525c8.63114,-3.47709 17.57779,-1.57751 24.71177,-9.18646c1.94456,-2.07401 17.42004,3.06082 24.97216,-0.10324c6.19783,-2.59667 4.53639,-13.66069 7.15272,-14.38946c20.25641,-5.64231 30.68989,-19.3117 54.79497,-19.3117c4.30991,0 16.60176,-8.00384 27.05339,-8.13504c9.07649,-0.11393 16.38527,7.51522 20.60838,8.97212c21.08479,7.27397 18.51109,20.06555 33.77267,24.81169c5.01983,1.5611 20.2795,1.11691 30.55691,-2.27342c10.09048,-3.32865 26.02875,6.55744 29.82071,7.885c28.36831,9.9317 22.76958,21.47431 22.76958,39.99312z" fill="url(#color-19)"/><path d="M1150.02688,239.45209c0,26.26944 -39.54927,39.93497 -95.55647,49.15452c-17.51349,2.88297 -36.63625,13.28411 -56.66224,13.28411c-16.97792,0 -31.25702,-13.58349 -45.70151,-14.444c-57.07901,-3.40049 -94.15428,-1.37602 -94.15428,-28.89574c0,-10.06558 -7.55843,-14.88739 -7.21513,-27.16624c0.20425,-7.30516 14.02287,-16.54799 23.07639,-20.19525c8.63114,-3.47709 17.57779,-1.57751 24.71177,-9.18646c1.94456,-2.07401 17.42004,3.06082 24.97216,-0.10324c6.19783,-2.59667 4.53639,-13.66069 7.15272,-14.38946c20.25641,-5.64231 30.68989,-19.3117 54.79497,-19.3117c4.30991,0 16.60176,-8.00384 27.05339,-8.13504c9.07649,-0.11393 16.38527,7.51522 20.60838,8.97212c21.08479,7.27397 18.51109,20.06555 33.77267,24.81169c5.01983,1.5611 20.2795,1.11691 30.55691,-2.27342c10.09048,-3.32865 26.02875,6.55744 29.82071,7.885c28.36831,9.9317 22.76958,21.47431 22.76958,39.99312z" fill="url(#color-20)"/><path d="M726.52688,-15.54791c0,26.26944 -39.54927,39.93497 -95.55647,49.15452c-17.51349,2.88297 -36.63625,13.28411 -56.66224,13.28411c-16.97792,0 -31.25702,-13.58349 -45.70151,-14.444c-57.07901,-3.40049 -94.15428,-1.37602 -94.15428,-28.89574c0,-10.06558 -7.55843,-14.88739 -7.21513,-27.16624c0.20425,-7.30516 14.02287,-16.54799 23.07639,-20.19525c8.63114,-3.47709 17.57779,-1.57751 24.71177,-9.18646c1.94456,-2.07401 17.42004,3.06082 24.97216,-0.10324c6.19783,-2.59667 4.53639,-13.66069 7.15272,-14.38946c20.25641,-5.64231 30.68989,-19.3117 54.79497,-19.3117c4.30991,0 16.60176,-8.00384 27.05339,-8.13504c9.07649,-0.11393 16.38527,7.51522 20.60838,8.97212c21.08479,7.27397 18.51109,20.06555 33.77267,24.81169c5.01983,1.5611 20.2795,1.11691 30.55691,-2.27342c10.09048,-3.32865 26.02875,6.55744 29.82071,7.885c28.36831,9.9317 22.76958,21.47431 22.76958,39.99312z" fill="url(#color-21)"/><path d="M447.02689,-35.54791c0,26.26944 -39.54927,39.93497 -95.55647,49.15452c-17.51349,2.88297 -36.63625,13.28411 -56.66224,13.28411c-16.97792,0 -31.25702,-13.58349 -45.70151,-14.444c-57.07901,-3.40049 -94.15428,-1.37602 -94.15428,-28.89574c0,-10.06558 -7.55843,-14.88739 -7.21513,-27.16624c0.20425,-7.30516 14.02287,-16.54799 23.07639,-20.19525c8.63114,-3.47709 17.57779,-1.57751 24.71177,-9.18646c1.94456,-2.07401 17.42004,3.06082 24.97216,-0.10324c6.19783,-2.59667 4.53639,-13.66069 7.15272,-14.38946c20.25641,-5.64231 30.68989,-19.3117 54.79497,-19.3117c4.30991,0 16.60176,-8.00384 27.05339,-8.13504c9.07649,-0.11393 16.38527,7.51522 20.60838,8.97212c21.08479,7.27397 18.51109,20.06555 33.77267,24.81169c5.01983,1.5611 20.2795,1.11691 30.55691,-2.27342c10.09048,-3.32865 26.02875,6.55744 29.82071,7.885c28.36831,9.9317 22.76958,21.47431 22.76958,39.99312z" fill="url(#color-22)"/></g></g></svg>