<svg version="1.1" xmlns="http://www.w3.org/2000/svg" xmlns:xlink="http://www.w3.org/1999/xlink" width="56.79739" height="32.77976" viewBox="0,0,56.79739,32.77976"><g transform="translate(-213.04099,-162.62454)"><g data-paper-data="{&quot;isPaintingLayer&quot;:true}" fill-rule="nonzero" stroke-linejoin="miter" stroke-miterlimit="10" stroke-dasharray="" stroke-dashoffset="0" style="mix-blend-mode: normal"><path d="M213.35134,194.97916v-32h55.79065v32z" fill="#2146b5" stroke="none" stroke-width="NaN" stroke-linecap="butt"/><text transform="translate(220.47,186.25) scale(0.48825,0.5)" font-size="40" xml:space="preserve" fill="#51d9ff" fill-rule="nonzero" stroke="none" stroke-width="1" stroke-linecap="butt" stroke-linejoin="miter" stroke-miterlimit="10" stroke-dasharray="" stroke-dashoffset="0" font-family="Sans Serif" font-weight="normal" text-anchor="start" style="mix-blend-mode: normal"><tspan x="0" dy="0">退出</tspan></text><path d="M269.41822,170.40437c0,0 -0.7687,-3.41502 -2.20946,-5.27658c-1.30617,-1.68766 -4.53716,-2.12825 -4.53716,-2.12825l6.91117,0.16455z" data-paper-data="{&quot;index&quot;:null}" fill="#aff8fc" stroke="#aff8fc" stroke-width="0.5" stroke-linecap="round"/><path d="M213.2966,163.0391l6.91118,-0.16456c0,0 -3.231,0.44058 -4.53717,2.12824c-1.44076,1.86157 -2.20945,5.27659 -2.20945,5.27659z" data-paper-data="{&quot;index&quot;:null}" fill="#aff8fc" stroke="#aff8fc" stroke-width="0.5" stroke-linecap="round"/><path d="M213.46116,187.62454c0,0 0.7687,3.41502 2.20946,5.27659c1.30616,1.68766 4.53716,2.12824 4.53716,2.12824l-6.91117,-0.16456z" data-paper-data="{&quot;index&quot;:null}" fill="#aff8fc" stroke="#aff8fc" stroke-width="0.5" stroke-linecap="round"/><path d="M269.20777,194.98982l-6.91117,0.16456c0,0 3.231,-0.44058 4.53717,-2.12824c1.44076,-1.86157 2.20945,-5.27659 2.20945,-5.27659z" data-paper-data="{&quot;index&quot;:null}" fill="#aff8fc" stroke="#aff8fc" stroke-width="0.5" stroke-linecap="round"/></g></g></svg>