<svg version="1.1" xmlns="http://www.w3.org/2000/svg" xmlns:xlink="http://www.w3.org/1999/xlink" width="81.58418" height="104.02365" viewBox="0,0,81.58418,104.02365"><defs><linearGradient x1="241.05386" y1="128.24356" x2="241.05386" y2="228.24356" gradientUnits="userSpaceOnUse" id="color-1"><stop offset="0" stop-color="#66d7ff"/><stop offset="1" stop-color="#1464ff"/></linearGradient><radialGradient cx="241.45466" cy="158.8592" r="30.77121" gradientTransform="translate(-285.20712,-239.01133) scale(1.35437,1.55989)" gradientUnits="userSpaceOnUse" id="color-2"><stop offset="0" stop-color="#275389"/><stop offset="1" stop-color="#104974"/></radialGradient><linearGradient x1="274.82777" y1="195.84688" x2="274.82777" y2="220.27464" gradientUnits="userSpaceOnUse" id="color-3"><stop offset="0" stop-color="#efefef"/><stop offset="1" stop-color="#ffffff"/></linearGradient><linearGradient x1="233.91549" y1="194.04167" x2="233.91549" y2="215.20396" gradientUnits="userSpaceOnUse" id="color-4"><stop offset="0" stop-color="#d8d8d8"/><stop offset="1" stop-color="#b0b0b0"/></linearGradient></defs><g transform="translate(-201.60709,-125.33645)"><g data-paper-data="{&quot;isPaintingLayer&quot;:true}" fill-rule="nonzero" stroke-linejoin="miter" stroke-miterlimit="10" stroke-dasharray="" stroke-dashoffset="0" style="mix-blend-mode: normal"><path d="M207.55386,228.24356v-100h67v100z" fill="url(#color-1)" stroke="none" stroke-width="0" stroke-linecap="butt"/><path d="M274.66133,228.90426l-8.64868,0.20592c0,0 4.04329,-0.55135 5.67783,-2.6633c1.80297,-2.32957 2.76493,-6.60314 2.76493,-6.60314z" data-paper-data="{&quot;index&quot;:null}" fill="#affbe1" stroke="#b0fecf" stroke-width="0.5" stroke-linecap="round"/><text transform="translate(210.58268,153.223) scale(0.73835,0.64107)" font-size="40" xml:space="preserve" fill="url(#color-2)" fill-rule="nonzero" stroke="none" stroke-width="1" stroke-linecap="butt" stroke-linejoin="miter" stroke-miterlimit="10" stroke-dasharray="" stroke-dashoffset="0" font-family="Sans Serif" font-weight="normal" text-anchor="start" style="mix-blend-mode: normal"><tspan x="0" dy="0">短途</tspan><tspan x="0" dy="48px">航行</tspan></text><path d="M273.45218,220.27464c0,0 -0.23209,-3.64592 -1.69742,-4.80543c-1.3388,-1.05938 -4.42425,-1.18089 -4.42425,-1.18089l-0.11626,-18.42672c0,0 7.53063,-0.43099 12.77636,3.3723c0.66565,0.48261 0.86393,0.32185 1.17395,1.27781c2.80314,8.64364 0.11625,19.76294 0.11625,19.76294h-7.82864z" fill="url(#color-3)" stroke="#000000" stroke-width="1.5" stroke-linecap="butt"/><path d="M281.62957,208.76564l-1.86005,-0.34876l-0.46501,-5.81263l1.86005,-0.93002" fill="none" stroke="#000000" stroke-width="1.5" stroke-linecap="round"/><path d="M271.42288,220.34478c0,2.13066 -1.64753,3.85791 -3.67985,3.85791c-2.03232,0 -3.67984,-1.72724 -3.67984,-3.85791c0,-2.13066 1.64753,-3.85791 3.67984,-3.85791c2.03232,0 3.67985,1.72724 3.67985,3.85791z" fill="none" stroke="#000000" stroke-width="1.5" stroke-linecap="butt"/><path d="M207.03096,214.38257c-5.62617,-1.55211 -5.37267,-9.70745 -3.38719,-14.69607c0.65099,-1.63564 3.20756,-3.81789 3.38719,-4.5233c0.33471,-1.31438 54.133,-1.99848 55.27324,0.98201c0.36615,0.9571 2.23825,2.67246 2.64891,4.68251c1.14818,5.61989 0.45463,13.53598 -2.64891,13.55486c-6.53366,0.03974 -48.64661,1.82811 -55.27324,0z" fill="url(#color-4)" stroke="#000000" stroke-width="1.5" stroke-linecap="butt"/><path d="M214.87423,220.61252c0,2.13066 -1.64753,3.8579 -3.67985,3.8579c-2.03232,0 -3.67984,-1.72724 -3.67984,-3.8579c0,-2.13066 1.64753,-3.85791 3.67984,-3.85791c2.03232,0 3.67985,1.72724 3.67985,3.85791z" fill="none" stroke="#000000" stroke-width="1.5" stroke-linecap="butt"/><path d="M224.54122,220.59969c0,2.13066 -1.64753,3.85791 -3.67984,3.85791c-2.03232,0 -3.67984,-1.72724 -3.67984,-3.85791c0,-2.13066 1.64753,-3.85791 3.67984,-3.85791c2.03232,0 3.67984,1.72724 3.67984,3.85791z" fill="none" stroke="#000000" stroke-width="1.5" stroke-linecap="butt"/><path d="M213.30631,215.78545l-2.2446,4.4892v-5.19064" fill="none" stroke="#000000" stroke-width="1.5" stroke-linecap="round"/><path d="M222.56527,215.64516l-1.68345,4.62949l-0.28057,-4.76978" fill="none" stroke="#000000" stroke-width="1.5" stroke-linecap="round"/><path d="M262.12632,220.27465c0,0 1.40325,-3.97507 2.6115,-4.78057c0.99446,-0.66297 3.28056,-1.11151 3.28056,-1.11151l-0.14028,5.19063l3.22661,-3.78775" fill="none" stroke="#000000" stroke-width="1.5" stroke-linecap="round"/><path d="M267.59752,213.96171l-5.19063,0.70143h-0.98201" fill="none" stroke="#000000" stroke-width="1.5" stroke-linecap="round"/><path d="M257.07597,219.99407l-9.11868,0.42087l-0.14029,-3.64747l8.97839,-0.42086z" fill="none" stroke="#000000" stroke-width="1.5" stroke-linecap="round"/><path d="M250.48246,216.76746v-1.40287" fill="none" stroke="#000000" stroke-width="1.5" stroke-linecap="round"/><path d="M254.27022,214.52286v1.54316" fill="none" stroke="#000000" stroke-width="1.5" stroke-linecap="round"/><path d="M248.65872,216.76746c0,0 -15.94371,0.45634 -20.34509,0.12392c-2.60495,-0.19675 -3.36347,-1.66708 -3.36347,-1.66708" fill="none" stroke="#000000" stroke-width="1.5" stroke-linecap="round"/><path d="M256.65511,216.06602l7.29494,0.14029" fill="none" stroke="#000000" stroke-width="1.5" stroke-linecap="round"/><path d="M216.09201,207.94939l-8.81806,0.40082l4.40904,-7.01437z" fill="none" stroke="#ff0000" stroke-width="1.5" stroke-linecap="round"/><text transform="translate(210.21998,208.06964) scale(0.16049,0.16049)" font-size="40" xml:space="preserve" fill="#d6ff00" fill-rule="nonzero" stroke="none" stroke-width="1" stroke-linecap="butt" stroke-linejoin="miter" stroke-miterlimit="10" stroke-dasharray="" stroke-dashoffset="0" font-family="Sans Serif" font-weight="normal" text-anchor="start" style="mix-blend-mode: normal"><tspan x="0" dy="0">！</tspan></text><text transform="translate(222.65798,207.29988) scale(0.25153,0.25153)" font-size="40" xml:space="preserve" fill="#ffffff" fill-rule="nonzero" stroke="none" stroke-width="1" stroke-linecap="butt" stroke-linejoin="miter" stroke-miterlimit="10" stroke-dasharray="" stroke-dashoffset="0" font-family="Sans Serif" font-weight="normal" text-anchor="start" style="mix-blend-mode: normal"><tspan x="0" dy="0">中国航油</tspan></text><path d="M206.19515,219.35037c0,0 0.96196,4.27357 2.76493,6.60314c1.63454,2.11195 5.67783,2.6633 5.67783,2.6633l-8.64868,-0.20592z" data-paper-data="{&quot;index&quot;:null}" fill="#b0fecf" stroke="#affbe1" stroke-width="0.5" stroke-linecap="round"/><path d="M207.01194,128.10384l8.64868,-0.20592c0,0 -4.04329,0.55135 -5.67783,2.6633c-1.80297,2.32957 -2.76493,6.60314 -2.76493,6.60314z" fill="#b0fecf" stroke="#b0fecf" stroke-width="0.5" stroke-linecap="round"/><path d="M274.75296,137.05922c0,0 -0.96196,-4.27357 -2.76493,-6.60314c-1.63454,-2.11195 -5.67783,-2.6633 -5.67783,-2.6633l8.64868,0.20592z" data-paper-data="{&quot;index&quot;:null}" fill="#b0fecf" stroke="#b0fecf" stroke-width="0.5" stroke-linecap="round"/></g></g></svg>