<svg version="1.1" xmlns="http://www.w3.org/2000/svg" xmlns:xlink="http://www.w3.org/1999/xlink" width="2733.85429" height="469.41242" viewBox="0,0,2733.85429,469.41242"><defs><linearGradient x1="684.66947" y1="-109.73604" x2="684.66947" y2="267.20108" gradientUnits="userSpaceOnUse" id="color-1"><stop offset="0" stop-color="#52d4ff"/><stop offset="1" stop-color="#b9e3f0"/></linearGradient><linearGradient x1="1586.73564" y1="293.56856" x2="1586.73564" y2="263.74046" gradientUnits="userSpaceOnUse" id="color-2"><stop offset="0" stop-color="#76f091" stop-opacity="0"/><stop offset="1" stop-color="#76f091"/></linearGradient><linearGradient x1="1586.73567" y1="273.45973" x2="1586.73567" y2="303.28783" gradientUnits="userSpaceOnUse" id="color-3"><stop offset="0" stop-color="#51f073" stop-opacity="0"/><stop offset="1" stop-color="#51f073"/></linearGradient><linearGradient x1="1586.73564" y1="294.43931" x2="1586.73564" y2="264.61121" gradientUnits="userSpaceOnUse" id="color-4"><stop offset="0" stop-color="#76f091" stop-opacity="0"/><stop offset="1" stop-color="#76f091"/></linearGradient><linearGradient x1="1586.73567" y1="274.33047" x2="1586.73567" y2="304.15858" gradientUnits="userSpaceOnUse" id="color-5"><stop offset="0" stop-color="#51f073" stop-opacity="0"/><stop offset="1" stop-color="#51f073"/></linearGradient><linearGradient x1="2270.22848" y1="293.56856" x2="2270.22848" y2="263.74046" gradientUnits="userSpaceOnUse" id="color-6"><stop offset="0" stop-color="#76f091" stop-opacity="0"/><stop offset="1" stop-color="#76f091"/></linearGradient><linearGradient x1="2270.22851" y1="273.45973" x2="2270.22851" y2="303.28783" gradientUnits="userSpaceOnUse" id="color-7"><stop offset="0" stop-color="#51f073" stop-opacity="0"/><stop offset="1" stop-color="#51f073"/></linearGradient><linearGradient x1="2270.22848" y1="294.43931" x2="2270.22848" y2="264.61121" gradientUnits="userSpaceOnUse" id="color-8"><stop offset="0" stop-color="#76f091" stop-opacity="0"/><stop offset="1" stop-color="#76f091"/></linearGradient><linearGradient x1="2270.22851" y1="274.33047" x2="2270.22851" y2="304.15858" gradientUnits="userSpaceOnUse" id="color-9"><stop offset="0" stop-color="#51f073" stop-opacity="0"/><stop offset="1" stop-color="#51f073"/></linearGradient><linearGradient x1="220.73565" y1="293.56856" x2="220.73565" y2="263.74046" gradientUnits="userSpaceOnUse" id="color-10"><stop offset="0" stop-color="#76f091" stop-opacity="0"/><stop offset="1" stop-color="#76f091"/></linearGradient><linearGradient x1="220.73568" y1="273.45973" x2="220.73568" y2="303.28783" gradientUnits="userSpaceOnUse" id="color-11"><stop offset="0" stop-color="#51f073" stop-opacity="0"/><stop offset="1" stop-color="#51f073"/></linearGradient><linearGradient x1="220.73565" y1="294.43931" x2="220.73565" y2="264.61121" gradientUnits="userSpaceOnUse" id="color-12"><stop offset="0" stop-color="#76f091" stop-opacity="0"/><stop offset="1" stop-color="#76f091"/></linearGradient><linearGradient x1="220.73568" y1="274.33047" x2="220.73568" y2="304.15858" gradientUnits="userSpaceOnUse" id="color-13"><stop offset="0" stop-color="#51f073" stop-opacity="0"/><stop offset="1" stop-color="#51f073"/></linearGradient><linearGradient x1="904.22848" y1="293.56856" x2="904.22848" y2="263.74046" gradientUnits="userSpaceOnUse" id="color-14"><stop offset="0" stop-color="#76f091" stop-opacity="0"/><stop offset="1" stop-color="#76f091"/></linearGradient><linearGradient x1="904.22851" y1="273.45973" x2="904.22851" y2="303.28783" gradientUnits="userSpaceOnUse" id="color-15"><stop offset="0" stop-color="#51f073" stop-opacity="0"/><stop offset="1" stop-color="#51f073"/></linearGradient><linearGradient x1="904.22848" y1="294.43931" x2="904.22848" y2="264.61121" gradientUnits="userSpaceOnUse" id="color-16"><stop offset="0" stop-color="#76f091" stop-opacity="0"/><stop offset="1" stop-color="#76f091"/></linearGradient><linearGradient x1="904.22851" y1="274.33047" x2="904.22851" y2="304.15858" gradientUnits="userSpaceOnUse" id="color-17"><stop offset="0" stop-color="#51f073" stop-opacity="0"/><stop offset="1" stop-color="#51f073"/></linearGradient><linearGradient x1="-23.10932" y1="245.24191" x2="-23.10932" y2="261.38645" gradientUnits="userSpaceOnUse" id="color-18"><stop offset="0" stop-color="#ffffff"/><stop offset="1" stop-color="#a1c6d1"/></linearGradient><linearGradient x1="143.51218" y1="1.97407" x2="143.51218" y2="26.96284" gradientUnits="userSpaceOnUse" id="color-19"><stop offset="0" stop-color="#efefef"/><stop offset="1" stop-color="#abb4ab"/></linearGradient><linearGradient x1="455.65504" y1="65.54549" x2="455.65504" y2="90.53426" gradientUnits="userSpaceOnUse" id="color-20"><stop offset="0" stop-color="#efefef"/><stop offset="1" stop-color="#abb4ab"/></linearGradient><linearGradient x1="297.7979" y1="-23.74022" x2="297.7979" y2="1.24855" gradientUnits="userSpaceOnUse" id="color-21"><stop offset="0" stop-color="#efefef"/><stop offset="1" stop-color="#abb4ab"/></linearGradient><linearGradient x1="158.51218" y1="16.97407" x2="158.51218" y2="41.96284" gradientUnits="userSpaceOnUse" id="color-22"><stop offset="0" stop-color="#efefef"/><stop offset="1" stop-color="#abb4ab"/></linearGradient><linearGradient x1="472.08361" y1="34.83121" x2="472.08361" y2="59.81998" gradientUnits="userSpaceOnUse" id="color-23"><stop offset="0" stop-color="#efefef"/><stop offset="1" stop-color="#abb4ab"/></linearGradient><linearGradient x1="597.7979" y1="28.40264" x2="597.7979" y2="53.39141" gradientUnits="userSpaceOnUse" id="color-24"><stop offset="0" stop-color="#efefef"/><stop offset="1" stop-color="#abb4ab"/></linearGradient></defs><g transform="translate(121.59694,109.73605)"><g data-paper-data="{&quot;isPaintingLayer&quot;:true}" fill-rule="nonzero" stroke-linejoin="miter" stroke-miterlimit="10" stroke-dasharray="" stroke-dashoffset="0" style="mix-blend-mode: normal"><path d="M-120.01434,267.20108v-376.93713h1609.36766v376.93713z" fill="url(#color-1)" stroke="none" stroke-width="0" stroke-linecap="butt"/><g stroke="#888888" stroke-width="0"><g><g><path d="M1524.99194,359.38858v-54.10132h279.65231v54.10132z" fill="#888888" stroke-linecap="butt"/><path d="M1236.64951,359.26084v-56.0846h594.46999v56.0846z" fill="#888888" stroke-linecap="butt"/><path d="M1517.77618,323.74123l45.41811,0.85875l-6.26457,6.87l-45.41811,-0.85874z" fill="#ffffff" stroke-linecap="round"/><path d="M1635.74241,324.16668l45.41813,0.85875l-6.26458,6.87001l-45.41811,-0.85875z" fill="#ffffff" stroke-linecap="round"/><path d="M1748.95492,324.5922l45.41811,0.85875l-6.26455,6.87001l-45.41813,-0.85875z" fill="#ffffff" stroke-linecap="round"/><path d="M1408.66165,323.07683l45.41811,0.85875l-6.26457,6.87001l-45.41812,-0.85875z" fill="#ffffff" stroke-linecap="round"/><path d="M1295.02593,322.41243l45.41811,0.85875l-6.26457,6.87001l-45.41811,-0.85875z" fill="#ffffff" stroke-linecap="round"/></g><g><path d="M1072.78697,359.56456v-54.10132h279.65231v54.10132z" fill="#888888" stroke-linecap="butt"/><path d="M784.44454,359.43683v-56.0846h594.46999v56.0846z" fill="#888888" stroke-linecap="butt"/><path d="M1065.57121,323.9172l45.41811,0.85875l-6.26457,6.87l-45.41811,-0.85874z" fill="#ffffff" stroke-linecap="round"/><path d="M1183.53744,324.34265l45.41813,0.85875l-6.26458,6.87001l-45.41811,-0.85875z" fill="#ffffff" stroke-linecap="round"/><path d="M1296.74995,324.76818l45.41811,0.85875l-6.26455,6.87001l-45.41813,-0.85875z" fill="#ffffff" stroke-linecap="round"/><path d="M956.45668,323.2528l45.41811,0.85875l-6.26457,6.87001l-45.41812,-0.85875z" fill="#ffffff" stroke-linecap="round"/><path d="M842.82096,322.58842l45.41811,0.85875l-6.26457,6.87001l-45.41811,-0.85875z" fill="#ffffff" stroke-linecap="round"/></g></g><g><g><path d="M618.95046,359.50037v-54.10132h279.65231v54.10132z" fill="#888888" stroke-linecap="butt"/><path d="M330.60803,359.37265v-56.0846h594.46999v56.0846z" fill="#888888" stroke-linecap="butt"/><path d="M611.7347,323.85301l45.41811,0.85875l-6.26457,6.87l-45.41811,-0.85874z" fill="#ffffff" stroke-linecap="round"/><path d="M729.70093,324.27849l45.41813,0.85875l-6.26458,6.87001l-45.41811,-0.85875z" fill="#ffffff" stroke-linecap="round"/><path d="M842.91344,324.70399l45.41811,0.85875l-6.26455,6.87001l-45.41813,-0.85875z" fill="#ffffff" stroke-linecap="round"/><path d="M502.62017,323.18861l45.41811,0.85875l-6.26457,6.87001l-45.41812,-0.85875z" fill="#ffffff" stroke-linecap="round"/><path d="M388.98445,322.52423l45.41811,0.85875l-6.26457,6.87001l-45.41811,-0.85875z" fill="#ffffff" stroke-linecap="round"/></g><g><path d="M166.74549,359.67637v-54.10132h279.65231v54.10132z" fill="#888888" stroke-linecap="butt"/><path d="M-121.59694,359.54863v-56.0846h594.46999v56.0846z" fill="#888888" stroke-linecap="butt"/><path d="M159.52973,324.02903l45.41811,0.85875l-6.26457,6.87l-45.41811,-0.85874z" fill="#ffffff" stroke-linecap="round"/><path d="M277.49596,324.45446l45.41813,0.85875l-6.26458,6.87001l-45.41811,-0.85875z" fill="#ffffff" stroke-linecap="round"/><path d="M390.70847,324.87998l45.41811,0.85875l-6.26455,6.87001l-45.41813,-0.85875z" fill="#ffffff" stroke-linecap="round"/><path d="M50.4152,323.36463l45.41811,0.85875l-6.26457,6.87001l-45.41812,-0.85875z" fill="#ffffff" stroke-linecap="round"/><path d="M-63.22052,322.70023l45.41811,0.85875l-6.26457,6.87001l-45.41811,-0.85875z" fill="#ffffff" stroke-linecap="round"/></g></g></g><g stroke="none" stroke-width="0" stroke-linecap="butt"><g><g><g><path d="M1928.7645,263.74046v29.82809h-684.0577v-29.82809z" data-paper-data="{&quot;index&quot;:null}" fill="url(#color-2)"/><path d="M1244.70683,303.28783v-29.8281h684.05769v29.8281z" data-paper-data="{&quot;index&quot;:null}" fill="url(#color-3)"/></g><g><path d="M1928.7645,264.61121v29.82809h-684.0577v-29.82809z" data-paper-data="{&quot;index&quot;:null}" fill="url(#color-4)"/><path d="M1244.70683,304.15858v-29.8281h684.05769v29.8281z" data-paper-data="{&quot;index&quot;:null}" fill="url(#color-5)"/></g></g><g><g><path d="M2612.25734,263.74046v29.82809h-684.0577v-29.82809z" data-paper-data="{&quot;index&quot;:null}" fill="url(#color-6)"/><path d="M1928.19966,303.28783v-29.8281h684.05769v29.8281z" data-paper-data="{&quot;index&quot;:null}" fill="url(#color-7)"/></g><g><path d="M2612.25734,264.61121v29.82809h-684.0577v-29.82809z" data-paper-data="{&quot;index&quot;:null}" fill="url(#color-8)"/><path d="M1928.19966,304.15858v-29.8281h684.05769v29.8281z" data-paper-data="{&quot;index&quot;:null}" fill="url(#color-9)"/></g></g></g><g><g><g><path d="M562.76451,263.74046v29.82809h-684.0577v-29.82809z" data-paper-data="{&quot;index&quot;:null}" fill="url(#color-10)"/><path d="M-121.29317,303.28783v-29.8281h684.05769v29.8281z" data-paper-data="{&quot;index&quot;:null}" fill="url(#color-11)"/></g><g><path d="M562.76451,264.61121v29.82809h-684.0577v-29.82809z" data-paper-data="{&quot;index&quot;:null}" fill="url(#color-12)"/><path d="M-121.29317,304.15858v-29.8281h684.05769v29.8281z" data-paper-data="{&quot;index&quot;:null}" fill="url(#color-13)"/></g></g><g><g><path d="M1246.25734,263.74046v29.82809h-684.0577v-29.82809z" data-paper-data="{&quot;index&quot;:null}" fill="url(#color-14)"/><path d="M562.19966,303.28783v-29.8281h684.05769v29.8281z" data-paper-data="{&quot;index&quot;:null}" fill="url(#color-15)"/></g><g><path d="M1246.25734,264.61121v29.82809h-684.0577v-29.82809z" data-paper-data="{&quot;index&quot;:null}" fill="url(#color-16)"/><path d="M562.19966,304.15858v-29.8281h684.05769v29.8281z" data-paper-data="{&quot;index&quot;:null}" fill="url(#color-17)"/></g></g></g></g><path d="M-38.20079,303.92945l14.60628,-42.32816l21.90936,43.50394z" fill="#888888" stroke="#888888" stroke-width="0" stroke-linecap="round"/><g><path d="M-2.18698,261.38645l-41.52767,-0.1585l-1.10952,-12.99721c0,0 5.20751,-2.69454 9.66865,-2.69454c2.62125,0 7.3123,2.50916 12.3629,2.36686c3.66263,-0.1032 7.51435,-2.95342 10.90291,-2.63657c6.05643,0.56632 10.49523,2.96425 10.49523,2.96425z" fill="url(#color-18)" stroke="#000000" stroke-width="1.5" stroke-linecap="round"/><text transform="translate(-34.04599,251.87629) scale(0.10033,0.10033)" font-size="40" xml:space="preserve" fill="#c3c3c3" fill-rule="nonzero" stroke="none" stroke-width="1" stroke-linecap="butt" stroke-linejoin="miter" stroke-miterlimit="10" stroke-dasharray="" stroke-dashoffset="0" font-family="Sans Serif" font-weight="normal" text-anchor="start" style="mix-blend-mode: normal"><tspan x="0" dy="0">GITBLOCK</tspan></text><path d="M-44.66566,261.70346v-13.78972h1.74353v13.78972z" fill="#000000" stroke="#000000" stroke-width="0.5" stroke-linecap="butt"/><path d="M-3.40269,261.59726v-13.78972h1.74353v13.78972z" fill="#000000" stroke="#000000" stroke-width="0.5" stroke-linecap="butt"/><path d="M-2.18698,252.0348h-41.05216" fill="none" stroke="#000000" stroke-width="0.5" stroke-linecap="round"/><path d="M-43.55614,254.88784l40.73516,0.1585" fill="none" stroke="#000000" stroke-width="0.5" stroke-linecap="round"/><path d="M-2.66248,256.94838l-41.05216,0.1585" fill="none" stroke="#000000" stroke-width="0.5" stroke-linecap="round"/><path d="M-42.60513,261.54495l5.38909,-4.27957l6.1816,4.27957l6.65711,-4.43807l7.44962,4.43807l6.3401,-4.59657l7.44962,4.27957" fill="none" stroke="#000000" stroke-width="0.5" stroke-linecap="round"/></g><path d="M561.12476,267.67223l2.35155,10.94977l39.9766,5.47488l54.08598,22.99451l-49.38284,2.18995l-15.28518,-10.94977l-37.62505,-8.75981l-27.04299,6.56986l-24.69142,14.23471l-64.66802,-2.18994l70.54693,-18.6146l42.32816,-10.94978v-10.94977z" fill="#888888" stroke="#888888" stroke-width="0" stroke-linecap="round"/><path d="M1448.31971,265.58695h-1567.86727" fill="none" stroke="#888888" stroke-width="2.5" stroke-linecap="round"/><path d="M173.97217,14.46846c0,5.25669 -7.91407,7.99125 -19.12148,9.83615c-3.50456,0.5769 -7.33115,2.65824 -11.33849,2.65824c-3.39739,0 -6.25474,-2.71815 -9.14518,-2.89034c-11.42189,-0.68046 -18.84089,-0.27535 -18.84089,-5.78223c0,-2.01419 -1.51249,-2.97906 -1.4438,-5.43614c0.04087,-1.46181 2.80606,-3.31136 4.61774,-4.0412c1.72715,-0.69579 3.51743,-0.31567 4.94499,-1.83827c0.38912,-0.41503 3.48587,0.61249 4.9971,-0.02066c1.24023,-0.51961 0.90776,-2.73359 1.4313,-2.87942c4.05344,-1.12906 6.14126,-3.8644 10.96484,-3.8644c0.86244,0 3.32212,-1.60162 5.41356,-1.62788c1.81627,-0.0228 3.27881,1.50384 4.12388,1.79538c4.2192,1.45557 3.70419,4.01524 6.75813,4.96498c1.0045,0.31239 4.05806,0.2235 6.11464,-0.45493c2.01917,-0.66609 5.20853,1.31218 5.96732,1.57784c5.67669,1.9874 4.55635,4.29716 4.55635,8.00289z" fill="url(#color-19)" stroke="none" stroke-width="0" stroke-linecap="butt"/><path d="M486.11502,78.03988c0,5.25669 -7.91407,7.99125 -19.12148,9.83615c-3.50456,0.5769 -7.33115,2.65824 -11.33849,2.65824c-3.39739,0 -6.25474,-2.71815 -9.14518,-2.89034c-11.42189,-0.68046 -18.84089,-0.27535 -18.84089,-5.78223c0,-2.01419 -1.51249,-2.97906 -1.4438,-5.43614c0.04087,-1.46181 2.80606,-3.31136 4.61774,-4.0412c1.72715,-0.69579 3.51743,-0.31567 4.94499,-1.83827c0.38912,-0.41503 3.48587,0.61249 4.9971,-0.02066c1.24023,-0.51961 0.90776,-2.73359 1.4313,-2.87942c4.05344,-1.12906 6.14126,-3.8644 10.96484,-3.8644c0.86244,0 3.32212,-1.60162 5.41356,-1.62788c1.81627,-0.0228 3.27881,1.50384 4.12388,1.79538c4.2192,1.45557 3.70419,4.01524 6.75813,4.96498c1.0045,0.31239 4.05806,0.2235 6.11464,-0.45493c2.01917,-0.66609 5.20853,1.31218 5.96732,1.57784c5.67669,1.9874 4.55635,4.29716 4.55635,8.00289z" fill="url(#color-20)" stroke="none" stroke-width="0" stroke-linecap="butt"/><path d="M328.25788,-11.24583c0,5.25669 -7.91407,7.99125 -19.12148,9.83615c-3.50456,0.5769 -7.33115,2.65824 -11.33849,2.65824c-3.39739,0 -6.25474,-2.71815 -9.14518,-2.89034c-11.42189,-0.68046 -18.84089,-0.27535 -18.84089,-5.78223c0,-2.01419 -1.51249,-2.97906 -1.4438,-5.43614c0.04087,-1.46181 2.80606,-3.31136 4.61774,-4.0412c1.72715,-0.69579 3.51743,-0.31567 4.94499,-1.83827c0.38912,-0.41503 3.48587,0.61249 4.9971,-0.02066c1.24023,-0.51961 0.90776,-2.73359 1.4313,-2.87942c4.05344,-1.12906 6.14126,-3.8644 10.96484,-3.8644c0.86244,0 3.32212,-1.60162 5.41356,-1.62788c1.81627,-0.0228 3.27881,1.50384 4.12388,1.79538c4.2192,1.45557 3.70419,4.01524 6.75813,4.96498c1.0045,0.31239 4.05806,0.2235 6.11464,-0.45493c2.01917,-0.66609 5.20853,1.31218 5.96732,1.57784c5.67669,1.9874 4.55635,4.29716 4.55635,8.00289z" fill="url(#color-21)" stroke="none" stroke-width="0" stroke-linecap="butt"/><path d="M188.97217,29.46846c0,5.25669 -7.91407,7.99125 -19.12148,9.83615c-3.50456,0.5769 -7.33115,2.65824 -11.33849,2.65824c-3.39739,0 -6.25474,-2.71815 -9.14518,-2.89034c-11.42189,-0.68046 -18.84089,-0.27535 -18.84089,-5.78223c0,-2.01419 -1.51249,-2.97906 -1.4438,-5.43614c0.04087,-1.46181 2.80606,-3.31136 4.61774,-4.0412c1.72715,-0.69579 3.51743,-0.31567 4.94499,-1.83827c0.38912,-0.41503 3.48587,0.61249 4.9971,-0.02066c1.24023,-0.51961 0.90776,-2.73359 1.4313,-2.87942c4.05344,-1.12906 6.14126,-3.8644 10.96484,-3.8644c0.86244,0 3.32212,-1.60162 5.41356,-1.62788c1.81627,-0.0228 3.27881,1.50384 4.12388,1.79538c4.2192,1.45557 3.70419,4.01524 6.75813,4.96498c1.0045,0.31239 4.05806,0.2235 6.11464,-0.45493c2.01917,-0.66609 5.20853,1.31218 5.96732,1.57784c5.67669,1.9874 4.55635,4.29716 4.55635,8.00289z" fill="url(#color-22)" stroke="none" stroke-width="0" stroke-linecap="butt"/><path d="M502.54359,47.3256c0,5.25669 -7.91407,7.99125 -19.12148,9.83615c-3.50456,0.5769 -7.33115,2.65824 -11.33849,2.65824c-3.39739,0 -6.25474,-2.71815 -9.14518,-2.89034c-11.42189,-0.68046 -18.84089,-0.27535 -18.84089,-5.78223c0,-2.01419 -1.51249,-2.97906 -1.4438,-5.43614c0.04087,-1.46181 2.80606,-3.31136 4.61774,-4.0412c1.72715,-0.69579 3.51743,-0.31567 4.94499,-1.83827c0.38912,-0.41503 3.48587,0.61249 4.9971,-0.02066c1.24023,-0.51961 0.90776,-2.73359 1.4313,-2.87942c4.05344,-1.12906 6.14126,-3.8644 10.96484,-3.8644c0.86244,0 3.32212,-1.60162 5.41356,-1.62788c1.81627,-0.0228 3.27881,1.50384 4.12388,1.79538c4.2192,1.45557 3.70419,4.01524 6.75813,4.96498c1.0045,0.31239 4.05806,0.2235 6.11464,-0.45493c2.01917,-0.66609 5.20853,1.31218 5.96732,1.57784c5.67669,1.9874 4.55635,4.29716 4.55635,8.00289z" fill="url(#color-23)" stroke="none" stroke-width="0" stroke-linecap="butt"/><path d="M628.25788,40.89703c0,5.25669 -7.91407,7.99125 -19.12148,9.83615c-3.50456,0.5769 -7.33115,2.65824 -11.33849,2.65824c-3.39739,0 -6.25474,-2.71815 -9.14518,-2.89034c-11.42189,-0.68046 -18.84089,-0.27535 -18.84089,-5.78223c0,-2.01419 -1.51249,-2.97906 -1.4438,-5.43614c0.04087,-1.46181 2.80606,-3.31136 4.61774,-4.0412c1.72715,-0.69579 3.51743,-0.31567 4.94499,-1.83827c0.38912,-0.41503 3.48587,0.61249 4.9971,-0.02066c1.24023,-0.51961 0.90776,-2.73359 1.4313,-2.87942c4.05344,-1.12906 6.14126,-3.8644 10.96484,-3.8644c0.86244,0 3.32212,-1.60162 5.41356,-1.62788c1.81627,-0.0228 3.27881,1.50384 4.12388,1.79538c4.2192,1.45557 3.70419,4.01524 6.75813,4.96498c1.0045,0.31239 4.05806,0.2235 6.11464,-0.45493c2.01917,-0.66609 5.20853,1.31218 5.96732,1.57784c5.67669,1.9874 4.55635,4.29716 4.55635,8.00289z" fill="url(#color-24)" stroke="none" stroke-width="0" stroke-linecap="butt"/></g></g></svg>