<svg version="1.1" xmlns="http://www.w3.org/2000/svg" xmlns:xlink="http://www.w3.org/1999/xlink" width="1599.74943" height="463.82839" viewBox="0,0,1599.74943,463.82839"><defs><linearGradient x1="17.80816" y1="238.01346" x2="17.80816" y2="362.89071" gradientUnits="userSpaceOnUse" id="color-1"><stop offset="0" stop-color="#ffffff"/><stop offset="1" stop-color="#b5a3a3"/></linearGradient><linearGradient x1="449.80815" y1="151.01346" x2="449.80815" y2="275.89071" gradientUnits="userSpaceOnUse" id="color-2"><stop offset="0" stop-color="#ffffff"/><stop offset="1" stop-color="#adb6ad"/></linearGradient><linearGradient x1="8.80815" y1="28.01346" x2="8.80815" y2="152.89071" gradientUnits="userSpaceOnUse" id="color-3"><stop offset="0" stop-color="#ffffff"/><stop offset="1" stop-color="#adb6ad"/></linearGradient><linearGradient x1="222.80815" y1="85.01346" x2="222.80815" y2="209.89071" gradientUnits="userSpaceOnUse" id="color-4"><stop offset="0" stop-color="#ffffff"/><stop offset="1" stop-color="#b5a3a3"/></linearGradient><linearGradient x1="50.80815" y1="168.01346" x2="50.80815" y2="292.89071" gradientUnits="userSpaceOnUse" id="color-5"><stop offset="0" stop-color="#ffffff"/><stop offset="1" stop-color="#adb6ad"/></linearGradient><linearGradient x1="242.80815" y1="199.01346" x2="242.80815" y2="323.89071" gradientUnits="userSpaceOnUse" id="color-6"><stop offset="0" stop-color="#ffffff"/><stop offset="1" stop-color="#adb6ad"/></linearGradient><linearGradient x1="390.80815" y1="35.01346" x2="390.80815" y2="159.89071" gradientUnits="userSpaceOnUse" id="color-7"><stop offset="0" stop-color="#ffffff"/><stop offset="1" stop-color="#adb6ad"/></linearGradient><linearGradient x1="199.80816" y1="-63.98654" x2="199.80816" y2="60.89071" gradientUnits="userSpaceOnUse" id="color-8"><stop offset="0" stop-color="#ffffff"/><stop offset="1" stop-color="#adb6ad"/></linearGradient><linearGradient x1="656.80816" y1="249.01346" x2="656.80816" y2="373.89071" gradientUnits="userSpaceOnUse" id="color-9"><stop offset="0" stop-color="#ffffff"/><stop offset="1" stop-color="#adb6ad"/></linearGradient><linearGradient x1="421.80816" y1="258.01346" x2="421.80816" y2="382.89071" gradientUnits="userSpaceOnUse" id="color-10"><stop offset="0" stop-color="#ffffff"/><stop offset="1" stop-color="#adb6ad"/></linearGradient><linearGradient x1="669.80816" y1="236.01346" x2="669.80816" y2="360.89071" gradientUnits="userSpaceOnUse" id="color-11"><stop offset="0" stop-color="#ffffff"/><stop offset="1" stop-color="#b5a3a3"/></linearGradient><linearGradient x1="1101.80815" y1="149.01346" x2="1101.80815" y2="273.89071" gradientUnits="userSpaceOnUse" id="color-12"><stop offset="0" stop-color="#ffffff"/><stop offset="1" stop-color="#adb6ad"/></linearGradient><linearGradient x1="649.80815" y1="78.01346" x2="649.80815" y2="202.89071" gradientUnits="userSpaceOnUse" id="color-13"><stop offset="0" stop-color="#ffffff"/><stop offset="1" stop-color="#adb6ad"/></linearGradient><linearGradient x1="893.80816" y1="105.01346" x2="893.80816" y2="229.89071" gradientUnits="userSpaceOnUse" id="color-14"><stop offset="0" stop-color="#ffffff"/><stop offset="1" stop-color="#b5a3a3"/></linearGradient><linearGradient x1="702.80816" y1="166.01346" x2="702.80816" y2="290.89071" gradientUnits="userSpaceOnUse" id="color-15"><stop offset="0" stop-color="#ffffff"/><stop offset="1" stop-color="#adb6ad"/></linearGradient><linearGradient x1="894.80816" y1="197.01346" x2="894.80816" y2="321.89071" gradientUnits="userSpaceOnUse" id="color-16"><stop offset="0" stop-color="#ffffff"/><stop offset="1" stop-color="#adb6ad"/></linearGradient><linearGradient x1="1042.80816" y1="33.01346" x2="1042.80816" y2="157.89071" gradientUnits="userSpaceOnUse" id="color-17"><stop offset="0" stop-color="#ffffff"/><stop offset="1" stop-color="#adb6ad"/></linearGradient><linearGradient x1="849.80816" y1="10.01346" x2="849.80816" y2="134.89071" gradientUnits="userSpaceOnUse" id="color-18"><stop offset="0" stop-color="#ffffff"/><stop offset="1" stop-color="#adb6ad"/></linearGradient><linearGradient x1="1308.80816" y1="247.01346" x2="1308.80816" y2="371.89071" gradientUnits="userSpaceOnUse" id="color-19"><stop offset="0" stop-color="#ffffff"/><stop offset="1" stop-color="#adb6ad"/></linearGradient><linearGradient x1="1073.80816" y1="256.01346" x2="1073.80816" y2="380.89071" gradientUnits="userSpaceOnUse" id="color-20"><stop offset="0" stop-color="#ffffff"/><stop offset="1" stop-color="#adb6ad"/></linearGradient><linearGradient x1="652.30815" y1="-5.98654" x2="652.30815" y2="118.89071" gradientUnits="userSpaceOnUse" id="color-21"><stop offset="0" stop-color="#ffffff"/><stop offset="1" stop-color="#adb6ad"/></linearGradient></defs><g transform="translate(138.27411,80.93768)"><g data-paper-data="{&quot;isPaintingLayer&quot;:true}" fill-rule="nonzero" stroke="none" stroke-width="0" stroke-linecap="butt" stroke-linejoin="miter" stroke-miterlimit="10" stroke-dasharray="" stroke-dashoffset="0" style="mix-blend-mode: normal"><path d="M170.02688,300.45209c0,26.26944 -39.54927,39.93497 -95.55647,49.15452c-17.51349,2.88297 -36.63625,13.28411 -56.66224,13.28411c-16.97792,0 -31.25702,-13.58349 -45.70151,-14.444c-57.07901,-3.40049 -94.15428,-1.37602 -94.15428,-28.89574c0,-10.06558 -7.55843,-14.88739 -7.21513,-27.16624c0.20425,-7.30516 14.02287,-16.54799 23.07639,-20.19525c8.63114,-3.47709 17.57779,-1.57751 24.71177,-9.18646c1.94456,-2.07401 17.42004,3.06082 24.97216,-0.10324c6.19783,-2.59667 4.53639,-13.66069 7.15272,-14.38946c20.25641,-5.64231 30.68989,-19.3117 54.79497,-19.3117c4.30991,0 16.60176,-8.00384 27.05339,-8.13504c9.07649,-0.11393 16.38527,7.51522 20.60838,8.97212c21.08479,7.27397 18.51109,20.06555 33.77267,24.81169c5.01983,1.5611 20.2795,1.11691 30.55691,-2.27342c10.09048,-3.32865 26.02875,6.55744 29.82071,7.885c28.36831,9.9317 22.76958,21.47431 22.76958,39.99312z" fill="url(#color-1)"/><path d="M602.02687,213.45209c0,26.26944 -39.54927,39.93497 -95.55647,49.15452c-17.51349,2.88297 -36.63625,13.28411 -56.66224,13.28411c-16.97792,0 -31.25702,-13.58349 -45.70151,-14.444c-57.07901,-3.40049 -94.15428,-1.37602 -94.15428,-28.89574c0,-10.06558 -7.55843,-14.88739 -7.21513,-27.16624c0.20425,-7.30516 14.02287,-16.54799 23.07639,-20.19525c8.63114,-3.47709 17.57779,-1.57751 24.71177,-9.18646c1.94456,-2.07401 17.42004,3.06082 24.97216,-0.10324c6.19783,-2.59667 4.53639,-13.66069 7.15272,-14.38946c20.25641,-5.64231 30.68989,-19.3117 54.79497,-19.3117c4.30991,0 16.60176,-8.00384 27.05339,-8.13504c9.07649,-0.11393 16.38527,7.51522 20.60838,8.97212c21.08479,7.27397 18.51109,20.06555 33.77267,24.81169c5.01983,1.5611 20.2795,1.11691 30.55691,-2.27342c10.09048,-3.32865 26.02875,6.55744 29.82071,7.885c28.36831,9.9317 22.76958,21.47431 22.76958,39.99312z" fill="url(#color-2)"/><path d="M161.02687,90.45209c0,26.26944 -39.54927,39.93497 -95.55647,49.15452c-17.51349,2.88297 -36.63625,13.28411 -56.66224,13.28411c-16.97792,0 -31.25702,-13.58349 -45.70151,-14.444c-57.07901,-3.40049 -94.15428,-1.37602 -94.15428,-28.89574c0,-10.06558 -7.55843,-14.88739 -7.21513,-27.16624c0.20425,-7.30516 14.02287,-16.54799 23.07639,-20.19525c8.63114,-3.47709 17.57779,-1.57751 24.71177,-9.18646c1.94456,-2.07401 17.42004,3.06082 24.97216,-0.10324c6.19783,-2.59667 4.53639,-13.66069 7.15272,-14.38946c20.25641,-5.64231 30.68989,-19.3117 54.79497,-19.3117c4.30991,0 16.60176,-8.00384 27.05339,-8.13504c9.07649,-0.11393 16.38527,7.51522 20.60838,8.97212c21.08479,7.27397 18.51109,20.06555 33.77267,24.81169c5.01983,1.5611 20.2795,1.11691 30.55691,-2.27342c10.09048,-3.32865 26.02875,6.55744 29.82071,7.885c28.36831,9.9317 22.76958,21.47431 22.76958,39.99312z" fill="url(#color-3)"/><path d="M375.02687,147.45209c0,26.26944 -39.54927,39.93497 -95.55647,49.15452c-17.51349,2.88297 -36.63625,13.28411 -56.66224,13.28411c-16.97792,0 -31.25702,-13.58349 -45.70151,-14.444c-57.07901,-3.40049 -94.15428,-1.37602 -94.15428,-28.89574c0,-10.06558 -7.55843,-14.88739 -7.21513,-27.16624c0.20425,-7.30516 14.02287,-16.54799 23.07639,-20.19525c8.63114,-3.47709 17.57779,-1.57751 24.71177,-9.18646c1.94456,-2.07401 17.42004,3.06082 24.97216,-0.10324c6.19783,-2.59667 4.53639,-13.66069 7.15272,-14.38946c20.25641,-5.64231 30.68989,-19.3117 54.79497,-19.3117c4.30991,0 16.60176,-8.00384 27.05339,-8.13504c9.07649,-0.11393 16.38527,7.51522 20.60838,8.97212c21.08479,7.27397 18.51109,20.06555 33.77267,24.81169c5.01983,1.5611 20.2795,1.11691 30.55691,-2.27342c10.09048,-3.32865 26.02875,6.55744 29.82071,7.885c28.36831,9.9317 22.76958,21.47431 22.76958,39.99312z" fill="url(#color-4)"/><path d="M203.02687,230.45209c0,26.26944 -39.54927,39.93497 -95.55647,49.15452c-17.51349,2.88297 -36.63625,13.28411 -56.66224,13.28411c-16.97792,0 -31.25702,-13.58349 -45.70151,-14.444c-57.07901,-3.40049 -94.15428,-1.37602 -94.15428,-28.89574c0,-10.06558 -7.55843,-14.88739 -7.21513,-27.16624c0.20425,-7.30516 14.02287,-16.54799 23.07639,-20.19525c8.63114,-3.47709 17.57779,-1.57751 24.71177,-9.18646c1.94456,-2.07401 17.42004,3.06082 24.97216,-0.10324c6.19783,-2.59667 4.53639,-13.66069 7.15272,-14.38946c20.25641,-5.64231 30.68989,-19.3117 54.79497,-19.3117c4.30991,0 16.60176,-8.00384 27.05339,-8.13504c9.07649,-0.11393 16.38527,7.51522 20.60838,8.97212c21.08479,7.27397 18.51109,20.06555 33.77267,24.81169c5.01983,1.5611 20.2795,1.11691 30.55691,-2.27342c10.09048,-3.32865 26.02875,6.55744 29.82071,7.885c28.36831,9.9317 22.76958,21.47431 22.76958,39.99312z" fill="url(#color-5)"/><path d="M395.02687,261.45209c0,26.26944 -39.54927,39.93497 -95.55647,49.15452c-17.51349,2.88297 -36.63625,13.28411 -56.66224,13.28411c-16.97792,0 -31.25702,-13.58349 -45.70151,-14.444c-57.07901,-3.40049 -94.15428,-1.37602 -94.15428,-28.89574c0,-10.06558 -7.55843,-14.88739 -7.21513,-27.16624c0.20425,-7.30516 14.02287,-16.54799 23.07639,-20.19525c8.63114,-3.47709 17.57779,-1.57751 24.71177,-9.18646c1.94456,-2.07401 17.42004,3.06082 24.97216,-0.10324c6.19783,-2.59667 4.53639,-13.66069 7.15272,-14.38946c20.25641,-5.64231 30.68989,-19.3117 54.79497,-19.3117c4.30991,0 16.60176,-8.00384 27.05339,-8.13504c9.07649,-0.11393 16.38527,7.51522 20.60838,8.97212c21.08479,7.27397 18.51109,20.06555 33.77267,24.81169c5.01983,1.5611 20.2795,1.11691 30.55691,-2.27342c10.09048,-3.32865 26.02875,6.55744 29.82071,7.885c28.36831,9.9317 22.76958,21.47431 22.76958,39.99312z" fill="url(#color-6)"/><path d="M543.02687,97.45209c0,26.26944 -39.54927,39.93497 -95.55647,49.15452c-17.51349,2.88297 -36.63625,13.28411 -56.66224,13.28411c-16.97792,0 -31.25702,-13.58349 -45.70151,-14.444c-57.07901,-3.40049 -94.15428,-1.37602 -94.15428,-28.89574c0,-10.06558 -7.55843,-14.88739 -7.21513,-27.16624c0.20425,-7.30516 14.02287,-16.54799 23.07639,-20.19525c8.63114,-3.47709 17.57779,-1.57751 24.71177,-9.18646c1.94456,-2.07401 17.42004,3.06082 24.97216,-0.10324c6.19783,-2.59667 4.53639,-13.66069 7.15272,-14.38946c20.25641,-5.64231 30.68989,-19.3117 54.79497,-19.3117c4.30991,0 16.60176,-8.00384 27.05339,-8.13504c9.07649,-0.11393 16.38527,7.51522 20.60838,8.97212c21.08479,7.27397 18.51109,20.06555 33.77267,24.81169c5.01983,1.5611 20.2795,1.11691 30.55691,-2.27342c10.09048,-3.32865 26.02875,6.55744 29.82071,7.885c28.36831,9.9317 22.76958,21.47431 22.76958,39.99312z" fill="url(#color-7)"/><path d="M352.02688,-1.54791c0,26.26944 -39.54927,39.93497 -95.55647,49.15452c-17.51349,2.88297 -36.63625,13.28411 -56.66224,13.28411c-16.97792,0 -31.25702,-13.58349 -45.70151,-14.444c-57.07901,-3.40049 -94.15428,-1.37602 -94.15428,-28.89574c0,-10.06558 -7.55843,-14.88739 -7.21513,-27.16624c0.20425,-7.30516 14.02287,-16.54799 23.07639,-20.19525c8.63114,-3.47709 17.57779,-1.57751 24.71177,-9.18646c1.94456,-2.07401 17.42004,3.06082 24.97216,-0.10324c6.19783,-2.59667 4.53639,-13.66069 7.15272,-14.38946c20.25641,-5.64231 30.68989,-19.3117 54.79497,-19.3117c4.30991,0 16.60176,-8.00384 27.05339,-8.13504c9.07649,-0.11393 16.38527,7.51522 20.60838,8.97212c21.08479,7.27397 18.51109,20.06555 33.77267,24.81169c5.01983,1.5611 20.2795,1.11691 30.55691,-2.27342c10.09048,-3.32865 26.02875,6.55744 29.82071,7.885c28.36831,9.9317 22.76958,21.47431 22.76958,39.99312z" fill="url(#color-8)"/><path d="M809.02688,311.45209c0,26.26944 -39.54927,39.93497 -95.55647,49.15452c-17.51349,2.88297 -36.63625,13.28411 -56.66224,13.28411c-16.97792,0 -31.25702,-13.58349 -45.70151,-14.444c-57.07901,-3.40049 -94.15428,-1.37602 -94.15428,-28.89574c0,-10.06558 -7.55843,-14.88739 -7.21513,-27.16624c0.20425,-7.30516 14.02287,-16.54799 23.07639,-20.19525c8.63114,-3.47709 17.57779,-1.57751 24.71177,-9.18646c1.94456,-2.07401 17.42004,3.06082 24.97216,-0.10324c6.19783,-2.59667 4.53639,-13.66069 7.15272,-14.38946c20.25641,-5.64231 30.68989,-19.3117 54.79497,-19.3117c4.30991,0 16.60176,-8.00384 27.05339,-8.13504c9.07649,-0.11393 16.38527,7.51522 20.60838,8.97212c21.08479,7.27397 18.51109,20.06555 33.77267,24.81169c5.01983,1.5611 20.2795,1.11691 30.55691,-2.27342c10.09048,-3.32865 26.02875,6.55744 29.82071,7.885c28.36831,9.9317 22.76958,21.47431 22.76958,39.99312z" fill="url(#color-9)"/><path d="M574.02688,320.45209c0,26.26944 -39.54927,39.93497 -95.55647,49.15452c-17.51349,2.88297 -36.63625,13.28411 -56.66224,13.28411c-16.97792,0 -31.25702,-13.58349 -45.70151,-14.444c-57.07901,-3.40049 -94.15428,-1.37602 -94.15428,-28.89574c0,-10.06558 -7.55843,-14.88739 -7.21513,-27.16624c0.20425,-7.30516 14.02287,-16.54799 23.07639,-20.19525c8.63114,-3.47709 17.57779,-1.57751 24.71177,-9.18646c1.94456,-2.07401 17.42004,3.06082 24.97216,-0.10324c6.19783,-2.59667 4.53639,-13.66069 7.15272,-14.38946c20.25641,-5.64231 30.68989,-19.3117 54.79497,-19.3117c4.30991,0 16.60176,-8.00384 27.05339,-8.13504c9.07649,-0.11393 16.38527,7.51522 20.60838,8.97212c21.08479,7.27397 18.51109,20.06555 33.77267,24.81169c5.01983,1.5611 20.2795,1.11691 30.55691,-2.27342c10.09048,-3.32865 26.02875,6.55744 29.82071,7.885c28.36831,9.9317 22.76958,21.47431 22.76958,39.99312z" fill="url(#color-10)"/><path d="M822.02688,298.45209c0,26.26944 -39.54927,39.93497 -95.55647,49.15452c-17.51349,2.88297 -36.63625,13.28411 -56.66224,13.28411c-16.97792,0 -31.25702,-13.58349 -45.70151,-14.444c-57.07901,-3.40049 -94.15428,-1.37602 -94.15428,-28.89574c0,-10.06558 -7.55843,-14.88739 -7.21513,-27.16624c0.20425,-7.30516 14.02287,-16.54799 23.07639,-20.19525c8.63114,-3.47709 17.57779,-1.57751 24.71177,-9.18646c1.94456,-2.07401 17.42004,3.06082 24.97216,-0.10324c6.19783,-2.59667 4.53639,-13.66069 7.15272,-14.38946c20.25641,-5.64231 30.68989,-19.3117 54.79497,-19.3117c4.30991,0 16.60176,-8.00384 27.05339,-8.13504c9.07649,-0.11393 16.38527,7.51522 20.60838,8.97212c21.08479,7.27397 18.51109,20.06555 33.77267,24.81169c5.01983,1.5611 20.2795,1.11691 30.55691,-2.27342c10.09048,-3.32865 26.02875,6.55744 29.82071,7.885c28.36831,9.9317 22.76958,21.47431 22.76958,39.99312z" fill="url(#color-11)"/><path d="M1254.02688,211.45209c0,26.26944 -39.54927,39.93497 -95.55647,49.15452c-17.51349,2.88297 -36.63625,13.28411 -56.66224,13.28411c-16.97792,0 -31.25702,-13.58349 -45.70151,-14.444c-57.07901,-3.40049 -94.15428,-1.37602 -94.15428,-28.89574c0,-10.06558 -7.55843,-14.88739 -7.21513,-27.16624c0.20425,-7.30516 14.02287,-16.54799 23.07639,-20.19525c8.63114,-3.47709 17.57779,-1.57751 24.71177,-9.18646c1.94456,-2.07401 17.42004,3.06082 24.97216,-0.10324c6.19783,-2.59667 4.53639,-13.66069 7.15272,-14.38946c20.25641,-5.64231 30.68989,-19.3117 54.79497,-19.3117c4.30991,0 16.60176,-8.00384 27.05339,-8.13504c9.07649,-0.11393 16.38527,7.51522 20.60838,8.97212c21.08479,7.27397 18.51109,20.06555 33.77267,24.81169c5.01983,1.5611 20.2795,1.11691 30.55691,-2.27342c10.09048,-3.32865 26.02875,6.55744 29.82071,7.885c28.36831,9.9317 22.76958,21.47431 22.76958,39.99312z" fill="url(#color-12)"/><path d="M802.02687,140.45209c0,26.26944 -39.54927,39.93497 -95.55647,49.15452c-17.51349,2.88297 -36.63625,13.28411 -56.66224,13.28411c-16.97792,0 -31.25702,-13.58349 -45.70151,-14.444c-57.07901,-3.40049 -94.15428,-1.37602 -94.15428,-28.89574c0,-10.06558 -7.55843,-14.88739 -7.21513,-27.16624c0.20425,-7.30516 14.02287,-16.54799 23.07639,-20.19525c8.63114,-3.47709 17.57779,-1.57751 24.71177,-9.18646c1.94456,-2.07401 17.42004,3.06082 24.97216,-0.10324c6.19783,-2.59667 4.53639,-13.66069 7.15272,-14.38946c20.25641,-5.64231 30.68989,-19.3117 54.79497,-19.3117c4.30991,0 16.60176,-8.00384 27.05339,-8.13504c9.07649,-0.11393 16.38527,7.51522 20.60838,8.97212c21.08479,7.27397 18.51109,20.06555 33.77267,24.81169c5.01983,1.5611 20.2795,1.11691 30.55691,-2.27342c10.09048,-3.32865 26.02875,6.55744 29.82071,7.885c28.36831,9.9317 22.76958,21.47431 22.76958,39.99312z" fill="url(#color-13)"/><path d="M1046.02688,167.45209c0,26.26944 -39.54927,39.93497 -95.55647,49.15452c-17.51349,2.88297 -36.63625,13.28411 -56.66224,13.28411c-16.97792,0 -31.25702,-13.58349 -45.70151,-14.444c-57.07901,-3.40049 -94.15428,-1.37602 -94.15428,-28.89574c0,-10.06558 -7.55843,-14.88739 -7.21513,-27.16624c0.20425,-7.30516 14.02287,-16.54799 23.07639,-20.19525c8.63114,-3.47709 17.57779,-1.57751 24.71177,-9.18646c1.94456,-2.07401 17.42004,3.06082 24.97216,-0.10324c6.19783,-2.59667 4.53639,-13.66069 7.15272,-14.38946c20.25641,-5.64231 30.68989,-19.3117 54.79497,-19.3117c4.30991,0 16.60176,-8.00384 27.05339,-8.13504c9.07649,-0.11393 16.38527,7.51522 20.60838,8.97212c21.08479,7.27397 18.51109,20.06555 33.77267,24.81169c5.01983,1.5611 20.2795,1.11691 30.55691,-2.27342c10.09048,-3.32865 26.02875,6.55744 29.82071,7.885c28.36831,9.9317 22.76958,21.47431 22.76958,39.99312z" fill="url(#color-14)"/><path d="M855.02688,228.45209c0,26.26944 -39.54927,39.93497 -95.55647,49.15452c-17.51349,2.88297 -36.63625,13.28411 -56.66224,13.28411c-16.97792,0 -31.25702,-13.58349 -45.70151,-14.444c-57.07901,-3.40049 -94.15428,-1.37602 -94.15428,-28.89574c0,-10.06558 -7.55843,-14.88739 -7.21513,-27.16624c0.20425,-7.30516 14.02287,-16.54799 23.07639,-20.19525c8.63114,-3.47709 17.57779,-1.57751 24.71177,-9.18646c1.94456,-2.07401 17.42004,3.06082 24.97216,-0.10324c6.19783,-2.59667 4.53639,-13.66069 7.15272,-14.38946c20.25641,-5.64231 30.68989,-19.3117 54.79497,-19.3117c4.30991,0 16.60176,-8.00384 27.05339,-8.13504c9.07649,-0.11393 16.38527,7.51522 20.60838,8.97212c21.08479,7.27397 18.51109,20.06555 33.77267,24.81169c5.01983,1.5611 20.2795,1.11691 30.55691,-2.27342c10.09048,-3.32865 26.02875,6.55744 29.82071,7.885c28.36831,9.9317 22.76958,21.47431 22.76958,39.99312z" fill="url(#color-15)"/><path d="M1047.02688,259.45209c0,26.26944 -39.54927,39.93497 -95.55647,49.15452c-17.51349,2.88297 -36.63625,13.28411 -56.66224,13.28411c-16.97792,0 -31.25702,-13.58349 -45.70151,-14.444c-57.07901,-3.40049 -94.15428,-1.37602 -94.15428,-28.89574c0,-10.06558 -7.55843,-14.88739 -7.21513,-27.16624c0.20425,-7.30516 14.02287,-16.54799 23.07639,-20.19525c8.63114,-3.47709 17.57779,-1.57751 24.71177,-9.18646c1.94456,-2.07401 17.42004,3.06082 24.97216,-0.10324c6.19783,-2.59667 4.53639,-13.66069 7.15272,-14.38946c20.25641,-5.64231 30.68989,-19.3117 54.79497,-19.3117c4.30991,0 16.60176,-8.00384 27.05339,-8.13504c9.07649,-0.11393 16.38527,7.51522 20.60838,8.97212c21.08479,7.27397 18.51109,20.06555 33.77267,24.81169c5.01983,1.5611 20.2795,1.11691 30.55691,-2.27342c10.09048,-3.32865 26.02875,6.55744 29.82071,7.885c28.36831,9.9317 22.76958,21.47431 22.76958,39.99312z" fill="url(#color-16)"/><path d="M1195.02688,95.45209c0,26.26944 -39.54927,39.93497 -95.55647,49.15452c-17.51349,2.88297 -36.63625,13.28411 -56.66224,13.28411c-16.97792,0 -31.25702,-13.58349 -45.70151,-14.444c-57.07901,-3.40049 -94.15428,-1.37602 -94.15428,-28.89574c0,-10.06558 -7.55843,-14.88739 -7.21513,-27.16624c0.20425,-7.30516 14.02287,-16.54799 23.07639,-20.19525c8.63114,-3.47709 17.57779,-1.57751 24.71177,-9.18646c1.94456,-2.07401 17.42004,3.06082 24.97216,-0.10324c6.19783,-2.59667 4.53639,-13.66069 7.15272,-14.38946c20.25641,-5.64231 30.68989,-19.3117 54.79497,-19.3117c4.30991,0 16.60176,-8.00384 27.05339,-8.13504c9.07649,-0.11393 16.38527,7.51522 20.60838,8.97212c21.08479,7.27397 18.51109,20.06555 33.77267,24.81169c5.01983,1.5611 20.2795,1.11691 30.55691,-2.27342c10.09048,-3.32865 26.02875,6.55744 29.82071,7.885c28.36831,9.9317 22.76958,21.47431 22.76958,39.99312z" fill="url(#color-17)"/><path d="M1002.02688,72.45209c0,26.26944 -39.54927,39.93497 -95.55647,49.15452c-17.51349,2.88297 -36.63625,13.28411 -56.66224,13.28411c-16.97792,0 -31.25702,-13.58349 -45.70151,-14.444c-57.07901,-3.40049 -94.15428,-1.37602 -94.15428,-28.89574c0,-10.06558 -7.55843,-14.88739 -7.21513,-27.16624c0.20425,-7.30516 14.02287,-16.54799 23.07639,-20.19525c8.63114,-3.47709 17.57779,-1.57751 24.71177,-9.18646c1.94456,-2.07401 17.42004,3.06082 24.97216,-0.10324c6.19783,-2.59667 4.53639,-13.66069 7.15272,-14.38946c20.25641,-5.64231 30.68989,-19.3117 54.79497,-19.3117c4.30991,0 16.60176,-8.00384 27.05339,-8.13504c9.07649,-0.11393 16.38527,7.51522 20.60838,8.97212c21.08479,7.27397 18.51109,20.06555 33.77267,24.81169c5.01983,1.5611 20.2795,1.11691 30.55691,-2.27342c10.09048,-3.32865 26.02875,6.55744 29.82071,7.885c28.36831,9.9317 22.76958,21.47431 22.76958,39.99312z" fill="url(#color-18)"/><path d="M1461.02688,309.45209c0,26.26944 -39.54927,39.93497 -95.55647,49.15452c-17.51349,2.88297 -36.63625,13.28411 -56.66224,13.28411c-16.97792,0 -31.25702,-13.58349 -45.70151,-14.444c-57.07901,-3.40049 -94.15428,-1.37602 -94.15428,-28.89574c0,-10.06558 -7.55843,-14.88739 -7.21513,-27.16624c0.20425,-7.30516 14.02287,-16.54799 23.07639,-20.19525c8.63114,-3.47709 17.57779,-1.57751 24.71177,-9.18646c1.94456,-2.07401 17.42004,3.06082 24.97216,-0.10324c6.19783,-2.59667 4.53639,-13.66069 7.15272,-14.38946c20.25641,-5.64231 30.68989,-19.3117 54.79497,-19.3117c4.30991,0 16.60176,-8.00384 27.05339,-8.13504c9.07649,-0.11393 16.38527,7.51522 20.60838,8.97212c21.08479,7.27397 18.51109,20.06555 33.77267,24.81169c5.01983,1.5611 20.2795,1.11691 30.55691,-2.27342c10.09048,-3.32865 26.02875,6.55744 29.82071,7.885c28.36831,9.9317 22.76958,21.47431 22.76958,39.99312z" fill="url(#color-19)"/><path d="M1226.02688,318.45209c0,26.26944 -39.54927,39.93497 -95.55647,49.15452c-17.51349,2.88297 -36.63625,13.28411 -56.66224,13.28411c-16.97792,0 -31.25702,-13.58349 -45.70151,-14.444c-57.07901,-3.40049 -94.15428,-1.37602 -94.15428,-28.89574c0,-10.06558 -7.55843,-14.88739 -7.21513,-27.16624c0.20425,-7.30516 14.02287,-16.54799 23.07639,-20.19525c8.63114,-3.47709 17.57779,-1.57751 24.71177,-9.18646c1.94456,-2.07401 17.42004,3.06082 24.97216,-0.10324c6.19783,-2.59667 4.53639,-13.66069 7.15272,-14.38946c20.25641,-5.64231 30.68989,-19.3117 54.79497,-19.3117c4.30991,0 16.60176,-8.00384 27.05339,-8.13504c9.07649,-0.11393 16.38527,7.51522 20.60838,8.97212c21.08479,7.27397 18.51109,20.06555 33.77267,24.81169c5.01983,1.5611 20.2795,1.11691 30.55691,-2.27342c10.09048,-3.32865 26.02875,6.55744 29.82071,7.885c28.36831,9.9317 22.76958,21.47431 22.76958,39.99312z" fill="url(#color-20)"/><path d="M804.52688,56.45209c0,26.26944 -39.54927,39.93497 -95.55647,49.15452c-17.51349,2.88297 -36.63625,13.28411 -56.66224,13.28411c-16.97792,0 -31.25702,-13.58349 -45.70151,-14.444c-57.07901,-3.40049 -94.15428,-1.37602 -94.15428,-28.89574c0,-10.06558 -7.55843,-14.88739 -7.21513,-27.16624c0.20425,-7.30516 14.02287,-16.54799 23.07639,-20.19525c8.63114,-3.47709 17.57779,-1.57751 24.71177,-9.18646c1.94456,-2.07401 17.42004,3.06082 24.97216,-0.10324c6.19783,-2.59667 4.53639,-13.66069 7.15272,-14.38946c20.25641,-5.64231 30.68989,-19.3117 54.79497,-19.3117c4.30991,0 16.60176,-8.00384 27.05339,-8.13504c9.07649,-0.11393 16.38527,7.51522 20.60838,8.97212c21.08479,7.27397 18.51109,20.06555 33.77267,24.81169c5.01983,1.5611 20.2795,1.11691 30.55691,-2.27342c10.09048,-3.32865 26.02875,6.55744 29.82071,7.885c28.36831,9.9317 22.76958,21.47431 22.76958,39.99312z" fill="url(#color-21)"/></g></g></svg>