<svg version="1.1" xmlns="http://www.w3.org/2000/svg" xmlns:xlink="http://www.w3.org/1999/xlink" width="285.39105" height="76.87558" viewBox="0,0,285.39105,76.87558"><g transform="translate(-97.30448,-122.80827)"><g data-paper-data="{&quot;isPaintingLayer&quot;:true}" fill-rule="nonzero" stroke="none" stroke-linecap="butt" stroke-linejoin="miter" stroke-miterlimit="10" stroke-dasharray="" stroke-dashoffset="0" style="mix-blend-mode: normal"><path d="M97.30448,199.68385v-39.3677h285.39105v39.3677z" fill="#00c1ff" stroke-width="0"/><text transform="translate(100.00001,187.76875) scale(0.5,0.5)" font-size="40" xml:space="preserve" fill="#86e1ff" fill-rule="nonzero" stroke="none" stroke-width="1" stroke-linecap="butt" stroke-linejoin="miter" stroke-miterlimit="10" stroke-dasharray="" stroke-dashoffset="0" font-family="Sans Serif" font-weight="normal" text-anchor="start" style="mix-blend-mode: normal"><tspan x="0" dy="0">恭喜完成飞行 滑翔距离：</tspan></text><g stroke-width="1"><path d="M238.32642,123.54443c-2.86294,0 -5.23502,2.37213 -5.39863,5.23502c0,2.53574 1.7995,4.58065 4.25345,5.07146c-1.79955,4.17167 -5.97122,7.11639 -10.87907,7.11639c-1.55416,0 -3.0265,-0.3272 -4.41706,-0.89979c0.81797,-0.73619 1.39055,-1.96314 1.39055,-3.1901c0,-2.45395 -1.96314,-4.41706 -4.4171,-4.41706c-2.45391,0 -4.41706,1.88132 -4.41706,4.41706c0,2.53574 2.04492,4.49884 4.49887,4.49884c0.24539,0 0.49077,-0.08178 0.73615,-0.08178c0.98157,6.053 3.0265,11.69705 5.97122,16.85029c3.92625,1.55416 8.17974,2.45395 12.67862,2.45395c4.49884,0 8.75236,-0.81801 12.67862,-2.45395c2.94471,-5.07146 4.98964,-10.79726 5.97122,-16.85029c0.16361,0 0.40899,0 0.57259,0c2.45391,0 4.4171,-1.96314 4.4171,-4.41706c0,-2.45395 -1.96314,-4.41706 -4.4171,-4.41706c-2.45395,0 -4.41706,1.96314 -4.41706,4.41706c0,1.30874 0.49077,2.45391 1.39055,3.27189c-1.30877,0.49077 -2.78112,0.81797 -4.33528,0.81797c-4.82605,0 -8.99771,-2.8629 -10.87904,-7.11639c2.45391,-0.40899 4.25345,-2.5357 4.25345,-5.07146c0,-2.86294 -2.37213,-5.23502 -5.23502,-5.23502M238.32642,122.80827c3.27191,0 5.97122,2.69929 6.053,5.8894c0,2.45395 -1.63594,4.74426 -3.92629,5.56222c1.88132,3.59909 5.64402,5.88943 9.81569,5.88943c1.06339,0 2.04497,-0.16361 3.02653,-0.40899c-0.57259,-0.89979 -0.89979,-1.88132 -0.89979,-2.94471c0,-2.86294 2.37209,-5.23502 5.23502,-5.23502c2.86294,0 5.23502,2.37213 5.23502,5.23502c0,2.86294 -2.29031,5.23502 -5.15325,5.23502c-0.98157,5.80761 -2.94469,11.36984 -5.8894,16.44127c-0.08181,0.16361 -0.24539,0.24542 -0.40899,0.3272c-4.17167,1.71771 -8.50694,2.5357 -13.00577,2.5357c-4.49884,0 -8.83416,-0.81797 -13.00577,-2.5357c-0.16361,-0.08181 -0.3272,-0.16361 -0.40899,-0.3272c-2.86294,-5.15325 -4.90782,-10.6337 -5.88943,-16.44127h-0.08178c-2.86294,0 -5.23502,-2.37213 -5.23502,-5.23502c0,-2.86294 2.29031,-5.15325 5.15325,-5.15325c2.8629,0 5.23502,2.37213 5.23502,5.23506c0,0.98157 -0.24542,2.04492 -0.81801,2.86294c0.98157,0.32716 2.04492,0.49077 3.10832,0.49077c4.17167,0 7.93436,-2.29035 9.81569,-5.88943c-2.37213,-0.81797 -3.92625,-3.0265 -3.92625,-5.56222c0,-3.27189 2.69929,-5.97122 5.97122,-5.97122z" fill="#a9a9a9"/><path d="M250.18702,140.9673c2.69929,0 5.15325,-0.89979 7.11639,-2.37213c-0.73619,7.03457 -2.94471,13.66019 -6.29842,19.54959c-3.92625,1.55416 -8.17974,2.45395 -12.67862,2.45395c-4.49884,0 -8.75236,-0.81801 -12.67862,-2.45395c-3.3537,-5.8894 -5.56222,-12.51502 -6.29842,-19.54959c1.96314,1.47237 4.4171,2.37213 7.11639,2.37213c6.5438,0 11.86065,-5.3168 11.86065,-11.86065c0,6.62562 5.3168,11.94242 11.86065,11.86065z" fill="#f9f9f9"/><path d="M252.55916,155.20005c-0.49077,1.06339 -0.98154,2.04492 -1.55412,3.02653c-3.92625,1.55416 -8.17974,2.45395 -12.67862,2.45395c-4.49884,0 -8.75236,-0.81801 -12.67862,-2.45395c-0.6544,-0.98157 -1.14517,-2.04492 -1.71775,-3.1901c4.41706,1.96314 9.40672,3.10828 14.55997,3.10828c5.07142,0 9.81569,-1.06339 14.06914,-2.94471z" fill="#e4e3e1"/><path d="M238.49001,158.14476c5.07142,0 9.81569,-1.06339 14.15096,-2.94471c-0.08181,0.16361 -0.16361,0.24542 -0.16361,0.3272c-4.17167,2.12675 -8.99771,3.3537 -13.98735,3.3537c-5.23506,0 -10.14289,-1.30874 -14.47816,-3.59909c0,-0.08181 -0.08178,-0.16356 -0.08178,-0.24539c4.41706,1.96314 9.40672,3.10828 14.55997,3.10828z" fill="#cdcccb"/><path d="M258.20321,139.65854c-1.47237,-0.57259 -2.12675,-3.43549 -3.43552,-4.49887c-0.24539,-0.24539 -0.57259,-0.49077 -0.89976,-0.65436c0.81797,-1.22696 2.20854,-2.04492 3.7627,-2.04492c2.45395,0 4.4171,1.96314 4.4171,4.41706c0,0.89979 -0.3272,1.79955 -0.73619,2.53574c-1.06339,0.32716 -2.20854,0.65436 -3.10832,0.24539z" fill="#f9f9f9"/><path d="M254.6859,135.15969c1.30877,1.06339 1.96311,4.00807 3.43549,4.49887c0.89979,0.40899 2.04492,0.08178 3.10832,-0.24539c-0.81797,1.22696 -2.12675,1.96314 -3.68091,1.96314c-2.45395,0 -4.41706,-1.96311 -4.41706,-4.41706c0,-0.89979 0.24539,-1.71775 0.73619,-2.45395c0.24539,0.16361 0.57262,0.40902 0.81797,0.65436z" fill="#e4e3e1"/><path d="M259.10296,133.03295c0.89979,0.65436 3.1901,4.0899 0.57259,3.92629c-1.55416,-0.16361 -1.39055,-2.45395 -0.98157,-3.43552z" fill="#ffffff"/><path d="M243.15245,130.66082c-0.73619,1.96314 -2.69933,3.3537 -4.90786,3.3537c-2.78112,0 -5.15325,-2.37213 -5.15325,-5.23502c0,-0.40899 0,-0.73619 0.08178,-1.14517c1.39055,0.16361 2.61751,1.14517 4.25349,2.37213c2.12671,1.55416 4.0899,1.55416 5.72583,0.6544z" fill="#e4e3e1"/><path d="M243.56145,128.7795c0,0.57259 -0.08181,1.22696 -0.3272,1.79955c-1.71771,0.89979 -3.59909,0.89979 -5.7258,-0.65436c-1.63594,-1.14517 -2.86294,-2.20854 -4.25349,-2.37213c0.57259,-2.29035 2.61751,-4.00807 5.07146,-4.00807c2.86294,0 5.23502,2.37213 5.23502,5.23502z" fill="#f9f9f9"/><path d="M239.06257,124.935c2.86294,-0.16361 1.63598,4.08986 -0.81797,2.45391c-1.14517,-0.81797 -0.6544,-2.12675 0.32716,-2.45391z" fill="#ffffff"/><path d="M240.69855,150.78299l0.73615,4.33528l-3.84447,-2.04497l-3.8445,2.04497l0.73619,-4.33528l-3.10832,-3.0265l4.25349,-0.57259l1.96314,-3.92629l1.88132,3.92629l4.33528,0.57259z" fill="#d1d5d7"/><path d="M221.96688,140.31294c11.45163,3.3537 15.21431,-6.29842 15.21431,-6.29842c-4.08986,13.00577 -15.21431,6.29842 -15.21431,6.29842z" fill="#e4e3e1"/><path d="M239.38977,134.01452c0,0 3.7627,9.65212 15.21431,6.29842c0.08178,0 -11.04268,6.70737 -15.21431,-6.29842z" fill="#e4e3e1"/><path d="M231.94621,160.1079c-2.20854,-0.40899 -4.33528,-1.06335 -6.3802,-1.88132c-3.3537,-5.8894 -5.56222,-12.51502 -6.29842,-19.54959c0.32716,0.24539 0.6544,0.49077 0.98157,0.65436c1.39055,8.34335 5.72583,15.6233 11.69705,20.77654z" fill="#cdcccb" opacity="0.5"/><path d="M215.17771,139.41314c-0.40899,-0.73619 -0.73619,-1.63594 -0.73619,-2.53574c0,-2.45395 2.04492,-4.41706 4.49887,-4.41706c1.55416,0 2.94471,0.81797 3.7627,2.04492c-0.3272,0.16361 -0.6544,0.40902 -0.89979,0.65436c-1.30874,1.06339 -1.96314,3.92629 -3.43552,4.49887c-0.98157,0.40899 -2.04492,0.08178 -3.1901,-0.24539z" fill="#f9f9f9"/><path d="M222.6213,134.50529c0.49081,0.73619 0.73619,1.55416 0.73619,2.45395c0,2.45395 -1.96311,4.41706 -4.41706,4.41706c-1.55416,0 -2.86294,-0.73619 -3.68091,-1.96314c1.06339,0.32716 2.20854,0.65436 3.10828,0.24539c1.47237,-0.49077 2.12675,-3.43549 3.43552,-4.49887c0.24539,-0.24539 0.57259,-0.49077 0.81797,-0.65436z" fill="#e4e3e1"/><path d="M220.16735,135.15969c-0.08178,1.22696 -1.96311,1.88132 -2.61751,0.65436c-0.40899,-0.81797 -0.16361,-1.39055 0.3272,-1.79955c-0.08181,0 -0.08181,0 0,0c0.89976,-0.73619 2.37213,-0.3272 2.29031,1.14517z" fill="#ffffff"/><path d="M251.41402,157.3268c-0.16361,0.32716 -0.32716,0.6544 -0.49077,0.89979c-3.92625,1.55416 -8.17974,2.45395 -12.67862,2.45395c-4.49884,0 -8.75232,-0.81801 -12.67862,-2.45395c-0.08181,-0.24539 -0.24539,-0.57259 -0.40899,-0.81797c3.92625,1.88132 8.42512,2.94471 13.08761,2.94471c4.74426,0 9.24313,-1.06335 13.16938,-3.0265z" fill="#cdcccb"/><path d="M225.15704,150.12862c0,-0.40659 0.32961,-0.73615 0.73619,-0.73615c0.40659,0 0.73619,0.32957 0.73619,0.73615c0,0.40659 -0.32961,0.73619 -0.73619,0.73619c-0.40659,0 -0.73619,-0.32961 -0.73619,-0.73619z" fill="#cdcccb" opacity="0.5"/><path d="M229.90125,151.35558c0,-0.40659 0.32961,-0.73619 0.73619,-0.73619c0.40659,0 0.73619,0.32961 0.73619,0.73619c0,0.40659 -0.32957,0.73619 -0.73619,0.73619c-0.40659,0 -0.73619,-0.32957 -0.73619,-0.73619z" fill="#cdcccb" opacity="0.5"/><path d="M249.61448,150.12862c0,-0.40659 0.32961,-0.73615 0.73619,-0.73615c0.40659,0 0.73615,0.32957 0.73615,0.73615c0,0.40659 -0.32957,0.73619 -0.73615,0.73619c-0.40659,0 -0.73619,-0.32961 -0.73619,-0.73619z" fill="#cdcccb" opacity="0.5"/><path d="M244.78839,151.35558c0,-0.40659 0.32957,-0.73619 0.73615,-0.73619c0.40659,0 0.73619,0.32961 0.73619,0.73619c0,0.40659 -0.32961,0.73619 -0.73619,0.73619c-0.40659,0 -0.73615,-0.32957 -0.73615,-0.73619z" fill="#cdcccb" opacity="0.5"/><path d="M225.40242,149.88325c0,-0.40659 0.32957,-0.73619 0.73619,-0.73619c0.40659,0 0.73619,0.32957 0.73619,0.73619c0,0.40659 -0.32961,0.73619 -0.73619,0.73619c-0.40659,0 -0.73619,-0.32957 -0.73619,-0.73619z" fill="#ffffff"/><path d="M230.22845,151.11019c0,-0.40659 0.32957,-0.73619 0.73619,-0.73619c0.40659,0 0.73619,0.32957 0.73619,0.73619c0,0.40659 -0.32957,0.73619 -0.73619,0.73619c-0.40659,0 -0.73619,-0.32961 -0.73619,-0.73619z" fill="#ffffff"/><path d="M249.85986,149.88325c0,-0.40659 0.32957,-0.73619 0.73619,-0.73619c0.40659,0 0.73619,0.32957 0.73619,0.73619c0,0.40659 -0.32961,0.73619 -0.73619,0.73619c-0.40659,0 -0.73619,-0.32957 -0.73619,-0.73619z" fill="#ffffff"/><path d="M245.03377,151.11019c0,-0.40659 0.32961,-0.73619 0.73619,-0.73619c0.40659,0 0.73619,0.32957 0.73619,0.73619c0,0.40659 -0.32957,0.73619 -0.73619,0.73619c-0.40659,0 -0.73619,-0.32961 -0.73619,-0.73619z" fill="#ffffff"/><g><path d="M238.03544,148.81245l-1.78831,-1.9438l1.78831,-3.7321z" fill="#b20000"/><path d="M237.95766,148.81245l-5.90918,-1.3218l4.1209,-0.62201z" fill="#dc0000"/><path d="M238.11317,148.81245v-5.67594l1.78831,3.7321z" fill="#e80000"/><path d="M238.03544,148.81245l1.78831,-1.9438l4.1209,0.62202z" fill="#ff0000"/><path d="M238.03544,148.81245l5.90923,-1.3218l-2.95462,2.87685z" fill="#b20000"/><path d="M240.99001,150.28975l0.69979,4.12086l-3.65437,-5.59817z" fill="#ff0000"/><path d="M238.03544,148.81245l-2.95462,1.55504l-2.95462,-2.87685z" fill="#b20000"/><path d="M238.03544,148.89018l-3.65439,5.59817l0.69979,-4.1209z" fill="#dc0000"/><path d="M238.03544,148.81245v3.65439l-3.65439,1.9438z" fill="#b20000"/><path d="M241.6898,154.48839l-3.65437,-1.9438v-3.7321c0,0 0.32469,0.50431 0.60296,0.93651c0.62601,0.9723 3.05139,4.73938 3.05139,4.73938z" fill="#e80000"/></g></g></g></g></svg>