<svg version="1.1" xmlns="http://www.w3.org/2000/svg" xmlns:xlink="http://www.w3.org/1999/xlink" width="214.13069" height="41.89358" viewBox="0,0,214.13069,41.89358"><defs><linearGradient x1="284.39804" y1="161.69962" x2="284.39804" y2="195.48642" gradientUnits="userSpaceOnUse" id="color-1"><stop offset="0" stop-color="#dedede"/><stop offset="1" stop-color="#ffffff"/></linearGradient><linearGradient x1="240" y1="180" x2="240" y2="180" gradientUnits="userSpaceOnUse" id="color-2"><stop offset="0" stop-color="#ffffff"/><stop offset="1" stop-color="#1a1a1a"/></linearGradient><linearGradient x1="178.14214" y1="161.48592" x2="178.14214" y2="194.51687" gradientUnits="userSpaceOnUse" id="color-3"><stop offset="0" stop-color="#d0d0d0"/><stop offset="1" stop-color="#1a1a1a"/></linearGradient></defs><g transform="translate(-168.23474,-159.7882)"><g data-paper-data="{&quot;isPaintingLayer&quot;:true}" fill-rule="nonzero" stroke-linejoin="miter" stroke-miterlimit="10" stroke-dasharray="" stroke-dashoffset="0" style="mix-blend-mode: normal"><path d="M186.93069,161.69962l84.19894,0.1897l59.90105,0.1897c0,0 27.51083,-0.59133 41.1685,-0.0893c3.95727,0.14546 6.59696,-0.48613 7.25854,0.0893c3.92021,3.4097 2.32253,31.22564 0.33748,33.00695c-3.82999,1.00912 -43.88664,-0.20705 -43.88664,-0.20705c0,0 0.51959,-6.22846 -3.0549,-7.50595c-2.54833,-0.91076 -16.5259,-0.76349 -20.70932,0.08834c-0.56919,0.11591 -0.95708,0.24485 -1.11019,0.38594c-3.06769,0.44478 -2.46073,6.84197 -2.46073,6.84197c0,0 -1.573,0.15559 -3.88228,0.123c-6.33821,-0.08945 -35.26432,0.06668 -35.26432,0.06668l-7.07145,-0.36203c0,0 0.51959,-5.46968 -3.0549,-6.74717c-2.54833,-0.91074 -16.52589,-0.76348 -20.70931,0.08835c-0.56919,0.1159 -0.95708,0.24484 -1.11019,0.38593c-3.06769,0.44478 -2.46073,6.84197 -2.46073,6.84197c0,0 -1.57301,0.1556 -3.88229,0.12301c-6.33821,-0.08945 -36.44546,-0.6921 -36.44546,-0.6921c0,0 -0.80254,-4.45091 -2.06632,-5.63488c-1.41816,-1.3286 -5.69551,-2.33232 -5.69551,-2.33232z" fill="url(#color-1)" stroke="#000000" stroke-width="1" stroke-linecap="round"/><path d="" fill="url(#color-2)" stroke="#000000" stroke-width="1.5" stroke-linecap="butt"/><path d="M359.17783,194.84174v-13.79697h4.83724v13.79697z" fill="#ffffff" stroke="#000000" stroke-width="1" stroke-linecap="butt"/><path d="M363.99867,194.38827c0,0 0,-9.66615 0,-11.92282c0,-0.8947 0,-1.87415 0,-1.87415h4.83723v13.79697z" fill="#ffffff" stroke="#000000" stroke-width="1" stroke-linecap="butt"/><path d="M188.11182,170.4256v-8.15689c0,0 183.75552,-0.41253 191.17715,0c1.56574,0.08704 1.85609,8.15689 1.85609,8.15689z" fill="#fffa6f" stroke="none" stroke-width="0" stroke-linecap="butt"/><path d="M179.79668,194.51687h-9.41616c0,0 -3.23175,-15.0354 0.13982,-26.72323c0.37289,-1.29263 0.61138,-1.07525 1.41201,-1.72784c6.30947,-5.14276 15.36719,-4.55998 15.36719,-4.55998l-0.13983,24.91642c0,0 -3.71113,0.16431 -5.32141,1.59679c-1.76247,1.56787 -2.04162,6.49785 -2.04162,6.49785z" data-paper-data="{&quot;index&quot;:null}" fill="url(#color-3)" stroke="#000000" stroke-width="1.5" stroke-linecap="butt"/><path d="M170.52034,169.36559l2.23723,1.25756l-0.55931,7.85978l-2.23723,0.47159" data-paper-data="{&quot;index&quot;:null}" fill="none" stroke="#000000" stroke-width="1.5" stroke-linecap="round"/><path d="M186.66354,189.3951c2.44443,0 4.42605,2.33557 4.42605,5.21662c0,2.88106 -1.98161,5.21662 -4.42605,5.21662c-2.44444,0 -4.42606,-2.33557 -4.42606,-5.21662c0,-2.88106 1.98162,-5.21662 4.42606,-5.21662z" data-paper-data="{&quot;index&quot;:null}" fill="none" stroke="#000000" stroke-width="1.5" stroke-linecap="butt"/><path d="M186.61765,191.96328c1.20814,0 2.18753,1.18574 2.18753,2.64844c0,1.4627 -0.97939,2.64844 -2.18753,2.64844c-1.20814,0 -2.18753,-1.18574 -2.18753,-2.64844c0,-1.4627 0.97939,-2.64844 2.18753,-2.64844z" data-paper-data="{&quot;index&quot;:null}" fill="#000000" stroke="#000000" stroke-width="1.5" stroke-linecap="butt"/><path d="M254.67933,189.75713c2.44443,0 4.42605,2.33557 4.42605,5.21662c0,2.88105 -1.98161,5.21661 -4.42605,5.21661c-2.44444,0 -4.42606,-2.33556 -4.42606,-5.21661c0,-2.88106 1.98162,-5.21662 4.42606,-5.21662z" data-paper-data="{&quot;index&quot;:null}" fill="none" stroke="#000000" stroke-width="1.5" stroke-linecap="butt"/><path d="M254.63344,192.32531c1.20814,0 2.18753,1.18574 2.18753,2.64844c0,1.4627 -0.97939,2.64844 -2.18753,2.64844c-1.20814,0 -2.18753,-1.18574 -2.18753,-2.64844c0,-1.4627 0.97939,-2.64844 2.18753,-2.64844z" data-paper-data="{&quot;index&quot;:null}" fill="#000000" stroke="#000000" stroke-width="1.5" stroke-linecap="butt"/><path d="M243.05203,189.73978c2.44443,0 4.42605,2.33557 4.42605,5.21662c0,2.88106 -1.98161,5.21662 -4.42605,5.21662c-2.44443,0 -4.42605,-2.33557 -4.42605,-5.21662c0,-2.88106 1.98161,-5.21662 4.42605,-5.21662z" data-paper-data="{&quot;index&quot;:null}" fill="none" stroke="#000000" stroke-width="1.5" stroke-linecap="butt"/><path d="M243.00614,192.30796c1.20814,0 2.18753,1.18574 2.18753,2.64844c0,1.4627 -0.97939,2.64844 -2.18753,2.64844c-1.20814,0 -2.18753,-1.18574 -2.18753,-2.64844c0,-1.4627 0.97939,-2.64844 2.18753,-2.64844z" data-paper-data="{&quot;index&quot;:null}" fill="#000000" stroke="#000000" stroke-width="1.5" stroke-linecap="butt"/><path d="M254.8389,187.49816v7.01872l-2.69977,-6.07024" data-paper-data="{&quot;index&quot;:null}" fill="none" stroke="#000000" stroke-width="1.5" stroke-linecap="round"/><path d="M243.3649,188.06724l-0.33747,6.44964l-2.02483,-6.25994" data-paper-data="{&quot;index&quot;:null}" fill="none" stroke="#000000" stroke-width="1.5" stroke-linecap="round"/><text transform="translate(192.34898,170.32504) scale(0.21797,0.24504)" font-size="40" xml:space="preserve" data-paper-data="{&quot;index&quot;:null}" fill="#ffffff" fill-rule="nonzero" stroke="none" stroke-width="1" stroke-linecap="butt" stroke-linejoin="miter" stroke-miterlimit="10" stroke-dasharray="" stroke-dashoffset="0" font-family="Sans Serif" font-weight="normal" text-anchor="start" style="mix-blend-mode: normal"><tspan x="0" dy="0">COBUS</tspan></text><path d="M328.06377,190.49855c2.44443,0 4.42605,2.33557 4.42605,5.21662c0,2.88105 -1.98161,5.21661 -4.42605,5.21661c-2.44444,0 -4.42606,-2.33556 -4.42606,-5.21661c0,-2.88106 1.98162,-5.21662 4.42606,-5.21662z" data-paper-data="{&quot;index&quot;:null}" fill="none" stroke="#000000" stroke-width="1.5" stroke-linecap="butt"/><path d="M328.01787,193.06673c1.20814,0 2.18753,1.18574 2.18753,2.64844c0,1.4627 -0.97939,2.64844 -2.18753,2.64844c-1.20814,0 -2.18753,-1.18574 -2.18753,-2.64844c0,-1.4627 0.97939,-2.64844 2.18753,-2.64844z" data-paper-data="{&quot;index&quot;:null}" fill="#000000" stroke="#000000" stroke-width="1.5" stroke-linecap="butt"/><path d="M316.43645,190.4812c2.44443,0 4.42605,2.33557 4.42605,5.21662c0,2.88106 -1.98161,5.21662 -4.42605,5.21662c-2.44443,0 -4.42605,-2.33557 -4.42605,-5.21662c0,-2.88106 1.98161,-5.21662 4.42605,-5.21662z" data-paper-data="{&quot;index&quot;:null}" fill="none" stroke="#000000" stroke-width="1.5" stroke-linecap="butt"/><path d="M316.39057,193.04938c1.20814,0 2.18753,1.18574 2.18753,2.64844c0,1.4627 -0.97939,2.64844 -2.18753,2.64844c-1.20814,0 -2.18753,-1.18574 -2.18753,-2.64844c0,-1.4627 0.97939,-2.64844 2.18753,-2.64844z" data-paper-data="{&quot;index&quot;:null}" fill="#000000" stroke="#000000" stroke-width="1.5" stroke-linecap="butt"/><path d="M328.22333,188.23958v7.01872l-2.69977,-6.07024" data-paper-data="{&quot;index&quot;:null}" fill="none" stroke="#000000" stroke-width="1.5" stroke-linecap="round"/><path d="M316.74933,188.80866l-0.33747,6.44964l-2.02483,-6.25994" data-paper-data="{&quot;index&quot;:null}" fill="none" stroke="#000000" stroke-width="1.5" stroke-linecap="round"/><path d="M203.07744,194.32718v-15.74469h4.55585v15.74469z" fill="#ffffff" stroke="#000000" stroke-width="1" stroke-linecap="butt"/><path d="M207.95532,194.30982v-15.7447h4.55585v15.7447z" fill="#ffffff" stroke="#000000" stroke-width="1" stroke-linecap="butt"/><path d="M280.34279,194.30982v-15.7447h4.55585v15.7447z" fill="#ffffff" stroke="#000000" stroke-width="1" stroke-linecap="butt"/><path d="M285.22067,194.29246v-15.74469h4.55586v15.74469z" fill="#ffffff" stroke="#000000" stroke-width="1" stroke-linecap="butt"/><path d="M236.65577,184.46303v-9.67445h23.79168v9.67445z" fill="#d0d0d0" stroke="#000000" stroke-width="1" stroke-linecap="butt"/><path d="M311.39009,184.25597v-9.67445h23.79168v9.67445z" fill="#d0d0d0" stroke="#000000" stroke-width="1" stroke-linecap="butt"/></g></g></svg>