<svg version="1.1" xmlns="http://www.w3.org/2000/svg" xmlns:xlink="http://www.w3.org/1999/xlink" width="66.2528" height="62.18798" viewBox="0,0,66.2528,62.18798"><g transform="translate(-206.87361,-148.90598)"><g data-paper-data="{&quot;isPaintingLayer&quot;:true}" fill-rule="nonzero" stroke-linejoin="miter" stroke-miterlimit="10" stroke-dasharray="" stroke-dashoffset="0" style="mix-blend-mode: normal"><path d="M208.0582,210.10343v-60.20683h63.8836v60.20683z" fill="#30b8ee" stroke="#000000" stroke-width="0" stroke-linecap="butt"/><path d="M207.71362,149.45203l12.43392,-0.29605c0,0 -5.8129,0.79266 -8.16283,3.82894c-2.59207,3.34914 -3.97505,9.49311 -3.97505,9.49311z" fill="#b0fecf" stroke="#b0fecf" stroke-width="0.5" stroke-linecap="round"/><path d="M272.27005,162.61622c0,0 -1.38297,-6.14398 -3.97504,-9.49312c-2.34992,-3.03628 -8.16283,-3.82894 -8.16283,-3.82894l12.43392,0.29605z" data-paper-data="{&quot;index&quot;:null}" fill="#b0fecf" stroke="#b0fecf" stroke-width="0.5" stroke-linecap="round"/><path d="M272.87079,209.74381l-12.43392,0.29604c0,0 5.8129,-0.79265 8.16283,-3.82893c2.59207,-3.34914 3.97505,-9.49312 3.97505,-9.49312z" data-paper-data="{&quot;index&quot;:null}" fill="#b0fecf" stroke="#b0fecf" stroke-width="0.5" stroke-linecap="round"/><path d="M207.42525,197.52198c0,0 1.38297,6.14398 3.97505,9.49312c2.34992,3.03628 8.16283,3.82893 8.16283,3.82893l-12.43392,-0.29605z" data-paper-data="{&quot;index&quot;:null}" fill="#b0fecf" stroke="#b0fecf" stroke-width="0.5" stroke-linecap="round"/><g fill="none" stroke="#000000" stroke-width="1"><path d="M224.70119,177.83432c-3.59793,0.59773 -7.00292,-1.85685 -7.60526,-5.48244c-0.60234,-3.62561 1.82606,-7.0493 5.42399,-7.64705c3.59793,-0.59773 7.00292,1.85684 7.60526,5.48244c0.60234,3.62561 -1.82606,7.04931 -5.424,7.64705z" stroke-linecap="butt"/><g stroke-linecap="round"><path d="M232.21815,164.58596l5.61966,1.58966l0.83832,5.49722l-4.80376,3.32137"/><path d="M233.89152,174.96593l1.00723,5.75265l-4.58845,3.1414l-5.07732,-2.88591"/><path d="M232.1068,164.50812l5.61965,1.58967l0.98422,5.47299l-4.80376,3.32137" data-paper-data="{&quot;index&quot;:null}"/><path d="M221.99793,161.64299l3.8714,-4.3726l5.35772,1.48899l0.90699,5.76931" data-paper-data="{&quot;index&quot;:null}"/><path d="M215.09148,178.03485l-5.61966,-1.58967l-0.98423,-5.47298l4.80376,-3.32137" data-paper-data="{&quot;index&quot;:null}"/><path d="M225.20036,180.89998l-3.87142,4.37261l-5.35772,-1.48899l-0.90699,-5.76931" data-paper-data="{&quot;index&quot;:null}"/><path d="M215.02581,177.94941l-5.61966,-1.58967l-0.83832,-5.49722l4.80376,-3.32137" data-paper-data="{&quot;index&quot;:null}"/><path d="M213.35246,167.56944l-1.00722,-5.75266l4.58845,-3.14139l5.07731,2.8859" data-paper-data="{&quot;index&quot;:null}"/></g></g><g fill="none" stroke="#000000" stroke-width="1"><path d="M257.75142,163.27145c0.98362,3.5121 -1.08801,7.16274 -4.62712,8.15393c-3.53912,0.9912 -7.20553,-1.05239 -8.18917,-4.56449c-0.98362,-3.5121 1.088,-7.16275 4.62712,-8.15394c3.53912,-0.9912 7.20553,1.0524 8.18916,4.5645z" stroke-linecap="butt"/><g stroke-linecap="round"><path d="M243.76731,157.23252l0.9721,-5.7587l5.3742,-1.42835l3.82177,4.41606"/><path d="M253.9052,154.44556l5.60984,-1.62392l3.61955,4.22149l-2.31943,5.35984"/><path d="M243.70198,157.35165l0.97211,-5.75869l5.33432,-1.57078l3.82177,4.41606" data-paper-data="{&quot;index&quot;:null}"/><path d="M241.94777,167.71123l-4.76592,-3.37542l0.90038,-5.4874l5.63726,-1.52608" data-paper-data="{&quot;index&quot;:null}"/><path d="M258.99083,172.80302l-0.97212,5.7587l-5.33431,1.57079l-3.82176,-4.41607" data-paper-data="{&quot;index&quot;:null}"/><path d="M260.74505,162.44342l4.76593,3.37542l-0.90038,5.4874l-5.63726,1.52607" data-paper-data="{&quot;index&quot;:null}"/><path d="M258.91301,172.87755l-0.97212,5.75869l-5.3742,1.42837l-3.82176,-4.41607" data-paper-data="{&quot;index&quot;:null}"/><path d="M248.77511,175.66449l-5.60985,1.62391l-3.61954,-4.22151l2.31943,-5.35983" data-paper-data="{&quot;index&quot;:null}"/></g></g><g fill="none" stroke="#000000" stroke-width="1"><path d="M252.29532,199.60682c-3.64172,-0.20077 -6.4299,-3.33843 -6.22759,-7.00815c0.2023,-3.66972 3.31849,-6.48188 6.96021,-6.28113c3.64172,0.20077 6.4299,3.33842 6.2276,7.00814c-0.2023,3.66972 -3.3185,6.48188 -6.96022,6.28112z" stroke-linecap="butt"/><g stroke-linecap="round"><path d="M262.51894,188.31516l5.13811,2.77621l-0.37991,5.54779l-5.41215,2.19458"/><path d="M261.88986,198.81032l-0.27072,5.83388l-5.16279,2.06588l-4.32632,-3.92308"/><path d="M262.42723,188.21492l5.13811,2.77621l-0.23223,5.55593l-5.41214,2.19459" data-paper-data="{&quot;index&quot;:null}"/><path d="M253.18578,183.21553l4.73131,-3.42374l4.90443,2.62088l-0.37218,5.8283" data-paper-data="{&quot;index&quot;:null}"/><path d="M242.8729,197.70817l-5.13811,-2.77622l0.23222,-5.55592l5.41215,-2.19458" data-paper-data="{&quot;index&quot;:null}"/><path d="M252.11436,202.70756l-4.73133,3.42376l-4.90441,-2.62087l0.37218,-5.8283" data-paper-data="{&quot;index&quot;:null}"/><path d="M242.82744,197.61049l-5.13811,-2.77622l0.3799,-5.54779l5.41215,-2.19458" data-paper-data="{&quot;index&quot;:null}"/><path d="M243.45653,187.11532l0.27073,-5.83388l5.16279,-2.06587l4.32632,3.92307" data-paper-data="{&quot;index&quot;:null}"/></g></g><text transform="translate(210.62348,198.08598) scale(0.33191,0.33191)" font-size="40" xml:space="preserve" fill="#ff0000" fill-rule="nonzero" stroke="none" stroke-width="1" stroke-linecap="butt" stroke-linejoin="miter" stroke-miterlimit="10" stroke-dasharray="" stroke-dashoffset="0" font-family="Sans Serif" font-weight="normal" text-anchor="start" style="mix-blend-mode: normal"><tspan x="0" dy="0">设置</tspan></text></g></g></svg>