<svg version="1.1" xmlns="http://www.w3.org/2000/svg" xmlns:xlink="http://www.w3.org/1999/xlink" width="16.52717" height="17.21039" viewBox="0,0,16.52717,17.21039"><defs><linearGradient x1="240.00001" y1="180.00001" x2="240.00001" y2="180.00001" gradientUnits="userSpaceOnUse" id="color-1"><stop offset="0" stop-color="#636363"/><stop offset="1" stop-color="#f5f5f5"/></linearGradient><linearGradient x1="240.00001" y1="180.00001" x2="240.00001" y2="180.00001" gradientUnits="userSpaceOnUse" id="color-2"><stop offset="0" stop-color="#636363"/><stop offset="1" stop-color="#f5f5f5"/></linearGradient></defs><g transform="translate(-229.96636,-169.66706)"><g data-paper-data="{&quot;isPaintingLayer&quot;:true}" fill-rule="nonzero" stroke="none" stroke-linecap="butt" stroke-linejoin="miter" stroke-miterlimit="10" stroke-dasharray="" stroke-dashoffset="0" style="mix-blend-mode: normal"><path d="" fill="url(#color-1)" stroke-width="0"/><path d="" fill="url(#color-2)" stroke-width="NaN"/><path d="M246.49353,179.22755c0,4.22492 -3.55182,7.6499 -7.93323,7.6499c-4.38141,0 -7.93323,-3.42498 -7.93323,-7.6499c0,-4.22492 3.55182,-7.6499 7.93323,-7.6499c4.38141,0 7.93323,3.42498 7.93323,7.6499z" fill="#878787" stroke-width="NaN"/><path d="M245.83282,177.31696c0,4.22492 -3.55182,7.6499 -7.93323,7.6499c-4.38141,0 -7.93323,-3.42498 -7.93323,-7.6499c0,-4.22492 3.55182,-7.6499 7.93323,-7.6499c4.38141,0 7.93323,3.42498 7.93323,7.6499z" fill="#acacac" stroke-width="NaN"/><text transform="translate(230.59665,178.65014) scale(0.11099,0.11099)" font-size="40" xml:space="preserve" fill="#ffffff" fill-rule="nonzero" stroke="none" stroke-width="1" stroke-linecap="butt" stroke-linejoin="miter" stroke-miterlimit="10" stroke-dasharray="" stroke-dashoffset="0" font-family="Handwriting" font-weight="normal" text-anchor="start" style="mix-blend-mode: normal"><tspan x="0" dy="0">DOWN</tspan></text></g></g></svg>