<svg version="1.1" xmlns="http://www.w3.org/2000/svg" xmlns:xlink="http://www.w3.org/1999/xlink" width="208.80282" height="71.43364" viewBox="0,0,208.80282,71.43364"><defs><radialGradient cx="238.75001" cy="179.375" r="35.375" gradientUnits="userSpaceOnUse" id="color-1"><stop offset="0" stop-color="#ffffff"/><stop offset="1" stop-color="#d93b3b"/></radialGradient><linearGradient x1="239.90614" y1="166.72575" x2="239.90614" y2="158.65272" gradientUnits="userSpaceOnUse" id="color-2"><stop offset="0" stop-color="#d5d5d5"/><stop offset="1" stop-color="#ffffff"/></linearGradient><linearGradient x1="240.08613" y1="151.83783" x2="240.08613" y2="159.91086" gradientUnits="userSpaceOnUse" id="color-3"><stop offset="0" stop-color="#d5d5d5"/><stop offset="1" stop-color="#ffffff"/></linearGradient><linearGradient x1="231.32637" y1="154.58304" x2="231.32637" y2="162.76065" gradientUnits="userSpaceOnUse" id="color-4"><stop offset="0" stop-color="#9c9c9c"/><stop offset="1" stop-color="#e9e9e9"/></linearGradient><linearGradient x1="228.22144" y1="156.4522" x2="228.22144" y2="158.08773" gradientUnits="userSpaceOnUse" id="color-5"><stop offset="0" stop-color="#ffffff"/><stop offset="1" stop-color="#dbdbdb"/></linearGradient><linearGradient x1="234.53482" y1="156.68586" x2="234.53482" y2="158.32138" gradientUnits="userSpaceOnUse" id="color-6"><stop offset="0" stop-color="#ffffff"/><stop offset="1" stop-color="#dbdbdb"/></linearGradient><linearGradient x1="247.67289" y1="154.31503" x2="247.67289" y2="162.49264" gradientUnits="userSpaceOnUse" id="color-7"><stop offset="0" stop-color="#9c9c9c"/><stop offset="1" stop-color="#e9e9e9"/></linearGradient><linearGradient x1="244.56795" y1="156.1842" x2="244.56795" y2="157.81972" gradientUnits="userSpaceOnUse" id="color-8"><stop offset="0" stop-color="#ffffff"/><stop offset="1" stop-color="#dbdbdb"/></linearGradient><linearGradient x1="250.88127" y1="156.41784" x2="250.88127" y2="158.05336" gradientUnits="userSpaceOnUse" id="color-9"><stop offset="0" stop-color="#ffffff"/><stop offset="1" stop-color="#dbdbdb"/></linearGradient><linearGradient x1="239.48566" y1="154.36537" x2="239.48566" y2="158.59848" gradientUnits="userSpaceOnUse" id="color-10"><stop offset="0" stop-color="#000000"/><stop offset="1" stop-color="#ffffff"/></linearGradient><linearGradient x1="239.43695" y1="162.83159" x2="239.43695" y2="158.59848" gradientUnits="userSpaceOnUse" id="color-11"><stop offset="0" stop-color="#000000"/><stop offset="1" stop-color="#ffffff"/></linearGradient></defs><g transform="translate(-202.37501,-142.44136)"><g data-paper-data="{&quot;isPaintingLayer&quot;:true}" fill-rule="nonzero" stroke-linejoin="miter" stroke-miterlimit="10" stroke-dasharray="" stroke-dashoffset="0" style="mix-blend-mode: normal"><path d="M203.37501,212.875v-67h70.75v67z" fill="url(#color-1)" stroke="#000000" stroke-width="2" stroke-linecap="butt"/><path d="M233.74657,207.94508v-55.89016h12.50689v55.89016z" fill="#656565" stroke="#000000" stroke-width="1" stroke-linecap="butt"/><path d="M240.04609,154.7908l-0.31568,41.03823" fill="none" stroke="#ffffff" stroke-width="1.5" stroke-linecap="round"/><path d="M239.77315,195.96401l-0.08499,9.26435" fill="none" stroke="#ff9708" stroke-width="1.5" stroke-linecap="round"/><path d="M239.09321,196.66475l-2.97479,4.16471" fill="none" stroke="#ff9708" stroke-width="0.5" stroke-linecap="round"/><path d="M239.17126,199.46267l-2.97479,4.16471" fill="none" stroke="#ff9708" stroke-width="0.5" stroke-linecap="round"/><path d="M236.35957,206.17032l2.97479,-4.16471" fill="none" stroke="#ff9708" stroke-width="0.5" stroke-linecap="round"/><text transform="translate(241.07768,156.85168) scale(0.0502,0.0502)" font-size="40" xml:space="preserve" fill="#ffffff" fill-rule="nonzero" stroke="none" stroke-width="1" stroke-linecap="butt" stroke-linejoin="miter" stroke-miterlimit="10" stroke-dasharray="" stroke-dashoffset="0" font-family="Sans Serif" font-weight="normal" text-anchor="start" style="mix-blend-mode: normal"><tspan x="0" dy="0">MAX</tspan></text><text transform="translate(241.07768,205.78076) scale(0.06085,0.06085)" font-size="40" xml:space="preserve" fill="#ffffff" fill-rule="nonzero" stroke="none" stroke-width="1" stroke-linecap="butt" stroke-linejoin="miter" stroke-miterlimit="10" stroke-dasharray="" stroke-dashoffset="0" font-family="Sans Serif" font-weight="normal" text-anchor="start" style="mix-blend-mode: normal"><tspan x="0" dy="0">反推</tspan></text><text transform="translate(279.06064,164.19136) scale(0.5,0.5)" font-size="40" xml:space="preserve" fill="#ffffff" fill-rule="nonzero" stroke="none" stroke-width="1" stroke-linecap="butt" stroke-linejoin="miter" stroke-miterlimit="10" stroke-dasharray="" stroke-dashoffset="0" font-family="Sans Serif" font-weight="normal" text-anchor="start" style="mix-blend-mode: normal"><tspan x="0" dy="0">最大推力125%</tspan></text><g><path d="M245.92111,158.65272v8.07304h-12.03004v-8.07304z" data-paper-data="{&quot;index&quot;:null}" fill="url(#color-2)" stroke="#000000" stroke-width="0.35" stroke-linecap="butt"/><path d="M234.07108,159.91086v-8.07304h12.03005v8.07304z" fill="url(#color-3)" stroke="#000000" stroke-width="0.35" stroke-linecap="butt"/><g><path d="M231.63564,161.5345c-2.07829,0.01939 -6.62256,1.22614 -6.62256,1.22614v-8.06078c0,0 3.73151,1.98599 6.41683,1.98599c2.68532,0 6.20984,-2.10281 6.20984,-2.10281l-0.1035,8.06078c0,0 -3.80466,-1.12888 -5.90062,-1.10932z" fill="url(#color-4)" stroke="#000000" stroke-width="0.25" stroke-linecap="round"/><path d="M226.048,162.64382v-7.47667" fill="none" stroke="#000000" stroke-width="0.25" stroke-linecap="round"/><path d="M236.50124,162.527v-7.47667" fill="none" stroke="#000000" stroke-width="0.25" stroke-linecap="round"/><path d="M226.66904,156.4522l3.20841,1.5187l-3.31191,0.11683z" fill="url(#color-5)" stroke="none" stroke-width="0" stroke-linecap="round"/><path d="M236.1908,158.32138l-3.31191,-0.11683l3.20841,-1.5187z" data-paper-data="{&quot;index&quot;:null}" fill="url(#color-6)" stroke="none" stroke-width="0" stroke-linecap="round"/><path d="M224.90955,158.32138h0.93148" fill="none" stroke="#000000" stroke-width="0.25" stroke-linecap="round"/><path d="M237.32923,158.4382h-0.93148" fill="none" stroke="#000000" stroke-width="0.25" stroke-linecap="round"/><path d="M253.88269,162.37581c0,0 -3.80466,-1.12888 -5.90062,-1.10932c-2.07828,0.01939 -6.62254,1.22614 -6.62254,1.22614v-8.06078c0,0 3.73151,1.98599 6.41683,1.98599c2.68533,0 6.20984,-2.10281 6.20984,-2.10281l-0.1035,8.06078z" fill="url(#color-7)" stroke="#000000" stroke-width="0.25" stroke-linecap="round"/><path d="M242.39451,162.37582v-7.47667" fill="none" stroke="#000000" stroke-width="0.25" stroke-linecap="round"/><path d="M252.84777,162.25899v-7.47667" fill="none" stroke="#000000" stroke-width="0.25" stroke-linecap="round"/><path d="M243.01548,156.1842l3.20841,1.5187l-3.31191,0.11683z" fill="url(#color-8)" stroke="none" stroke-width="0" stroke-linecap="round"/><path d="M252.53724,158.05336l-3.31191,-0.11683l3.20841,-1.5187z" data-paper-data="{&quot;index&quot;:null}" fill="url(#color-9)" stroke="none" stroke-width="0" stroke-linecap="round"/><path d="M241.25602,158.05336h0.93148" fill="none" stroke="#000000" stroke-width="0.25" stroke-linecap="round"/><path d="M252.74426,158.17019h0.93148" fill="none" stroke="#000000" stroke-width="0.25" stroke-linecap="round"/><path d="M237.73234,158.59848v-4.23311h3.50674v4.23311z" fill="url(#color-10)" stroke="none" stroke-width="NaN" stroke-linecap="butt"/><path d="M241.19035,158.59848v4.23311h-3.50674v-4.23311z" data-paper-data="{&quot;index&quot;:null}" fill="url(#color-11)" stroke="none" stroke-width="NaN" stroke-linecap="butt"/></g></g><text transform="translate(241.98719,165.84298) scale(0.5,0.5)" font-size="40" xml:space="preserve" fill="#ff3b3b" fill-rule="nonzero" stroke="none" stroke-width="1" stroke-linecap="butt" stroke-linejoin="miter" stroke-miterlimit="10" stroke-dasharray="" stroke-dashoffset="0" font-family="Sans Serif" font-weight="normal" text-anchor="start" style="mix-blend-mode: normal"><tspan x="0" dy="0">＋</tspan></text><text transform="translate(219.0515,165.09151) scale(0.5,0.5)" font-size="40" xml:space="preserve" fill="#e43535" fill-rule="nonzero" stroke="none" stroke-width="1" stroke-linecap="butt" stroke-linejoin="miter" stroke-miterlimit="10" stroke-dasharray="" stroke-dashoffset="0" font-family="Sans Serif" font-weight="normal" text-anchor="start" style="mix-blend-mode: normal"><tspan x="0" dy="0">＋</tspan></text><g stroke="none" stroke-width="1" stroke-linecap="butt"><path d="M212.2635,154.43047l-1.82577,-1.98453l1.82577,-3.8103z" fill="#b20000"/><path d="M212.18415,154.43047l-6.033,-1.3495l4.20724,-0.63504z" fill="#dc0000"/><path d="M212.3429,154.43047v-5.79487l1.82577,3.8103z" fill="#e80000"/><path d="M212.2635,154.43047l1.82577,-1.98453l4.20724,0.63505z" fill="#ff0000"/><path d="M212.2635,154.43047l6.03305,-1.3495l-3.01653,2.93712z" fill="#b20000"/><path d="M215.28004,155.93872l0.71445,4.20721l-3.73093,-5.71547z" fill="#ff0000"/><path d="M212.2635,154.43047l-3.01653,1.58763l-3.01653,-2.93712z" fill="#b20000"/><path d="M212.2635,154.50983l-3.73096,5.71547l0.71445,-4.20724z" fill="#dc0000"/><path d="M212.2635,154.43047v3.73096l-3.73096,1.98453z" fill="#b20000"/><path d="M215.99449,160.22534l-3.73093,-1.98453v-3.8103c0,0 0.33149,0.51487 0.6156,0.95614c0.63912,0.99268 3.11533,4.83869 3.11533,4.83869z" fill="#e80000"/></g><g stroke="none" stroke-width="1" stroke-linecap="butt"><path d="M212.60759,164.90806l-1.82577,-1.98453l1.82577,-3.8103z" fill="#b20000"/><path d="M212.52817,164.90806l-6.033,-1.3495l4.20724,-0.63504z" fill="#dc0000"/><path d="M212.68692,164.90806v-5.79487l1.82577,3.8103z" fill="#e80000"/><path d="M212.60759,164.90806l1.82577,-1.98453l4.20724,0.63505z" fill="#ff0000"/><path d="M212.60759,164.90806l6.03305,-1.3495l-3.01653,2.93712z" fill="#b20000"/><path d="M215.62406,166.41631l0.71445,4.20721l-3.73093,-5.71547z" fill="#ff0000"/><path d="M212.60759,164.90806l-3.01653,1.58763l-3.01653,-2.93712z" fill="#b20000"/><path d="M212.60759,164.98742l-3.73096,5.71547l0.71445,-4.20724z" fill="#dc0000"/><path d="M212.60759,164.90806v3.73096l-3.73096,1.98453z" fill="#b20000"/><path d="M216.33852,170.70293l-3.73093,-1.98453v-3.8103c0,0 0.33149,0.51487 0.6156,0.95614c0.63912,0.99268 3.11533,4.83869 3.11533,4.83869z" fill="#e80000"/></g><g stroke="none" stroke-width="1" stroke-linecap="butt"><path d="M212.2635,174.97142l-1.82577,-1.98453l1.82577,-3.8103z" fill="#b20000"/><path d="M212.18415,174.97142l-6.033,-1.3495l4.20724,-0.63504z" fill="#dc0000"/><path d="M212.3429,174.97142v-5.79487l1.82577,3.8103z" fill="#e80000"/><path d="M212.2635,174.97142l1.82577,-1.98453l4.20724,0.63505z" fill="#ff0000"/><path d="M212.2635,174.97142l6.03305,-1.3495l-3.01653,2.93712z" fill="#b20000"/><path d="M215.28003,176.47967l0.71445,4.20721l-3.73093,-5.71547z" fill="#ff0000"/><path d="M212.2635,174.97142l-3.01653,1.58763l-3.01653,-2.93712z" fill="#b20000"/><path d="M212.2635,175.05078l-3.73096,5.71547l0.71445,-4.20724z" fill="#dc0000"/><path d="M212.2635,174.97142v3.73096l-3.73096,1.98453z" fill="#b20000"/><path d="M215.99448,180.76629l-3.73093,-1.98453v-3.8103c0,0 0.33149,0.51487 0.6156,0.95614c0.63912,0.99268 3.11533,4.83869 3.11533,4.83869z" fill="#e80000"/></g><g stroke="none" stroke-width="1" stroke-linecap="butt"><path d="M212.53738,186.20047l-1.82577,-1.98453l1.82577,-3.8103z" fill="#b20000"/><path d="M212.45797,186.20047l-6.033,-1.3495l4.20724,-0.63504z" fill="#dc0000"/><path d="M212.61673,186.20047v-5.79487l1.82577,3.8103z" fill="#e80000"/><path d="M212.53738,186.20047l1.82577,-1.98453l4.20724,0.63505z" fill="#ff0000"/><path d="M212.53738,186.20047l6.03305,-1.3495l-3.01653,2.93712z" fill="#b20000"/><path d="M215.55386,187.70872l0.71445,4.20721l-3.73093,-5.71547z" fill="#ff0000"/><path d="M212.53738,186.20047l-3.01653,1.58763l-3.01653,-2.93712z" fill="#b20000"/><path d="M212.53738,186.27983l-3.73096,5.71547l0.71445,-4.20724z" fill="#dc0000"/><path d="M212.53738,186.20047v3.73096l-3.73096,1.98453z" fill="#b20000"/><path d="M216.26831,191.99534l-3.73093,-1.98453v-3.8103c0,0 0.33149,0.51487 0.6156,0.95614c0.63912,0.99268 3.11533,4.83869 3.11533,4.83869z" fill="#e80000"/></g><g stroke="none" stroke-width="1" stroke-linecap="butt"><path d="M212.05979,198.32133l-1.82577,-1.98453l1.82577,-3.8103z" fill="#b20000"/><path d="M211.9804,198.32133l-6.033,-1.3495l4.20724,-0.63504z" fill="#dc0000"/><path d="M212.13916,198.32133v-5.79487l1.82577,3.8103z" fill="#e80000"/><path d="M212.05979,198.32133l1.82577,-1.98453l4.20724,0.63505z" fill="#ff0000"/><path d="M212.05979,198.32133l6.03305,-1.3495l-3.01653,2.93712z" fill="#b20000"/><path d="M215.07627,199.82958l0.71445,4.20721l-3.73093,-5.71547z" fill="#ff0000"/><path d="M212.05979,198.32133l-3.01653,1.58763l-3.01653,-2.93712z" fill="#b20000"/><path d="M212.05979,198.40069l-3.73096,5.71547l0.71445,-4.20724z" fill="#dc0000"/><path d="M212.05979,198.32133v3.73096l-3.73096,1.98453z" fill="#b20000"/><path d="M215.79072,204.1162l-3.73093,-1.98453v-3.8103c0,0 0.33149,0.51487 0.6156,0.95614c0.63912,0.99268 3.11533,4.83869 3.11533,4.83869z" fill="#e80000"/></g></g></g></svg>