<svg version="1.1" xmlns="http://www.w3.org/2000/svg" xmlns:xlink="http://www.w3.org/1999/xlink" width="208.8028" height="71.43364" viewBox="0,0,208.8028,71.43364"><defs><radialGradient cx="238.75" cy="179.375" r="35.375" gradientUnits="userSpaceOnUse" id="color-1"><stop offset="0" stop-color="#ffffff"/><stop offset="1" stop-color="#868686"/></radialGradient><linearGradient x1="240.17995" y1="182.61074" x2="240.17995" y2="174.53771" gradientUnits="userSpaceOnUse" id="color-2"><stop offset="0" stop-color="#d5d5d5"/><stop offset="1" stop-color="#ffffff"/></linearGradient><linearGradient x1="240.35995" y1="167.72282" x2="240.35995" y2="175.79585" gradientUnits="userSpaceOnUse" id="color-3"><stop offset="0" stop-color="#d5d5d5"/><stop offset="1" stop-color="#ffffff"/></linearGradient><linearGradient x1="231.60023" y1="170.46803" x2="231.60023" y2="178.64564" gradientUnits="userSpaceOnUse" id="color-4"><stop offset="0" stop-color="#9c9c9c"/><stop offset="1" stop-color="#e9e9e9"/></linearGradient><linearGradient x1="228.49531" y1="172.33719" x2="228.49531" y2="173.97272" gradientUnits="userSpaceOnUse" id="color-5"><stop offset="0" stop-color="#ffffff"/><stop offset="1" stop-color="#dbdbdb"/></linearGradient><linearGradient x1="234.80865" y1="172.57085" x2="234.80865" y2="174.20637" gradientUnits="userSpaceOnUse" id="color-6"><stop offset="0" stop-color="#ffffff"/><stop offset="1" stop-color="#dbdbdb"/></linearGradient><linearGradient x1="247.94671" y1="170.20002" x2="247.94671" y2="178.37763" gradientUnits="userSpaceOnUse" id="color-7"><stop offset="0" stop-color="#9c9c9c"/><stop offset="1" stop-color="#e9e9e9"/></linearGradient><linearGradient x1="244.8418" y1="172.06919" x2="244.8418" y2="173.70471" gradientUnits="userSpaceOnUse" id="color-8"><stop offset="0" stop-color="#ffffff"/><stop offset="1" stop-color="#dbdbdb"/></linearGradient><linearGradient x1="251.15513" y1="172.30283" x2="251.15513" y2="173.93835" gradientUnits="userSpaceOnUse" id="color-9"><stop offset="0" stop-color="#ffffff"/><stop offset="1" stop-color="#dbdbdb"/></linearGradient><linearGradient x1="239.75952" y1="170.25036" x2="239.75952" y2="174.48347" gradientUnits="userSpaceOnUse" id="color-10"><stop offset="0" stop-color="#000000"/><stop offset="1" stop-color="#ffffff"/></linearGradient><linearGradient x1="239.7108" y1="178.71658" x2="239.7108" y2="174.48347" gradientUnits="userSpaceOnUse" id="color-11"><stop offset="0" stop-color="#000000"/><stop offset="1" stop-color="#ffffff"/></linearGradient></defs><g transform="translate(-202.375,-142.44136)"><g data-paper-data="{&quot;isPaintingLayer&quot;:true}" fill-rule="nonzero" stroke-linejoin="miter" stroke-miterlimit="10" stroke-dasharray="" stroke-dashoffset="0" style="mix-blend-mode: normal"><path d="M203.375,212.875v-67h70.75v67z" fill="url(#color-1)" stroke="#000000" stroke-width="2" stroke-linecap="butt"/><path d="M233.74656,207.94508v-55.89016h12.50689v55.89016z" fill="#656565" stroke="#000000" stroke-width="1" stroke-linecap="butt"/><path d="M240.04608,154.7908l-0.31568,41.03823" fill="none" stroke="#ffffff" stroke-width="1.5" stroke-linecap="round"/><path d="M239.6881,205.22836l0.08499,-9.26435" fill="none" stroke="#ff9708" stroke-width="1.5" stroke-linecap="round"/><path d="M236.11835,200.82946l2.97479,-4.16471" fill="none" stroke="#ff9708" stroke-width="0.5" stroke-linecap="round"/><path d="M239.17124,199.46267l-2.97479,4.16471" fill="none" stroke="#ff9708" stroke-width="0.5" stroke-linecap="round"/><path d="M239.33435,202.00561l-2.97479,4.16471" fill="none" stroke="#ff9708" stroke-width="0.5" stroke-linecap="round"/><text transform="translate(241.07765,156.85168) scale(0.0502,0.0502)" font-size="40" xml:space="preserve" fill="#ffffff" fill-rule="nonzero" stroke="none" stroke-width="1" stroke-linecap="butt" stroke-linejoin="miter" stroke-miterlimit="10" stroke-dasharray="" stroke-dashoffset="0" font-family="Sans Serif" font-weight="normal" text-anchor="start" style="mix-blend-mode: normal"><tspan x="0" dy="0">MAX</tspan></text><text transform="translate(241.07765,205.78076) scale(0.06085,0.06085)" font-size="40" xml:space="preserve" fill="#ffffff" fill-rule="nonzero" stroke="none" stroke-width="1" stroke-linecap="butt" stroke-linejoin="miter" stroke-miterlimit="10" stroke-dasharray="" stroke-dashoffset="0" font-family="Sans Serif" font-weight="normal" text-anchor="start" style="mix-blend-mode: normal"><tspan x="0" dy="0">反推</tspan></text><text transform="translate(279.06061,164.19136) scale(0.5,0.5)" font-size="40" xml:space="preserve" fill="#ffffff" fill-rule="nonzero" stroke="none" stroke-width="1" stroke-linecap="butt" stroke-linejoin="miter" stroke-miterlimit="10" stroke-dasharray="" stroke-dashoffset="0" font-family="Sans Serif" font-weight="normal" text-anchor="start" style="mix-blend-mode: normal"><tspan x="0" dy="0">最大推力100%</tspan></text><g><path d="M246.19497,174.53771v8.07304h-12.03004v-8.07304z" data-paper-data="{&quot;index&quot;:null}" fill="url(#color-2)" stroke="#000000" stroke-width="0.35" stroke-linecap="butt"/><path d="M234.34492,175.79585v-8.07304h12.03005v8.07304z" fill="url(#color-3)" stroke="#000000" stroke-width="0.35" stroke-linecap="butt"/><g><path d="M231.90945,177.41949c-2.07829,0.01939 -6.62256,1.22614 -6.62256,1.22614v-8.06078c0,0 3.73151,1.98599 6.41683,1.98599c2.68532,0 6.20984,-2.10281 6.20984,-2.10281l-0.1035,8.06078c0,0 -3.80466,-1.12888 -5.90062,-1.10932z" fill="url(#color-4)" stroke="#000000" stroke-width="0.25" stroke-linecap="round"/><path d="M226.32187,171.05214v7.47667" fill="none" stroke="#000000" stroke-width="0.25" stroke-linecap="round"/><path d="M236.7751,178.41199v-7.47667" fill="none" stroke="#000000" stroke-width="0.25" stroke-linecap="round"/><path d="M226.94286,172.33719l3.20841,1.5187l-3.31191,0.11683z" fill="url(#color-5)" stroke="none" stroke-width="0" stroke-linecap="round"/><path d="M236.46461,174.20637l-3.31191,-0.11683l3.20841,-1.5187z" data-paper-data="{&quot;index&quot;:null}" fill="url(#color-6)" stroke="none" stroke-width="0" stroke-linecap="round"/><path d="M225.1834,174.20637h0.93148" fill="none" stroke="#000000" stroke-width="0.25" stroke-linecap="round"/><path d="M236.6716,174.32319h0.93148" fill="none" stroke="#000000" stroke-width="0.25" stroke-linecap="round"/><path d="M254.15655,178.2608c0,0 -3.80466,-1.12888 -5.90062,-1.10932c-2.07828,0.01939 -6.62254,1.22614 -6.62254,1.22614v-8.06078c0,0 3.73151,1.98599 6.41683,1.98599c2.68533,0 6.20984,-2.10281 6.20984,-2.10281l-0.1035,8.06078z" fill="url(#color-7)" stroke="#000000" stroke-width="0.25" stroke-linecap="round"/><path d="M242.66835,170.78414v7.47667" fill="none" stroke="#000000" stroke-width="0.25" stroke-linecap="round"/><path d="M253.12158,170.66731v7.47667" fill="none" stroke="#000000" stroke-width="0.25" stroke-linecap="round"/><path d="M243.28933,172.06919l3.20841,1.5187l-3.31191,0.11683z" fill="url(#color-8)" stroke="none" stroke-width="0" stroke-linecap="round"/><path d="M252.81109,173.93835l-3.31191,-0.11683l3.20841,-1.5187z" data-paper-data="{&quot;index&quot;:null}" fill="url(#color-9)" stroke="none" stroke-width="0" stroke-linecap="round"/><path d="M242.46136,173.93835h-0.93148" fill="none" stroke="#000000" stroke-width="0.25" stroke-linecap="round"/><path d="M253.01809,174.05518h0.93148" fill="none" stroke="#000000" stroke-width="0.25" stroke-linecap="round"/><path d="M238.00615,174.48347v-4.23311h3.50674v4.23311z" fill="url(#color-10)" stroke="none" stroke-width="NaN" stroke-linecap="butt"/><path d="M241.46417,174.48347v4.23311h-3.50674v-4.23311z" data-paper-data="{&quot;index&quot;:null}" fill="url(#color-11)" stroke="none" stroke-width="NaN" stroke-linecap="butt"/></g></g><text transform="translate(241.16554,177.61979) scale(0.5,0.5)" font-size="40" xml:space="preserve" fill="#ff3b3b" fill-rule="nonzero" stroke="none" stroke-width="1" stroke-linecap="butt" stroke-linejoin="miter" stroke-miterlimit="10" stroke-dasharray="" stroke-dashoffset="0" font-family="Sans Serif" font-weight="normal" text-anchor="start" style="mix-blend-mode: normal"><tspan x="0" dy="0">＋</tspan></text><text transform="translate(216.86046,177.1422) scale(0.5,0.5)" font-size="40" xml:space="preserve" fill="#e43535" fill-rule="nonzero" stroke="none" stroke-width="1" stroke-linecap="butt" stroke-linejoin="miter" stroke-miterlimit="10" stroke-dasharray="" stroke-dashoffset="0" font-family="Sans Serif" font-weight="normal" text-anchor="start" style="mix-blend-mode: normal"><tspan x="0" dy="0">＋</tspan></text></g></g></svg>