<svg version="1.1" xmlns="http://www.w3.org/2000/svg" xmlns:xlink="http://www.w3.org/1999/xlink" width="56.5621" height="49.00774" viewBox="0,0,56.5621,49.00774"><g transform="translate(-217.59883,-142.45656)"><g data-paper-data="{&quot;isPaintingLayer&quot;:true}" fill-rule="nonzero" stroke-linejoin="miter" stroke-miterlimit="10" stroke-dasharray="" stroke-dashoffset="0" style="mix-blend-mode: normal"><path d="M225.81891,159.37348c0,0 47.253,0.90594 47.51472,0.51466c0.15093,-0.22564 -8.90901,7.3815 -8.90901,7.3815l-45.68723,-0.24675z" fill="#a3a3a3" stroke="#000000" stroke-width="1" stroke-linecap="round"/><g><path d="M234.90633,145.04796l-0.24807,5.95719l-5.45749,3.57432l-4.96135,-4.44082l0.24807,-4.54913l6.07765,-2.5995z" fill="#939b55" stroke="none" stroke-width="0" stroke-linecap="round"/><path d="M224.66927,167.50162l0.11349,-17.25425l4.4427,4.30348l5.25056,-2.86604v15.81681z" fill="#a6af60" stroke="#000000" stroke-width="0" stroke-linecap="butt"/><path d="M230.85912,148.40663l-2.84185,2.25605l-2.0668,-2.25605l1.0334,-2.70726l4.6503,-0.22561l1.29175,4.7377l-4.6503,2.25605l-4.1336,-3.38407v-4.06087l6.7171,-2.03044l4.1336,2.03044v5.64011l-5.167,2.93285" fill="none" stroke="#000000" stroke-width="1" stroke-linecap="round"/><path d="M224.14202,167.58301v-18.04836" fill="none" stroke="#000000" stroke-width="1" stroke-linecap="round"/><path d="M234.99272,150.21147l0.25835,17.59715" fill="none" stroke="#000000" stroke-width="1" stroke-linecap="round"/></g><path d="M218.59818,188.85722v-21.64781h46.24761v21.64781z" fill="#bdbdbd" stroke="#000000" stroke-width="1" stroke-linecap="butt"/><path d="M264.98629,188.92766c-0.18843,-0.37461 -0.18129,-21.76951 -0.18129,-21.76951l8.85593,-7.55429v21.15203c0,0 -8.52807,8.46316 -8.67464,8.17177z" fill="#bdbdbd" stroke="#000000" stroke-width="1" stroke-linecap="round"/><text transform="translate(220.74345,185.21431) scale(0.5,0.5)" font-size="40" xml:space="preserve" fill="#fafafa" fill-rule="nonzero" stroke="none" stroke-width="1" stroke-linecap="butt" stroke-linejoin="miter" stroke-miterlimit="10" stroke-dasharray="" stroke-dashoffset="0" font-family="Sans Serif" font-weight="normal" text-anchor="start" style="mix-blend-mode: normal"><tspan x="0" dy="0">MAP</tspan></text></g></g></svg>