<svg version="1.1" xmlns="http://www.w3.org/2000/svg" xmlns:xlink="http://www.w3.org/1999/xlink" width="207.99807" height="71.43365" viewBox="0,0,207.99807,71.43365"><defs><radialGradient cx="238.75005" cy="179.37501" r="35.375" gradientUnits="userSpaceOnUse" id="color-1"><stop offset="0" stop-color="#ffffff"/><stop offset="1" stop-color="#72d857"/></radialGradient></defs><g transform="translate(-202.37505,-142.44136)"><g data-paper-data="{&quot;isPaintingLayer&quot;:true}" fill-rule="nonzero" stroke-linejoin="miter" stroke-miterlimit="10" stroke-dasharray="" stroke-dashoffset="0" style="mix-blend-mode: normal"><path d="M203.37505,212.87501v-67h70.75v67z" fill="url(#color-1)" stroke="#000000" stroke-width="2" stroke-linecap="butt"/><text transform="translate(279.06062,164.19136) scale(0.5,0.5)" font-size="40" xml:space="preserve" fill="#ffffff" fill-rule="nonzero" stroke="none" stroke-width="1" stroke-linecap="butt" stroke-linejoin="miter" stroke-miterlimit="10" stroke-dasharray="" stroke-dashoffset="0" font-family="Sans Serif" font-weight="normal" text-anchor="start" style="mix-blend-mode: normal"><tspan x="0" dy="0">油价25币/单位</tspan></text><path d="M246.33107,189.87985c0,4.13288 -3.14934,7.48325 -7.03425,7.48325c-3.88491,0 -7.03425,-3.35036 -7.03425,-7.48325c0,-4.13288 7.18392,-16.16381 7.18392,-16.16381c0,0 6.88459,12.03093 6.88459,16.16381z" fill="#ff9708" stroke="#ff9708" stroke-width="0.5" stroke-linecap="butt"/><path d="M255.09251,178.11077c0,2.73499 -2.08412,4.95215 -4.65502,4.95215c-2.5709,0 -4.65502,-2.21716 -4.65502,-4.95215c0,-2.73499 4.75406,-10.69664 4.75406,-10.69664c0,0 4.55598,7.96165 4.55598,10.69664z" fill="#ff9708" stroke="#ff9708" stroke-width="0.5" stroke-linecap="butt"/><text transform="translate(233.65357,192.58152) scale(0.26641,0.26641)" font-size="40" xml:space="preserve" fill="#ffffff" fill-rule="nonzero" stroke="none" stroke-width="1" stroke-linecap="butt" stroke-linejoin="miter" stroke-miterlimit="10" stroke-dasharray="" stroke-dashoffset="0" font-family="Sans Serif" font-weight="normal" text-anchor="start" style="mix-blend-mode: normal"><tspan x="0" dy="0">油</tspan></text><path d="M232.09855,172.88911c0,3.19471 -2.43444,5.78453 -5.43746,5.78453c-3.00302,0 -5.43746,-2.58983 -5.43746,-5.78453c0,-3.19471 5.55315,-12.49459 5.55315,-12.49459c0,0 5.32177,9.29988 5.32177,12.49459z" fill="#ff9708" stroke="#ff9708" stroke-width="0.5" stroke-linecap="butt"/><path d="M262.99611,178.85041l-2.95762,3.34842l-0.12859,-13.39369l-0.74021,0.0371l-0.12859,13.39369l-2.95762,-3.34842" fill="none" stroke="#9bff08" stroke-width="1.5" stroke-linecap="round"/><path d="M223.83177,198.1082l-2.95762,3.34841l-0.12859,-13.39369l-0.74021,0.0371l-0.12859,13.3937l-2.95762,-3.34843" fill="none" stroke="#9bff08" stroke-width="1.5" stroke-linecap="round"/><g stroke="none" stroke-width="1" stroke-linecap="butt"><path d="M212.26353,154.43047l-1.82577,-1.98453l1.82577,-3.8103z" fill="#b20000"/><path d="M212.18415,154.43047l-6.033,-1.3495l4.20724,-0.63504z" fill="#dc0000"/><path d="M212.34291,154.43047v-5.79487l1.82577,3.8103z" fill="#e80000"/><path d="M212.26353,154.43047l1.82577,-1.98453l4.20724,0.63505z" fill="#ff0000"/><path d="M212.26353,154.43047l6.03305,-1.3495l-3.01653,2.93712z" fill="#b20000"/><path d="M215.28003,155.93872l0.71445,4.20721l-3.73093,-5.71547z" fill="#ff0000"/><path d="M212.26353,154.43047l-3.01653,1.58763l-3.01653,-2.93712z" fill="#b20000"/><path d="M212.26353,154.50983l-3.73096,5.71547l0.71445,-4.20724z" fill="#dc0000"/><path d="M212.26353,154.43047v3.73096l-3.73096,1.98453z" fill="#b20000"/><path d="M215.99448,160.22534l-3.73093,-1.98453v-3.8103c0,0 0.33149,0.51487 0.6156,0.95614c0.63912,0.99268 3.11533,4.83869 3.11533,4.83869z" fill="#e80000"/></g></g></g></svg>