<svg version="1.1" xmlns="http://www.w3.org/2000/svg" xmlns:xlink="http://www.w3.org/1999/xlink" width="35.37069" height="17.57507" viewBox="0,0,35.37069,17.57507"><defs><linearGradient x1="240.90461" y1="188.90416" x2="240.90461" y2="180.26605" gradientUnits="userSpaceOnUse" id="color-1"><stop offset="0" stop-color="#d5d5d5"/><stop offset="1" stop-color="#ffffff"/></linearGradient><linearGradient x1="241.12201" y1="171.6791" x2="241.12201" y2="180.31721" gradientUnits="userSpaceOnUse" id="color-2"><stop offset="0" stop-color="#d5d5d5"/><stop offset="1" stop-color="#ffffff"/></linearGradient><linearGradient x1="231.06075" y1="175.73043" x2="231.06075" y2="184.48043" gradientUnits="userSpaceOnUse" id="color-3"><stop offset="0" stop-color="#9c9c9c"/><stop offset="1" stop-color="#e9e9e9"/></linearGradient><linearGradient x1="227.31075" y1="177.73043" x2="227.31075" y2="179.48043" gradientUnits="userSpaceOnUse" id="color-4"><stop offset="0" stop-color="#ffffff"/><stop offset="1" stop-color="#dbdbdb"/></linearGradient><linearGradient x1="234.93575" y1="177.98043" x2="234.93575" y2="179.73043" gradientUnits="userSpaceOnUse" id="color-5"><stop offset="0" stop-color="#ffffff"/><stop offset="1" stop-color="#dbdbdb"/></linearGradient><linearGradient x1="250.80339" y1="175.44366" x2="250.80339" y2="184.19366" gradientUnits="userSpaceOnUse" id="color-6"><stop offset="0" stop-color="#9c9c9c"/><stop offset="1" stop-color="#e9e9e9"/></linearGradient><linearGradient x1="247.05339" y1="177.44366" x2="247.05339" y2="179.19366" gradientUnits="userSpaceOnUse" id="color-7"><stop offset="0" stop-color="#ffffff"/><stop offset="1" stop-color="#dbdbdb"/></linearGradient><linearGradient x1="254.67839" y1="177.69366" x2="254.67839" y2="179.44366" gradientUnits="userSpaceOnUse" id="color-8"><stop offset="0" stop-color="#ffffff"/><stop offset="1" stop-color="#dbdbdb"/></linearGradient><linearGradient x1="240.91521" y1="175.49752" x2="240.91521" y2="180.02693" gradientUnits="userSpaceOnUse" id="color-9"><stop offset="0" stop-color="#000000"/><stop offset="1" stop-color="#ffffff"/></linearGradient><linearGradient x1="240.85638" y1="184.55634" x2="240.85638" y2="180.02693" gradientUnits="userSpaceOnUse" id="color-10"><stop offset="0" stop-color="#000000"/><stop offset="1" stop-color="#ffffff"/></linearGradient></defs><g transform="translate(-223.18574,-171.50409)"><g data-paper-data="{&quot;isPaintingLayer&quot;:true}" fill-rule="nonzero" stroke-linejoin="miter" stroke-miterlimit="10" stroke-dasharray="" stroke-dashoffset="0" style="mix-blend-mode: normal"><path d="M248.16932,180.26605v8.63811h-14.52941v-8.63811z" data-paper-data="{&quot;index&quot;:null}" fill="url(#color-1)" stroke="#000000" stroke-width="0.35" stroke-linecap="butt"/><path d="M233.8573,180.31721v-8.63811h14.52942v8.63811z" fill="url(#color-2)" stroke="#000000" stroke-width="0.35" stroke-linecap="butt"/><g><path d="M238.56075,184.35543l0.125,-8.625c0,0 -4.25677,2.25 -7.5,2.25c-3.24323,0 -7.75,-2.125 -7.75,-2.125v8.625c0,0 5.48838,-1.29122 7.99846,-1.31197c2.53142,-0.02092 7.12654,1.18697 7.12654,1.18697z" fill="url(#color-3)" stroke="#000000" stroke-width="0.25" stroke-linecap="round"/><path d="M224.68575,176.35543v8" fill="none" stroke="#000000" stroke-width="0.25" stroke-linecap="round"/><path d="M237.31075,176.23043v8" fill="none" stroke="#000000" stroke-width="0.25" stroke-linecap="round"/><path d="M225.43575,177.73043l3.875,1.625l-4,0.125z" fill="url(#color-4)" stroke="none" stroke-width="0" stroke-linecap="round"/><path d="M236.93575,179.73043l-4,-0.125l3.875,-1.625z" data-paper-data="{&quot;index&quot;:null}" fill="url(#color-5)" stroke="none" stroke-width="0" stroke-linecap="round"/><path d="M223.31075,179.73043h1.125" fill="none" stroke="#000000" stroke-width="0.25" stroke-linecap="round"/><path d="M237.18575,179.85543h1.125" fill="none" stroke="#000000" stroke-width="0.25" stroke-linecap="round"/><path d="M258.30339,184.06866l0.125,-8.625c0,0 -4.25676,2.25 -7.5,2.25c-3.24323,0 -7.75,-2.125 -7.75,-2.125v8.625c0,0 5.48838,-1.29122 7.99845,-1.31197c2.53142,-0.02092 7.12654,1.18697 7.12654,1.18697z" fill="url(#color-6)" stroke="#000000" stroke-width="0.25" stroke-linecap="round"/><path d="M244.42839,176.06866v8" fill="none" stroke="#000000" stroke-width="0.25" stroke-linecap="round"/><path d="M257.05339,175.94366v8" fill="none" stroke="#000000" stroke-width="0.25" stroke-linecap="round"/><path d="M245.17839,177.44366l3.875,1.625l-4,0.125z" fill="url(#color-7)" stroke="none" stroke-width="0" stroke-linecap="round"/><path d="M256.67839,179.44366l-4,-0.125l3.875,-1.625z" data-paper-data="{&quot;index&quot;:null}" fill="url(#color-8)" stroke="none" stroke-width="0" stroke-linecap="round"/><path d="M243.05339,179.44366h1.125" fill="none" stroke="#000000" stroke-width="0.25" stroke-linecap="round"/><path d="M256.92839,179.56866h1.125" fill="none" stroke="#000000" stroke-width="0.25" stroke-linecap="round"/><path d="M238.79756,180.02693v-4.52941h4.2353v4.52941z" fill="url(#color-9)" stroke="none" stroke-width="none" stroke-linecap="butt"/><path d="M242.97403,180.02693v4.52941h-4.2353v-4.52941z" data-paper-data="{&quot;index&quot;:null}" fill="url(#color-10)" stroke="none" stroke-width="none" stroke-linecap="butt"/></g></g></g></svg>