<svg version="1.1" xmlns="http://www.w3.org/2000/svg" xmlns:xlink="http://www.w3.org/1999/xlink" width="66.2528" height="62.18798" viewBox="0,0,66.2528,62.18798"><g transform="translate(-206.8736,-148.90598)"><g data-paper-data="{&quot;isPaintingLayer&quot;:true}" fill-rule="nonzero" stroke-linejoin="miter" stroke-miterlimit="10" stroke-dasharray="" stroke-dashoffset="0" style="mix-blend-mode: normal"><path d="M208.0582,210.10343v-60.20683h63.8836v60.20683z" fill="#30b8ee" stroke="#000000" stroke-width="0" stroke-linecap="butt"/><path d="M207.71362,149.45203l12.43392,-0.29605c0,0 -5.8129,0.79266 -8.16283,3.82894c-2.59207,3.34914 -3.97505,9.49311 -3.97505,9.49311z" fill="#b0fecf" stroke="#b0fecf" stroke-width="0.5" stroke-linecap="round"/><path d="M272.27005,162.61622c0,0 -1.38297,-6.14398 -3.97504,-9.49312c-2.34992,-3.03628 -8.16283,-3.82894 -8.16283,-3.82894l12.43392,0.29605z" data-paper-data="{&quot;index&quot;:null}" fill="#b0fecf" stroke="#b0fecf" stroke-width="0.5" stroke-linecap="round"/><path d="M272.87079,209.74381l-12.43392,0.29604c0,0 5.8129,-0.79265 8.16283,-3.82893c2.59207,-3.34914 3.97505,-9.49312 3.97505,-9.49312z" data-paper-data="{&quot;index&quot;:null}" fill="#b0fecf" stroke="#b0fecf" stroke-width="0.5" stroke-linecap="round"/><path d="M207.42525,197.52198c0,0 1.38297,6.14398 3.97505,9.49312c2.34992,3.03628 8.16283,3.82893 8.16283,3.82893l-12.43392,-0.29605z" data-paper-data="{&quot;index&quot;:null}" fill="#b0fecf" stroke="#b0fecf" stroke-width="0.5" stroke-linecap="round"/><g fill="none" stroke="#000000" stroke-width="1"><path d="M228.92535,175.26759c-2.19096,2.91583 -6.34902,3.48979 -9.28728,1.28198c-2.93827,-2.20781 -3.54408,-6.36134 -1.35313,-9.27718c2.19096,-2.91583 6.34902,-3.4898 9.28728,-1.28199c2.93827,2.20781 3.54408,6.36135 1.35312,9.27719z" stroke-linecap="butt"/><g stroke-linecap="round"><path d="M225.22068,160.49263l5.16366,-2.7284l4.40082,3.39927l-1.18366,5.71896"/><path d="M233.59583,166.84879l4.69934,3.46752l-1.15207,5.44012l-5.66589,1.41609"/><path d="M225.08637,160.51316l5.16366,-2.72839l4.48967,3.28103l-1.18366,5.71896" data-paper-data="{&quot;index&quot;:null}"/><path d="M215.79391,165.41708l-0.21657,-5.83614l4.90464,-2.62045l4.63831,3.54876" data-paper-data="{&quot;index&quot;:null}"/><path d="M222.11,182.04534l-5.16367,2.72839l-4.48967,-3.28102l1.18366,-5.71896" data-paper-data="{&quot;index&quot;:null}"/><path d="M231.40247,177.14142l0.21657,5.83615l-4.90464,2.62045l-4.63831,-3.54876" data-paper-data="{&quot;index&quot;:null}"/><path d="M222.00352,182.02885l-5.16367,2.72839l-4.40082,-3.39927l1.18366,-5.71896" data-paper-data="{&quot;index&quot;:null}"/><path d="M213.62837,175.67268l-4.69934,-3.46753l1.15208,-5.44012l5.66588,-1.41609" data-paper-data="{&quot;index&quot;:null}"/></g></g><g fill="none" stroke="#000000" stroke-width="1"><path d="M256.49805,169.06128c-2.19096,2.91583 -6.34902,3.48979 -9.28728,1.28198c-2.93827,-2.20781 -3.54408,-6.36134 -1.35313,-9.27718c2.19096,-2.91583 6.34902,-3.4898 9.28728,-1.28199c2.93827,2.20781 3.54408,6.36135 1.35312,9.27719z" stroke-linecap="butt"/><g stroke-linecap="round"><path d="M252.79338,154.28632l5.16366,-2.7284l4.40082,3.39927l-1.18366,5.71896"/><path d="M261.16853,160.64248l4.69934,3.46752l-1.15207,5.44012l-5.66589,1.41609"/><path d="M252.65907,154.30685l5.16366,-2.72839l4.48967,3.28103l-1.18366,5.71896" data-paper-data="{&quot;index&quot;:null}"/><path d="M243.36661,159.21077l-0.21657,-5.83614l4.90464,-2.62045l4.63831,3.54876" data-paper-data="{&quot;index&quot;:null}"/><path d="M249.6827,175.83903l-5.16367,2.72839l-4.48967,-3.28102l1.18366,-5.71896" data-paper-data="{&quot;index&quot;:null}"/><path d="M258.97517,170.93511l0.21657,5.83615l-4.90464,2.62045l-4.63831,-3.54876" data-paper-data="{&quot;index&quot;:null}"/><path d="M249.57622,175.82254l-5.16367,2.72839l-4.40082,-3.39927l1.18366,-5.71896" data-paper-data="{&quot;index&quot;:null}"/><path d="M241.20107,169.46637l-4.69934,-3.46753l1.15208,-5.44012l5.66588,-1.41609" data-paper-data="{&quot;index&quot;:null}"/></g></g><g fill="none" stroke="#000000" stroke-width="1"><path d="M257.22905,197.7867c-2.64748,2.50864 -6.84298,2.37958 -9.37091,-0.28826c-2.52794,-2.66783 -2.43104,-6.86419 0.21642,-9.37284c2.64748,-2.50864 6.84298,-2.37959 9.37091,0.28825c2.52794,2.66783 2.43104,6.8642 -0.21643,9.37285z" stroke-linecap="butt"/><g stroke-linecap="round"><path d="M256.04588,182.60038l5.54703,-1.82701l3.77079,4.08697l-2.12284,5.4407"/><path d="M263.2409,190.2669l4.0537,4.20417l-2.04509,5.17105l-5.82287,0.44922"/><path d="M255.91003,182.59818l5.54703,-1.827l3.87815,3.98525l-2.12284,5.4407" data-paper-data="{&quot;index&quot;:null}"/><path d="M245.92866,185.88005l0.76189,-5.79025l5.27362,-1.76386l3.97996,4.27406" data-paper-data="{&quot;index&quot;:null}"/><path d="M249.37679,203.33004l-5.54704,1.827l-3.87815,-3.98524l2.12284,-5.4407" data-paper-data="{&quot;index&quot;:null}"/><path d="M259.35815,200.04818l-0.76189,5.79026l-5.27362,1.76386l-3.97996,-4.27406" data-paper-data="{&quot;index&quot;:null}"/><path d="M249.27456,203.29599l-5.54704,1.827l-3.77079,-4.08697l2.12284,-5.4407" data-paper-data="{&quot;index&quot;:null}"/><path d="M242.07954,195.62947l-4.0537,-4.20418l2.0451,-5.17105l5.82286,-0.44922" data-paper-data="{&quot;index&quot;:null}"/></g></g><text transform="translate(210.62347,198.08598) scale(0.33191,0.33191)" font-size="40" xml:space="preserve" fill="#ff0000" fill-rule="nonzero" stroke="none" stroke-width="1" stroke-linecap="butt" stroke-linejoin="miter" stroke-miterlimit="10" stroke-dasharray="" stroke-dashoffset="0" font-family="Sans Serif" font-weight="normal" text-anchor="start" style="mix-blend-mode: normal"><tspan x="0" dy="0">设置</tspan></text></g></g></svg>