<svg version="1.1" xmlns="http://www.w3.org/2000/svg" xmlns:xlink="http://www.w3.org/1999/xlink" width="68.88483" height="7.62857" viewBox="0,0,68.88483,7.62857"><g transform="translate(-205.55759,-175.68571)"><g data-paper-data="{&quot;isPaintingLayer&quot;:true}" fill-rule="nonzero" stroke-linejoin="miter" stroke-miterlimit="10" stroke-dasharray="" stroke-dashoffset="0" style="mix-blend-mode: normal"><g><path d="M215.36716,180.71721h-8.80957v-4.0315" fill="none" stroke="#ffffff" stroke-width="2" stroke-linecap="round"/><path d="M237.90551,181.14922c0,-1.19574 0.96933,-2.16506 2.16506,-2.16506c1.19574,0 2.16506,0.96933 2.16506,2.16506c0,1.19574 -0.96933,2.16506 -2.16506,2.16506c-1.19574,0 -2.16506,-0.96933 -2.16506,-2.16506z" fill="#ffffff" stroke="none" stroke-width="0.5" stroke-linecap="butt"/></g><g data-paper-data="{&quot;index&quot;:null}"><path d="M273.44241,176.68573v4.0315h-8.80957" fill="none" stroke="#ffffff" stroke-width="2" stroke-linecap="round"/><path d="M239.92943,183.31429c-1.19572,0 -2.16506,-0.96934 -2.16506,-2.16506c0,-1.19572 0.96934,-2.16506 2.16506,-2.16506c1.19572,0 2.16506,0.96934 2.16506,2.16506c0,1.19572 -0.96934,2.16506 -2.16506,2.16506z" fill="#ffffff" stroke="none" stroke-width="0.5" stroke-linecap="butt"/></g></g></g></svg>