<svg version="1.1" xmlns="http://www.w3.org/2000/svg" xmlns:xlink="http://www.w3.org/1999/xlink" width="66.2528" height="62.18798" viewBox="0,0,66.2528,62.18798"><g transform="translate(-206.8736,-148.90598)"><g data-paper-data="{&quot;isPaintingLayer&quot;:true}" fill-rule="nonzero" stroke-linejoin="miter" stroke-miterlimit="10" stroke-dasharray="" stroke-dashoffset="0" style="mix-blend-mode: normal"><path d="M208.0582,210.10343v-60.20683h63.8836v60.20683z" fill="#30b8ee" stroke="#000000" stroke-width="0" stroke-linecap="butt"/><path d="M207.71362,149.45203l12.43392,-0.29605c0,0 -5.8129,0.79266 -8.16283,3.82894c-2.59207,3.34914 -3.97505,9.49311 -3.97505,9.49311z" fill="#b0fecf" stroke="#b0fecf" stroke-width="0.5" stroke-linecap="round"/><path d="M272.27005,162.61622c0,0 -1.38297,-6.14398 -3.97504,-9.49312c-2.34992,-3.03628 -8.16283,-3.82894 -8.16283,-3.82894l12.43392,0.29605z" data-paper-data="{&quot;index&quot;:null}" fill="#b0fecf" stroke="#b0fecf" stroke-width="0.5" stroke-linecap="round"/><path d="M272.87079,209.74381l-12.43392,0.29604c0,0 5.8129,-0.79265 8.16283,-3.82893c2.59207,-3.34914 3.97505,-9.49312 3.97505,-9.49312z" data-paper-data="{&quot;index&quot;:null}" fill="#b0fecf" stroke="#b0fecf" stroke-width="0.5" stroke-linecap="round"/><path d="M207.42525,197.52198c0,0 1.38297,6.14398 3.97505,9.49312c2.34992,3.03628 8.16283,3.82893 8.16283,3.82893l-12.43392,-0.29605z" data-paper-data="{&quot;index&quot;:null}" fill="#b0fecf" stroke="#b0fecf" stroke-width="0.5" stroke-linecap="round"/><g fill="none" stroke="#000000" stroke-width="1"><path d="M226.78331,177.11505c-3.20567,1.73956 -7.22542,0.53106 -8.97837,-2.69925c-1.75296,-3.23033 -0.5753,-7.25921 2.63036,-8.99879c3.20567,-1.73956 7.22542,-0.53107 8.97837,2.69925c1.75296,3.23033 0.5753,7.25922 -2.63037,8.9988z" stroke-linecap="butt"/><g stroke-linecap="round"><path d="M229.56336,162.13857l5.83072,-0.33203l2.58701,4.92236l-3.45627,4.70763"/><path d="M234.53369,171.40354l2.83005,5.10865l-3.31151,4.46723l-5.74127,-1.07025"/><path d="M229.4327,162.10134l5.83072,-0.33202l2.71701,4.85182l-3.45627,4.70763" data-paper-data="{&quot;index&quot;:null}"/><path d="M218.94233,162.69333l2.23181,-5.39689l5.55027,-0.34167l2.74075,5.15712" data-paper-data="{&quot;index&quot;:null}"/><path d="M217.76557,180.44178l-5.83073,0.33202l-2.71701,-4.85181l3.45627,-4.70763" data-paper-data="{&quot;index&quot;:null}"/><path d="M228.25594,179.84979l-2.23183,5.3969l-5.55027,0.34167l-2.74075,-5.15712" data-paper-data="{&quot;index&quot;:null}"/><path d="M217.6756,180.38246l-5.83073,0.33202l-2.58701,-4.92236l3.45627,-4.70763" data-paper-data="{&quot;index&quot;:null}"/><path d="M212.70529,171.11748l-2.83005,-5.10866l3.31152,-4.46722l5.74126,1.07025" data-paper-data="{&quot;index&quot;:null}"/></g></g><g fill="none" stroke="#000000" stroke-width="1"><path d="M257.99268,165.22662c-0.0877,3.64618 -3.13735,6.53037 -6.81159,6.44199c-3.67425,-0.08837 -6.5817,-3.11582 -6.49402,-6.76202c0.0877,-3.64618 3.13735,-6.53038 6.81159,-6.442c3.67425,0.08837 6.5817,3.11583 6.49401,6.76203z" stroke-linecap="butt"/><g stroke-linecap="round"><path d="M246.3893,155.35819l2.61547,-5.22177l5.5569,0.20762l2.36144,5.34146"/><path d="M256.89892,155.66139l5.83947,0.08962l2.22503,5.09621l-3.78699,4.44594"/><path d="M246.29196,155.45297l2.61547,-5.22176l5.56046,0.05977l2.36144,5.34146" data-paper-data="{&quot;index&quot;:null}"/><path d="M241.58166,164.84506l-3.56888,-4.62282l2.46747,-4.98336l5.83704,0.1912" data-paper-data="{&quot;index&quot;:null}"/><path d="M256.38724,174.7034l-2.61548,5.22176l-5.56046,-0.05976l-2.36143,-5.34146" data-paper-data="{&quot;index&quot;:null}"/><path d="M261.09755,165.3113l3.56889,4.62283l-2.46747,4.98336l-5.83704,-0.1912" data-paper-data="{&quot;index&quot;:null}"/><path d="M256.29101,174.75188l-2.61548,5.22176l-5.5569,-0.20761l-2.36143,-5.34146" data-paper-data="{&quot;index&quot;:null}"/><path d="M245.7814,174.44866l-5.83948,-0.08963l-2.22503,-5.09622l3.78698,-4.44593" data-paper-data="{&quot;index&quot;:null}"/></g></g><g fill="none" stroke="#000000" stroke-width="1"><path d="M253.40781,199.57506c-3.62426,0.40883 -6.89627,-2.2204 -7.30825,-5.87253c-0.41199,-3.65214 2.19208,-6.94421 5.81633,-7.35305c3.62426,-0.40883 6.89628,2.22039 7.30825,5.87252c0.41199,3.65214 -2.19209,6.9442 -5.81634,7.35305z" stroke-linecap="butt"/><g stroke-linecap="round"><path d="M261.60706,186.73777l5.52886,1.88127l0.5498,5.53353l-4.97082,3.0657"/><path d="M262.73549,197.19103l0.70513,5.79744l-4.74639,2.89724l-4.91951,-3.14739"/><path d="M261.49992,186.65421l5.52886,1.88127l0.69677,5.51697l-4.97082,3.0657" data-paper-data="{&quot;index&quot;:null}"/><path d="M251.55465,183.26455l4.0947,-4.16423l5.27256,1.76704l0.60415,5.80884" data-paper-data="{&quot;index&quot;:null}"/><path d="M243.80074,199.27295l-5.52886,-1.88128l-0.69678,-5.51694l4.97082,-3.0657" data-paper-data="{&quot;index&quot;:null}"/><path d="M253.74601,202.66261l-4.0947,4.16424l-5.27255,-1.76704l-0.60415,-5.80884" data-paper-data="{&quot;index&quot;:null}"/><path d="M243.73963,199.1842l-5.52886,-1.88128l-0.5498,-5.53353l4.97082,-3.0657" data-paper-data="{&quot;index&quot;:null}"/><path d="M242.61119,188.73094l-0.70512,-5.79745l4.7464,-2.89723l4.9195,3.14738" data-paper-data="{&quot;index&quot;:null}"/></g></g><text transform="translate(210.62347,198.08598) scale(0.33191,0.33191)" font-size="40" xml:space="preserve" fill="#ff0000" fill-rule="nonzero" stroke="none" stroke-width="1" stroke-linecap="butt" stroke-linejoin="miter" stroke-miterlimit="10" stroke-dasharray="" stroke-dashoffset="0" font-family="Sans Serif" font-weight="normal" text-anchor="start" style="mix-blend-mode: normal"><tspan x="0" dy="0">设置</tspan></text></g></g></svg>