<svg version="1.1" xmlns="http://www.w3.org/2000/svg" xmlns:xlink="http://www.w3.org/1999/xlink" width="381.60239" height="112.41432" viewBox="0,0,381.60239,112.41432"><defs><radialGradient cx="103.01721" cy="189.91493" r="5.94472" gradientUnits="userSpaceOnUse" id="color-1"><stop offset="0" stop-color="#f2ff3c"/><stop offset="1" stop-color="#f9ffad"/></radialGradient><radialGradient cx="179.58852" cy="155.02272" r="5.94472" gradientUnits="userSpaceOnUse" id="color-2"><stop offset="0" stop-color="#f2ff3c"/><stop offset="1" stop-color="#f9ffad"/></radialGradient><radialGradient cx="321.86463" cy="155.32952" r="5.94472" gradientUnits="userSpaceOnUse" id="color-3"><stop offset="0" stop-color="#ff3d3d"/><stop offset="1" stop-color="#ffcaca"/></radialGradient><radialGradient cx="369.69009" cy="206.08823" r="5.94472" gradientUnits="userSpaceOnUse" id="color-4"><stop offset="0" stop-color="#ff3d3d"/><stop offset="1" stop-color="#ffcaca"/></radialGradient><radialGradient cx="439.80825" cy="191.61145" r="7.822" gradientUnits="userSpaceOnUse" id="color-5"><stop offset="0" stop-color="#f1f1f1"/><stop offset="1" stop-color="#ffffff"/></radialGradient><radialGradient cx="72.8721" cy="107.44063" r="7.822" gradientUnits="userSpaceOnUse" id="color-6"><stop offset="0" stop-color="#f1f1f1"/><stop offset="1" stop-color="#ffffff"/></radialGradient></defs><g transform="translate(-65.53898,-99.61863)"><g data-paper-data="{&quot;isPaintingLayer&quot;:true}" fill-rule="nonzero" stroke="none" stroke-width="0" stroke-linecap="butt" stroke-linejoin="miter" stroke-miterlimit="10" stroke-dasharray="" stroke-dashoffset="0" style="mix-blend-mode: normal"><path d="M108.59038,189.91493c0,3.28318 -2.4952,5.94472 -5.57318,5.94472c-3.07798,0 -5.57318,-2.66154 -5.57318,-5.94472c0,-3.28318 2.4952,-5.94472 5.57318,-5.94472c3.07798,0 5.57318,2.66154 5.57318,5.94472z" fill="url(#color-1)"/><path d="M185.16169,155.02272c0,3.28318 -2.49519,5.94472 -5.57317,5.94472c-3.07798,0 -5.57317,-2.66154 -5.57317,-5.94472c0,-3.28318 2.4952,-5.94472 5.57317,-5.94472c3.07798,0 5.57317,2.66154 5.57317,5.94472z" fill="url(#color-2)"/><path d="M327.43781,155.32952c0,3.28318 -2.49519,5.94472 -5.57317,5.94472c-3.07798,0 -5.57317,-2.66154 -5.57317,-5.94472c0,-3.28318 2.49519,-5.94472 5.57317,-5.94472c3.07798,0 5.57317,2.66154 5.57317,5.94472z" fill="url(#color-3)"/><path d="M375.26327,206.08823c0,3.28318 -2.49519,5.94472 -5.57317,5.94472c-3.07798,0 -5.57318,-2.66154 -5.57318,-5.94472c0,-3.28318 2.4952,-5.94472 5.57318,-5.94472c3.07798,0 5.57317,2.66154 5.57317,5.94472z" fill="url(#color-4)"/><path d="M447.14137,191.61145c0,4.31997 -3.28315,7.822 -7.33313,7.822c-4.04997,0 -7.33313,-3.50203 -7.33313,-7.822c0,-4.31997 3.28315,-7.822 7.33313,-7.822c4.04997,0 7.33313,3.50203 7.33313,7.822z" fill="url(#color-5)"/><path d="M80.20522,107.44063c0,4.31997 -3.28315,7.822 -7.33312,7.822c-4.04998,0 -7.33312,-3.50203 -7.33312,-7.822c0,-4.31997 3.28315,-7.822 7.33312,-7.822c4.04998,0 7.33312,3.50203 7.33312,7.822z" fill="url(#color-6)"/></g></g></svg>