<svg version="1.1" xmlns="http://www.w3.org/2000/svg" xmlns:xlink="http://www.w3.org/1999/xlink" width="103.77316" height="40.35966" viewBox="0,0,103.77316,40.35966"><defs><linearGradient x1="261.5349" y1="163.67727" x2="261.5349" y2="194.87324" gradientUnits="userSpaceOnUse" id="color-1"><stop offset="0" stop-color="#efefef"/><stop offset="1" stop-color="#ffffff"/></linearGradient><linearGradient x1="209.28703" y1="161.37189" x2="209.28703" y2="188.39763" gradientUnits="userSpaceOnUse" id="color-2"><stop offset="0" stop-color="#d8d8d8"/><stop offset="1" stop-color="#b0b0b0"/></linearGradient></defs><g transform="translate(-168.23474,-160.62189)"><g data-paper-data="{&quot;isPaintingLayer&quot;:true}" fill-rule="nonzero" stroke-linejoin="miter" stroke-miterlimit="10" stroke-dasharray="" stroke-dashoffset="0" style="mix-blend-mode: normal"><g><path d="M259.77818,194.87324c0,0 -0.29639,-4.6561 -2.16772,-6.13687c-1.70974,-1.3529 -5.65008,-1.50808 -5.65008,-1.50808l-0.14847,-23.53223c0,0 9.61715,-0.5504 16.31631,4.30666c0.85008,0.61633 1.1033,0.41103 1.49922,1.63185c3.57981,11.03854 0.14846,25.23867 0.14846,25.23867h-9.99773z" fill="url(#color-1)" stroke="#000000" stroke-width="1.5" stroke-linecap="butt"/><path d="M270.22129,180.17543l-2.37541,-0.44539l-0.59385,-7.42314l2.37541,-1.1877" fill="none" stroke="#000000" stroke-width="1.5" stroke-linecap="round"/><path d="M257.18662,194.96282c0,2.721 -2.10401,4.92682 -4.69943,4.92682c-2.59542,0 -4.69942,-2.20581 -4.69942,-4.92682c0,-2.721 2.10401,-4.92682 4.69942,-4.92682c2.59542,0 4.69943,2.20581 4.69943,4.92682z" fill="none" stroke="#000000" stroke-width="1.5" stroke-linecap="butt"/><path d="M254.85856,194.96282c0,1.38144 -1.03988,2.50131 -2.32264,2.50131c-1.28276,0 -2.32264,-1.11987 -2.32264,-2.50131c0,-1.38144 1.03988,-2.50131 2.32264,-2.50131c1.28276,0 2.32264,1.11987 2.32264,2.50131z" fill="#000000" stroke="#000000" stroke-width="1.5" stroke-linecap="butt"/><path d="M174.95359,187.34865c-7.18502,-1.98215 -6.86128,-12.3971 -4.32568,-18.76792c0.83136,-2.08883 4.09628,-4.87571 4.32568,-5.77657c0.42745,-1.67856 69.13167,-2.5522 70.58783,1.2541c0.4676,1.22228 2.8584,3.41292 3.38285,5.97989c1.46631,7.177 0.5806,17.2864 -3.38285,17.31051c-8.34395,0.05075 -62.12516,2.33462 -70.58783,0z" fill="url(#color-2)" stroke="#000000" stroke-width="1.5" stroke-linecap="butt"/><path d="M184.96999,195.30474c0,2.721 -2.10401,4.92681 -4.69943,4.92681c-2.59542,0 -4.69942,-2.20581 -4.69942,-4.92681c0,-2.721 2.10401,-4.92682 4.69942,-4.92682c2.59542,0 4.69943,2.20581 4.69943,4.92682z" fill="none" stroke="#000000" stroke-width="1.5" stroke-linecap="butt"/><path d="M182.64193,195.30474c0,1.38144 -1.03988,2.50131 -2.32264,2.50131c-1.28276,0 -2.32264,-1.11987 -2.32264,-2.50131c0,-1.38144 1.03988,-2.50131 2.32264,-2.50131c1.28276,0 2.32264,1.11987 2.32264,2.50131z" fill="#000000" stroke="#000000" stroke-width="1.5" stroke-linecap="butt"/><path d="M197.31542,195.28835c0,2.721 -2.10401,4.92682 -4.69942,4.92682c-2.59542,0 -4.69942,-2.20581 -4.69942,-4.92682c0,-2.721 2.10401,-4.92682 4.69942,-4.92682c2.59542,0 4.69942,2.20581 4.69942,4.92682z" fill="none" stroke="#000000" stroke-width="1.5" stroke-linecap="butt"/><path d="M194.98736,195.28835c0,1.38144 -1.03988,2.50131 -2.32264,2.50131c-1.28276,0 -2.32264,-1.11987 -2.32264,-2.50131c0,-1.38144 1.03988,-2.50131 2.32264,-2.50131c1.28276,0 2.32264,1.11987 2.32264,2.50131z" fill="#000000" stroke="#000000" stroke-width="1.5" stroke-linecap="butt"/><path d="M182.96765,189.14023l-2.86651,5.73302v-6.62881" fill="none" stroke="#000000" stroke-width="1.5" stroke-linecap="round"/><path d="M194.792,188.96107l-2.14989,5.91218l-0.35831,-6.09134" fill="none" stroke="#000000" stroke-width="1.5" stroke-linecap="round"/><path d="M245.31425,194.87325c0,0 1.79205,-5.07644 3.33507,-6.10512c1.26999,-0.84666 4.18951,-1.41948 4.18951,-1.41948l-0.17915,6.6288l4.12061,-4.83723" fill="none" stroke="#000000" stroke-width="1.5" stroke-linecap="round"/><path d="M252.30137,186.81118l-6.6288,0.89578h-1.2541" fill="none" stroke="#000000" stroke-width="1.5" stroke-linecap="round"/><path d="M238.8646,194.51493l-11.6452,0.53748l-0.17916,-4.65808l11.46604,-0.53747z" fill="none" stroke="#000000" stroke-width="1.5" stroke-linecap="round"/><path d="M238.8646,192.00673h7.70375" fill="none" stroke="#000000" stroke-width="1.5" stroke-linecap="round"/><path d="M230.44422,188.60275v1.79157" fill="none" stroke="#000000" stroke-width="1.5" stroke-linecap="round"/><path d="M235.28146,187.52781v1.97073" fill="none" stroke="#000000" stroke-width="1.5" stroke-linecap="round"/><path d="M228.11518,190.39432c0,0 -20.36125,0.58278 -25.98212,0.15825c-3.3267,-0.25126 -4.29539,-2.12898 -4.29539,-2.12898" fill="none" stroke="#000000" stroke-width="1.5" stroke-linecap="round"/><path d="M238.32713,189.49853l9.31616,0.17916" fill="none" stroke="#000000" stroke-width="1.5" stroke-linecap="round"/><path d="M186.52518,179.13303l-11.26129,0.51188l5.63065,-8.95785z" fill="none" stroke="#ff0000" stroke-width="1.5" stroke-linecap="round"/><text transform="translate(179.02619,179.28659) scale(0.20496,0.20496)" font-size="40" xml:space="preserve" fill="#d6ff00" fill-rule="nonzero" stroke="none" stroke-width="1" stroke-linecap="butt" stroke-linejoin="miter" stroke-miterlimit="10" stroke-dasharray="" stroke-dashoffset="0" font-family="Sans Serif" font-weight="normal" text-anchor="start" style="mix-blend-mode: normal"><tspan x="0" dy="0">！</tspan></text><text transform="translate(194.9104,178.30356) scale(0.32122,0.32122)" font-size="40" xml:space="preserve" fill="#ffffff" fill-rule="nonzero" stroke="none" stroke-width="1" stroke-linecap="butt" stroke-linejoin="miter" stroke-miterlimit="10" stroke-dasharray="" stroke-dashoffset="0" font-family="Sans Serif" font-weight="normal" text-anchor="start" style="mix-blend-mode: normal"><tspan x="0" dy="0">中国航油</tspan></text></g></g></g></svg>