<svg version="1.1" xmlns="http://www.w3.org/2000/svg" xmlns:xlink="http://www.w3.org/1999/xlink" width="482.65295" height="447.99952" viewBox="0,0,482.65295,447.99952"><defs><linearGradient x1="237.93575" y1="-88.49303" x2="237.93575" y2="303.21393" gradientUnits="userSpaceOnUse" id="color-1"><stop offset="0" stop-color="#52d4ff"/><stop offset="1" stop-color="#b9e3f0"/></linearGradient><linearGradient x1="138.53354" y1="220.66822" x2="138.53354" y2="301.12367" gradientUnits="userSpaceOnUse" id="color-2"><stop offset="0" stop-color="#ffffff"/><stop offset="1" stop-color="#a1c6d1"/></linearGradient><linearGradient x1="126.68521" y1="290.06523" x2="126.68521" y2="302.70347" gradientUnits="userSpaceOnUse" id="color-3"><stop offset="0" stop-color="#b9e3f0" stop-opacity="0"/><stop offset="1" stop-color="#b9e3f0"/></linearGradient><linearGradient x1="132.60937" y1="290.06523" x2="132.60937" y2="302.70347" gradientUnits="userSpaceOnUse" id="color-4"><stop offset="0" stop-color="#b9e3f0" stop-opacity="0"/><stop offset="1" stop-color="#b9e3f0"/></linearGradient><linearGradient x1="199.35504" y1="291.64502" x2="199.35504" y2="302.70347" gradientUnits="userSpaceOnUse" id="color-5"><stop offset="0" stop-color="#b9e3f0" stop-opacity="0"/><stop offset="1" stop-color="#b9e3f0"/></linearGradient><linearGradient x1="204.88426" y1="290.8551" x2="204.88426" y2="302.70347" gradientUnits="userSpaceOnUse" id="color-6"><stop offset="0" stop-color="#b9e3f0" stop-opacity="0"/><stop offset="1" stop-color="#b9e3f0"/></linearGradient><linearGradient x1="65.07383" y1="290.8551" x2="65.07383" y2="302.70347" gradientUnits="userSpaceOnUse" id="color-7"><stop offset="0" stop-color="#b9e3f0" stop-opacity="0"/><stop offset="1" stop-color="#b9e3f0"/></linearGradient><linearGradient x1="70.60306" y1="291.64502" x2="70.60306" y2="301.91355" gradientUnits="userSpaceOnUse" id="color-8"><stop offset="0" stop-color="#b9e3f0" stop-opacity="0"/><stop offset="1" stop-color="#b9e3f0"/></linearGradient><linearGradient x1="279.69318" y1="290.52835" x2="279.69318" y2="302.44937" gradientUnits="userSpaceOnUse" id="color-9"><stop offset="0" stop-color="#efefef"/><stop offset="1" stop-color="#ffffff"/></linearGradient><linearGradient x1="259.72752" y1="289.64739" x2="259.72752" y2="299.97484" gradientUnits="userSpaceOnUse" id="color-10"><stop offset="0" stop-color="#d8d8d8"/><stop offset="1" stop-color="#b0b0b0"/></linearGradient><linearGradient x1="323.65919" y1="291.58195" x2="323.65919" y2="300.12986" gradientUnits="userSpaceOnUse" id="color-11"><stop offset="0" stop-color="#efefef"/><stop offset="1" stop-color="#ffffff"/></linearGradient><linearGradient x1="309.34291" y1="290.95026" x2="309.34291" y2="298.3555" gradientUnits="userSpaceOnUse" id="color-12"><stop offset="0" stop-color="#d8d8d8"/><stop offset="1" stop-color="#b0b0b0"/></linearGradient><linearGradient x1="207.83038" y1="294.96342" x2="207.83038" y2="304.44655" gradientUnits="userSpaceOnUse" id="color-13"><stop offset="0" stop-color="#dedede"/><stop offset="1" stop-color="#ffffff"/></linearGradient><linearGradient x1="178.00701" y1="294.90344" x2="178.00701" y2="304.1744" gradientUnits="userSpaceOnUse" id="color-14"><stop offset="0" stop-color="#d0d0d0"/><stop offset="1" stop-color="#1a1a1a"/></linearGradient><linearGradient x1="396.8514" y1="296.09773" x2="396.8514" y2="306.19419" gradientUnits="userSpaceOnUse" id="color-15"><stop offset="0" stop-color="#dedede"/><stop offset="1" stop-color="#ffffff"/></linearGradient><linearGradient x1="428.60376" y1="296.03387" x2="428.60376" y2="305.90448" gradientUnits="userSpaceOnUse" id="color-16"><stop offset="0" stop-color="#d0d0d0"/><stop offset="1" stop-color="#1a1a1a"/></linearGradient><linearGradient x1="366.02171" y1="215.81561" x2="366.02171" y2="231.6134" gradientUnits="userSpaceOnUse" id="color-17"><stop offset="0" stop-color="#b5f1ff"/><stop offset="1" stop-color="#b5f1ff" stop-opacity="0"/></linearGradient><linearGradient x1="365.49248" y1="205.80771" x2="365.49248" y2="216.07628" gradientUnits="userSpaceOnUse" id="color-18"><stop offset="0" stop-color="#b5f1ff"/><stop offset="1" stop-color="#b5f1ff" stop-opacity="0"/></linearGradient></defs><g transform="translate(4.87663,88.49307)"><g data-paper-data="{&quot;isPaintingLayer&quot;:true}" fill-rule="nonzero" stroke-linejoin="miter" stroke-miterlimit="10" stroke-dasharray="" stroke-dashoffset="0" style="mix-blend-mode: normal"><path d="M-1.9048,303.21393v-391.70699h479.68112v391.70699z" fill="url(#color-1)" stroke="none" stroke-width="0" stroke-linecap="butt"/><g><path d="M242.79896,301.12367l-206.95103,-0.78989l-5.52923,-64.77091c0,0 25.95136,-13.42812 48.18325,-13.42812c13.06286,0 36.44047,12.50429 61.60988,11.79514c18.25254,-0.51427 37.44739,-14.71824 54.33411,-13.13921c30.18192,2.82223 52.30246,14.77219 52.30246,14.77219z" fill="url(#color-2)" stroke="#000000" stroke-width="1.5" stroke-linecap="round"/><text transform="translate(84.03118,253.73031) scale(0.5,0.5)" font-size="40" xml:space="preserve" fill="#c3c3c3" fill-rule="nonzero" stroke="none" stroke-width="1" stroke-linecap="butt" stroke-linejoin="miter" stroke-miterlimit="10" stroke-dasharray="" stroke-dashoffset="0" font-family="Sans Serif" font-weight="normal" text-anchor="start" style="mix-blend-mode: normal"><tspan x="0" dy="0">GITBLOCK</tspan></text><path d="M31.10859,302.70347v-68.72038h8.68878v68.72038z" fill="#000000" stroke="#000000" stroke-width="0.5" stroke-linecap="butt"/><path d="M236.7405,302.17422v-68.72038h8.68878v68.72038z" fill="#000000" stroke="#000000" stroke-width="0.5" stroke-linecap="butt"/><path d="M242.79895,254.52022h-204.58136" fill="none" stroke="#000000" stroke-width="0.5" stroke-linecap="round"/><path d="M36.63781,268.73822l203.00158,0.78989" fill="none" stroke="#000000" stroke-width="0.5" stroke-linecap="round"/><path d="M240.42929,279.00678l-204.58136,0.78989" fill="none" stroke="#000000" stroke-width="0.5" stroke-linecap="round"/><path d="M41.37715,301.91355l26.85624,-21.32701l30.80569,21.32701l33.17536,-22.1169l37.1248,22.1169l31.59558,-22.90679l37.1248,21.32701" fill="none" stroke="#000000" stroke-width="0.5" stroke-linecap="round"/></g><path d="M361.28237,301.91355l-1.57978,-69.51027h13.42812v68.72038z" fill="#dcdcdc" stroke="#000000" stroke-width="0" stroke-linecap="round"/><path d="M-2.37663,359.50646v-57h153.42117v57z" fill="#888888" stroke="#ffffff" stroke-width="0" stroke-linecap="butt"/><path d="M149.62337,359.50646v-57h153.42117v57z" fill="#888888" stroke="#ffffff" stroke-width="0" stroke-linecap="butt"/><path d="M300.62337,359.50646v-57h176.27831v57z" fill="#888888" stroke="#ffffff" stroke-width="0" stroke-linecap="butt"/><path d="M166.87337,358.22208l58,-55" fill="none" stroke="#000000" stroke-width="1.5" stroke-linecap="round"/><path d="M-4.12663,341.22205l36,-38" fill="none" stroke="#000000" stroke-width="1.5" stroke-linecap="round"/><path d="M123.52565,302.70347v-12.63823h6.31912v12.63823z" fill="url(#color-3)" stroke="#000000" stroke-width="0.5" stroke-linecap="butt"/><path d="M129.84477,302.70347v-12.63823h5.52923v12.63823z" fill="url(#color-4)" stroke="#000000" stroke-width="0.5" stroke-linecap="butt"/><path d="M196.98537,302.70347v-11.05845h4.73934v11.05845z" fill="url(#color-5)" stroke="#000000" stroke-width="0.5" stroke-linecap="butt"/><path d="M201.7247,302.70347v-11.84834h6.31912v11.84834z" fill="url(#color-6)" stroke="#000000" stroke-width="0.5" stroke-linecap="butt"/><path d="M62.70417,302.70347v-11.84834h4.73934v11.84834z" fill="url(#color-7)" stroke="#000000" stroke-width="0.5" stroke-linecap="butt"/><path d="M66.65361,301.91355v-10.26856h7.89889v10.26856z" fill="url(#color-8)" stroke="#000000" stroke-width="0.5" stroke-linecap="butt"/><path d="M279.02187,302.44937c0,0 -0.11326,-1.77925 -0.82836,-2.3451c-0.65335,-0.51699 -2.15909,-0.57629 -2.15909,-0.57629l-0.05674,-8.99245c0,0 3.67504,-0.21033 6.23501,1.64572c0.32484,0.23552 0.42161,0.15707 0.5729,0.62358c1.36797,4.2182 0.05673,9.64454 0.05673,9.64454h-3.82047z" fill="url(#color-9)" stroke="#000000" stroke-width="1.5" stroke-linecap="butt"/><path d="M283.01253,296.83286l-0.90772,-0.1702l-0.22693,-2.83663l0.90772,-0.45386" fill="none" stroke="#000000" stroke-width="1.5" stroke-linecap="round"/><path d="M278.03156,302.48359c0,1.03979 -0.80401,1.8827 -1.79581,1.8827c-0.9918,0 -1.79581,-0.84291 -1.79581,-1.8827c0,-1.03979 0.80401,-1.8827 1.79581,-1.8827c0.9918,0 1.79581,0.84291 1.79581,1.8827z" fill="none" stroke="#000000" stroke-width="1.5" stroke-linecap="butt"/><path d="M277.14192,302.48359c0,0.52789 -0.39737,0.95583 -0.88756,0.95583c-0.49019,0 -0.88756,-0.42794 -0.88756,-0.95583c0,-0.52789 0.39737,-0.95583 0.88756,-0.95583c0.49019,0 0.88756,0.42794 0.88756,0.95583z" fill="#000000" stroke="#000000" stroke-width="1.5" stroke-linecap="butt"/><path d="M246.60756,299.57398c-2.74564,-0.75745 -2.62193,-4.73735 -1.65299,-7.17185c0.31769,-0.79821 1.56533,-1.86317 1.65299,-2.20742c0.16334,-0.64143 26.41753,-0.97528 26.97398,0.47923c0.17869,0.46707 1.09229,1.30419 1.2927,2.28512c0.56033,2.74257 0.22187,6.60571 -1.2927,6.61493c-3.1885,0.01939 -23.74011,0.89214 -26.97398,0z" fill="url(#color-10)" stroke="#000000" stroke-width="1.5" stroke-linecap="butt"/><path d="M250.43516,302.61427c0,1.03979 -0.80401,1.8827 -1.79581,1.8827c-0.9918,0 -1.79581,-0.84291 -1.79581,-1.8827c0,-1.03979 0.80401,-1.8827 1.79581,-1.8827c0.9918,0 1.79581,0.84291 1.79581,1.8827z" fill="none" stroke="#000000" stroke-width="1.5" stroke-linecap="butt"/><path d="M249.54553,302.61427c0,0.52789 -0.39737,0.95583 -0.88756,0.95583c-0.49019,0 -0.88756,-0.42794 -0.88756,-0.95583c0,-0.52789 0.39737,-0.95583 0.88756,-0.95583c0.49019,0 0.88756,0.42794 0.88756,0.95583z" fill="#000000" stroke="#000000" stroke-width="1.5" stroke-linecap="butt"/><path d="M255.15277,302.60801c0,1.03979 -0.80401,1.8827 -1.79581,1.8827c-0.9918,0 -1.79581,-0.84291 -1.79581,-1.8827c0,-1.03979 0.80401,-1.8827 1.79581,-1.8827c0.9918,0 1.79581,0.84291 1.79581,1.8827z" fill="none" stroke="#000000" stroke-width="1.5" stroke-linecap="butt"/><path d="M254.26314,302.60801c0,0.52789 -0.39737,0.95583 -0.88756,0.95583c-0.49019,0 -0.88756,-0.42794 -0.88756,-0.95583c0,-0.52789 0.39737,-0.95583 0.88756,-0.95583c0.49019,0 0.88756,0.42794 0.88756,0.95583z" fill="#000000" stroke="#000000" stroke-width="1.5" stroke-linecap="butt"/><path d="M249.67,300.25861l-1.09539,2.19078v-2.53309" fill="none" stroke="#000000" stroke-width="1.5" stroke-linecap="round"/><path d="M254.18848,300.19014l-0.82155,2.25924l-0.13692,-2.32771" fill="none" stroke="#000000" stroke-width="1.5" stroke-linecap="round"/><path d="M273.49472,302.44937c0,0 0.6848,-1.93988 1.27444,-2.33297c0.48531,-0.32354 1.60095,-0.54243 1.60095,-0.54243l-0.06846,2.53309l1.57462,-1.84847" fill="none" stroke="#000000" stroke-width="1.5" stroke-linecap="round"/><path d="M276.16474,299.3686l-2.53309,0.34231h-0.47923" fill="none" stroke="#000000" stroke-width="1.5" stroke-linecap="round"/><path d="M271.03009,302.31246l-4.45002,0.20539l-0.06846,-1.78001l4.38156,-0.20539z" fill="none" stroke="#000000" stroke-width="1.5" stroke-linecap="round"/><path d="M273.97396,301.35399h-2.94386" fill="none" stroke="#000000" stroke-width="1.5" stroke-linecap="round"/><path d="M267.81239,300.73784v-0.68462" fill="none" stroke="#000000" stroke-width="1.5" stroke-linecap="round"/><path d="M269.66086,299.64243v0.75308" fill="none" stroke="#000000" stroke-width="1.5" stroke-linecap="round"/><path d="M266.92238,300.73784c0,0 -7.78072,0.2227 -9.92864,0.06047c-1.27124,-0.09601 -1.64141,-0.81355 -1.64141,-0.81355" fill="none" stroke="#000000" stroke-width="1.5" stroke-linecap="round"/><path d="M270.82472,300.39553l3.56002,0.06846" fill="none" stroke="#000000" stroke-width="1.5" stroke-linecap="round"/><path d="M251.02945,296.43451l-4.30332,0.19561l2.15166,-3.42309z" fill="none" stroke="#ff0000" stroke-width="1.5" stroke-linecap="round"/><text transform="translate(248.16384,296.4932) scale(0.07832,0.07832)" font-size="40" xml:space="preserve" fill="#d6ff00" fill-rule="nonzero" stroke="none" stroke-width="1" stroke-linecap="butt" stroke-linejoin="miter" stroke-miterlimit="10" stroke-dasharray="" stroke-dashoffset="0" font-family="Sans Serif" font-weight="normal" text-anchor="start" style="mix-blend-mode: normal"><tspan x="0" dy="0">！</tspan></text><text transform="translate(254.23373,296.11753) scale(0.12275,0.12275)" font-size="40" xml:space="preserve" fill="#ffffff" fill-rule="nonzero" stroke="none" stroke-width="1" stroke-linecap="butt" stroke-linejoin="miter" stroke-miterlimit="10" stroke-dasharray="" stroke-dashoffset="0" font-family="Sans Serif" font-weight="normal" text-anchor="start" style="mix-blend-mode: normal"><tspan x="0" dy="0">中国航油</tspan></text><path d="M323.17783,300.12986c0,0 -0.08121,-1.2758 -0.59397,-1.68154c-0.46848,-0.3707 -1.54816,-0.41322 -1.54816,-0.41322l-0.04068,-6.44799c0,0 2.63517,-0.15081 4.47078,1.18005c0.23293,0.16888 0.30231,0.11263 0.4108,0.44714c0.98089,3.02464 0.04068,6.91557 0.04068,6.91557h-2.73945z" fill="url(#color-11)" stroke="#000000" stroke-width="1.5" stroke-linecap="butt"/><path d="M326.03932,296.10256l-0.65088,-0.12204l-0.16272,-2.03399l0.65088,-0.32544" fill="none" stroke="#000000" stroke-width="1.5" stroke-linecap="round"/><path d="M322.46773,300.15441c0,0.74557 -0.57651,1.34998 -1.28768,1.34998c-0.71116,0 -1.28767,-0.60441 -1.28767,-1.34998c0,-0.74557 0.57651,-1.34998 1.28767,-1.34998c0.71116,0 1.28768,0.60441 1.28768,1.34998z" fill="none" stroke="#000000" stroke-width="1.5" stroke-linecap="butt"/><path d="M321.82983,300.15441c0,0.37852 -0.28493,0.68538 -0.63642,0.68538c-0.35149,0 -0.63642,-0.30685 -0.63642,-0.68538c0,-0.37852 0.28493,-0.68538 0.63642,-0.68538c0.35149,0 0.63642,0.30685 0.63642,0.68538z" fill="#000000" stroke="#000000" stroke-width="1.5" stroke-linecap="butt"/><path d="M299.93531,298.06808c-1.96875,-0.54312 -1.88004,-3.39689 -1.18527,-5.14254c0.2278,-0.57235 1.12241,-1.33598 1.18527,-1.58282c0.11712,-0.45994 18.94256,-0.69932 19.34155,0.34363c0.12813,0.33491 0.78322,0.93516 0.92692,1.63853c0.40178,1.96655 0.15909,4.73659 -0.92692,4.7432c-2.2863,0.01391 -17.02272,0.6397 -19.34155,0z" fill="url(#color-12)" stroke="#000000" stroke-width="1.5" stroke-linecap="butt"/><path d="M302.67987,300.24809c0,0.74557 -0.57651,1.34998 -1.28768,1.34998c-0.71116,0 -1.28767,-0.60441 -1.28767,-1.34998c0,-0.74557 0.57651,-1.34998 1.28767,-1.34998c0.71116,0 1.28768,0.60441 1.28768,1.34998z" fill="none" stroke="#000000" stroke-width="1.5" stroke-linecap="butt"/><path d="M302.04197,300.24809c0,0.37852 -0.28493,0.68538 -0.63642,0.68538c-0.35149,0 -0.63642,-0.30685 -0.63642,-0.68538c0,-0.37852 0.28493,-0.68538 0.63642,-0.68538c0.35149,0 0.63642,0.30685 0.63642,0.68538z" fill="#000000" stroke="#000000" stroke-width="1.5" stroke-linecap="butt"/><path d="M306.0626,300.24361c0,0.74557 -0.57651,1.34998 -1.28767,1.34998c-0.71116,0 -1.28767,-0.60441 -1.28767,-1.34998c0,-0.74557 0.57651,-1.34998 1.28767,-1.34998c0.71116,0 1.28767,0.60441 1.28767,1.34998z" fill="none" stroke="#000000" stroke-width="1.5" stroke-linecap="butt"/><path d="M305.4247,300.24361c0,0.37852 -0.28493,0.68538 -0.63642,0.68538c-0.35149,0 -0.63642,-0.30685 -0.63642,-0.68538c0,-0.37852 0.28493,-0.68538 0.63642,-0.68538c0.35149,0 0.63642,0.30685 0.63642,0.68538z" fill="#000000" stroke="#000000" stroke-width="1.5" stroke-linecap="butt"/><path d="M302.13122,298.55897l-0.78544,1.57089v-1.81634" fill="none" stroke="#000000" stroke-width="1.5" stroke-linecap="round"/><path d="M305.37116,298.50989l-0.58908,1.61998l-0.09818,-1.66907" fill="none" stroke="#000000" stroke-width="1.5" stroke-linecap="round"/><path d="M319.21462,300.12987c0,0 0.49103,-1.39098 0.91383,-1.67285c0.34799,-0.23199 1.14795,-0.38895 1.14795,-0.38895l-0.04909,1.81634l1.12908,-1.32543" fill="none" stroke="#000000" stroke-width="1.5" stroke-linecap="round"/><path d="M321.12913,297.9208l-1.81634,0.24545h-0.34363" fill="none" stroke="#000000" stroke-width="1.5" stroke-linecap="round"/><path d="M317.44737,300.03169l-3.19087,0.14727l-0.04909,-1.27635l3.14177,-0.14727z" fill="none" stroke="#000000" stroke-width="1.5" stroke-linecap="round"/><path d="M317.44737,299.34442h2.11088" fill="none" stroke="#000000" stroke-width="1.5" stroke-linecap="round"/><path d="M315.14013,298.41171v0.4909" fill="none" stroke="#000000" stroke-width="1.5" stroke-linecap="round"/><path d="M316.46557,298.65716v-0.53999" fill="none" stroke="#000000" stroke-width="1.5" stroke-linecap="round"/><path d="M314.50195,298.90261c0,0 -5.57912,0.15969 -7.11928,0.04336c-0.91154,-0.06885 -1.17697,-0.58336 -1.17697,-0.58336" fill="none" stroke="#000000" stroke-width="1.5" stroke-linecap="round"/><path d="M317.3001,298.65716l2.55269,0.04909" fill="none" stroke="#000000" stroke-width="1.5" stroke-linecap="round"/><path d="M303.10601,295.81694l-3.08567,0.14026l1.54284,-2.45451z" fill="none" stroke="#ff0000" stroke-width="1.5" stroke-linecap="round"/><text transform="translate(301.05123,295.85901) scale(0.05616,0.05616)" font-size="40" xml:space="preserve" fill="#d6ff00" fill-rule="nonzero" stroke="none" stroke-width="1" stroke-linecap="butt" stroke-linejoin="miter" stroke-miterlimit="10" stroke-dasharray="" stroke-dashoffset="0" font-family="Sans Serif" font-weight="normal" text-anchor="start" style="mix-blend-mode: normal"><tspan x="0" dy="0">！</tspan></text><text transform="translate(305.40362,295.58966) scale(0.08802,0.08802)" font-size="40" xml:space="preserve" fill="#ffffff" fill-rule="nonzero" stroke="none" stroke-width="1" stroke-linecap="butt" stroke-linejoin="miter" stroke-miterlimit="10" stroke-dasharray="" stroke-dashoffset="0" font-family="Sans Serif" font-weight="normal" text-anchor="start" style="mix-blend-mode: normal"><tspan x="0" dy="0">中国航油</tspan></text><path d="M180.47373,294.96342l23.63253,0.05324l16.81272,0.05325c0,0 7.72159,-0.16597 11.55496,-0.02506c1.11071,0.04083 1.8516,-0.13645 2.03729,0.02506c1.1003,0.95702 0.65188,8.76426 0.09472,9.26422c-1.07498,0.28324 -12.31788,-0.05811 -12.31788,-0.05811c0,0 0.14584,-1.74818 -0.85743,-2.10674c-0.71525,-0.25563 -4.63841,-0.21429 -5.81259,0.0248c-0.15975,0.03253 -0.26862,0.06872 -0.3116,0.10832c-0.86102,0.12484 -0.69066,1.92037 -0.69066,1.92037c0,0 -0.44151,0.04366 -1.08966,0.03452c-1.77898,-0.0251 -9.89781,0.01872 -9.89781,0.01872l-1.98478,-0.10162c0,0 0.14584,-1.5352 -0.85743,-1.89376c-0.71525,-0.25563 -4.63841,-0.21429 -5.81259,0.02479c-0.15975,0.03253 -0.26862,0.06872 -0.3116,0.10832c-0.86102,0.12484 -0.69066,1.92037 -0.69066,1.92037c0,0 -0.44151,0.04368 -1.08966,0.03453c-1.77898,-0.02511 -10.22933,-0.19426 -10.22933,-0.19426c0,0 -0.22525,-1.24926 -0.57996,-1.58157c-0.39804,-0.37291 -1.59858,-0.65462 -1.59858,-0.65462z" fill="url(#color-13)" stroke="#000000" stroke-width="1" stroke-linecap="round"/><path d="M228.81919,304.2656v-3.87246h1.35769v3.87246z" fill="#ffffff" stroke="#000000" stroke-width="1" stroke-linecap="butt"/><path d="M230.17228,304.13831c0,0 0,-2.71304 0,-3.34643c0,-0.25112 0,-0.52603 0,-0.52603h1.35769v3.87246z" fill="#ffffff" stroke="#000000" stroke-width="1" stroke-linecap="butt"/><path d="M180.80525,297.41258v-2.28943c0,0 51.57557,-0.11579 53.65863,0c0.43947,0.02443 0.52096,2.28943 0.52096,2.28943z" fill="#fffa6f" stroke="none" stroke-width="0" stroke-linecap="butt"/><path d="M178.4714,304.1744h-2.64288c0,0 -0.90707,-4.22006 0.03924,-7.50054c0.10466,-0.36281 0.1716,-0.30179 0.39631,-0.48495c1.77092,-1.44344 4.31319,-1.27988 4.31319,-1.27988l-0.03925,6.99341c0,0 -1.04163,0.04612 -1.49359,0.44819c-0.49468,0.44006 -0.57302,1.82378 -0.57302,1.82378z" data-paper-data="{&quot;index&quot;:null}" fill="url(#color-14)" stroke="#000000" stroke-width="1.5" stroke-linecap="butt"/><path d="M175.86776,297.11508l0.62794,0.35297l-0.15699,2.20605l-0.62793,0.13236" data-paper-data="{&quot;index&quot;:null}" fill="none" stroke="#000000" stroke-width="1.5" stroke-linecap="round"/><path d="M180.39875,302.73687c0.68609,0 1.24228,0.65553 1.24228,1.46417c0,0.80864 -0.55619,1.46418 -1.24228,1.46418c-0.68609,0 -1.24228,-0.65553 -1.24228,-1.46418c0,-0.80864 0.55619,-1.46417 1.24228,-1.46417z" data-paper-data="{&quot;index&quot;:null}" fill="none" stroke="#000000" stroke-width="1.5" stroke-linecap="butt"/><path d="M180.38587,303.45769c0.33909,0 0.61398,0.33281 0.61398,0.74336c0,0.41055 -0.27489,0.74335 -0.61398,0.74335c-0.33909,0 -0.61399,-0.33281 -0.61399,-0.74335c0,-0.41055 0.2749,-0.74336 0.61399,-0.74336z" data-paper-data="{&quot;index&quot;:null}" fill="#000000" stroke="#000000" stroke-width="1.5" stroke-linecap="butt"/><path d="M199.48908,302.83848c0.68609,0 1.24228,0.65554 1.24228,1.46418c0,0.80864 -0.55619,1.46417 -1.24228,1.46417c-0.68609,0 -1.24229,-0.65553 -1.24229,-1.46417c0,-0.80864 0.55619,-1.46418 1.24229,-1.46418z" data-paper-data="{&quot;index&quot;:null}" fill="none" stroke="#000000" stroke-width="1.5" stroke-linecap="butt"/><path d="M199.4762,303.5593c0.33909,0 0.61398,0.33281 0.61398,0.74336c0,0.41055 -0.27489,0.74335 -0.61398,0.74335c-0.33909,0 -0.61399,-0.33281 -0.61399,-0.74335c0,-0.41055 0.2749,-0.74336 0.61399,-0.74336z" data-paper-data="{&quot;index&quot;:null}" fill="#000000" stroke="#000000" stroke-width="1.5" stroke-linecap="butt"/><path d="M196.22559,302.8336c0.68609,0 1.24228,0.65553 1.24228,1.46418c0,0.80864 -0.55619,1.46418 -1.24228,1.46418c-0.68609,0 -1.24228,-0.65553 -1.24228,-1.46418c0,-0.80864 0.55618,-1.46418 1.24228,-1.46418z" data-paper-data="{&quot;index&quot;:null}" fill="none" stroke="#000000" stroke-width="1.5" stroke-linecap="butt"/><path d="M196.21271,303.55442c0.33909,0 0.61398,0.33281 0.61398,0.74336c0,0.41055 -0.27489,0.74334 -0.61398,0.74334c-0.33909,0 -0.61399,-0.3328 -0.61399,-0.74334c0,-0.41055 0.2749,-0.74336 0.61399,-0.74336z" data-paper-data="{&quot;index&quot;:null}" fill="#000000" stroke="#000000" stroke-width="1.5" stroke-linecap="butt"/><path d="M199.53387,302.20445v1.96998l-0.75777,-1.70377" data-paper-data="{&quot;index&quot;:null}" fill="none" stroke="#000000" stroke-width="1.5" stroke-linecap="round"/><path d="M196.3134,302.36417l-0.09472,1.81026l-0.56832,-1.75702" data-paper-data="{&quot;index&quot;:null}" fill="none" stroke="#000000" stroke-width="1.5" stroke-linecap="round"/><text transform="translate(181.99451,297.38437) scale(0.06118,0.06878)" font-size="40" xml:space="preserve" data-paper-data="{&quot;index&quot;:null}" fill="#ffffff" fill-rule="nonzero" stroke="none" stroke-width="1" stroke-linecap="butt" stroke-linejoin="miter" stroke-miterlimit="10" stroke-dasharray="" stroke-dashoffset="0" font-family="Sans Serif" font-weight="normal" text-anchor="start" style="mix-blend-mode: normal"><tspan x="0" dy="0">COBUS</tspan></text><path d="M220.08625,303.04658c0.68609,0 1.24228,0.65553 1.24228,1.46418c0,0.80864 -0.55619,1.46417 -1.24228,1.46417c-0.68609,0 -1.24229,-0.65553 -1.24229,-1.46417c0,-0.80864 0.5562,-1.46418 1.24229,-1.46418z" data-paper-data="{&quot;index&quot;:null}" fill="none" stroke="#000000" stroke-width="1.5" stroke-linecap="butt"/><path d="M220.07337,303.7674c0.33909,0 0.61398,0.33281 0.61398,0.74335c0,0.41055 -0.27489,0.74336 -0.61398,0.74336c-0.33909,0 -0.61399,-0.33281 -0.61399,-0.74336c0,-0.41055 0.2749,-0.74335 0.61399,-0.74335z" data-paper-data="{&quot;index&quot;:null}" fill="#000000" stroke="#000000" stroke-width="1.5" stroke-linecap="butt"/><path d="M216.82276,303.0417c0.68609,0 1.24227,0.65553 1.24227,1.46417c0,0.80864 -0.55618,1.46418 -1.24227,1.46418c-0.68609,0 -1.24229,-0.65554 -1.24229,-1.46418c0,-0.80864 0.55619,-1.46417 1.24229,-1.46417z" data-paper-data="{&quot;index&quot;:null}" fill="none" stroke="#000000" stroke-width="1.5" stroke-linecap="butt"/><path d="M216.80988,303.76253c0.33909,0 0.61399,0.3328 0.61399,0.74334c0,0.41055 -0.2749,0.74336 -0.61399,0.74336c-0.33909,0 -0.61399,-0.33281 -0.61399,-0.74336c0,-0.41055 0.2749,-0.74334 0.61399,-0.74334z" data-paper-data="{&quot;index&quot;:null}" fill="#000000" stroke="#000000" stroke-width="1.5" stroke-linecap="butt"/><path d="M220.13104,302.41254v1.96998l-0.75776,-1.70377" data-paper-data="{&quot;index&quot;:null}" fill="none" stroke="#000000" stroke-width="1.5" stroke-linecap="round"/><path d="M216.91057,302.57227l-0.09472,1.81026l-0.56832,-1.75701" data-paper-data="{&quot;index&quot;:null}" fill="none" stroke="#000000" stroke-width="1.5" stroke-linecap="round"/><path d="M185.00572,304.12118v-4.41914h1.27872v4.41914z" fill="#ffffff" stroke="#000000" stroke-width="1" stroke-linecap="butt"/><path d="M186.37482,304.11629v-4.41914h1.27871v4.41914z" fill="#ffffff" stroke="#000000" stroke-width="1" stroke-linecap="butt"/><path d="M206.69216,304.11629v-4.41914h1.27872v4.41914z" fill="#ffffff" stroke="#000000" stroke-width="1" stroke-linecap="butt"/><path d="M208.06127,304.11143v-4.41913h1.27872v4.41913z" fill="#ffffff" stroke="#000000" stroke-width="1" stroke-linecap="butt"/><path d="M194.43032,301.35256v-2.71537h6.67773v2.71537z" fill="#d0d0d0" stroke="#000000" stroke-width="1" stroke-linecap="butt"/><path d="M215.40637,301.29444v-2.71537h6.67772v2.71537z" fill="#d0d0d0" stroke="#000000" stroke-width="1" stroke-linecap="butt"/><path d="M425.9775,303.52365c0,0 -1.2782,0.29994 -1.70199,0.69696c-0.37766,0.35381 -0.61748,1.68387 -0.61748,1.68387c0,0 -8.99692,0.18009 -10.89096,0.20682c-0.69008,0.00974 -1.16014,-0.03676 -1.16014,-0.03676c0,0 0.18138,-1.91166 -0.73534,-2.04458c-0.04575,-0.04216 -0.16167,-0.08069 -0.33176,-0.11533c-1.25013,-0.25455 -5.42703,-0.29856 -6.18854,-0.0264c-1.06816,0.38175 -0.91289,2.01625 -0.91289,2.01625l-2.11316,0.10818c0,0 -8.64396,-0.04665 -10.538,-0.01993c-0.69008,0.00974 -1.16014,-0.03675 -1.16014,-0.03675c0,0 0.18138,-1.91166 -0.73534,-2.04458c-0.04575,-0.04216 -0.16166,-0.0807 -0.33175,-0.11533c-1.25013,-0.25455 -5.42704,-0.29856 -6.18855,-0.0264c-1.06816,0.38175 -0.91289,2.243 -0.91289,2.243c0,0 -11.97009,0.36343 -13.11461,0.06188c-0.59319,-0.53231 -1.07063,-8.84452 0.10085,-9.86344c0.1977,-0.17196 0.98651,0.01679 2.16906,-0.02668c4.08131,-0.15002 12.30235,0.02668 12.30235,0.02668l17.90018,-0.05669l25.1611,-0.05669z" data-paper-data="{&quot;index&quot;:null}" fill="url(#color-15)" stroke="#000000" stroke-width="1" stroke-linecap="round"/><path d="M373.05951,306.00156v-4.12293h1.44551v4.12293z" data-paper-data="{&quot;index&quot;:null}" fill="#ffffff" stroke="#000000" stroke-width="1" stroke-linecap="butt"/><path d="M371.61891,305.86605v-4.12293h1.4455c0,0 0,0.29269 0,0.56005c0,0.67436 0,3.56288 0,3.56288z" data-paper-data="{&quot;index&quot;:null}" fill="#ffffff" stroke="#000000" stroke-width="1" stroke-linecap="butt"/><path d="M367.94057,298.70529c0,0 0.08676,-2.4115 0.55465,-2.43751c2.2178,-0.12327 57.12931,0 57.12931,0v2.43751z" data-paper-data="{&quot;index&quot;:null}" fill="#fffa6f" stroke="none" stroke-width="0" stroke-linecap="butt"/><path d="M428.10934,305.90449c0,0 -0.08342,-1.47323 -0.6101,-1.94175c-0.4812,-0.42807 -1.5902,-0.47716 -1.5902,-0.47716l-0.04178,-7.44576c0,0 2.70671,-0.17415 4.59216,1.36266c0.23925,0.19502 0.31052,0.13005 0.42195,0.51633c1.00752,3.49266 0.04179,7.98568 0.04179,7.98568z" data-paper-data="{&quot;index&quot;:null}" fill="url(#color-16)" stroke="#000000" stroke-width="1.5" stroke-linecap="butt"/><path d="M431.04852,301.25399l-0.66855,-0.14092l-0.16714,-2.34873l0.66855,-0.37579" data-paper-data="{&quot;index&quot;:null}" fill="none" stroke="#000000" stroke-width="1.5" stroke-linecap="round"/><path d="M427.37996,305.93282c0,0.86094 -0.59217,1.55888 -1.32264,1.55888c-0.73047,0 -1.32263,-0.69793 -1.32263,-1.55888c0,-0.86094 0.59217,-1.55888 1.32263,-1.55888c0.73047,0 1.32264,0.69793 1.32264,1.55888z" data-paper-data="{&quot;index&quot;:null}" fill="none" stroke="#000000" stroke-width="1.5" stroke-linecap="butt"/><path d="M426.72473,305.93282c0,0.43709 -0.29268,0.79143 -0.6537,0.79143c-0.36102,0 -0.6537,-0.35433 -0.6537,-0.79143c0,-0.43709 0.29268,-0.79143 0.6537,-0.79143c0.36102,0 0.6537,0.35433 0.6537,0.79143z" data-paper-data="{&quot;index&quot;:null}" fill="#000000" stroke="#000000" stroke-width="1.5" stroke-linecap="butt"/><path d="M407.05485,306.04101c0,0.86094 -0.59217,1.55888 -1.32264,1.55888c-0.73047,0 -1.32263,-0.69793 -1.32263,-1.55888c0,-0.86094 0.59217,-1.55888 1.32263,-1.55888c0.73047,0 1.32264,0.69793 1.32264,1.55888z" data-paper-data="{&quot;index&quot;:null}" fill="none" stroke="#000000" stroke-width="1.5" stroke-linecap="butt"/><path d="M406.39963,306.04101c0,0.43709 -0.29267,0.79143 -0.65369,0.79143c-0.36102,0 -0.6537,-0.35433 -0.6537,-0.79143c0,-0.43709 0.29268,-0.79143 0.6537,-0.79143c0.36102,0 0.65369,0.35433 0.65369,0.79143z" data-paper-data="{&quot;index&quot;:null}" fill="#000000" stroke="#000000" stroke-width="1.5" stroke-linecap="butt"/><path d="M410.52943,306.03583c0,0.86094 -0.59217,1.55888 -1.32263,1.55888c-0.73047,0 -1.32263,-0.69793 -1.32263,-1.55888c0,-0.86094 0.59217,-1.55888 1.32263,-1.55888c0.73047,0 1.32263,0.69793 1.32263,1.55888z" data-paper-data="{&quot;index&quot;:null}" fill="none" stroke="#000000" stroke-width="1.5" stroke-linecap="butt"/><path d="M409.87421,306.03583c0,0.43709 -0.29268,0.79143 -0.6537,0.79143c-0.36102,0 -0.6537,-0.35433 -0.6537,-0.79143c0,-0.43709 0.29268,-0.79143 0.6537,-0.79143c0.36102,0 0.6537,0.35433 0.6537,0.79143z" data-paper-data="{&quot;index&quot;:null}" fill="#000000" stroke="#000000" stroke-width="1.5" stroke-linecap="butt"/><path d="M406.4913,304.09052l-0.80677,1.81396v-2.0974" data-paper-data="{&quot;index&quot;:null}" fill="none" stroke="#000000" stroke-width="1.5" stroke-linecap="round"/><path d="M409.81922,304.03382l-0.60507,1.87065l-0.10085,-1.92734" data-paper-data="{&quot;index&quot;:null}" fill="none" stroke="#000000" stroke-width="1.5" stroke-linecap="round"/><text transform="translate(424.35834,298.67526) rotate(-180) scale(0.06514,-0.07322)" font-size="40" xml:space="preserve" data-paper-data="{&quot;index&quot;:null}" fill="#ffffff" fill-rule="nonzero" stroke="none" stroke-width="1" stroke-linecap="butt" stroke-linejoin="miter" stroke-miterlimit="10" stroke-dasharray="" stroke-dashoffset="0" font-family="Sans Serif" font-weight="normal" text-anchor="start" style="mix-blend-mode: normal"><tspan x="0" dy="0">COBUS</tspan></text><path d="M385.12544,306.26257c0,0.86094 -0.59216,1.55888 -1.32263,1.55888c-0.73047,0 -1.32263,-0.69794 -1.32263,-1.55888c0,-0.86094 0.59217,-1.55888 1.32263,-1.55888c0.73047,0 1.32263,0.69793 1.32263,1.55888z" data-paper-data="{&quot;index&quot;:null}" fill="none" stroke="#000000" stroke-width="1.5" stroke-linecap="butt"/><path d="M384.47022,306.26257c0,0.43709 -0.29268,0.79143 -0.6537,0.79143c-0.36102,0 -0.6537,-0.35434 -0.6537,-0.79143c0,-0.43709 0.29267,-0.79143 0.6537,-0.79143c0.36102,0 0.6537,0.35434 0.6537,0.79143z" data-paper-data="{&quot;index&quot;:null}" fill="#000000" stroke="#000000" stroke-width="1.5" stroke-linecap="butt"/><path d="M388.60002,306.25739c0,0.86094 -0.59217,1.55888 -1.32263,1.55888c-0.73047,0 -1.32263,-0.69793 -1.32263,-1.55888c0,-0.86094 0.59217,-1.55888 1.32263,-1.55888c0.73047,0 1.32263,0.69794 1.32263,1.55888z" data-paper-data="{&quot;index&quot;:null}" fill="none" stroke="#000000" stroke-width="1.5" stroke-linecap="butt"/><path d="M387.9448,306.25739c0,0.43709 -0.29267,0.79143 -0.65369,0.79143c-0.36102,0 -0.6537,-0.35433 -0.6537,-0.79143c0,-0.43709 0.29268,-0.79144 0.6537,-0.79144c0.36102,0 0.65369,0.35434 0.65369,0.79144z" data-paper-data="{&quot;index&quot;:null}" fill="#000000" stroke="#000000" stroke-width="1.5" stroke-linecap="butt"/><path d="M384.5619,304.31208l-0.80677,1.81396v-2.0974" data-paper-data="{&quot;index&quot;:null}" fill="none" stroke="#000000" stroke-width="1.5" stroke-linecap="round"/><path d="M387.88982,304.25539l-0.60508,1.87065l-0.10084,-1.92734" data-paper-data="{&quot;index&quot;:null}" fill="none" stroke="#000000" stroke-width="1.5" stroke-linecap="round"/><path d="M419.79095,305.8478v-4.70497h1.36142v4.70497z" data-paper-data="{&quot;index&quot;:null}" fill="#ffffff" stroke="#000000" stroke-width="1" stroke-linecap="butt"/><path d="M418.33329,305.84261v-4.70498h1.36142v4.70498z" data-paper-data="{&quot;index&quot;:null}" fill="#ffffff" stroke="#000000" stroke-width="1" stroke-linecap="butt"/><path d="M396.70181,305.84261v-4.70498h1.36142v4.70498z" data-paper-data="{&quot;index&quot;:null}" fill="#ffffff" stroke="#000000" stroke-width="1" stroke-linecap="butt"/><path d="M395.24415,305.83742v-4.70497h1.36143v4.70497z" data-paper-data="{&quot;index&quot;:null}" fill="#ffffff" stroke="#000000" stroke-width="1" stroke-linecap="butt"/><path d="M404.00854,302.9001v-2.89101h7.10965v2.89101z" data-paper-data="{&quot;index&quot;:null}" fill="#d0d0d0" stroke="#000000" stroke-width="1" stroke-linecap="butt"/><path d="M381.67574,302.83823v-2.89101h7.10965v2.89101z" data-paper-data="{&quot;index&quot;:null}" fill="#d0d0d0" stroke="#000000" stroke-width="1" stroke-linecap="butt"/><path d="M357.33292,231.6134l-7.109,-15.79779h31.59557l-6.31912,15.79779z" fill="url(#color-17)" stroke="#000000" stroke-width="1" stroke-linecap="butt"/><path d="M359.84477,216.07628l-4.62086,-10.26856h20.53713l-4.10743,10.26856z" fill="url(#color-18)" stroke="#000000" stroke-width="0.5" stroke-linecap="butt"/><path d="M361.28237,205.54705l3.94944,-15.00789l3.94945,14.21801" fill="none" stroke="#000000" stroke-width="1" stroke-linecap="round"/><path d="M365.23181,190.53915v-11.84834" fill="none" stroke="#000000" stroke-width="0.5" stroke-linecap="round"/><path d="M331.3982,302.70345v-15.40285h6.84571v15.40285z" fill="#dcdcdc" stroke="none" stroke-width="0" stroke-linecap="butt"/><path d="M340.74524,302.70345v-15.0079h7.109v15.0079z" fill="#dcdcdc" stroke="none" stroke-width="0" stroke-linecap="butt"/><path d="M336.00591,290.8551h7.89889" fill="none" stroke="#000000" stroke-width="0.5" stroke-linecap="round"/><path d="M336.00591,298.75399h9.47867" fill="none" stroke="#000000" stroke-width="0.5" stroke-linecap="round"/></g></g></svg>