<svg version="1.1" xmlns="http://www.w3.org/2000/svg" xmlns:xlink="http://www.w3.org/1999/xlink" width="164.5" height="38.18228" viewBox="0,0,164.5,38.18228"><g transform="translate(-157.75,-161.75)"><g data-paper-data="{&quot;isPaintingLayer&quot;:true}" fill-rule="nonzero" stroke-linecap="butt" stroke-linejoin="miter" stroke-miterlimit="10" stroke-dasharray="" stroke-dashoffset="0" style="mix-blend-mode: normal"><path d="M158.75,197.25v-34.5h162.5v34.5z" fill="#000000" stroke="#bebebe" stroke-width="2"/><path d="M192.5,179.93056c0,7.59392 -6.04416,13.75 -13.5,13.75c-7.45584,0 -13.5,-6.15608 -13.5,-13.75c0,-7.59392 6.04416,-13.75 13.5,-13.75c7.45584,0 13.5,6.15608 13.5,13.75z" fill="#ffffff" stroke="#bebebe" stroke-width="2"/><path d="M231,180.43056c0,7.59392 -6.04415,13.75 -13.5,13.75c-7.45585,0 -13.5,-6.15608 -13.5,-13.75c0,-7.59392 6.04415,-13.75 13.5,-13.75c7.45585,0 13.5,6.15608 13.5,13.75z" fill="#ffffff" stroke="#bebebe" stroke-width="2"/><path d="M314,179.93056c0,7.59392 -6.04415,13.75 -13.5,13.75c-7.45585,0 -13.5,-6.15608 -13.5,-13.75c0,-7.59392 6.04415,-13.75 13.5,-13.75c7.45585,0 13.5,6.15608 13.5,13.75z" fill="#ffffff" stroke="#bebebe" stroke-width="2"/><path d="M279.5,180.43056c0,7.59392 -6.04415,13.75 -13.5,13.75c-7.45585,0 -13.5,-6.15608 -13.5,-13.75c0,-7.59392 6.04415,-13.75 13.5,-13.75c7.45585,0 13.5,6.15608 13.5,13.75z" fill="#ffffff" stroke="#bebebe" stroke-width="2"/><text transform="translate(227.44927,196.03209) scale(0.32352,0.32352)" font-size="40" xml:space="preserve" fill="#ffffff" fill-rule="nonzero" stroke="none" stroke-width="1" stroke-linecap="butt" stroke-linejoin="miter" stroke-miterlimit="10" stroke-dasharray="" stroke-dashoffset="0" font-family="Sans Serif" font-weight="normal" text-anchor="start" style="mix-blend-mode: normal"><tspan x="0" dy="0">太高</tspan></text><text transform="translate(229.5,176.12606) scale(0.28804,0.28804)" font-size="40" xml:space="preserve" fill="#ffffff" fill-rule="nonzero" stroke="none" stroke-width="1" stroke-linecap="butt" stroke-linejoin="miter" stroke-miterlimit="10" stroke-dasharray="" stroke-dashoffset="0" font-family="Sans Serif" font-weight="normal" text-anchor="start" style="mix-blend-mode: normal"><tspan x="0" dy="0">PAPI</tspan></text></g></g></svg>