<svg version="1.1" xmlns="http://www.w3.org/2000/svg" xmlns:xlink="http://www.w3.org/1999/xlink" width="85.53926" height="108.27772" viewBox="0,0,85.53926,108.27772"><g transform="translate(-201.42695,-122.1515)"><g data-paper-data="{&quot;isPaintingLayer&quot;:true}" fill-rule="nonzero" stroke-linejoin="miter" stroke-miterlimit="10" stroke-dasharray="" stroke-dashoffset="0" style="mix-blend-mode: normal"><path d="M206.5,230v-100h67v100z" fill="#4579ff" stroke="none" stroke-width="0" stroke-linecap="butt"/><text transform="translate(206.50084,160.14068) rotate(-15.81317) scale(0.47445,0.41194) skewX(0)" font-size="40" xml:space="preserve" fill="#1a2e60" fill-rule="nonzero" stroke="none" stroke-width="1" stroke-linecap="butt" stroke-linejoin="miter" stroke-miterlimit="10" stroke-dasharray="" stroke-dashoffset="0" font-family="Sans Serif" font-weight="normal" text-anchor="start" style="mix-blend-mode: normal"><tspan x="0" dy="0"> 飞机</tspan><tspan x="0" dy="48px">没油了！</tspan></text><text transform="translate(203.58055,211.98374) scale(0.5,0.5)" font-size="40" xml:space="preserve" fill="#ff0000" fill-rule="nonzero" stroke="none" stroke-width="1" stroke-linecap="butt" stroke-linejoin="miter" stroke-miterlimit="10" stroke-dasharray="" stroke-dashoffset="0" font-family="Sans Serif" font-weight="normal" text-anchor="start" style="mix-blend-mode: normal"><tspan x="0" dy="0">油量：0</tspan></text><path d="M206.20544,129.98025l8.64868,-0.20592c0,0 -4.04329,0.55135 -5.67783,2.6633c-1.80297,2.32957 -2.76493,6.60314 -2.76493,6.60314z" fill="#b0fecf" stroke="#b0fecf" stroke-width="0.5" stroke-linecap="round"/><path d="M273.70325,139.09671c0,0 -0.96196,-4.27357 -2.76493,-6.60314c-1.63454,-2.11195 -5.67783,-2.6633 -5.67783,-2.6633l8.64868,0.20592z" data-paper-data="{&quot;index&quot;:null}" fill="#b0fecf" stroke="#b0fecf" stroke-width="0.5" stroke-linecap="round"/><path d="M273.63551,229.91743l-8.64868,0.20592c0,0 4.04329,-0.55135 5.67783,-2.6633c1.80297,-2.32957 2.76493,-6.60314 2.76493,-6.60314z" data-paper-data="{&quot;index&quot;:null}" fill="#b0fecf" stroke="#b0fecf" stroke-width="0.5" stroke-linecap="round"/><path d="M206.57919,220.91285c0,0 0.96196,4.27357 2.76493,6.60314c1.63454,2.11195 5.67783,2.6633 5.67783,2.6633l-8.64868,-0.20592z" data-paper-data="{&quot;index&quot;:null}" fill="#b0fecf" stroke="#b0fecf" stroke-width="0.5" stroke-linecap="round"/></g></g></svg>