<svg version="1.1" xmlns="http://www.w3.org/2000/svg" xmlns:xlink="http://www.w3.org/1999/xlink" width="208.80284" height="71.43364" viewBox="0,0,208.80284,71.43364"><defs><radialGradient cx="238.75" cy="179.375" r="35.375" gradientUnits="userSpaceOnUse" id="color-1"><stop offset="0" stop-color="#ffffff"/><stop offset="1" stop-color="#bdbe41"/></radialGradient><linearGradient x1="240.17999" y1="177.13316" x2="240.17999" y2="169.06013" gradientUnits="userSpaceOnUse" id="color-2"><stop offset="0" stop-color="#d5d5d5"/><stop offset="1" stop-color="#ffffff"/></linearGradient><linearGradient x1="240.36" y1="162.24524" x2="240.36" y2="170.31827" gradientUnits="userSpaceOnUse" id="color-3"><stop offset="0" stop-color="#d5d5d5"/><stop offset="1" stop-color="#ffffff"/></linearGradient><linearGradient x1="231.60025" y1="164.99045" x2="231.60025" y2="173.16806" gradientUnits="userSpaceOnUse" id="color-4"><stop offset="0" stop-color="#9c9c9c"/><stop offset="1" stop-color="#e9e9e9"/></linearGradient><linearGradient x1="228.49532" y1="166.85961" x2="228.49532" y2="168.49514" gradientUnits="userSpaceOnUse" id="color-5"><stop offset="0" stop-color="#ffffff"/><stop offset="1" stop-color="#dbdbdb"/></linearGradient><linearGradient x1="234.8087" y1="167.09327" x2="234.8087" y2="168.72879" gradientUnits="userSpaceOnUse" id="color-6"><stop offset="0" stop-color="#ffffff"/><stop offset="1" stop-color="#dbdbdb"/></linearGradient><linearGradient x1="247.94676" y1="164.72244" x2="247.94676" y2="172.90005" gradientUnits="userSpaceOnUse" id="color-7"><stop offset="0" stop-color="#9c9c9c"/><stop offset="1" stop-color="#e9e9e9"/></linearGradient><linearGradient x1="244.84183" y1="166.59161" x2="244.84183" y2="168.22713" gradientUnits="userSpaceOnUse" id="color-8"><stop offset="0" stop-color="#ffffff"/><stop offset="1" stop-color="#dbdbdb"/></linearGradient><linearGradient x1="251.15515" y1="166.82525" x2="251.15515" y2="168.46077" gradientUnits="userSpaceOnUse" id="color-9"><stop offset="0" stop-color="#ffffff"/><stop offset="1" stop-color="#dbdbdb"/></linearGradient><linearGradient x1="239.75954" y1="164.77278" x2="239.75954" y2="169.00589" gradientUnits="userSpaceOnUse" id="color-10"><stop offset="0" stop-color="#000000"/><stop offset="1" stop-color="#ffffff"/></linearGradient><linearGradient x1="239.71083" y1="173.239" x2="239.71083" y2="169.00589" gradientUnits="userSpaceOnUse" id="color-11"><stop offset="0" stop-color="#000000"/><stop offset="1" stop-color="#ffffff"/></linearGradient></defs><g transform="translate(-202.37499,-142.44136)"><g data-paper-data="{&quot;isPaintingLayer&quot;:true}" fill-rule="nonzero" stroke-linejoin="miter" stroke-miterlimit="10" stroke-dasharray="" stroke-dashoffset="0" style="mix-blend-mode: normal"><path d="M203.375,212.875v-67h70.75v67z" fill="url(#color-1)" stroke="#000000" stroke-width="2" stroke-linecap="butt"/><path d="M233.74657,207.94508v-55.89016h12.50689v55.89016z" fill="#656565" stroke="#000000" stroke-width="1" stroke-linecap="butt"/><path d="M240.04609,154.7908l-0.31568,41.03823" fill="none" stroke="#ffffff" stroke-width="1.5" stroke-linecap="round"/><path d="M239.68814,205.22836l0.08499,-9.26435" fill="none" stroke="#ff9708" stroke-width="1.5" stroke-linecap="round"/><path d="M236.11839,200.82946l2.97479,-4.16471" fill="none" stroke="#ff9708" stroke-width="0.5" stroke-linecap="round"/><path d="M239.17126,199.46267l-2.97479,4.16471" fill="none" stroke="#ff9708" stroke-width="0.5" stroke-linecap="round"/><path d="M236.35957,206.17032l2.97479,-4.16471" fill="none" stroke="#ff9708" stroke-width="0.5" stroke-linecap="round"/><text transform="translate(241.07768,156.85168) scale(0.0502,0.0502)" font-size="40" xml:space="preserve" fill="#ffffff" fill-rule="nonzero" stroke="none" stroke-width="1" stroke-linecap="butt" stroke-linejoin="miter" stroke-miterlimit="10" stroke-dasharray="" stroke-dashoffset="0" font-family="Sans Serif" font-weight="normal" text-anchor="start" style="mix-blend-mode: normal"><tspan x="0" dy="0">MAX</tspan></text><text transform="translate(241.07768,205.78076) scale(0.06085,0.06085)" font-size="40" xml:space="preserve" fill="#ffffff" fill-rule="nonzero" stroke="none" stroke-width="1" stroke-linecap="butt" stroke-linejoin="miter" stroke-miterlimit="10" stroke-dasharray="" stroke-dashoffset="0" font-family="Sans Serif" font-weight="normal" text-anchor="start" style="mix-blend-mode: normal"><tspan x="0" dy="0">反推</tspan></text><text transform="translate(279.06064,164.19136) scale(0.5,0.5)" font-size="40" xml:space="preserve" fill="#ffffff" fill-rule="nonzero" stroke="none" stroke-width="1" stroke-linecap="butt" stroke-linejoin="miter" stroke-miterlimit="10" stroke-dasharray="" stroke-dashoffset="0" font-family="Sans Serif" font-weight="normal" text-anchor="start" style="mix-blend-mode: normal"><tspan x="0" dy="0">最大推力110%</tspan></text><g><path d="M246.19499,169.06013v8.07304h-12.03004v-8.07304z" data-paper-data="{&quot;index&quot;:null}" fill="url(#color-2)" stroke="#000000" stroke-width="0.35" stroke-linecap="butt"/><path d="M234.34496,170.31827v-8.07304h12.03005v8.07304z" fill="url(#color-3)" stroke="#000000" stroke-width="0.35" stroke-linecap="butt"/><g><path d="M231.90949,171.94191c-2.07829,0.01939 -6.62256,1.22614 -6.62256,1.22614v-8.06078c0,0 3.73151,1.98599 6.41683,1.98599c2.68532,0 6.20984,-2.10281 6.20984,-2.10281l-0.1035,8.06078c0,0 -3.80466,-1.12888 -5.90062,-1.10932z" fill="url(#color-4)" stroke="#000000" stroke-width="0.25" stroke-linecap="round"/><path d="M226.32188,173.05123v-7.47667" fill="none" stroke="#000000" stroke-width="0.25" stroke-linecap="round"/><path d="M236.77512,172.93441v-7.47667" fill="none" stroke="#000000" stroke-width="0.25" stroke-linecap="round"/><path d="M226.94291,166.85961l3.20841,1.5187l-3.31191,0.11683z" fill="url(#color-5)" stroke="none" stroke-width="0" stroke-linecap="round"/><path d="M236.46465,168.72879l-3.31191,-0.11683l3.20841,-1.5187z" data-paper-data="{&quot;index&quot;:null}" fill="url(#color-6)" stroke="none" stroke-width="0" stroke-linecap="round"/><path d="M225.18343,168.72879h0.93148" fill="none" stroke="#000000" stroke-width="0.25" stroke-linecap="round"/><path d="M237.60311,168.84561h-0.93148" fill="none" stroke="#000000" stroke-width="0.25" stroke-linecap="round"/><path d="M254.15657,172.78322c0,0 -3.80466,-1.12888 -5.90062,-1.10932c-2.07828,0.01939 -6.62254,1.22614 -6.62254,1.22614v-8.06078c0,0 3.73151,1.98599 6.41683,1.98599c2.68533,0 6.20984,-2.10281 6.20984,-2.10281l-0.1035,8.06078z" fill="url(#color-7)" stroke="#000000" stroke-width="0.25" stroke-linecap="round"/><path d="M242.66839,165.30656v7.47667" fill="none" stroke="#000000" stroke-width="0.25" stroke-linecap="round"/><path d="M253.12163,172.6664v-7.47667" fill="none" stroke="#000000" stroke-width="0.25" stroke-linecap="round"/><path d="M243.28936,166.59161l3.20841,1.5187l-3.31191,0.11683z" fill="url(#color-8)" stroke="none" stroke-width="0" stroke-linecap="round"/><path d="M252.81112,168.46077l-3.31191,-0.11683l3.20841,-1.5187z" data-paper-data="{&quot;index&quot;:null}" fill="url(#color-9)" stroke="none" stroke-width="0" stroke-linecap="round"/><path d="M242.46138,168.46077h-0.93148" fill="none" stroke="#000000" stroke-width="0.25" stroke-linecap="round"/><path d="M253.01814,168.5776h0.93148" fill="none" stroke="#000000" stroke-width="0.25" stroke-linecap="round"/><path d="M238.00619,169.00589v-4.23311h3.50674v4.23311z" fill="url(#color-10)" stroke="none" stroke-width="NaN" stroke-linecap="butt"/><path d="M241.46422,169.00589v4.23311h-3.50674v-4.23311z" data-paper-data="{&quot;index&quot;:null}" fill="url(#color-11)" stroke="none" stroke-width="NaN" stroke-linecap="butt"/></g></g><text transform="translate(240.34391,175.97651) scale(0.5,0.5)" font-size="40" xml:space="preserve" fill="#ff3b3b" fill-rule="nonzero" stroke="none" stroke-width="1" stroke-linecap="butt" stroke-linejoin="miter" stroke-miterlimit="10" stroke-dasharray="" stroke-dashoffset="0" font-family="Sans Serif" font-weight="normal" text-anchor="start" style="mix-blend-mode: normal"><tspan x="0" dy="0">＋</tspan></text><text transform="translate(218.50374,175.7728) scale(0.5,0.5)" font-size="40" xml:space="preserve" fill="#e43535" fill-rule="nonzero" stroke="none" stroke-width="1" stroke-linecap="butt" stroke-linejoin="miter" stroke-miterlimit="10" stroke-dasharray="" stroke-dashoffset="0" font-family="Sans Serif" font-weight="normal" text-anchor="start" style="mix-blend-mode: normal"><tspan x="0" dy="0">＋</tspan></text><g stroke="none" stroke-width="1" stroke-linecap="butt"><path d="M212.2635,154.43047l-1.82577,-1.98453l1.82577,-3.8103z" fill="#b20000"/><path d="M212.18413,154.43047l-6.033,-1.3495l4.20724,-0.63504z" fill="#dc0000"/><path d="M212.34289,154.43047v-5.79487l1.82577,3.8103z" fill="#e80000"/><path d="M212.2635,154.43047l1.82577,-1.98453l4.20724,0.63505z" fill="#ff0000"/><path d="M212.2635,154.43047l6.03305,-1.3495l-3.01653,2.93712z" fill="#b20000"/><path d="M215.28001,155.93872l0.71445,4.20721l-3.73093,-5.71547z" fill="#ff0000"/><path d="M212.2635,154.43047l-3.01653,1.58763l-3.01653,-2.93712z" fill="#b20000"/><path d="M212.2635,154.50983l-3.73096,5.71547l0.71445,-4.20724z" fill="#dc0000"/><path d="M212.2635,154.43047v3.73096l-3.73096,1.98453z" fill="#b20000"/><path d="M215.99446,160.22534l-3.73093,-1.98453v-3.8103c0,0 0.33149,0.51487 0.6156,0.95614c0.63912,0.99268 3.11533,4.83869 3.11533,4.83869z" fill="#e80000"/></g><g stroke="none" stroke-width="1" stroke-linecap="butt"><path d="M212.60758,164.90806l-1.82577,-1.98453l1.82577,-3.8103z" fill="#b20000"/><path d="M212.52817,164.90806l-6.033,-1.3495l4.20724,-0.63504z" fill="#dc0000"/><path d="M212.68692,164.90806v-5.79487l1.82577,3.8103z" fill="#e80000"/><path d="M212.60758,164.90806l1.82577,-1.98453l4.20724,0.63505z" fill="#ff0000"/><path d="M212.60758,164.90806l6.03305,-1.3495l-3.01653,2.93712z" fill="#b20000"/><path d="M215.62406,166.41631l0.71445,4.20721l-3.73093,-5.71547z" fill="#ff0000"/><path d="M212.60758,164.90806l-3.01653,1.58763l-3.01653,-2.93712z" fill="#b20000"/><path d="M212.60758,164.98742l-3.73096,5.71547l0.71445,-4.20724z" fill="#dc0000"/><path d="M212.60758,164.90806v3.73096l-3.73096,1.98453z" fill="#b20000"/><path d="M216.33851,170.70293l-3.73093,-1.98453v-3.8103c0,0 0.33149,0.51487 0.6156,0.95614c0.63912,0.99268 3.11533,4.83869 3.11533,4.83869z" fill="#e80000"/></g></g></g></svg>