<svg version="1.1" xmlns="http://www.w3.org/2000/svg" xmlns:xlink="http://www.w3.org/1999/xlink" width="201.7634" height="54.34738" viewBox="0,0,201.7634,54.34738"><defs><linearGradient x1="319.69792" y1="69.0066" x2="319.69792" y2="77.36593" gradientUnits="userSpaceOnUse" id="color-1"><stop offset="0" stop-color="#ffffff"/><stop offset="1" stop-color="#adb6ad"/></linearGradient><linearGradient x1="290.17719" y1="60.77293" x2="290.17719" y2="69.13226" gradientUnits="userSpaceOnUse" id="color-2"><stop offset="0" stop-color="#ffffff"/><stop offset="1" stop-color="#adb6ad"/></linearGradient><linearGradient x1="305.03796" y1="65.79346" x2="305.03796" y2="74.15279" gradientUnits="userSpaceOnUse" id="color-3"><stop offset="0" stop-color="#ffffff"/><stop offset="1" stop-color="#adb6ad"/></linearGradient><linearGradient x1="292.92175" y1="68.27025" x2="292.92175" y2="76.62959" gradientUnits="userSpaceOnUse" id="color-4"><stop offset="0" stop-color="#ffffff"/><stop offset="1" stop-color="#adb6ad"/></linearGradient><linearGradient x1="305.84125" y1="72.21974" x2="305.84125" y2="80.57907" gradientUnits="userSpaceOnUse" id="color-5"><stop offset="0" stop-color="#ffffff"/><stop offset="1" stop-color="#adb6ad"/></linearGradient><linearGradient x1="315.74843" y1="61.24151" x2="315.74843" y2="69.60084" gradientUnits="userSpaceOnUse" id="color-6"><stop offset="0" stop-color="#ffffff"/><stop offset="1" stop-color="#adb6ad"/></linearGradient><linearGradient x1="304.16774" y1="56.82344" x2="304.16774" y2="65.18278" gradientUnits="userSpaceOnUse" id="color-7"><stop offset="0" stop-color="#ffffff"/><stop offset="1" stop-color="#adb6ad"/></linearGradient></defs><g transform="translate(-278.2991,-43.43973)"><g data-paper-data="{&quot;isPaintingLayer&quot;:true}" fill-rule="nonzero" stroke-linecap="butt" stroke-linejoin="miter" stroke-miterlimit="10" stroke-dasharray="" stroke-dashoffset="0" style="mix-blend-mode: normal"><path d="M279.2991,96.78711v-50.625h199.7634v50.625z" fill="#989898" stroke="#000000" stroke-width="2"/><text transform="translate(332.27679,65.57862) scale(0.50894,0.50894)" font-size="40" xml:space="preserve" fill="#e70000" fill-rule="nonzero" stroke="none" stroke-width="1" stroke-linecap="butt" stroke-linejoin="miter" stroke-miterlimit="10" stroke-dasharray="" stroke-dashoffset="0" font-family="Sans Serif" font-weight="normal" text-anchor="start" style="mix-blend-mode: normal"><tspan x="0" dy="0">达成成就！</tspan></text><text transform="translate(332.99107,88.43577) scale(0.50894,0.50894)" font-size="40" xml:space="preserve" fill="#060000" fill-rule="nonzero" stroke="none" stroke-width="1" stroke-linecap="butt" stroke-linejoin="miter" stroke-miterlimit="10" stroke-dasharray="" stroke-dashoffset="0" font-family="Sans Serif" font-weight="normal" text-anchor="start" style="mix-blend-mode: normal"><tspan x="0" dy="0">烟雾缭绕</tspan></text><g stroke="none" stroke-width="0"><path d="M329.8875,73.18627c0,1.75849 -2.64744,2.67326 -6.39659,3.29042c-1.17236,0.19299 -2.45245,0.88924 -3.79299,0.88924c-1.13651,0 -2.09236,-0.90928 -3.05928,-0.96689c-3.82089,-0.22763 -6.30273,-0.09211 -6.30273,-1.93429c0,-0.67379 -0.50596,-0.99657 -0.48298,-1.81852c0.01367,-0.48901 0.9387,-1.10773 1.54474,-1.35188c0.57777,-0.23276 1.17666,-0.1056 1.65422,-0.61495c0.13017,-0.13884 1.1661,0.20489 1.67165,-0.00691c0.41489,-0.17382 0.30367,-0.91445 0.47881,-0.96324c1.35597,-0.3777 2.05439,-1.29273 3.668,-1.29273c0.28851,0 1.11133,-0.53578 1.81097,-0.54456c0.60758,-0.00763 1.09684,0.50307 1.37953,0.6006c1.41142,0.48692 1.23914,1.3432 2.26076,1.6609c0.33603,0.1045 1.35752,0.07477 2.04549,-0.15218c0.67546,-0.22282 1.74238,0.43896 1.99621,0.52783c1.89899,0.66483 1.52421,1.4375 1.52421,2.67716z" fill="url(#color-1)"/><path d="M300.36678,64.95259c0,1.75849 -2.64744,2.67326 -6.39659,3.29042c-1.17236,0.19299 -2.45245,0.88924 -3.79299,0.88924c-1.13651,0 -2.09236,-0.90928 -3.05928,-0.96689c-3.82089,-0.22763 -6.30273,-0.09211 -6.30273,-1.93429c0,-0.67379 -0.50596,-0.99657 -0.48298,-1.81852c0.01367,-0.48901 0.9387,-1.10773 1.54474,-1.35188c0.57777,-0.23276 1.17666,-0.1056 1.65422,-0.61495c0.13017,-0.13884 1.1661,0.20489 1.67165,-0.00691c0.41489,-0.17382 0.30367,-0.91445 0.47881,-0.96324c1.35597,-0.3777 2.05439,-1.29273 3.668,-1.29273c0.28851,0 1.11133,-0.53578 1.81097,-0.54456c0.60758,-0.00763 1.09684,0.50307 1.37953,0.6006c1.41142,0.48692 1.23914,1.3432 2.26076,1.6609c0.33603,0.1045 1.35752,0.07477 2.04549,-0.15218c0.67546,-0.22282 1.74238,0.43896 1.99621,0.52783c1.89899,0.66483 1.52421,1.4375 1.52421,2.67716z" fill="url(#color-2)"/><path d="M315.22755,69.97313c0,1.75849 -2.64744,2.67326 -6.39659,3.29042c-1.17236,0.19299 -2.45245,0.88924 -3.79299,0.88924c-1.13651,0 -2.09236,-0.90928 -3.05928,-0.96689c-3.82089,-0.22763 -6.30273,-0.09211 -6.30273,-1.93429c0,-0.67379 -0.50596,-0.99657 -0.48298,-1.81852c0.01367,-0.48901 0.9387,-1.10773 1.54474,-1.35188c0.57777,-0.23276 1.17666,-0.1056 1.65422,-0.61495c0.13017,-0.13884 1.1661,0.20489 1.67165,-0.00691c0.41489,-0.17382 0.30367,-0.91445 0.47881,-0.96324c1.35597,-0.3777 2.05439,-1.29273 3.668,-1.29273c0.28851,0 1.11133,-0.53578 1.81097,-0.54456c0.60758,-0.00763 1.09684,0.50307 1.37953,0.6006c1.41142,0.48692 1.23914,1.3432 2.26076,1.6609c0.33603,0.1045 1.35752,0.07477 2.04549,-0.15218c0.67546,-0.22282 1.74238,0.43896 1.99621,0.52783c1.89899,0.66483 1.52421,1.4375 1.52421,2.67716z" fill="url(#color-3)"/><path d="M303.11133,72.44992c0,1.75849 -2.64744,2.67326 -6.39659,3.29042c-1.17236,0.19299 -2.45245,0.88924 -3.79299,0.88924c-1.13651,0 -2.09236,-0.90928 -3.05928,-0.96689c-3.82089,-0.22763 -6.30273,-0.09211 -6.30273,-1.93429c0,-0.67379 -0.50596,-0.99657 -0.48298,-1.81852c0.01367,-0.48901 0.9387,-1.10773 1.54474,-1.35188c0.57777,-0.23276 1.17666,-0.1056 1.65422,-0.61495c0.13017,-0.13884 1.1661,0.20489 1.67165,-0.00691c0.41489,-0.17382 0.30367,-0.91445 0.47881,-0.96324c1.35597,-0.3777 2.05439,-1.29273 3.668,-1.29273c0.28851,0 1.11133,-0.53578 1.81097,-0.54456c0.60758,-0.00763 1.09684,0.50307 1.37953,0.6006c1.41142,0.48692 1.23914,1.3432 2.26076,1.6609c0.33603,0.1045 1.35752,0.07477 2.04549,-0.15218c0.67546,-0.22282 1.74238,0.43896 1.99621,0.52783c1.89899,0.66483 1.52421,1.4375 1.52421,2.67716z" fill="url(#color-4)"/><path d="M316.03083,76.39941c0,1.75849 -2.64744,2.67326 -6.39659,3.29042c-1.17236,0.19299 -2.45245,0.88924 -3.79299,0.88924c-1.13651,0 -2.09236,-0.90928 -3.05928,-0.96689c-3.82089,-0.22763 -6.30273,-0.09211 -6.30273,-1.93429c0,-0.67379 -0.50596,-0.99657 -0.48298,-1.81852c0.01367,-0.48901 0.9387,-1.10773 1.54474,-1.35188c0.57777,-0.23276 1.17666,-0.1056 1.65422,-0.61495c0.13017,-0.13884 1.1661,0.20489 1.67165,-0.00691c0.41489,-0.17382 0.30367,-0.91445 0.47881,-0.96324c1.35597,-0.3777 2.05439,-1.29273 3.668,-1.29273c0.28851,0 1.11133,-0.53578 1.81097,-0.54456c0.60758,-0.00763 1.09684,0.50307 1.37953,0.6006c1.41142,0.48692 1.23914,1.3432 2.26076,1.6609c0.33603,0.1045 1.35752,0.07477 2.04549,-0.15218c0.67546,-0.22282 1.74238,0.43896 1.99621,0.52783c1.89899,0.66483 1.52421,1.4375 1.52421,2.67716z" fill="url(#color-5)"/><path d="M325.93802,65.42118c0,1.75849 -2.64744,2.67326 -6.39659,3.29042c-1.17236,0.19299 -2.45245,0.88924 -3.79299,0.88924c-1.13651,0 -2.09236,-0.90928 -3.05928,-0.96689c-3.82089,-0.22763 -6.30273,-0.09211 -6.30273,-1.93429c0,-0.67379 -0.50596,-0.99657 -0.48298,-1.81852c0.01367,-0.48901 0.9387,-1.10773 1.54474,-1.35188c0.57777,-0.23276 1.17666,-0.1056 1.65422,-0.61495c0.13017,-0.13884 1.1661,0.20489 1.67165,-0.00691c0.41489,-0.17382 0.30367,-0.91445 0.47881,-0.96324c1.35597,-0.3777 2.05439,-1.29273 3.668,-1.29273c0.28851,0 1.11133,-0.53578 1.81097,-0.54456c0.60758,-0.00763 1.09684,0.50307 1.37953,0.6006c1.41142,0.48692 1.23914,1.3432 2.26076,1.6609c0.33603,0.1045 1.35752,0.07477 2.04549,-0.15218c0.67546,-0.22282 1.74238,0.43896 1.99621,0.52783c1.89899,0.66483 1.52421,1.4375 1.52421,2.67716z" fill="url(#color-6)"/><path d="M314.35732,61.00311c0,1.75849 -2.64744,2.67326 -6.39659,3.29042c-1.17236,0.19299 -2.45245,0.88924 -3.79299,0.88924c-1.13651,0 -2.09236,-0.90928 -3.05928,-0.96689c-3.82089,-0.22763 -6.30273,-0.09211 -6.30273,-1.93429c0,-0.67379 -0.50596,-0.99657 -0.48298,-1.81852c0.01367,-0.48901 0.9387,-1.10773 1.54474,-1.35188c0.57777,-0.23276 1.17666,-0.1056 1.65422,-0.61495c0.13017,-0.13884 1.1661,0.20489 1.67165,-0.00691c0.41489,-0.17382 0.30367,-0.91445 0.47881,-0.96324c1.35597,-0.3777 2.05439,-1.29273 3.668,-1.29273c0.28851,0 1.11133,-0.53578 1.81097,-0.54456c0.60758,-0.00763 1.09684,0.50307 1.37953,0.6006c1.41142,0.48692 1.23914,1.3432 2.26076,1.6609c0.33603,0.1045 1.35752,0.07477 2.04549,-0.15218c0.67546,-0.22282 1.74238,0.43896 1.99621,0.52783c1.89899,0.66483 1.52421,1.4375 1.52421,2.67716z" fill="url(#color-7)"/></g></g></g></svg>