<svg version="1.1" xmlns="http://www.w3.org/2000/svg" xmlns:xlink="http://www.w3.org/1999/xlink" width="247.53797" height="34.58006" viewBox="0,0,247.53797,34.58006"><g transform="translate(-104.83249,-162.80841)"><g data-paper-data="{&quot;isPaintingLayer&quot;:true}" fill-rule="nonzero" stroke-linejoin="miter" stroke-miterlimit="10" stroke-dasharray="" stroke-dashoffset="0" style="mix-blend-mode: normal"><path d="M106.11089,196.14786v-32.29572h245.01557v32.29572z" fill="#4579ff" stroke="none" stroke-width="0" stroke-linecap="butt"/><text transform="translate(117.88542,188.76245) scale(0.5,0.5)" font-size="40" xml:space="preserve" fill="#18f6ff" fill-rule="nonzero" stroke="none" stroke-width="1" stroke-linecap="butt" stroke-linejoin="miter" stroke-miterlimit="10" stroke-dasharray="" stroke-dashoffset="0" font-family="Sans Serif" font-weight="normal" text-anchor="start" style="mix-blend-mode: normal"><tspan x="0" dy="0">空难模拟器                     →</tspan></text><path d="M105.0881,163.26433l8.64868,-0.20592c0,0 -4.04329,0.55135 -5.67783,2.6633c-1.80297,2.32957 -2.76493,6.60314 -2.76493,6.60314z" data-paper-data="{&quot;index&quot;:null}" fill="#b0fecf" stroke="#affbe1" stroke-width="0.5" stroke-linecap="round"/><path d="M105.41792,187.72546c0,0 0.96196,4.27357 2.76493,6.60314c1.63454,2.11195 5.67783,2.6633 5.67783,2.6633l-8.64868,-0.20592z" data-paper-data="{&quot;index&quot;:null}" fill="#b0fecf" stroke="#affbe1" stroke-width="0.5" stroke-linecap="round"/><path d="M351.90893,172.92018c0,0 -0.96196,-4.27357 -2.76493,-6.60314c-1.63454,-2.11195 -5.67783,-2.6633 -5.67783,-2.6633l8.64868,0.20592z" data-paper-data="{&quot;index&quot;:null}" fill="#affbe1" stroke="#b0fecf" stroke-width="0.5" stroke-linecap="round"/><path d="M351.90552,196.93261l-8.64868,0.20592c0,0 4.04329,-0.55135 5.67783,-2.6633c1.80297,-2.32957 2.76493,-6.60314 2.76493,-6.60314z" data-paper-data="{&quot;index&quot;:null}" fill="#b0fecf" stroke="#affbe1" stroke-width="0.5" stroke-linecap="round"/><path d="M232.86601,175.33411l-16.71314,-10.01993l8.07944,0.03432l16.71312,10.01992l7.80552,-0.018l-16.71312,-10.01993l7.79719,0.42851l16.71313,10.01991l7.80376,0.07638l-16.71313,-10.01993" data-paper-data="{&quot;index&quot;:null}" fill="none" stroke="#fcff54" stroke-width="1.5" stroke-linecap="round"/><path d="M264.28587,175.7932l-16.71314,-10.01993l8.07944,0.03432l16.71313,10.01993l7.80552,-0.018l-16.71312,-10.01993l7.79719,0.42851l16.71313,10.01991l7.80376,0.07638l-16.71312,-10.01993" data-paper-data="{&quot;index&quot;:null}" fill="none" stroke="#fcff54" stroke-width="1.5" stroke-linecap="round"/><path d="M296.3396,176.37626l-16.71314,-10.01993l8.07944,0.03432l16.71312,10.01993l7.80553,-0.018l-16.71313,-10.01993l7.79719,0.42851l16.71313,10.01991l7.80376,0.07638l-16.71313,-10.01993" data-paper-data="{&quot;index&quot;:null}" fill="none" stroke="#fcff54" stroke-width="1.5" stroke-linecap="round"/><path d="M233.173,186.01858l-16.71313,10.01993l7.80376,-0.07638l16.71313,-10.01991l7.79719,-0.42851l-16.71312,10.01993l7.80552,0.018l16.71312,-10.01992l8.07944,-0.03432l-16.71314,10.01993" data-paper-data="{&quot;index&quot;:null}" fill="none" stroke="#fcff54" stroke-width="1.5" stroke-linecap="round"/><path d="M265.69709,185.64949l-16.71312,10.01993l7.80376,-0.07638l16.71313,-10.01991l7.79719,-0.42851l-16.71312,10.01993l7.80552,0.018l16.71313,-10.01993l8.07944,-0.03432l-16.71314,10.01993" data-paper-data="{&quot;index&quot;:null}" fill="none" stroke="#fcff54" stroke-width="1.5" stroke-linecap="round"/><path d="M298.02688,185.12832l-16.71313,10.01993l7.80376,-0.07638l16.71313,-10.01991l7.79719,-0.42851l-16.71313,10.01993l7.80553,0.018l16.71312,-10.01993l8.07944,-0.03432l-16.71314,10.01993" data-paper-data="{&quot;index&quot;:null}" fill="none" stroke="#fcff54" stroke-width="1.5" stroke-linecap="round"/></g></g></svg>