<svg version="1.1" xmlns="http://www.w3.org/2000/svg" xmlns:xlink="http://www.w3.org/1999/xlink" width="72.89243" height="102.70655" viewBox="0,0,72.89243,102.70655"><defs><radialGradient cx="239.91567" cy="188.39336" r="50" gradientUnits="userSpaceOnUse" id="color-1"><stop offset="0" stop-color="#66d7ff"/><stop offset="1" stop-color="#1464ff"/></radialGradient><radialGradient cx="241.87033" cy="155.80612" r="33.18839" gradientTransform="translate(-375.07894,-276.58509) scale(1.80786,1.82325)" gradientUnits="userSpaceOnUse" id="color-2"><stop offset="0" stop-color="#2ff200"/><stop offset="1" stop-color="#00f0d9"/></radialGradient><linearGradient x1="239.91566" y1="196.97996" x2="239.91566" y2="223.4943" gradientUnits="userSpaceOnUse" id="color-3"><stop offset="0" stop-color="#ffffff"/><stop offset="1" stop-color="#a1c6d1"/></linearGradient><linearGradient x1="236.011" y1="219.84996" x2="236.011" y2="224.01493" gradientUnits="userSpaceOnUse" id="color-4"><stop offset="0" stop-color="#b9e3f0" stop-opacity="0"/><stop offset="1" stop-color="#b9e3f0"/></linearGradient><linearGradient x1="237.96333" y1="219.84996" x2="237.96333" y2="224.01493" gradientUnits="userSpaceOnUse" id="color-5"><stop offset="0" stop-color="#b9e3f0" stop-opacity="0"/><stop offset="1" stop-color="#b9e3f0"/></linearGradient><linearGradient x1="259.95958" y1="220.37058" x2="259.95958" y2="224.01493" gradientUnits="userSpaceOnUse" id="color-6"><stop offset="0" stop-color="#b9e3f0" stop-opacity="0"/><stop offset="1" stop-color="#b9e3f0"/></linearGradient><linearGradient x1="261.78175" y1="220.11027" x2="261.78175" y2="224.01493" gradientUnits="userSpaceOnUse" id="color-7"><stop offset="0" stop-color="#b9e3f0" stop-opacity="0"/><stop offset="1" stop-color="#b9e3f0"/></linearGradient><linearGradient x1="215.70678" y1="220.11027" x2="215.70678" y2="224.01493" gradientUnits="userSpaceOnUse" id="color-8"><stop offset="0" stop-color="#b9e3f0" stop-opacity="0"/><stop offset="1" stop-color="#b9e3f0"/></linearGradient><linearGradient x1="217.52896" y1="220.37058" x2="217.52896" y2="223.75461" gradientUnits="userSpaceOnUse" id="color-9"><stop offset="0" stop-color="#b9e3f0" stop-opacity="0"/><stop offset="1" stop-color="#b9e3f0"/></linearGradient></defs><g transform="translate(-203.4632,-127.84018)"><g data-paper-data="{&quot;isPaintingLayer&quot;:true}" fill-rule="nonzero" stroke-linejoin="miter" stroke-miterlimit="10" stroke-dasharray="" stroke-dashoffset="0" style="mix-blend-mode: normal"><path d="M206.5,229.47477v-100h67v100z" fill="url(#color-1)" stroke="none" stroke-width="0" stroke-linecap="butt"/><path d="M273.41074,229.80786l-8.64868,0.20592c0,0 4.04329,-0.55135 5.67783,-2.6633c1.80297,-2.32957 2.76493,-6.60314 2.76493,-6.60314z" data-paper-data="{&quot;index&quot;:null}" fill="#affaf4" stroke="#affaf4" stroke-width="0.5" stroke-linecap="round"/><path d="M205.81703,221.03036c0,0 0.96196,4.27357 2.76493,6.60314c1.63454,2.11195 5.67783,2.6633 5.67783,2.6633l-8.64868,-0.20592z" data-paper-data="{&quot;index&quot;:null}" fill="#affaf4" stroke="#affaf4" stroke-width="0.5" stroke-linecap="round"/><text transform="translate(207.47116,151.69862) scale(0.55314,0.54847)" font-size="40" xml:space="preserve" fill="url(#color-2)" fill-rule="nonzero" stroke="none" stroke-width="1" stroke-linecap="butt" stroke-linejoin="miter" stroke-miterlimit="10" stroke-dasharray="" stroke-dashoffset="0" font-family="Sans Serif" font-weight="normal" text-anchor="start" style="mix-blend-mode: normal"><tspan x="0" dy="0">自定义</tspan><tspan x="0" dy="48px">  航行</tspan></text><path d="M274.27666,223.4943l-68.20136,-0.26031l-1.82218,-21.34546c0,0 8.55235,-4.42528 15.87894,-4.42528c4.30491,0 12.00907,4.12083 20.30373,3.88713c6.01518,-0.16948 12.3409,-4.85044 17.90598,-4.33007c9.94655,0.93007 17.23644,4.86822 17.23644,4.86822z" fill="url(#color-3)" stroke="#000000" stroke-width="1.5" stroke-linecap="round"/><text transform="translate(221.95423,207.87567) scale(0.16478,0.16478)" font-size="40" xml:space="preserve" fill="#c3c3c3" fill-rule="nonzero" stroke="none" stroke-width="1" stroke-linecap="butt" stroke-linejoin="miter" stroke-miterlimit="10" stroke-dasharray="" stroke-dashoffset="0" font-family="Sans Serif" font-weight="normal" text-anchor="start" style="mix-blend-mode: normal"><tspan x="0" dy="0">GITBLOCK</tspan></text><path d="M204.51343,224.01493v-22.64702h2.86341v22.64702z" fill="#000000" stroke="#000000" stroke-width="0.5" stroke-linecap="butt"/><path d="M272.28007,223.84052v-22.64702h2.86341v22.64702z" fill="#000000" stroke="#000000" stroke-width="0.5" stroke-linecap="butt"/><path d="M206.85622,208.13599h67.42043" fill="none" stroke="#000000" stroke-width="0.5" stroke-linecap="round"/><path d="M206.3356,212.82158l66.89981,0.26031" fill="none" stroke="#000000" stroke-width="0.5" stroke-linecap="round"/><path d="M273.49572,216.20562l-67.42043,0.26031" fill="none" stroke="#000000" stroke-width="0.5" stroke-linecap="round"/><path d="M207.89747,223.75461l8.85056,-7.02838l10.15211,7.02838l10.93304,-7.28869l12.23459,7.28869l10.41242,-7.549l12.23459,7.02838" fill="none" stroke="#000000" stroke-width="0.5" stroke-linecap="round"/><path d="M234.96976,224.01493v-4.16497h2.08249v4.16497z" fill="url(#color-4)" stroke="#000000" stroke-width="0.5" stroke-linecap="butt"/><path d="M237.05225,224.01493v-4.16497h1.82218v4.16497z" fill="url(#color-5)" stroke="#000000" stroke-width="0.5" stroke-linecap="butt"/><path d="M259.17864,224.01493v-3.64435h1.56186v3.64435z" fill="url(#color-6)" stroke="#000000" stroke-width="0.5" stroke-linecap="butt"/><path d="M260.7405,224.01493v-3.90466h2.08249v3.90466z" fill="url(#color-7)" stroke="#000000" stroke-width="0.5" stroke-linecap="butt"/><path d="M214.92585,224.01493v-3.90466h1.56186v3.90466z" fill="url(#color-8)" stroke="#000000" stroke-width="0.5" stroke-linecap="butt"/><path d="M216.2274,223.75461v-3.38404h2.6031v3.38404z" fill="url(#color-9)" stroke="#000000" stroke-width="0.5" stroke-linecap="butt"/><path d="M273.81271,137.60094c0,0 -0.96196,-4.27357 -2.76493,-6.60314c-1.63454,-2.11195 -5.67783,-2.6633 -5.67783,-2.6633l8.64868,0.20592z" data-paper-data="{&quot;index&quot;:null}" fill="#affaf4" stroke="#b0fecf" stroke-width="0.5" stroke-linecap="round"/><path d="M206.01086,128.7696l8.64868,-0.20592c0,0 -4.04329,0.55135 -5.67783,2.6633c-1.80297,2.32957 -2.76493,6.60314 -2.76493,6.60314z" data-paper-data="{&quot;index&quot;:null}" fill="#affaf4" stroke="#b0fecf" stroke-width="0.5" stroke-linecap="round"/></g></g></svg>