<svg version="1.1" xmlns="http://www.w3.org/2000/svg" xmlns:xlink="http://www.w3.org/1999/xlink" width="201.7634" height="54.34738" viewBox="0,0,201.7634,54.34738"><defs><linearGradient x1="304.1189" y1="81.76131" x2="304.1189" y2="73.1232" gradientUnits="userSpaceOnUse" id="color-1"><stop offset="0" stop-color="#d5d5d5"/><stop offset="1" stop-color="#ffffff"/></linearGradient><linearGradient x1="304.3363" y1="64.53625" x2="304.3363" y2="73.17436" gradientUnits="userSpaceOnUse" id="color-2"><stop offset="0" stop-color="#d5d5d5"/><stop offset="1" stop-color="#ffffff"/></linearGradient><linearGradient x1="294.27504" y1="68.58758" x2="294.27504" y2="77.33758" gradientUnits="userSpaceOnUse" id="color-3"><stop offset="0" stop-color="#9c9c9c"/><stop offset="1" stop-color="#e9e9e9"/></linearGradient><linearGradient x1="290.52504" y1="70.58758" x2="290.52504" y2="72.33758" gradientUnits="userSpaceOnUse" id="color-4"><stop offset="0" stop-color="#ffffff"/><stop offset="1" stop-color="#dbdbdb"/></linearGradient><linearGradient x1="298.15004" y1="70.83758" x2="298.15004" y2="72.58758" gradientUnits="userSpaceOnUse" id="color-5"><stop offset="0" stop-color="#ffffff"/><stop offset="1" stop-color="#dbdbdb"/></linearGradient><linearGradient x1="314.01768" y1="68.30081" x2="314.01768" y2="77.05081" gradientUnits="userSpaceOnUse" id="color-6"><stop offset="0" stop-color="#9c9c9c"/><stop offset="1" stop-color="#e9e9e9"/></linearGradient><linearGradient x1="310.26768" y1="70.30081" x2="310.26768" y2="72.05081" gradientUnits="userSpaceOnUse" id="color-7"><stop offset="0" stop-color="#ffffff"/><stop offset="1" stop-color="#dbdbdb"/></linearGradient><linearGradient x1="317.89268" y1="70.55081" x2="317.89268" y2="72.30081" gradientUnits="userSpaceOnUse" id="color-8"><stop offset="0" stop-color="#ffffff"/><stop offset="1" stop-color="#dbdbdb"/></linearGradient><linearGradient x1="304.1295" y1="68.35467" x2="304.1295" y2="72.88408" gradientUnits="userSpaceOnUse" id="color-9"><stop offset="0" stop-color="#000000"/><stop offset="1" stop-color="#ffffff"/></linearGradient><linearGradient x1="304.07067" y1="77.41349" x2="304.07067" y2="72.88408" gradientUnits="userSpaceOnUse" id="color-10"><stop offset="0" stop-color="#000000"/><stop offset="1" stop-color="#ffffff"/></linearGradient></defs><g transform="translate(-278.2991,-43.43973)"><g data-paper-data="{&quot;isPaintingLayer&quot;:true}" fill-rule="nonzero" stroke-linejoin="miter" stroke-miterlimit="10" stroke-dasharray="" stroke-dashoffset="0" style="mix-blend-mode: normal"><path d="M279.2991,96.78711v-50.625h199.7634v50.625z" fill="#989898" stroke="#000000" stroke-width="2" stroke-linecap="butt"/><text transform="translate(332.27679,65.57862) scale(0.50894,0.50894)" font-size="40" xml:space="preserve" fill="#e70000" fill-rule="nonzero" stroke="none" stroke-width="1" stroke-linecap="butt" stroke-linejoin="miter" stroke-miterlimit="10" stroke-dasharray="" stroke-dashoffset="0" font-family="Sans Serif" font-weight="normal" text-anchor="start" style="mix-blend-mode: normal"><tspan x="0" dy="0">达成成就！</tspan></text><text transform="translate(332.99107,88.43577) scale(0.50894,0.50894)" font-size="40" xml:space="preserve" fill="#060000" fill-rule="nonzero" stroke="none" stroke-width="1" stroke-linecap="butt" stroke-linejoin="miter" stroke-miterlimit="10" stroke-dasharray="" stroke-dashoffset="0" font-family="Sans Serif" font-weight="normal" text-anchor="start" style="mix-blend-mode: normal"><tspan x="0" dy="0">拉杆给油</tspan></text><path d="M311.38361,73.1232v8.63811h-14.52941v-8.63811z" data-paper-data="{&quot;index&quot;:null}" fill="url(#color-1)" stroke="#000000" stroke-width="0.35" stroke-linecap="butt"/><path d="M297.07159,73.17436v-8.63811h14.52942v8.63811z" fill="url(#color-2)" stroke="#000000" stroke-width="0.35" stroke-linecap="butt"/><g><path d="M294.6485,76.02561c-2.51008,0.02075 -7.99846,1.31197 -7.99846,1.31197v-8.625c0,0 4.50677,2.125 7.75,2.125c3.24323,0 7.5,-2.25 7.5,-2.25l-0.125,8.625c0,0 -4.59512,-1.20789 -7.12654,-1.18697z" fill="url(#color-3)" stroke="#000000" stroke-width="0.25" stroke-linecap="round"/><path d="M287.90004,77.21258v-8" fill="none" stroke="#000000" stroke-width="0.25" stroke-linecap="round"/><path d="M300.52504,69.08758v8" fill="none" stroke="#000000" stroke-width="0.25" stroke-linecap="round"/><path d="M288.65004,70.58758l3.875,1.625l-4,0.125z" fill="url(#color-4)" stroke="none" stroke-width="0" stroke-linecap="round"/><path d="M300.15004,72.58758l-4,-0.125l3.875,-1.625z" data-paper-data="{&quot;index&quot;:null}" fill="url(#color-5)" stroke="none" stroke-width="0" stroke-linecap="round"/><path d="M286.52504,72.58758h1.125" fill="none" stroke="#000000" stroke-width="0.25" stroke-linecap="round"/><path d="M301.52504,72.71258h-1.125" fill="none" stroke="#000000" stroke-width="0.25" stroke-linecap="round"/><path d="M321.51767,76.92581c0,0 -4.59512,-1.20789 -7.12654,-1.18697c-2.51007,0.02075 -7.99845,1.31197 -7.99845,1.31197v-8.625c0,0 4.50677,2.125 7.75,2.125c3.24324,0 7.5,-2.25 7.5,-2.25l-0.125,8.625z" fill="url(#color-6)" stroke="#000000" stroke-width="0.25" stroke-linecap="round"/><path d="M307.64268,68.92581v8" fill="none" stroke="#000000" stroke-width="0.25" stroke-linecap="round"/><path d="M320.26768,68.80081v8" fill="none" stroke="#000000" stroke-width="0.25" stroke-linecap="round"/><path d="M308.39268,70.30081l3.875,1.625l-4,0.125z" fill="url(#color-7)" stroke="none" stroke-width="0" stroke-linecap="round"/><path d="M319.89268,72.30081l-4,-0.125l3.875,-1.625z" data-paper-data="{&quot;index&quot;:null}" fill="url(#color-8)" stroke="none" stroke-width="0" stroke-linecap="round"/><path d="M306.26768,72.30081h1.125" fill="none" stroke="#000000" stroke-width="0.25" stroke-linecap="round"/><path d="M320.14268,72.42581h1.125" fill="none" stroke="#000000" stroke-width="0.25" stroke-linecap="round"/><path d="M302.01185,72.88408v-4.52941h4.2353v4.52941z" fill="url(#color-9)" stroke="none" stroke-width="NaN" stroke-linecap="butt"/><path d="M306.18832,72.88408v4.52941h-4.2353v-4.52941z" data-paper-data="{&quot;index&quot;:null}" fill="url(#color-10)" stroke="none" stroke-width="NaN" stroke-linecap="butt"/></g></g></g></svg>