<svg version="1.1" xmlns="http://www.w3.org/2000/svg" xmlns:xlink="http://www.w3.org/1999/xlink" width="201.7634" height="54.34738" viewBox="0,0,201.7634,54.34738"><g transform="translate(-278.2991,-43.43974)"><g data-paper-data="{&quot;isPaintingLayer&quot;:true}" fill-rule="nonzero" stroke-linejoin="miter" stroke-miterlimit="10" stroke-dasharray="" stroke-dashoffset="0" style="mix-blend-mode: normal"><path d="M279.2991,96.78712v-50.625h199.7634v50.625z" fill="#989898" stroke="#000000" stroke-width="2" stroke-linecap="butt"/><text transform="translate(332.27679,65.57863) scale(0.50894,0.50894)" font-size="40" xml:space="preserve" fill="#e70000" fill-rule="nonzero" stroke="none" stroke-width="1" stroke-linecap="butt" stroke-linejoin="miter" stroke-miterlimit="10" stroke-dasharray="" stroke-dashoffset="0" font-family="Sans Serif" font-weight="normal" text-anchor="start" style="mix-blend-mode: normal"><tspan x="0" dy="0">达成成就！</tspan></text><text transform="translate(333.3526,86.175) scale(0.42619,0.42619)" font-size="40" xml:space="preserve" fill="#000000" fill-rule="nonzero" stroke="none" stroke-width="1" stroke-linecap="butt" stroke-linejoin="miter" stroke-miterlimit="10" stroke-dasharray="" stroke-dashoffset="0" font-family="Sans Serif" font-weight="normal" text-anchor="start" style="mix-blend-mode: normal"><tspan x="0" dy="0">失速阴乐</tspan></text><path d="M286.02675,91.82802l-6.80349,-11.87459l46.24841,-26.4978l6.80349,11.87459z" fill="#ff0000" stroke="#000000" stroke-width="0.5" stroke-linecap="butt"/><text transform="translate(299.48296,74.96074) rotate(-29.81034) scale(0.14406,0.14406)" font-size="40" xml:space="preserve" fill="#ffdf17" fill-rule="nonzero" stroke="none" stroke-width="1" stroke-linecap="butt" stroke-linejoin="miter" stroke-miterlimit="10" stroke-dasharray="" stroke-dashoffset="0" font-family="Sans Serif" font-weight="normal" text-anchor="start" style="mix-blend-mode: normal"><tspan x="0" dy="0">警告</tspan></text><text transform="translate(287.97826,88.68837) rotate(-29.81034) scale(0.13566,0.13566)" font-size="40" xml:space="preserve" fill="#fcff54" fill-rule="nonzero" stroke="none" stroke-width="1" stroke-linecap="butt" stroke-linejoin="miter" stroke-miterlimit="10" stroke-dasharray="" stroke-dashoffset="0" font-family="Sans Serif" font-weight="normal" text-anchor="start" style="mix-blend-mode: normal"><tspan x="0" dy="0">失速！失速！失速！</tspan></text><path d="M285.43523,85.49283l-0.00523,4.67867l-0.98853,-1.6691l0.00523,-4.67867l-0.96556,-1.60621l-0.00523,4.67867l-0.87252,-1.65951l0.00523,-4.67867l-0.94589,-1.61747l-0.00523,4.67867" fill="none" stroke="#fcff54" stroke-width="0.5" stroke-linecap="round"/><path d="M327.48959,57.35004l-4.03891,-2.36159l0.91703,1.63401l4.03891,2.3616l0.9904,1.59197l-4.03891,-2.36159l0.89736,1.64528l4.03891,2.36159l0.94,1.6969l-4.03891,-2.3616" data-paper-data="{&quot;index&quot;:null}" fill="none" stroke="#fcff54" stroke-width="0.5" stroke-linecap="round"/></g></g></svg>