<svg version="1.1" xmlns="http://www.w3.org/2000/svg" xmlns:xlink="http://www.w3.org/1999/xlink" width="76.42026" height="33.23127" viewBox="0,0,76.42026,33.23127"><g transform="translate(-204.25243,-162.12497)"><g data-paper-data="{&quot;isPaintingLayer&quot;:true}" fill-rule="nonzero" stroke-linejoin="miter" stroke-miterlimit="10" stroke-dasharray="" stroke-dashoffset="0" style="mix-blend-mode: normal"><path d="M204.83241,194.72916v-32h74.83296v32z" fill="#2146b5" stroke="none" stroke-width="NaN" stroke-linecap="butt"/><text transform="translate(204.48829,184.81872) scale(0.47173,0.48309)" font-size="40" xml:space="preserve" fill="#51d9ff" fill-rule="nonzero" stroke="none" stroke-width="1" stroke-linecap="butt" stroke-linejoin="miter" stroke-miterlimit="10" stroke-dasharray="" stroke-dashoffset="0" font-family="Sans Serif" font-weight="normal" text-anchor="start" style="mix-blend-mode: normal"><tspan x="0" dy="0">买航空币</tspan></text><path d="M279.41398,171.64141c0,0 -0.96196,-4.27357 -2.76493,-6.60314c-1.63454,-2.11195 -5.67783,-2.6633 -5.67783,-2.6633l8.64868,0.20592z" data-paper-data="{&quot;index&quot;:null}" fill="#aff8fb" stroke="#aff8fb" stroke-width="0.5" stroke-linecap="round"/><path d="M204.62152,162.67312l8.64868,-0.20592c0,0 -4.04329,0.55135 -5.67783,2.6633c-1.80297,2.32957 -2.76493,6.60314 -2.76493,6.60314z" data-paper-data="{&quot;index&quot;:null}" fill="#aff8fb" stroke="#aff8fb" stroke-width="0.5" stroke-linecap="round"/><path d="M279.9302,194.90039l-8.64868,0.20592c0,0 4.04329,-0.55135 5.67783,-2.6633c1.80297,-2.32957 2.76493,-6.60314 2.76493,-6.60314z" data-paper-data="{&quot;index&quot;:null}" fill="#aff8fb" stroke="#aff8fb" stroke-width="0.5" stroke-linecap="round"/><path d="M204.76022,185.67874c0,0 0.96196,4.27357 2.76493,6.60314c1.63454,2.11195 5.67783,2.6633 5.67783,2.6633l-8.64868,-0.20592z" data-paper-data="{&quot;index&quot;:null}" fill="#aff8fb" stroke="#aff8fb" stroke-width="0.5" stroke-linecap="round"/></g></g></svg>