<svg version="1.1" xmlns="http://www.w3.org/2000/svg" xmlns:xlink="http://www.w3.org/1999/xlink" width="1451.915" height="1034.69985" viewBox="0,0,1451.915,1034.69985"><defs><linearGradient x1="351.57121" y1="-29.40022" x2="351.57121" y2="95.47703" gradientUnits="userSpaceOnUse" id="color-1"><stop offset="0" stop-color="#ffffff"/><stop offset="1" stop-color="#c7d2c7"/></linearGradient><linearGradient x1="467.52939" y1="-110.86889" x2="467.52939" y2="14.00836" gradientUnits="userSpaceOnUse" id="color-2"><stop offset="0" stop-color="#ffffff"/><stop offset="1" stop-color="#c7d2c7"/></linearGradient><linearGradient x1="565.795" y1="-28.11891" x2="565.795" y2="96.75834" gradientUnits="userSpaceOnUse" id="color-3"><stop offset="0" stop-color="#ffecec"/><stop offset="1" stop-color="#c7d2c7"/></linearGradient><linearGradient x1="283.59239" y1="125.58578" x2="283.59239" y2="250.46303" gradientUnits="userSpaceOnUse" id="color-4"><stop offset="0" stop-color="#ffffff"/><stop offset="1" stop-color="#dae6da"/></linearGradient><linearGradient x1="37.93251" y1="24.53171" x2="37.93251" y2="149.40896" gradientUnits="userSpaceOnUse" id="color-5"><stop offset="0" stop-color="#ffffff"/><stop offset="1" stop-color="#c7d2c7"/></linearGradient><linearGradient x1="131.88822" y1="-45.28859" x2="131.88822" y2="79.58866" gradientUnits="userSpaceOnUse" id="color-6"><stop offset="0" stop-color="#ffffff"/><stop offset="1" stop-color="#c7d2c7"/></linearGradient><linearGradient x1="230.15383" y1="37.4614" x2="230.15383" y2="162.33865" gradientUnits="userSpaceOnUse" id="color-7"><stop offset="0" stop-color="#ffffff"/><stop offset="1" stop-color="#bfcbd1"/></linearGradient><linearGradient x1="379.95957" y1="48.76548" x2="379.95957" y2="173.64273" gradientUnits="userSpaceOnUse" id="color-8"><stop offset="0" stop-color="#ffffff"/><stop offset="1" stop-color="#c7d2c7"/></linearGradient><linearGradient x1="68.0293" y1="118.64273" x2="68.0293" y2="243.51998" gradientUnits="userSpaceOnUse" id="color-9"><stop offset="0" stop-color="#efefef"/><stop offset="1" stop-color="#abb4ab"/></linearGradient><linearGradient x1="478.22518" y1="131.51547" x2="478.22518" y2="256.39272" gradientUnits="userSpaceOnUse" id="color-10"><stop offset="0" stop-color="#ffffff"/><stop offset="1" stop-color="#b2d1b2"/></linearGradient><linearGradient x1="288.48108" y1="-99.66057" x2="288.48108" y2="25.21668" gradientUnits="userSpaceOnUse" id="color-11"><stop offset="0" stop-color="#ffffff"/><stop offset="1" stop-color="#c7d2c7"/></linearGradient><linearGradient x1="83.1204" y1="-108.29331" x2="83.1204" y2="16.58395" gradientUnits="userSpaceOnUse" id="color-12"><stop offset="0" stop-color="#ffffff"/><stop offset="1" stop-color="#adb6ad"/></linearGradient><linearGradient x1="369.26379" y1="207.02276" x2="369.26379" y2="331.90001" gradientUnits="userSpaceOnUse" id="color-13"><stop offset="0" stop-color="#ffffff"/><stop offset="1" stop-color="#dae6da"/></linearGradient><linearGradient x1="60.70069" y1="256.0797" x2="60.70069" y2="380.95695" gradientUnits="userSpaceOnUse" id="color-14"><stop offset="0" stop-color="#efefef"/><stop offset="1" stop-color="#abb4ab"/></linearGradient><linearGradient x1="558.89657" y1="219.95244" x2="558.89657" y2="344.8297" gradientUnits="userSpaceOnUse" id="color-15"><stop offset="0" stop-color="#ffffff"/><stop offset="1" stop-color="#b8c2d1"/></linearGradient><linearGradient x1="574.79182" y1="49.19259" x2="574.79182" y2="174.06985" gradientUnits="userSpaceOnUse" id="color-16"><stop offset="0" stop-color="#f0e4ff"/><stop offset="1" stop-color="#c7d2c7"/></linearGradient><linearGradient x1="931.06524" y1="-3.08785" x2="931.06524" y2="121.7894" gradientUnits="userSpaceOnUse" id="color-17"><stop offset="0" stop-color="#ffffff"/><stop offset="1" stop-color="#c7d2c7"/></linearGradient><linearGradient x1="1047.02342" y1="-84.55652" x2="1047.02342" y2="40.32073" gradientUnits="userSpaceOnUse" id="color-18"><stop offset="0" stop-color="#ffffff"/><stop offset="1" stop-color="#c7d2c7"/></linearGradient><linearGradient x1="1145.28903" y1="-1.80654" x2="1145.28903" y2="123.07071" gradientUnits="userSpaceOnUse" id="color-19"><stop offset="0" stop-color="#ffecec"/><stop offset="1" stop-color="#c7d2c7"/></linearGradient><linearGradient x1="868.08641" y1="144.89815" x2="868.08641" y2="269.7754" gradientUnits="userSpaceOnUse" id="color-20"><stop offset="0" stop-color="#ffffff"/><stop offset="1" stop-color="#dae6da"/></linearGradient><linearGradient x1="349.0279" y1="319.86162" x2="349.0279" y2="444.73887" gradientUnits="userSpaceOnUse" id="color-21"><stop offset="0" stop-color="#ffffff"/><stop offset="1" stop-color="#c7d2c7"/></linearGradient><linearGradient x1="809.64786" y1="63.77376" x2="809.64786" y2="188.65101" gradientUnits="userSpaceOnUse" id="color-22"><stop offset="0" stop-color="#ffffff"/><stop offset="1" stop-color="#bfcbd1"/></linearGradient><linearGradient x1="959.4536" y1="75.07785" x2="959.4536" y2="199.9551" gradientUnits="userSpaceOnUse" id="color-23"><stop offset="0" stop-color="#ffffff"/><stop offset="1" stop-color="#c7d2c7"/></linearGradient><linearGradient x1="103.97979" y1="403.90238" x2="103.97979" y2="528.77963" gradientUnits="userSpaceOnUse" id="color-24"><stop offset="0" stop-color="#efefef"/><stop offset="1" stop-color="#abb4ab"/></linearGradient><linearGradient x1="1057.71921" y1="157.82783" x2="1057.71921" y2="282.70508" gradientUnits="userSpaceOnUse" id="color-25"><stop offset="0" stop-color="#ffffff"/><stop offset="1" stop-color="#b2d1b2"/></linearGradient><linearGradient x1="867.97511" y1="-73.3482" x2="867.97511" y2="51.52905" gradientUnits="userSpaceOnUse" id="color-26"><stop offset="0" stop-color="#ffffff"/><stop offset="1" stop-color="#c7d2c7"/></linearGradient><linearGradient x1="662.61443" y1="-81.98094" x2="662.61443" y2="42.89631" gradientUnits="userSpaceOnUse" id="color-27"><stop offset="0" stop-color="#ffffff"/><stop offset="1" stop-color="#adb6ad"/></linearGradient><linearGradient x1="948.75781" y1="233.33513" x2="948.75781" y2="358.21238" gradientUnits="userSpaceOnUse" id="color-28"><stop offset="0" stop-color="#ffffff"/><stop offset="1" stop-color="#dae6da"/></linearGradient><linearGradient x1="728.19472" y1="233.39207" x2="728.19472" y2="358.26932" gradientUnits="userSpaceOnUse" id="color-29"><stop offset="0" stop-color="#efefef"/><stop offset="1" stop-color="#abb4ab"/></linearGradient><linearGradient x1="1138.3906" y1="246.26481" x2="1138.3906" y2="371.14206" gradientUnits="userSpaceOnUse" id="color-30"><stop offset="0" stop-color="#ffffff"/><stop offset="1" stop-color="#b8c2d1"/></linearGradient><linearGradient x1="1154.28585" y1="75.50496" x2="1154.28585" y2="200.38221" gradientUnits="userSpaceOnUse" id="color-31"><stop offset="0" stop-color="#f0e4ff"/><stop offset="1" stop-color="#c7d2c7"/></linearGradient><linearGradient x1="315.75896" y1="-400.51534" x2="315.75896" y2="-275.63809" gradientUnits="userSpaceOnUse" id="color-32"><stop offset="0" stop-color="#ffffff"/><stop offset="1" stop-color="#c7d2c7"/></linearGradient><linearGradient x1="431.71714" y1="-481.98401" x2="431.71714" y2="-357.10676" gradientUnits="userSpaceOnUse" id="color-33"><stop offset="0" stop-color="#ffffff"/><stop offset="1" stop-color="#c7d2c7"/></linearGradient><linearGradient x1="529.98275" y1="-399.23402" x2="529.98275" y2="-274.35677" gradientUnits="userSpaceOnUse" id="color-34"><stop offset="0" stop-color="#ffecec"/><stop offset="1" stop-color="#c7d2c7"/></linearGradient><linearGradient x1="252.78013" y1="-252.52934" x2="252.78013" y2="-127.65208" gradientUnits="userSpaceOnUse" id="color-35"><stop offset="0" stop-color="#ffffff"/><stop offset="1" stop-color="#dae6da"/></linearGradient><linearGradient x1="2.12026" y1="-346.58341" x2="2.12026" y2="-221.70616" gradientUnits="userSpaceOnUse" id="color-36"><stop offset="0" stop-color="#ffffff"/><stop offset="1" stop-color="#c7d2c7"/></linearGradient><linearGradient x1="96.07597" y1="-416.40371" x2="96.07597" y2="-291.52646" gradientUnits="userSpaceOnUse" id="color-37"><stop offset="0" stop-color="#ffffff"/><stop offset="1" stop-color="#c7d2c7"/></linearGradient><linearGradient x1="194.34158" y1="-333.65372" x2="194.34158" y2="-208.77647" gradientUnits="userSpaceOnUse" id="color-38"><stop offset="0" stop-color="#ffffff"/><stop offset="1" stop-color="#bfcbd1"/></linearGradient><linearGradient x1="344.14732" y1="-322.34963" x2="344.14732" y2="-197.47238" gradientUnits="userSpaceOnUse" id="color-39"><stop offset="0" stop-color="#ffffff"/><stop offset="1" stop-color="#c7d2c7"/></linearGradient><linearGradient x1="32.21705" y1="-252.47238" x2="32.21705" y2="-127.59513" gradientUnits="userSpaceOnUse" id="color-40"><stop offset="0" stop-color="#efefef"/><stop offset="1" stop-color="#abb4ab"/></linearGradient><linearGradient x1="442.41293" y1="-239.59965" x2="442.41293" y2="-114.7224" gradientUnits="userSpaceOnUse" id="color-41"><stop offset="0" stop-color="#ffffff"/><stop offset="1" stop-color="#b2d1b2"/></linearGradient><linearGradient x1="252.66883" y1="-470.77569" x2="252.66883" y2="-345.89844" gradientUnits="userSpaceOnUse" id="color-42"><stop offset="0" stop-color="#ffffff"/><stop offset="1" stop-color="#c7d2c7"/></linearGradient><linearGradient x1="47.30815" y1="-479.40842" x2="47.30815" y2="-354.53117" gradientUnits="userSpaceOnUse" id="color-43"><stop offset="0" stop-color="#ffffff"/><stop offset="1" stop-color="#adb6ad"/></linearGradient><linearGradient x1="333.45153" y1="-164.09236" x2="333.45153" y2="-39.21511" gradientUnits="userSpaceOnUse" id="color-44"><stop offset="0" stop-color="#ffffff"/><stop offset="1" stop-color="#dae6da"/></linearGradient><linearGradient x1="523.08432" y1="-151.16267" x2="523.08432" y2="-26.28542" gradientUnits="userSpaceOnUse" id="color-45"><stop offset="0" stop-color="#ffffff"/><stop offset="1" stop-color="#b8c2d1"/></linearGradient><linearGradient x1="538.97957" y1="-321.92252" x2="538.97957" y2="-197.04527" gradientUnits="userSpaceOnUse" id="color-46"><stop offset="0" stop-color="#f0e4ff"/><stop offset="1" stop-color="#c7d2c7"/></linearGradient><linearGradient x1="895.25299" y1="-374.20297" x2="895.25299" y2="-249.32572" gradientUnits="userSpaceOnUse" id="color-47"><stop offset="0" stop-color="#ffffff"/><stop offset="1" stop-color="#c7d2c7"/></linearGradient><linearGradient x1="1011.21117" y1="-455.67164" x2="1011.21117" y2="-330.79439" gradientUnits="userSpaceOnUse" id="color-48"><stop offset="0" stop-color="#ffffff"/><stop offset="1" stop-color="#c7d2c7"/></linearGradient><linearGradient x1="832.27416" y1="-226.21697" x2="832.27416" y2="-101.33972" gradientUnits="userSpaceOnUse" id="color-49"><stop offset="0" stop-color="#ffffff"/><stop offset="1" stop-color="#dae6da"/></linearGradient><linearGradient x1="581.61429" y1="-320.27104" x2="581.61429" y2="-195.39379" gradientUnits="userSpaceOnUse" id="color-50"><stop offset="0" stop-color="#ffffff"/><stop offset="1" stop-color="#c7d2c7"/></linearGradient><linearGradient x1="675.57" y1="-390.09134" x2="675.57" y2="-265.21409" gradientUnits="userSpaceOnUse" id="color-51"><stop offset="0" stop-color="#ffffff"/><stop offset="1" stop-color="#c7d2c7"/></linearGradient><linearGradient x1="773.83561" y1="-307.34136" x2="773.83561" y2="-182.46411" gradientUnits="userSpaceOnUse" id="color-52"><stop offset="0" stop-color="#ffffff"/><stop offset="1" stop-color="#bfcbd1"/></linearGradient><linearGradient x1="923.64135" y1="-296.03727" x2="923.64135" y2="-171.16002" gradientUnits="userSpaceOnUse" id="color-53"><stop offset="0" stop-color="#ffffff"/><stop offset="1" stop-color="#c7d2c7"/></linearGradient><linearGradient x1="611.71108" y1="-226.16002" x2="611.71108" y2="-101.28277" gradientUnits="userSpaceOnUse" id="color-54"><stop offset="0" stop-color="#efefef"/><stop offset="1" stop-color="#abb4ab"/></linearGradient><linearGradient x1="1021.90696" y1="-213.28728" x2="1021.90696" y2="-88.41003" gradientUnits="userSpaceOnUse" id="color-55"><stop offset="0" stop-color="#ffffff"/><stop offset="1" stop-color="#b2d1b2"/></linearGradient><linearGradient x1="832.16286" y1="-444.46332" x2="832.16286" y2="-319.58607" gradientUnits="userSpaceOnUse" id="color-56"><stop offset="0" stop-color="#ffffff"/><stop offset="1" stop-color="#c7d2c7"/></linearGradient><linearGradient x1="626.80218" y1="-453.09606" x2="626.80218" y2="-328.21881" gradientUnits="userSpaceOnUse" id="color-57"><stop offset="0" stop-color="#ffffff"/><stop offset="1" stop-color="#adb6ad"/></linearGradient><linearGradient x1="912.94556" y1="-137.77999" x2="912.94556" y2="-12.90274" gradientUnits="userSpaceOnUse" id="color-58"><stop offset="0" stop-color="#ffffff"/><stop offset="1" stop-color="#dae6da"/></linearGradient><linearGradient x1="692.38247" y1="-137.72305" x2="692.38247" y2="-12.8458" gradientUnits="userSpaceOnUse" id="color-59"><stop offset="0" stop-color="#efefef"/><stop offset="1" stop-color="#abb4ab"/></linearGradient><linearGradient x1="263.68236" y1="-201.59767" x2="263.68236" y2="-76.72042" gradientUnits="userSpaceOnUse" id="color-60"><stop offset="0" stop-color="#ffffff"/><stop offset="1" stop-color="#bfcbd1"/></linearGradient><linearGradient x1="514.31843" y1="410.88745" x2="514.31843" y2="535.7647" gradientUnits="userSpaceOnUse" id="color-61"><stop offset="0" stop-color="#ffffff"/><stop offset="1" stop-color="#c7d2c7"/></linearGradient></defs><g transform="translate(144.96199,498.93514)"><g data-paper-data="{&quot;isPaintingLayer&quot;:true}" fill-rule="nonzero" stroke="none" stroke-width="0" stroke-linecap="butt" stroke-linejoin="miter" stroke-miterlimit="10" stroke-dasharray="" stroke-dashoffset="0" style="mix-blend-mode: normal"><path d="M503.78993,33.03841c0,26.26944 -39.54927,39.93497 -95.55647,49.15452c-17.51349,2.88297 -36.63625,13.28411 -56.66224,13.28411c-16.97792,0 -31.25702,-13.58349 -45.70151,-14.444c-57.07901,-3.40049 -94.15428,-1.37602 -94.15428,-28.89574c0,-10.06558 -7.55843,-14.88739 -7.21513,-27.16624c0.20425,-7.30516 14.02287,-16.54799 23.07639,-20.19525c8.63114,-3.47709 17.57779,-1.57751 24.71177,-9.18646c1.94456,-2.07401 17.42004,3.06082 24.97216,-0.10324c6.19783,-2.59667 4.53639,-13.66069 7.15272,-14.38946c20.25641,-5.64231 30.68989,-19.3117 54.79497,-19.3117c4.30991,0 16.60176,-8.00384 27.05339,-8.13504c9.07649,-0.11393 16.38527,7.51522 20.60838,8.97212c21.08479,7.27397 18.51109,20.06555 33.77267,24.81169c5.01983,1.5611 20.2795,1.11691 30.55691,-2.27342c10.09048,-3.32865 26.02875,6.55744 29.82071,7.885c28.36831,9.9317 22.76958,21.47431 22.76958,39.99312z" fill="url(#color-1)"/><path d="M619.74812,-48.43026c0,26.26944 -39.54927,39.93497 -95.55647,49.15452c-17.51349,2.88297 -36.63625,13.28411 -56.66224,13.28411c-16.97792,0 -31.25702,-13.58349 -45.70151,-14.444c-57.07901,-3.40049 -94.15428,-1.37602 -94.15428,-28.89574c0,-10.06558 -7.55843,-14.88739 -7.21513,-27.16624c0.20425,-7.30516 14.02287,-16.54799 23.07639,-20.19525c8.63114,-3.47709 17.57779,-1.57751 24.71177,-9.18646c1.94456,-2.07401 17.42004,3.06082 24.97216,-0.10324c6.19783,-2.59667 4.53639,-13.66069 7.15272,-14.38946c20.25641,-5.64231 30.68989,-19.3117 54.79497,-19.3117c4.30991,0 16.60176,-8.00384 27.05339,-8.13504c9.07649,-0.11393 16.38527,7.51522 20.60838,8.97212c21.08479,7.27397 18.51109,20.06555 33.77267,24.81169c5.01983,1.5611 20.2795,1.11691 30.55691,-2.27342c10.09048,-3.32865 26.02875,6.55744 29.82071,7.885c28.36831,9.9317 22.76958,21.47431 22.76958,39.99312z" fill="url(#color-2)"/><path d="M718.01372,34.31972c0,26.26944 -39.54927,39.93497 -95.55647,49.15452c-17.51349,2.88297 -36.63625,13.28411 -56.66224,13.28411c-16.97792,0 -31.25702,-13.58349 -45.70151,-14.444c-57.07901,-3.40049 -94.15428,-1.37602 -94.15428,-28.89574c0,-10.06558 -7.55843,-14.88739 -7.21513,-27.16624c0.20425,-7.30516 14.02287,-16.54799 23.07639,-20.19525c8.63114,-3.47709 17.57779,-1.57751 24.71177,-9.18646c1.94456,-2.07401 17.42004,3.06082 24.97216,-0.10324c6.19783,-2.59667 4.53639,-13.66069 7.15272,-14.38946c20.25641,-5.64231 30.68989,-19.3117 54.79497,-19.3117c4.30991,0 16.60176,-8.00384 27.05339,-8.13504c9.07649,-0.11393 16.38527,7.51522 20.60838,8.97212c21.08479,7.27397 18.51109,20.06555 33.77267,24.81169c5.01983,1.5611 20.2795,1.11691 30.55691,-2.27342c10.09048,-3.32865 26.02875,6.55744 29.82071,7.885c28.36831,9.9317 22.76958,21.47431 22.76958,39.99312z" fill="url(#color-3)"/><path d="M435.81111,188.02441c0,26.26944 -39.54927,39.93497 -95.55647,49.15452c-17.51349,2.88297 -36.63625,13.28411 -56.66224,13.28411c-16.97792,0 -31.25702,-13.58349 -45.70151,-14.444c-57.07901,-3.40049 -94.15428,-1.37602 -94.15428,-28.89574c0,-10.06558 -7.55843,-14.88739 -7.21513,-27.16624c0.20425,-7.30516 14.02287,-16.54799 23.07639,-20.19525c8.63114,-3.47709 17.57779,-1.57751 24.71177,-9.18646c1.94456,-2.07401 17.42004,3.06082 24.97216,-0.10324c6.19783,-2.59667 4.53639,-13.66069 7.15272,-14.38946c20.25641,-5.64231 30.68989,-19.3117 54.79497,-19.3117c4.30991,0 16.60176,-8.00384 27.05339,-8.13504c9.07649,-0.11393 16.38527,7.51522 20.60838,8.97212c21.08479,7.27397 18.51109,20.06555 33.77267,24.81169c5.01983,1.5611 20.2795,1.11691 30.55691,-2.27342c10.09048,-3.32865 26.02875,6.55744 29.82071,7.885c28.36831,9.9317 22.76958,21.47431 22.76958,39.99312z" fill="url(#color-4)"/><path d="M190.15124,86.97034c0,26.26944 -39.54927,39.93497 -95.55647,49.15452c-17.51349,2.88297 -36.63625,13.28411 -56.66224,13.28411c-16.97792,0 -31.25702,-13.58349 -45.70151,-14.444c-57.07901,-3.40049 -94.15428,-1.37602 -94.15428,-28.89574c0,-10.06558 -7.55843,-14.88739 -7.21513,-27.16624c0.20425,-7.30516 14.02287,-16.54799 23.07639,-20.19525c8.63114,-3.47709 17.57779,-1.57751 24.71177,-9.18646c1.94456,-2.07401 17.42004,3.06082 24.97216,-0.10324c6.19783,-2.59667 4.53639,-13.66069 7.15272,-14.38946c20.25641,-5.64231 30.68989,-19.3117 54.79497,-19.3117c4.30991,0 16.60176,-8.00384 27.05339,-8.13504c9.07649,-0.11393 16.38527,7.51522 20.60838,8.97212c21.08479,7.27397 18.51109,20.06555 33.77267,24.81169c5.01983,1.5611 20.2795,1.11691 30.55691,-2.27342c10.09048,-3.32865 26.02875,6.55744 29.82071,7.885c28.36831,9.9317 22.76958,21.47431 22.76958,39.99312z" fill="url(#color-5)"/><path d="M284.10695,17.15004c0,26.26944 -39.54927,39.93497 -95.55647,49.15452c-17.51349,2.88297 -36.63625,13.28411 -56.66224,13.28411c-16.97792,0 -31.25702,-13.58349 -45.70151,-14.444c-57.07901,-3.40049 -94.15428,-1.37602 -94.15428,-28.89574c0,-10.06558 -7.55843,-14.88739 -7.21513,-27.16624c0.20425,-7.30516 14.02287,-16.54799 23.07639,-20.19525c8.63114,-3.47709 17.57779,-1.57751 24.71177,-9.18646c1.94456,-2.07401 17.42004,3.06082 24.97216,-0.10324c6.19783,-2.59667 4.53639,-13.66069 7.15272,-14.38946c20.25641,-5.64231 30.68989,-19.3117 54.79497,-19.3117c4.30991,0 16.60176,-8.00384 27.05339,-8.13504c9.07649,-0.11393 16.38527,7.51522 20.60838,8.97212c21.08479,7.27397 18.51109,20.06555 33.77267,24.81169c5.01983,1.5611 20.2795,1.11691 30.55691,-2.27342c10.09048,-3.32865 26.02875,6.55744 29.82071,7.885c28.36831,9.9317 22.76958,21.47431 22.76958,39.99312z" fill="url(#color-6)"/><path d="M382.37256,99.90003c0,26.26944 -39.54927,39.93497 -95.55647,49.15452c-17.51349,2.88297 -36.63625,13.28411 -56.66224,13.28411c-16.97792,0 -31.25702,-13.58349 -45.70151,-14.444c-57.07901,-3.40049 -94.15428,-1.37602 -94.15428,-28.89574c0,-10.06558 -7.55843,-14.88739 -7.21513,-27.16624c0.20425,-7.30516 14.02287,-16.54799 23.07639,-20.19525c8.63114,-3.47709 17.57779,-1.57751 24.71177,-9.18646c1.94456,-2.07401 17.42004,3.06082 24.97216,-0.10324c6.19783,-2.59667 4.53639,-13.66069 7.15272,-14.38946c20.25641,-5.64231 30.68989,-19.3117 54.79497,-19.3117c4.30991,0 16.60176,-8.00384 27.05339,-8.13504c9.07649,-0.11393 16.38527,7.51522 20.60838,8.97212c21.08479,7.27397 18.51109,20.06555 33.77267,24.81169c5.01983,1.5611 20.2795,1.11691 30.55691,-2.27342c10.09048,-3.32865 26.02875,6.55744 29.82071,7.885c28.36831,9.9317 22.76958,21.47431 22.76958,39.99312z" fill="url(#color-7)"/><path d="M532.1783,111.20411c0,26.26944 -39.54927,39.93497 -95.55647,49.15452c-17.51349,2.88297 -36.63625,13.28411 -56.66224,13.28411c-16.97792,0 -31.25702,-13.58349 -45.70151,-14.444c-57.07901,-3.40049 -94.15428,-1.37602 -94.15428,-28.89574c0,-10.06558 -7.55843,-14.88739 -7.21513,-27.16624c0.20425,-7.30516 14.02287,-16.54799 23.07639,-20.19525c8.63114,-3.47709 17.57779,-1.57751 24.71177,-9.18646c1.94456,-2.07401 17.42004,3.06082 24.97216,-0.10324c6.19783,-2.59667 4.53639,-13.66069 7.15272,-14.38946c20.25641,-5.64231 30.68989,-19.3117 54.79497,-19.3117c4.30991,0 16.60176,-8.00384 27.05339,-8.13504c9.07649,-0.11393 16.38527,7.51522 20.60838,8.97212c21.08479,7.27397 18.51109,20.06555 33.77267,24.81169c5.01983,1.5611 20.2795,1.11691 30.55691,-2.27342c10.09048,-3.32865 26.02875,6.55744 29.82071,7.885c28.36831,9.9317 22.76958,21.47431 22.76958,39.99312z" fill="url(#color-8)"/><path d="M220.24803,181.08136c0,26.26944 -39.54927,39.93497 -95.55647,49.15452c-17.51349,2.88297 -36.63625,13.28411 -56.66224,13.28411c-16.97792,0 -31.25702,-13.58349 -45.70151,-14.444c-57.07901,-3.40049 -94.15428,-1.37602 -94.15428,-28.89574c0,-10.06558 -7.55843,-14.88739 -7.21513,-27.16624c0.20425,-7.30516 14.02287,-16.54799 23.07639,-20.19525c8.63114,-3.47709 17.57779,-1.57751 24.71177,-9.18646c1.94456,-2.07401 17.42004,3.06082 24.97216,-0.10324c6.19783,-2.59667 4.53639,-13.66069 7.15272,-14.38946c20.25641,-5.64231 30.68989,-19.3117 54.79497,-19.3117c4.30991,0 16.60176,-8.00384 27.05339,-8.13504c9.07649,-0.11393 16.38527,7.51522 20.60838,8.97212c21.08479,7.27397 18.51109,20.06555 33.77267,24.81169c5.01983,1.5611 20.2795,1.11691 30.55691,-2.27342c10.09048,-3.32865 26.02875,6.55744 29.82071,7.885c28.36831,9.9317 22.76958,21.47431 22.76958,39.99312z" fill="url(#color-9)"/><path d="M630.44391,193.9541c0,26.26944 -39.54927,39.93497 -95.55647,49.15452c-17.51349,2.88297 -36.63625,13.28411 -56.66224,13.28411c-16.97792,0 -31.25702,-13.58349 -45.70151,-14.444c-57.07901,-3.40049 -94.15428,-1.37602 -94.15428,-28.89574c0,-10.06558 -7.55843,-14.88739 -7.21513,-27.16624c0.20425,-7.30516 14.02287,-16.54799 23.07639,-20.19525c8.63114,-3.47709 17.57779,-1.57751 24.71177,-9.18646c1.94456,-2.07401 17.42004,3.06082 24.97216,-0.10324c6.19783,-2.59667 4.53639,-13.66069 7.15272,-14.38946c20.25641,-5.64231 30.68989,-19.3117 54.79497,-19.3117c4.30991,0 16.60176,-8.00384 27.05339,-8.13504c9.07649,-0.11393 16.38527,7.51522 20.60838,8.97212c21.08479,7.27397 18.51109,20.06555 33.77267,24.81169c5.01983,1.5611 20.2795,1.11691 30.55691,-2.27342c10.09048,-3.32865 26.02875,6.55744 29.82071,7.885c28.36831,9.9317 22.76958,21.47431 22.76958,39.99312z" fill="url(#color-10)"/><path d="M440.6998,-37.22194c0,26.26944 -39.54927,39.93497 -95.55647,49.15452c-17.51349,2.88297 -36.63625,13.28411 -56.66224,13.28411c-16.97792,0 -31.25702,-13.58349 -45.70151,-14.444c-57.07901,-3.40049 -94.15428,-1.37602 -94.15428,-28.89574c0,-10.06558 -7.55843,-14.88739 -7.21513,-27.16624c0.20425,-7.30516 14.02287,-16.54799 23.07639,-20.19525c8.63114,-3.47709 17.57779,-1.57751 24.71177,-9.18646c1.94456,-2.07401 17.42004,3.06082 24.97216,-0.10324c6.19783,-2.59667 4.53639,-13.66069 7.15272,-14.38946c20.25641,-5.64231 30.68989,-19.3117 54.79497,-19.3117c4.30991,0 16.60176,-8.00384 27.05339,-8.13504c9.07649,-0.11393 16.38527,7.51522 20.60838,8.97212c21.08479,7.27397 18.51109,20.06555 33.77267,24.81169c5.01983,1.5611 20.2795,1.11691 30.55691,-2.27342c10.09048,-3.32865 26.02875,6.55744 29.82071,7.885c28.36831,9.9317 22.76958,21.47431 22.76958,39.99312z" fill="url(#color-11)"/><path d="M235.33912,-45.85468c0,26.26944 -39.54927,39.93497 -95.55647,49.15452c-17.51349,2.88297 -36.63625,13.28411 -56.66224,13.28411c-16.97792,0 -31.25702,-13.58349 -45.70151,-14.444c-57.07901,-3.40049 -94.15428,-1.37602 -94.15428,-28.89574c0,-10.06558 -7.55843,-14.88739 -7.21513,-27.16624c0.20425,-7.30516 14.02287,-16.54799 23.07639,-20.19525c8.63114,-3.47709 17.57779,-1.57751 24.71177,-9.18646c1.94456,-2.07401 17.42004,3.06082 24.97216,-0.10324c6.19783,-2.59667 4.53639,-13.66069 7.15272,-14.38946c20.25641,-5.64231 30.68989,-19.3117 54.79497,-19.3117c4.30991,0 16.60176,-8.00384 27.05339,-8.13504c9.07649,-0.11393 16.38527,7.51522 20.60838,8.97212c21.08479,7.27397 18.51109,20.06555 33.77267,24.81169c5.01983,1.5611 20.2795,1.11691 30.55691,-2.27342c10.09048,-3.32865 26.02875,6.55744 29.82071,7.885c28.36831,9.9317 22.76958,21.47431 22.76958,39.99312z" fill="url(#color-12)"/><path d="M521.48251,269.46139c0,26.26944 -39.54927,39.93497 -95.55647,49.15452c-17.51349,2.88297 -36.63625,13.28411 -56.66224,13.28411c-16.97792,0 -31.25702,-13.58349 -45.70151,-14.444c-57.07901,-3.40049 -94.15428,-1.37602 -94.15428,-28.89574c0,-10.06558 -7.55843,-14.88739 -7.21513,-27.16624c0.20425,-7.30516 14.02287,-16.54799 23.07639,-20.19525c8.63114,-3.47709 17.57779,-1.57751 24.71177,-9.18646c1.94456,-2.07401 17.42004,3.06082 24.97216,-0.10324c6.19783,-2.59667 4.53639,-13.66069 7.15272,-14.38946c20.25641,-5.64231 30.68989,-19.3117 54.79497,-19.3117c4.30991,0 16.60176,-8.00384 27.05339,-8.13504c9.07649,-0.11393 16.38527,7.51522 20.60838,8.97212c21.08479,7.27397 18.51109,20.06555 33.77267,24.81169c5.01983,1.5611 20.2795,1.11691 30.55691,-2.27342c10.09048,-3.32865 26.02875,6.55744 29.82071,7.885c28.36831,9.9317 22.76958,21.47431 22.76958,39.99312z" fill="url(#color-13)"/><path d="M212.91942,318.51833c0,26.26944 -39.54927,39.93497 -95.55647,49.15452c-17.51349,2.88297 -36.63625,13.28411 -56.66224,13.28411c-16.97792,0 -31.25702,-13.58349 -45.70151,-14.444c-57.07901,-3.40049 -94.15428,-1.37602 -94.15428,-28.89574c0,-10.06558 -7.55843,-14.88739 -7.21513,-27.16624c0.20425,-7.30516 14.02287,-16.54799 23.07639,-20.19525c8.63114,-3.47709 17.57779,-1.57751 24.71177,-9.18646c1.94456,-2.07401 17.42004,3.06082 24.97216,-0.10324c6.19783,-2.59667 4.53639,-13.66069 7.15272,-14.38946c20.25641,-5.64231 30.68989,-19.3117 54.79497,-19.3117c4.30991,0 16.60176,-8.00384 27.05339,-8.13504c9.07649,-0.11393 16.38527,7.51522 20.60838,8.97212c21.08479,7.27397 18.51109,20.06555 33.77267,24.81169c5.01983,1.5611 20.2795,1.11691 30.55691,-2.27342c10.09048,-3.32865 26.02875,6.55744 29.82071,7.885c28.36831,9.9317 22.76958,21.47431 22.76958,39.99312z" fill="url(#color-14)"/><path d="M711.1153,282.39107c0,26.26944 -39.54927,39.93497 -95.55647,49.15452c-17.51349,2.88297 -36.63625,13.28411 -56.66224,13.28411c-16.97792,0 -31.25702,-13.58349 -45.70151,-14.444c-57.07901,-3.40049 -94.15428,-1.37602 -94.15428,-28.89574c0,-10.06558 -7.55843,-14.88739 -7.21513,-27.16624c0.20425,-7.30516 14.02287,-16.54799 23.07639,-20.19525c8.63114,-3.47709 17.57779,-1.57751 24.71177,-9.18646c1.94456,-2.07401 17.42004,3.06082 24.97216,-0.10324c6.19783,-2.59667 4.53639,-13.66069 7.15272,-14.38946c20.25641,-5.64231 30.68989,-19.3117 54.79497,-19.3117c4.30991,0 16.60176,-8.00384 27.05339,-8.13504c9.07649,-0.11393 16.38527,7.51522 20.60838,8.97212c21.08479,7.27397 18.51109,20.06555 33.77267,24.81169c5.01983,1.5611 20.2795,1.11691 30.55691,-2.27342c10.09048,-3.32865 26.02875,6.55744 29.82071,7.885c28.36831,9.9317 22.76958,21.47431 22.76958,39.99312z" fill="url(#color-15)"/><path d="M727.01054,111.63122c0,26.26944 -39.54927,39.93497 -95.55647,49.15452c-17.51349,2.88297 -36.63625,13.28411 -56.66224,13.28411c-16.97792,0 -31.25702,-13.58349 -45.70151,-14.444c-57.07901,-3.40049 -94.15428,-1.37602 -94.15428,-28.89574c0,-10.06558 -7.55843,-14.88739 -7.21513,-27.16624c0.20425,-7.30516 14.02287,-16.54799 23.07639,-20.19525c8.63114,-3.47709 17.57779,-1.57751 24.71177,-9.18646c1.94456,-2.07401 17.42004,3.06082 24.97216,-0.10324c6.19783,-2.59667 4.53639,-13.66069 7.15272,-14.38946c20.25641,-5.64231 30.68989,-19.3117 54.79497,-19.3117c4.30991,0 16.60176,-8.00384 27.05339,-8.13504c9.07649,-0.11393 16.38527,7.51522 20.60838,8.97212c21.08479,7.27397 18.51109,20.06555 33.77267,24.81169c5.01983,1.5611 20.2795,1.11691 30.55691,-2.27342c10.09048,-3.32865 26.02875,6.55744 29.82071,7.885c28.36831,9.9317 22.76958,21.47431 22.76958,39.99312z" fill="url(#color-16)"/><path d="M1083.28396,59.35077c0,26.26944 -39.54927,39.93497 -95.55647,49.15452c-17.51349,2.88297 -36.63625,13.28411 -56.66224,13.28411c-16.97792,0 -31.25702,-13.58349 -45.70151,-14.444c-57.07901,-3.40049 -94.15428,-1.37602 -94.15428,-28.89574c0,-10.06558 -7.55843,-14.88739 -7.21513,-27.16624c0.20425,-7.30516 14.02287,-16.54799 23.07639,-20.19525c8.63114,-3.47709 17.57779,-1.57751 24.71177,-9.18646c1.94456,-2.07401 17.42004,3.06082 24.97216,-0.10324c6.19783,-2.59667 4.53639,-13.66069 7.15272,-14.38946c20.25641,-5.64231 30.68989,-19.3117 54.79497,-19.3117c4.30991,0 16.60176,-8.00384 27.05339,-8.13504c9.07649,-0.11393 16.38527,7.51522 20.60838,8.97212c21.08479,7.27397 18.51109,20.06555 33.77267,24.81169c5.01983,1.5611 20.2795,1.11691 30.55691,-2.27342c10.09048,-3.32865 26.02875,6.55744 29.82071,7.885c28.36831,9.9317 22.76958,21.47431 22.76958,39.99312z" fill="url(#color-17)"/><path d="M1199.24215,-22.11789c0,26.26944 -39.54927,39.93497 -95.55647,49.15452c-17.51349,2.88297 -36.63625,13.28411 -56.66224,13.28411c-16.97792,0 -31.25702,-13.58349 -45.70151,-14.444c-57.07901,-3.40049 -94.15428,-1.37602 -94.15428,-28.89574c0,-10.06558 -7.55843,-14.88739 -7.21513,-27.16624c0.20425,-7.30516 14.02287,-16.54799 23.07639,-20.19525c8.63114,-3.47709 17.57779,-1.57751 24.71177,-9.18646c1.94456,-2.07401 17.42004,3.06082 24.97216,-0.10324c6.19783,-2.59667 4.53639,-13.66069 7.15272,-14.38946c20.25641,-5.64231 30.68989,-19.3117 54.79497,-19.3117c4.30991,0 16.60176,-8.00384 27.05339,-8.13504c9.07649,-0.11393 16.38527,7.51522 20.60838,8.97212c21.08479,7.27397 18.51109,20.06555 33.77267,24.81169c5.01983,1.5611 20.2795,1.11691 30.55691,-2.27342c10.09048,-3.32865 26.02875,6.55744 29.82071,7.885c28.36831,9.9317 22.76958,21.47431 22.76958,39.99312z" fill="url(#color-18)"/><path d="M1297.50775,60.63209c0,26.26944 -39.54927,39.93497 -95.55647,49.15452c-17.51349,2.88297 -36.63625,13.28411 -56.66224,13.28411c-16.97792,0 -31.25702,-13.58349 -45.70151,-14.444c-57.07901,-3.40049 -94.15428,-1.37602 -94.15428,-28.89574c0,-10.06558 -7.55843,-14.88739 -7.21513,-27.16624c0.20425,-7.30516 14.02287,-16.54799 23.07639,-20.19525c8.63114,-3.47709 17.57779,-1.57751 24.71177,-9.18646c1.94456,-2.07401 17.42004,3.06082 24.97216,-0.10324c6.19783,-2.59667 4.53639,-13.66069 7.15272,-14.38946c20.25641,-5.64231 30.68989,-19.3117 54.79497,-19.3117c4.30991,0 16.60176,-8.00384 27.05339,-8.13504c9.07649,-0.11393 16.38527,7.51522 20.60838,8.97212c21.08479,7.27397 18.51109,20.06555 33.77267,24.81169c5.01983,1.5611 20.2795,1.11691 30.55691,-2.27342c10.09048,-3.32865 26.02875,6.55744 29.82071,7.885c28.36831,9.9317 22.76958,21.47431 22.76958,39.99312z" fill="url(#color-19)"/><path d="M1020.30514,207.33678c0,26.26944 -39.54927,39.93497 -95.55647,49.15452c-17.51349,2.88297 -36.63625,13.28411 -56.66224,13.28411c-16.97792,0 -31.25702,-13.58349 -45.70151,-14.444c-57.07901,-3.40049 -94.15428,-1.37602 -94.15428,-28.89574c0,-10.06558 -7.55843,-14.88739 -7.21513,-27.16624c0.20425,-7.30516 14.02287,-16.54799 23.07639,-20.19525c8.63114,-3.47709 17.57779,-1.57751 24.71177,-9.18646c1.94456,-2.07401 17.42004,3.06082 24.97216,-0.10324c6.19783,-2.59667 4.53639,-13.66069 7.15272,-14.38946c20.25641,-5.64231 30.68989,-19.3117 54.79497,-19.3117c4.30991,0 16.60176,-8.00384 27.05339,-8.13504c9.07649,-0.11393 16.38527,7.51522 20.60838,8.97212c21.08479,7.27397 18.51109,20.06555 33.77267,24.81169c5.01983,1.5611 20.2795,1.11691 30.55691,-2.27342c10.09048,-3.32865 26.02875,6.55744 29.82071,7.885c28.36831,9.9317 22.76958,21.47431 22.76958,39.99312z" fill="url(#color-20)"/><path d="M501.24663,382.30025c0,26.26944 -39.54927,39.93497 -95.55647,49.15452c-17.51349,2.88297 -36.63625,13.28411 -56.66224,13.28411c-16.97792,0 -31.25702,-13.58349 -45.70151,-14.444c-57.07901,-3.40049 -94.15428,-1.37602 -94.15428,-28.89574c0,-10.06558 -7.55843,-14.88739 -7.21513,-27.16624c0.20425,-7.30516 14.02287,-16.54799 23.07639,-20.19525c8.63114,-3.47709 17.57779,-1.57751 24.71177,-9.18646c1.94456,-2.07401 17.42004,3.06082 24.97216,-0.10324c6.19783,-2.59667 4.53639,-13.66069 7.15272,-14.38946c20.25641,-5.64231 30.68989,-19.3117 54.79497,-19.3117c4.30991,0 16.60176,-8.00384 27.05339,-8.13504c9.07649,-0.11393 16.38527,7.51522 20.60838,8.97212c21.08479,7.27397 18.51109,20.06555 33.77267,24.81169c5.01983,1.5611 20.2795,1.11691 30.55691,-2.27342c10.09048,-3.32865 26.02875,6.55744 29.82071,7.885c28.36831,9.9317 22.76958,21.47431 22.76958,39.99312z" fill="url(#color-21)"/><path d="M961.86658,126.21239c0,26.26944 -39.54927,39.93497 -95.55647,49.15452c-17.51349,2.88297 -36.63625,13.28411 -56.66224,13.28411c-16.97792,0 -31.25702,-13.58349 -45.70151,-14.444c-57.07901,-3.40049 -94.15428,-1.37602 -94.15428,-28.89574c0,-10.06558 -7.55843,-14.88739 -7.21513,-27.16624c0.20425,-7.30516 14.02287,-16.54799 23.07639,-20.19525c8.63114,-3.47709 17.57779,-1.57751 24.71177,-9.18646c1.94456,-2.07401 17.42004,3.06082 24.97216,-0.10324c6.19783,-2.59667 4.53639,-13.66069 7.15272,-14.38946c20.25641,-5.64231 30.68989,-19.3117 54.79497,-19.3117c4.30991,0 16.60176,-8.00384 27.05339,-8.13504c9.07649,-0.11393 16.38527,7.51522 20.60838,8.97212c21.08479,7.27397 18.51109,20.06555 33.77267,24.81169c5.01983,1.5611 20.2795,1.11691 30.55691,-2.27342c10.09048,-3.32865 26.02875,6.55744 29.82071,7.885c28.36831,9.9317 22.76958,21.47431 22.76958,39.99312z" fill="url(#color-22)"/><path d="M1111.67233,137.51648c0,26.26944 -39.54927,39.93497 -95.55647,49.15452c-17.51349,2.88297 -36.63625,13.28411 -56.66224,13.28411c-16.97792,0 -31.25702,-13.58349 -45.70151,-14.444c-57.07901,-3.40049 -94.15428,-1.37602 -94.15428,-28.89574c0,-10.06558 -7.55843,-14.88739 -7.21513,-27.16624c0.20425,-7.30516 14.02287,-16.54799 23.07639,-20.19525c8.63114,-3.47709 17.57779,-1.57751 24.71177,-9.18646c1.94456,-2.07401 17.42004,3.06082 24.97216,-0.10324c6.19783,-2.59667 4.53639,-13.66069 7.15272,-14.38946c20.25641,-5.64231 30.68989,-19.3117 54.79497,-19.3117c4.30991,0 16.60176,-8.00384 27.05339,-8.13504c9.07649,-0.11393 16.38527,7.51522 20.60838,8.97212c21.08479,7.27397 18.51109,20.06555 33.77267,24.81169c5.01983,1.5611 20.2795,1.11691 30.55691,-2.27342c10.09048,-3.32865 26.02875,6.55744 29.82071,7.885c28.36831,9.9317 22.76958,21.47431 22.76958,39.99312z" fill="url(#color-23)"/><path d="M256.19852,466.34101c0,26.26944 -39.54927,39.93497 -95.55647,49.15452c-17.51349,2.88297 -36.63625,13.28411 -56.66224,13.28411c-16.97792,0 -31.25702,-13.58349 -45.70151,-14.444c-57.07901,-3.40049 -94.15428,-1.37602 -94.15428,-28.89574c0,-10.06558 -7.55843,-14.88739 -7.21513,-27.16624c0.20425,-7.30516 14.02287,-16.54799 23.07639,-20.19525c8.63114,-3.47709 17.57779,-1.57751 24.71177,-9.18646c1.94456,-2.07401 17.42004,3.06082 24.97216,-0.10324c6.19783,-2.59667 4.53639,-13.66069 7.15272,-14.38946c20.25641,-5.64231 30.68989,-19.3117 54.79497,-19.3117c4.30991,0 16.60176,-8.00384 27.05339,-8.13504c9.07649,-0.11393 16.38527,7.51522 20.60838,8.97212c21.08479,7.27397 18.51109,20.06555 33.77267,24.81169c5.01983,1.5611 20.2795,1.11691 30.55691,-2.27342c10.09048,-3.32865 26.02875,6.55744 29.82071,7.885c28.36831,9.9317 22.76958,21.47431 22.76958,39.99312z" fill="url(#color-24)"/><path d="M1209.93793,220.26646c0,26.26944 -39.54927,39.93497 -95.55647,49.15452c-17.51349,2.88297 -36.63625,13.28411 -56.66224,13.28411c-16.97792,0 -31.25702,-13.58349 -45.70151,-14.444c-57.07901,-3.40049 -94.15428,-1.37602 -94.15428,-28.89574c0,-10.06558 -7.55843,-14.88739 -7.21513,-27.16624c0.20425,-7.30516 14.02287,-16.54799 23.07639,-20.19525c8.63114,-3.47709 17.57779,-1.57751 24.71177,-9.18646c1.94456,-2.07401 17.42004,3.06082 24.97216,-0.10324c6.19783,-2.59667 4.53639,-13.66069 7.15272,-14.38946c20.25641,-5.64231 30.68989,-19.3117 54.79497,-19.3117c4.30991,0 16.60176,-8.00384 27.05339,-8.13504c9.07649,-0.11393 16.38527,7.51522 20.60838,8.97212c21.08479,7.27397 18.51109,20.06555 33.77267,24.81169c5.01983,1.5611 20.2795,1.11691 30.55691,-2.27342c10.09048,-3.32865 26.02875,6.55744 29.82071,7.885c28.36831,9.9317 22.76958,21.47431 22.76958,39.99312z" fill="url(#color-25)"/><path d="M1020.19383,-10.90957c0,26.26944 -39.54927,39.93497 -95.55647,49.15452c-17.51349,2.88297 -36.63625,13.28411 -56.66224,13.28411c-16.97792,0 -31.25702,-13.58349 -45.70151,-14.444c-57.07901,-3.40049 -94.15428,-1.37602 -94.15428,-28.89574c0,-10.06558 -7.55843,-14.88739 -7.21513,-27.16624c0.20425,-7.30516 14.02287,-16.54799 23.07639,-20.19525c8.63114,-3.47709 17.57779,-1.57751 24.71177,-9.18646c1.94456,-2.07401 17.42004,3.06082 24.97216,-0.10324c6.19783,-2.59667 4.53639,-13.66069 7.15272,-14.38946c20.25641,-5.64231 30.68989,-19.3117 54.79497,-19.3117c4.30991,0 16.60176,-8.00384 27.05339,-8.13504c9.07649,-0.11393 16.38527,7.51522 20.60838,8.97212c21.08479,7.27397 18.51109,20.06555 33.77267,24.81169c5.01983,1.5611 20.2795,1.11691 30.55691,-2.27342c10.09048,-3.32865 26.02875,6.55744 29.82071,7.885c28.36831,9.9317 22.76958,21.47431 22.76958,39.99312z" fill="url(#color-26)"/><path d="M814.83315,-19.54231c0,26.26944 -39.54927,39.93497 -95.55647,49.15452c-17.51349,2.88297 -36.63625,13.28411 -56.66224,13.28411c-16.97792,0 -31.25702,-13.58349 -45.70151,-14.444c-57.07901,-3.40049 -94.15428,-1.37602 -94.15428,-28.89574c0,-10.06558 -7.55843,-14.88739 -7.21513,-27.16624c0.20425,-7.30516 14.02287,-16.54799 23.07639,-20.19525c8.63114,-3.47709 17.57779,-1.57751 24.71177,-9.18646c1.94456,-2.07401 17.42004,3.06082 24.97216,-0.10324c6.19783,-2.59667 4.53639,-13.66069 7.15272,-14.38946c20.25641,-5.64231 30.68989,-19.3117 54.79497,-19.3117c4.30991,0 16.60176,-8.00384 27.05339,-8.13504c9.07649,-0.11393 16.38527,7.51522 20.60838,8.97212c21.08479,7.27397 18.51109,20.06555 33.77267,24.81169c5.01983,1.5611 20.2795,1.11691 30.55691,-2.27342c10.09048,-3.32865 26.02875,6.55744 29.82071,7.885c28.36831,9.9317 22.76958,21.47431 22.76958,39.99312z" fill="url(#color-27)"/><path d="M1100.97654,295.77376c0,26.26944 -39.54927,39.93497 -95.55647,49.15452c-17.51349,2.88297 -36.63625,13.28411 -56.66224,13.28411c-16.97792,0 -31.25702,-13.58349 -45.70151,-14.444c-57.07901,-3.40049 -94.15428,-1.37602 -94.15428,-28.89574c0,-10.06558 -7.55843,-14.88739 -7.21513,-27.16624c0.20425,-7.30516 14.02287,-16.54799 23.07639,-20.19525c8.63114,-3.47709 17.57779,-1.57751 24.71177,-9.18646c1.94456,-2.07401 17.42004,3.06082 24.97216,-0.10324c6.19783,-2.59667 4.53639,-13.66069 7.15272,-14.38946c20.25641,-5.64231 30.68989,-19.3117 54.79497,-19.3117c4.30991,0 16.60176,-8.00384 27.05339,-8.13504c9.07649,-0.11393 16.38527,7.51522 20.60838,8.97212c21.08479,7.27397 18.51109,20.06555 33.77267,24.81169c5.01983,1.5611 20.2795,1.11691 30.55691,-2.27342c10.09048,-3.32865 26.02875,6.55744 29.82071,7.885c28.36831,9.9317 22.76958,21.47431 22.76958,39.99312z" fill="url(#color-28)"/><path d="M880.41345,295.8307c0,26.26944 -39.54927,39.93497 -95.55647,49.15452c-17.51349,2.88297 -36.63625,13.28411 -56.66224,13.28411c-16.97792,0 -31.25702,-13.58349 -45.70151,-14.444c-57.07901,-3.40049 -94.15428,-1.37602 -94.15428,-28.89574c0,-10.06558 -7.55843,-14.88739 -7.21513,-27.16624c0.20425,-7.30516 14.02287,-16.54799 23.07639,-20.19525c8.63114,-3.47709 17.57779,-1.57751 24.71177,-9.18646c1.94456,-2.07401 17.42004,3.06082 24.97216,-0.10324c6.19783,-2.59667 4.53639,-13.66069 7.15272,-14.38946c20.25641,-5.64231 30.68989,-19.3117 54.79497,-19.3117c4.30991,0 16.60176,-8.00384 27.05339,-8.13504c9.07649,-0.11393 16.38527,7.51522 20.60838,8.97212c21.08479,7.27397 18.51109,20.06555 33.77267,24.81169c5.01983,1.5611 20.2795,1.11691 30.55691,-2.27342c10.09048,-3.32865 26.02875,6.55744 29.82071,7.885c28.36831,9.9317 22.76958,21.47431 22.76958,39.99312z" fill="url(#color-29)"/><path d="M1290.60932,308.70344c0,26.26944 -39.54927,39.93497 -95.55647,49.15452c-17.51349,2.88297 -36.63625,13.28411 -56.66224,13.28411c-16.97792,0 -31.25702,-13.58349 -45.70151,-14.444c-57.07901,-3.40049 -94.15428,-1.37602 -94.15428,-28.89574c0,-10.06558 -7.55843,-14.88739 -7.21513,-27.16624c0.20425,-7.30516 14.02287,-16.54799 23.07639,-20.19525c8.63114,-3.47709 17.57779,-1.57751 24.71177,-9.18646c1.94456,-2.07401 17.42004,3.06082 24.97216,-0.10324c6.19783,-2.59667 4.53639,-13.66069 7.15272,-14.38946c20.25641,-5.64231 30.68989,-19.3117 54.79497,-19.3117c4.30991,0 16.60176,-8.00384 27.05339,-8.13504c9.07649,-0.11393 16.38527,7.51522 20.60838,8.97212c21.08479,7.27397 18.51109,20.06555 33.77267,24.81169c5.01983,1.5611 20.2795,1.11691 30.55691,-2.27342c10.09048,-3.32865 26.02875,6.55744 29.82071,7.885c28.36831,9.9317 22.76958,21.47431 22.76958,39.99312z" fill="url(#color-30)"/><path d="M1306.50457,137.94359c0,26.26944 -39.54927,39.93497 -95.55647,49.15452c-17.51349,2.88297 -36.63625,13.28411 -56.66224,13.28411c-16.97792,0 -31.25702,-13.58349 -45.70151,-14.444c-57.07901,-3.40049 -94.15428,-1.37602 -94.15428,-28.89574c0,-10.06558 -7.55843,-14.88739 -7.21513,-27.16624c0.20425,-7.30516 14.02287,-16.54799 23.07639,-20.19525c8.63114,-3.47709 17.57779,-1.57751 24.71177,-9.18646c1.94456,-2.07401 17.42004,3.06082 24.97216,-0.10324c6.19783,-2.59667 4.53639,-13.66069 7.15272,-14.38946c20.25641,-5.64231 30.68989,-19.3117 54.79497,-19.3117c4.30991,0 16.60176,-8.00384 27.05339,-8.13504c9.07649,-0.11393 16.38527,7.51522 20.60838,8.97212c21.08479,7.27397 18.51109,20.06555 33.77267,24.81169c5.01983,1.5611 20.2795,1.11691 30.55691,-2.27342c10.09048,-3.32865 26.02875,6.55744 29.82071,7.885c28.36831,9.9317 22.76958,21.47431 22.76958,39.99312z" fill="url(#color-31)"/><path d="M467.97768,-338.07671c0,26.26944 -39.54927,39.93497 -95.55647,49.15452c-17.51349,2.88297 -36.63625,13.28411 -56.66224,13.28411c-16.97792,0 -31.25702,-13.58349 -45.70151,-14.444c-57.07901,-3.40049 -94.15428,-1.37602 -94.15428,-28.89574c0,-10.06558 -7.55843,-14.88739 -7.21513,-27.16624c0.20425,-7.30516 14.02287,-16.54799 23.07639,-20.19525c8.63114,-3.47709 17.57779,-1.57751 24.71177,-9.18646c1.94456,-2.07401 17.42004,3.06082 24.97216,-0.10324c6.19783,-2.59667 4.53639,-13.66069 7.15272,-14.38946c20.25641,-5.64231 30.68989,-19.3117 54.79497,-19.3117c4.30991,0 16.60176,-8.00384 27.05339,-8.13504c9.07649,-0.11393 16.38527,7.51522 20.60838,8.97212c21.08479,7.27397 18.51109,20.06555 33.77267,24.81169c5.01983,1.5611 20.2795,1.11691 30.55691,-2.27342c10.09048,-3.32865 26.02875,6.55744 29.82071,7.885c28.36831,9.9317 22.76958,21.47431 22.76958,39.99312z" fill="url(#color-32)"/><path d="M583.93587,-419.54538c0,26.26944 -39.54927,39.93497 -95.55647,49.15452c-17.51349,2.88297 -36.63625,13.28411 -56.66224,13.28411c-16.97792,0 -31.25702,-13.58349 -45.70151,-14.444c-57.07901,-3.40049 -94.15428,-1.37602 -94.15428,-28.89574c0,-10.06558 -7.55843,-14.88739 -7.21513,-27.16624c0.20425,-7.30516 14.02287,-16.54799 23.07639,-20.19525c8.63114,-3.47709 17.57779,-1.57751 24.71177,-9.18646c1.94456,-2.07401 17.42004,3.06082 24.97216,-0.10324c6.19783,-2.59667 4.53639,-13.66069 7.15272,-14.38946c20.25641,-5.64231 30.68989,-19.3117 54.79497,-19.3117c4.30991,0 16.60176,-8.00384 27.05339,-8.13504c9.07649,-0.11393 16.38527,7.51522 20.60838,8.97212c21.08479,7.27397 18.51109,20.06555 33.77267,24.81169c5.01983,1.5611 20.2795,1.11691 30.55691,-2.27342c10.09048,-3.32865 26.02875,6.55744 29.82071,7.885c28.36831,9.9317 22.76958,21.47431 22.76958,39.99312z" fill="url(#color-33)"/><path d="M682.20147,-336.79539c0,26.26944 -39.54927,39.93497 -95.55647,49.15452c-17.51349,2.88297 -36.63625,13.28411 -56.66224,13.28411c-16.97792,0 -31.25702,-13.58349 -45.70151,-14.444c-57.07901,-3.40049 -94.15428,-1.37602 -94.15428,-28.89574c0,-10.06558 -7.55843,-14.88739 -7.21513,-27.16624c0.20425,-7.30516 14.02287,-16.54799 23.07639,-20.19525c8.63114,-3.47709 17.57779,-1.57751 24.71177,-9.18646c1.94456,-2.07401 17.42004,3.06082 24.97216,-0.10324c6.19783,-2.59667 4.53639,-13.66069 7.15272,-14.38946c20.25641,-5.64231 30.68989,-19.3117 54.79497,-19.3117c4.30991,0 16.60176,-8.00384 27.05339,-8.13504c9.07649,-0.11393 16.38527,7.51522 20.60838,8.97212c21.08479,7.27397 18.51109,20.06555 33.77267,24.81169c5.01983,1.5611 20.2795,1.11691 30.55691,-2.27342c10.09048,-3.32865 26.02875,6.55744 29.82071,7.885c28.36831,9.9317 22.76958,21.47431 22.76958,39.99312z" fill="url(#color-34)"/><path d="M404.99886,-190.09071c0,26.26944 -39.54927,39.93497 -95.55647,49.15452c-17.51349,2.88297 -36.63625,13.28411 -56.66224,13.28411c-16.97792,0 -31.25702,-13.58349 -45.70151,-14.444c-57.07901,-3.40049 -94.15428,-1.37602 -94.15428,-28.89574c0,-10.06558 -7.55843,-14.88739 -7.21513,-27.16624c0.20425,-7.30516 14.02287,-16.54799 23.07639,-20.19525c8.63114,-3.47709 17.57779,-1.57751 24.71177,-9.18646c1.94456,-2.07401 17.42004,3.06082 24.97216,-0.10324c6.19783,-2.59667 4.53639,-13.66069 7.15272,-14.38946c20.25641,-5.64231 30.68989,-19.3117 54.79497,-19.3117c4.30991,0 16.60176,-8.00384 27.05339,-8.13504c9.07649,-0.11393 16.38527,7.51522 20.60838,8.97212c21.08479,7.27397 18.51109,20.06555 33.77267,24.81169c5.01983,1.5611 20.2795,1.11691 30.55691,-2.27342c10.09048,-3.32865 26.02875,6.55744 29.82071,7.885c28.36831,9.9317 22.76958,21.47431 22.76958,39.99312z" fill="url(#color-35)"/><path d="M154.33899,-284.14478c0,26.26944 -39.54927,39.93497 -95.55647,49.15452c-17.51349,2.88297 -36.63625,13.28411 -56.66224,13.28411c-16.97792,0 -31.25702,-13.58349 -45.70151,-14.444c-57.07901,-3.40049 -94.15428,-1.37602 -94.15428,-28.89574c0,-10.06558 -7.55843,-14.88739 -7.21513,-27.16624c0.20425,-7.30516 14.02287,-16.54799 23.07639,-20.19525c8.63114,-3.47709 17.57779,-1.57751 24.71177,-9.18646c1.94456,-2.07401 17.42004,3.06082 24.97216,-0.10324c6.19783,-2.59667 4.53639,-13.66069 7.15272,-14.38946c20.25641,-5.64231 30.68989,-19.3117 54.79497,-19.3117c4.30991,0 16.60176,-8.00384 27.05339,-8.13504c9.07649,-0.11393 16.38527,7.51522 20.60838,8.97212c21.08479,7.27397 18.51109,20.06555 33.77267,24.81169c5.01983,1.5611 20.2795,1.11691 30.55691,-2.27342c10.09048,-3.32865 26.02875,6.55744 29.82071,7.885c28.36831,9.9317 22.76958,21.47431 22.76958,39.99312z" fill="url(#color-36)"/><path d="M248.2947,-353.96508c0,26.26944 -39.54927,39.93497 -95.55647,49.15452c-17.51349,2.88297 -36.63625,13.28411 -56.66224,13.28411c-16.97792,0 -31.25702,-13.58349 -45.70151,-14.444c-57.07901,-3.40049 -94.15428,-1.37602 -94.15428,-28.89574c0,-10.06558 -7.55843,-14.88739 -7.21513,-27.16624c0.20425,-7.30516 14.02287,-16.54799 23.07639,-20.19525c8.63114,-3.47709 17.57779,-1.57751 24.71177,-9.18646c1.94456,-2.07401 17.42004,3.06082 24.97216,-0.10324c6.19783,-2.59667 4.53639,-13.66069 7.15272,-14.38946c20.25641,-5.64231 30.68989,-19.3117 54.79497,-19.3117c4.30991,0 16.60176,-8.00384 27.05339,-8.13504c9.07649,-0.11393 16.38527,7.51522 20.60838,8.97212c21.08479,7.27397 18.51109,20.06555 33.77267,24.81169c5.01983,1.5611 20.2795,1.11691 30.55691,-2.27342c10.09048,-3.32865 26.02875,6.55744 29.82071,7.885c28.36831,9.9317 22.76958,21.47431 22.76958,39.99312z" fill="url(#color-37)"/><path d="M346.5603,-271.21509c0,26.26944 -39.54927,39.93497 -95.55647,49.15452c-17.51349,2.88297 -36.63625,13.28411 -56.66224,13.28411c-16.97792,0 -31.25702,-13.58349 -45.70151,-14.444c-57.07901,-3.40049 -94.15428,-1.37602 -94.15428,-28.89574c0,-10.06558 -7.55843,-14.88739 -7.21513,-27.16624c0.20425,-7.30516 14.02287,-16.54799 23.07639,-20.19525c8.63114,-3.47709 17.57779,-1.57751 24.71177,-9.18646c1.94456,-2.07401 17.42004,3.06082 24.97216,-0.10324c6.19783,-2.59667 4.53639,-13.66069 7.15272,-14.38946c20.25641,-5.64231 30.68989,-19.3117 54.79497,-19.3117c4.30991,0 16.60176,-8.00384 27.05339,-8.13504c9.07649,-0.11393 16.38527,7.51522 20.60838,8.97212c21.08479,7.27397 18.51109,20.06555 33.77267,24.81169c5.01983,1.5611 20.2795,1.11691 30.55691,-2.27342c10.09048,-3.32865 26.02875,6.55744 29.82071,7.885c28.36831,9.9317 22.76958,21.47431 22.76958,39.99312z" fill="url(#color-38)"/><path d="M496.36605,-259.911c0,26.26944 -39.54927,39.93497 -95.55647,49.15452c-17.51349,2.88297 -36.63625,13.28411 -56.66224,13.28411c-16.97792,0 -31.25702,-13.58349 -45.70151,-14.444c-57.07901,-3.40049 -94.15428,-1.37602 -94.15428,-28.89574c0,-10.06558 -7.55843,-14.88739 -7.21513,-27.16624c0.20425,-7.30516 14.02287,-16.54799 23.07639,-20.19525c8.63114,-3.47709 17.57779,-1.57751 24.71177,-9.18646c1.94456,-2.07401 17.42004,3.06082 24.97216,-0.10324c6.19783,-2.59667 4.53639,-13.66069 7.15272,-14.38946c20.25641,-5.64231 30.68989,-19.3117 54.79497,-19.3117c4.30991,0 16.60176,-8.00384 27.05339,-8.13504c9.07649,-0.11393 16.38527,7.51522 20.60838,8.97212c21.08479,7.27397 18.51109,20.06555 33.77267,24.81169c5.01983,1.5611 20.2795,1.11691 30.55691,-2.27342c10.09048,-3.32865 26.02875,6.55744 29.82071,7.885c28.36831,9.9317 22.76958,21.47431 22.76958,39.99312z" fill="url(#color-39)"/><path d="M184.43578,-190.03375c0,26.26944 -39.54927,39.93497 -95.55647,49.15452c-17.51349,2.88297 -36.63625,13.28411 -56.66224,13.28411c-16.97792,0 -31.25702,-13.58349 -45.70151,-14.444c-57.07901,-3.40049 -94.15428,-1.37602 -94.15428,-28.89574c0,-10.06558 -7.55843,-14.88739 -7.21513,-27.16624c0.20425,-7.30516 14.02287,-16.54799 23.07639,-20.19525c8.63114,-3.47709 17.57779,-1.57751 24.71177,-9.18646c1.94456,-2.07401 17.42004,3.06082 24.97216,-0.10324c6.19783,-2.59667 4.53639,-13.66069 7.15272,-14.38946c20.25641,-5.64231 30.68989,-19.3117 54.79497,-19.3117c4.30991,0 16.60176,-8.00384 27.05339,-8.13504c9.07649,-0.11393 16.38527,7.51522 20.60838,8.97212c21.08479,7.27397 18.51109,20.06555 33.77267,24.81169c5.01983,1.5611 20.2795,1.11691 30.55691,-2.27342c10.09048,-3.32865 26.02875,6.55744 29.82071,7.885c28.36831,9.9317 22.76958,21.47431 22.76958,39.99312z" fill="url(#color-40)"/><path d="M594.63166,-177.16102c0,26.26944 -39.54927,39.93497 -95.55647,49.15452c-17.51349,2.88297 -36.63625,13.28411 -56.66224,13.28411c-16.97792,0 -31.25702,-13.58349 -45.70151,-14.444c-57.07901,-3.40049 -94.15428,-1.37602 -94.15428,-28.89574c0,-10.06558 -7.55843,-14.88739 -7.21513,-27.16624c0.20425,-7.30516 14.02287,-16.54799 23.07639,-20.19525c8.63114,-3.47709 17.57779,-1.57751 24.71177,-9.18646c1.94456,-2.07401 17.42004,3.06082 24.97216,-0.10324c6.19783,-2.59667 4.53639,-13.66069 7.15272,-14.38946c20.25641,-5.64231 30.68989,-19.3117 54.79497,-19.3117c4.30991,0 16.60176,-8.00384 27.05339,-8.13504c9.07649,-0.11393 16.38527,7.51522 20.60838,8.97212c21.08479,7.27397 18.51109,20.06555 33.77267,24.81169c5.01983,1.5611 20.2795,1.11691 30.55691,-2.27342c10.09048,-3.32865 26.02875,6.55744 29.82071,7.885c28.36831,9.9317 22.76958,21.47431 22.76958,39.99312z" fill="url(#color-41)"/><path d="M404.88755,-408.33706c0,26.26944 -39.54927,39.93497 -95.55647,49.15452c-17.51349,2.88297 -36.63625,13.28411 -56.66224,13.28411c-16.97792,0 -31.25702,-13.58349 -45.70151,-14.444c-57.07901,-3.40049 -94.15428,-1.37602 -94.15428,-28.89574c0,-10.06558 -7.55843,-14.88739 -7.21513,-27.16624c0.20425,-7.30516 14.02287,-16.54799 23.07639,-20.19525c8.63114,-3.47709 17.57779,-1.57751 24.71177,-9.18646c1.94456,-2.07401 17.42004,3.06082 24.97216,-0.10324c6.19783,-2.59667 4.53639,-13.66069 7.15272,-14.38946c20.25641,-5.64231 30.68989,-19.3117 54.79497,-19.3117c4.30991,0 16.60176,-8.00384 27.05339,-8.13504c9.07649,-0.11393 16.38527,7.51522 20.60838,8.97212c21.08479,7.27397 18.51109,20.06555 33.77267,24.81169c5.01983,1.5611 20.2795,1.11691 30.55691,-2.27342c10.09048,-3.32865 26.02875,6.55744 29.82071,7.885c28.36831,9.9317 22.76958,21.47431 22.76958,39.99312z" fill="url(#color-42)"/><path d="M199.52687,-416.96979c0,26.26944 -39.54927,39.93497 -95.55647,49.15452c-17.51349,2.88297 -36.63625,13.28411 -56.66224,13.28411c-16.97792,0 -31.25702,-13.58349 -45.70151,-14.444c-57.07901,-3.40049 -94.15428,-1.37602 -94.15428,-28.89574c0,-10.06558 -7.55843,-14.88739 -7.21513,-27.16624c0.20425,-7.30516 14.02287,-16.54799 23.07639,-20.19525c8.63114,-3.47709 17.57779,-1.57751 24.71177,-9.18646c1.94456,-2.07401 17.42004,3.06082 24.97216,-0.10324c6.19783,-2.59667 4.53639,-13.66069 7.15272,-14.38946c20.25641,-5.64231 30.68989,-19.3117 54.79497,-19.3117c4.30991,0 16.60176,-8.00384 27.05339,-8.13504c9.07649,-0.11393 16.38527,7.51522 20.60838,8.97212c21.08479,7.27397 18.51109,20.06555 33.77267,24.81169c5.01983,1.5611 20.2795,1.11691 30.55691,-2.27342c10.09048,-3.32865 26.02875,6.55744 29.82071,7.885c28.36831,9.9317 22.76958,21.47431 22.76958,39.99312z" fill="url(#color-43)"/><path d="M485.67026,-101.65373c0,26.26944 -39.54927,39.93497 -95.55647,49.15452c-17.51349,2.88297 -36.63625,13.28411 -56.66224,13.28411c-16.97792,0 -31.25702,-13.58349 -45.70151,-14.444c-57.07901,-3.40049 -94.15428,-1.37602 -94.15428,-28.89574c0,-10.06558 -7.55843,-14.88739 -7.21513,-27.16624c0.20425,-7.30516 14.02287,-16.54799 23.07639,-20.19525c8.63114,-3.47709 17.57779,-1.57751 24.71177,-9.18646c1.94456,-2.07401 17.42004,3.06082 24.97216,-0.10324c6.19783,-2.59667 4.53639,-13.66069 7.15272,-14.38946c20.25641,-5.64231 30.68989,-19.3117 54.79497,-19.3117c4.30991,0 16.60176,-8.00384 27.05339,-8.13504c9.07649,-0.11393 16.38527,7.51522 20.60838,8.97212c21.08479,7.27397 18.51109,20.06555 33.77267,24.81169c5.01983,1.5611 20.2795,1.11691 30.55691,-2.27342c10.09048,-3.32865 26.02875,6.55744 29.82071,7.885c28.36831,9.9317 22.76958,21.47431 22.76958,39.99312z" fill="url(#color-44)"/><path d="M675.30305,-88.72404c0,26.26944 -39.54927,39.93497 -95.55647,49.15452c-17.51349,2.88297 -36.63625,13.28411 -56.66224,13.28411c-16.97792,0 -31.25702,-13.58349 -45.70151,-14.444c-57.07901,-3.40049 -94.15428,-1.37602 -94.15428,-28.89574c0,-10.06558 -7.55843,-14.88739 -7.21513,-27.16624c0.20425,-7.30516 14.02287,-16.54799 23.07639,-20.19525c8.63114,-3.47709 17.57779,-1.57751 24.71177,-9.18646c1.94456,-2.07401 17.42004,3.06082 24.97216,-0.10324c6.19783,-2.59667 4.53639,-13.66069 7.15272,-14.38946c20.25641,-5.64231 30.68989,-19.3117 54.79497,-19.3117c4.30991,0 16.60176,-8.00384 27.05339,-8.13504c9.07649,-0.11393 16.38527,7.51522 20.60838,8.97212c21.08479,7.27397 18.51109,20.06555 33.77267,24.81169c5.01983,1.5611 20.2795,1.11691 30.55691,-2.27342c10.09048,-3.32865 26.02875,6.55744 29.82071,7.885c28.36831,9.9317 22.76958,21.47431 22.76958,39.99312z" fill="url(#color-45)"/><path d="M691.19829,-259.48389c0,26.26944 -39.54927,39.93497 -95.55647,49.15452c-17.51349,2.88297 -36.63625,13.28411 -56.66224,13.28411c-16.97792,0 -31.25702,-13.58349 -45.70151,-14.444c-57.07901,-3.40049 -94.15428,-1.37602 -94.15428,-28.89574c0,-10.06558 -7.55843,-14.88739 -7.21513,-27.16624c0.20425,-7.30516 14.02287,-16.54799 23.07639,-20.19525c8.63114,-3.47709 17.57779,-1.57751 24.71177,-9.18646c1.94456,-2.07401 17.42004,3.06082 24.97216,-0.10324c6.19783,-2.59667 4.53639,-13.66069 7.15272,-14.38946c20.25641,-5.64231 30.68989,-19.3117 54.79497,-19.3117c4.30991,0 16.60176,-8.00384 27.05339,-8.13504c9.07649,-0.11393 16.38527,7.51522 20.60838,8.97212c21.08479,7.27397 18.51109,20.06555 33.77267,24.81169c5.01983,1.5611 20.2795,1.11691 30.55691,-2.27342c10.09048,-3.32865 26.02875,6.55744 29.82071,7.885c28.36831,9.9317 22.76958,21.47431 22.76958,39.99312z" fill="url(#color-46)"/><path d="M1047.47171,-311.76434c0,26.26944 -39.54927,39.93497 -95.55647,49.15452c-17.51349,2.88297 -36.63625,13.28411 -56.66224,13.28411c-16.97792,0 -31.25702,-13.58349 -45.70151,-14.444c-57.07901,-3.40049 -94.15428,-1.37602 -94.15428,-28.89574c0,-10.06558 -7.55843,-14.88739 -7.21513,-27.16624c0.20425,-7.30516 14.02287,-16.54799 23.07639,-20.19525c8.63114,-3.47709 17.57779,-1.57751 24.71177,-9.18646c1.94456,-2.07401 17.42004,3.06082 24.97216,-0.10324c6.19783,-2.59667 4.53639,-13.66069 7.15272,-14.38946c20.25641,-5.64231 30.68989,-19.3117 54.79497,-19.3117c4.30991,0 16.60176,-8.00384 27.05339,-8.13504c9.07649,-0.11393 16.38527,7.51522 20.60838,8.97212c21.08479,7.27397 18.51109,20.06555 33.77267,24.81169c5.01983,1.5611 20.2795,1.11691 30.55691,-2.27342c10.09048,-3.32865 26.02875,6.55744 29.82071,7.885c28.36831,9.9317 22.76958,21.47431 22.76958,39.99312z" fill="url(#color-47)"/><path d="M1163.42989,-393.23301c0,26.26944 -39.54927,39.93497 -95.55647,49.15452c-17.51349,2.88297 -36.63625,13.28411 -56.66224,13.28411c-16.97792,0 -31.25702,-13.58349 -45.70151,-14.444c-57.07901,-3.40049 -94.15428,-1.37602 -94.15428,-28.89574c0,-10.06558 -7.55843,-14.88739 -7.21513,-27.16624c0.20425,-7.30516 14.02287,-16.54799 23.07639,-20.19525c8.63114,-3.47709 17.57779,-1.57751 24.71177,-9.18646c1.94456,-2.07401 17.42004,3.06082 24.97216,-0.10324c6.19783,-2.59667 4.53639,-13.66069 7.15272,-14.38946c20.25641,-5.64231 30.68989,-19.3117 54.79497,-19.3117c4.30991,0 16.60176,-8.00384 27.05339,-8.13504c9.07649,-0.11393 16.38527,7.51522 20.60838,8.97212c21.08479,7.27397 18.51109,20.06555 33.77267,24.81169c5.01983,1.5611 20.2795,1.11691 30.55691,-2.27342c10.09048,-3.32865 26.02875,6.55744 29.82071,7.885c28.36831,9.9317 22.76958,21.47431 22.76958,39.99312z" fill="url(#color-48)"/><path d="M984.49289,-163.77834c0,26.26944 -39.54927,39.93497 -95.55647,49.15452c-17.51349,2.88297 -36.63625,13.28411 -56.66224,13.28411c-16.97792,0 -31.25702,-13.58349 -45.70151,-14.444c-57.07901,-3.40049 -94.15428,-1.37602 -94.15428,-28.89574c0,-10.06558 -7.55843,-14.88739 -7.21513,-27.16624c0.20425,-7.30516 14.02287,-16.54799 23.07639,-20.19525c8.63114,-3.47709 17.57779,-1.57751 24.71177,-9.18646c1.94456,-2.07401 17.42004,3.06082 24.97216,-0.10324c6.19783,-2.59667 4.53639,-13.66069 7.15272,-14.38946c20.25641,-5.64231 30.68989,-19.3117 54.79497,-19.3117c4.30991,0 16.60176,-8.00384 27.05339,-8.13504c9.07649,-0.11393 16.38527,7.51522 20.60838,8.97212c21.08479,7.27397 18.51109,20.06555 33.77267,24.81169c5.01983,1.5611 20.2795,1.11691 30.55691,-2.27342c10.09048,-3.32865 26.02875,6.55744 29.82071,7.885c28.36831,9.9317 22.76958,21.47431 22.76958,39.99312z" fill="url(#color-49)"/><path d="M733.83301,-257.83241c0,26.26944 -39.54927,39.93497 -95.55647,49.15452c-17.51349,2.88297 -36.63625,13.28411 -56.66224,13.28411c-16.97792,0 -31.25702,-13.58349 -45.70151,-14.444c-57.07901,-3.40049 -94.15428,-1.37602 -94.15428,-28.89574c0,-10.06558 -7.55843,-14.88739 -7.21513,-27.16624c0.20425,-7.30516 14.02287,-16.54799 23.07639,-20.19525c8.63114,-3.47709 17.57779,-1.57751 24.71177,-9.18646c1.94456,-2.07401 17.42004,3.06082 24.97216,-0.10324c6.19783,-2.59667 4.53639,-13.66069 7.15272,-14.38946c20.25641,-5.64231 30.68989,-19.3117 54.79497,-19.3117c4.30991,0 16.60176,-8.00384 27.05339,-8.13504c9.07649,-0.11393 16.38527,7.51522 20.60838,8.97212c21.08479,7.27397 18.51109,20.06555 33.77267,24.81169c5.01983,1.5611 20.2795,1.11691 30.55691,-2.27342c10.09048,-3.32865 26.02875,6.55744 29.82071,7.885c28.36831,9.9317 22.76958,21.47431 22.76958,39.99312z" fill="url(#color-50)"/><path d="M827.78873,-327.65271c0,26.26944 -39.54927,39.93497 -95.55647,49.15452c-17.51349,2.88297 -36.63625,13.28411 -56.66224,13.28411c-16.97792,0 -31.25702,-13.58349 -45.70151,-14.444c-57.07901,-3.40049 -94.15428,-1.37602 -94.15428,-28.89574c0,-10.06558 -7.55843,-14.88739 -7.21513,-27.16624c0.20425,-7.30516 14.02287,-16.54799 23.07639,-20.19525c8.63114,-3.47709 17.57779,-1.57751 24.71177,-9.18646c1.94456,-2.07401 17.42004,3.06082 24.97216,-0.10324c6.19783,-2.59667 4.53639,-13.66069 7.15272,-14.38946c20.25641,-5.64231 30.68989,-19.3117 54.79497,-19.3117c4.30991,0 16.60176,-8.00384 27.05339,-8.13504c9.07649,-0.11393 16.38527,7.51522 20.60838,8.97212c21.08479,7.27397 18.51109,20.06555 33.77267,24.81169c5.01983,1.5611 20.2795,1.11691 30.55691,-2.27342c10.09048,-3.32865 26.02875,6.55744 29.82071,7.885c28.36831,9.9317 22.76958,21.47431 22.76958,39.99312z" fill="url(#color-51)"/><path d="M926.05433,-244.90273c0,26.26944 -39.54927,39.93497 -95.55647,49.15452c-17.51349,2.88297 -36.63625,13.28411 -56.66224,13.28411c-16.97792,0 -31.25702,-13.58349 -45.70151,-14.444c-57.07901,-3.40049 -94.15428,-1.37602 -94.15428,-28.89574c0,-10.06558 -7.55843,-14.88739 -7.21513,-27.16624c0.20425,-7.30516 14.02287,-16.54799 23.07639,-20.19525c8.63114,-3.47709 17.57779,-1.57751 24.71177,-9.18646c1.94456,-2.07401 17.42004,3.06082 24.97216,-0.10324c6.19783,-2.59667 4.53639,-13.66069 7.15272,-14.38946c20.25641,-5.64231 30.68989,-19.3117 54.79497,-19.3117c4.30991,0 16.60176,-8.00384 27.05339,-8.13504c9.07649,-0.11393 16.38527,7.51522 20.60838,8.97212c21.08479,7.27397 18.51109,20.06555 33.77267,24.81169c5.01983,1.5611 20.2795,1.11691 30.55691,-2.27342c10.09048,-3.32865 26.02875,6.55744 29.82071,7.885c28.36831,9.9317 22.76958,21.47431 22.76958,39.99312z" fill="url(#color-52)"/><path d="M1075.86008,-233.59864c0,26.26944 -39.54927,39.93497 -95.55647,49.15452c-17.51349,2.88297 -36.63625,13.28411 -56.66224,13.28411c-16.97792,0 -31.25702,-13.58349 -45.70151,-14.444c-57.07901,-3.40049 -94.15428,-1.37602 -94.15428,-28.89574c0,-10.06558 -7.55843,-14.88739 -7.21513,-27.16624c0.20425,-7.30516 14.02287,-16.54799 23.07639,-20.19525c8.63114,-3.47709 17.57779,-1.57751 24.71177,-9.18646c1.94456,-2.07401 17.42004,3.06082 24.97216,-0.10324c6.19783,-2.59667 4.53639,-13.66069 7.15272,-14.38946c20.25641,-5.64231 30.68989,-19.3117 54.79497,-19.3117c4.30991,0 16.60176,-8.00384 27.05339,-8.13504c9.07649,-0.11393 16.38527,7.51522 20.60838,8.97212c21.08479,7.27397 18.51109,20.06555 33.77267,24.81169c5.01983,1.5611 20.2795,1.11691 30.55691,-2.27342c10.09048,-3.32865 26.02875,6.55744 29.82071,7.885c28.36831,9.9317 22.76958,21.47431 22.76958,39.99312z" fill="url(#color-53)"/><path d="M763.9298,-163.72139c0,26.26944 -39.54927,39.93497 -95.55647,49.15452c-17.51349,2.88297 -36.63625,13.28411 -56.66224,13.28411c-16.97792,0 -31.25702,-13.58349 -45.70151,-14.444c-57.07901,-3.40049 -94.15428,-1.37602 -94.15428,-28.89574c0,-10.06558 -7.55843,-14.88739 -7.21513,-27.16624c0.20425,-7.30516 14.02287,-16.54799 23.07639,-20.19525c8.63114,-3.47709 17.57779,-1.57751 24.71177,-9.18646c1.94456,-2.07401 17.42004,3.06082 24.97216,-0.10324c6.19783,-2.59667 4.53639,-13.66069 7.15272,-14.38946c20.25641,-5.64231 30.68989,-19.3117 54.79497,-19.3117c4.30991,0 16.60176,-8.00384 27.05339,-8.13504c9.07649,-0.11393 16.38527,7.51522 20.60838,8.97212c21.08479,7.27397 18.51109,20.06555 33.77267,24.81169c5.01983,1.5611 20.2795,1.11691 30.55691,-2.27342c10.09048,-3.32865 26.02875,6.55744 29.82071,7.885c28.36831,9.9317 22.76958,21.47431 22.76958,39.99312z" fill="url(#color-54)"/><path d="M1174.12568,-150.84865c0,26.26944 -39.54927,39.93497 -95.55647,49.15452c-17.51349,2.88297 -36.63625,13.28411 -56.66224,13.28411c-16.97792,0 -31.25702,-13.58349 -45.70151,-14.444c-57.07901,-3.40049 -94.15428,-1.37602 -94.15428,-28.89574c0,-10.06558 -7.55843,-14.88739 -7.21513,-27.16624c0.20425,-7.30516 14.02287,-16.54799 23.07639,-20.19525c8.63114,-3.47709 17.57779,-1.57751 24.71177,-9.18646c1.94456,-2.07401 17.42004,3.06082 24.97216,-0.10324c6.19783,-2.59667 4.53639,-13.66069 7.15272,-14.38946c20.25641,-5.64231 30.68989,-19.3117 54.79497,-19.3117c4.30991,0 16.60176,-8.00384 27.05339,-8.13504c9.07649,-0.11393 16.38527,7.51522 20.60838,8.97212c21.08479,7.27397 18.51109,20.06555 33.77267,24.81169c5.01983,1.5611 20.2795,1.11691 30.55691,-2.27342c10.09048,-3.32865 26.02875,6.55744 29.82071,7.885c28.36831,9.9317 22.76958,21.47431 22.76958,39.99312z" fill="url(#color-55)"/><path d="M984.38158,-382.02469c0,26.26944 -39.54927,39.93497 -95.55647,49.15452c-17.51349,2.88297 -36.63625,13.28411 -56.66224,13.28411c-16.97792,0 -31.25702,-13.58349 -45.70151,-14.444c-57.07901,-3.40049 -94.15428,-1.37602 -94.15428,-28.89574c0,-10.06558 -7.55843,-14.88739 -7.21513,-27.16624c0.20425,-7.30516 14.02287,-16.54799 23.07639,-20.19525c8.63114,-3.47709 17.57779,-1.57751 24.71177,-9.18646c1.94456,-2.07401 17.42004,3.06082 24.97216,-0.10324c6.19783,-2.59667 4.53639,-13.66069 7.15272,-14.38946c20.25641,-5.64231 30.68989,-19.3117 54.79497,-19.3117c4.30991,0 16.60176,-8.00384 27.05339,-8.13504c9.07649,-0.11393 16.38527,7.51522 20.60838,8.97212c21.08479,7.27397 18.51109,20.06555 33.77267,24.81169c5.01983,1.5611 20.2795,1.11691 30.55691,-2.27342c10.09048,-3.32865 26.02875,6.55744 29.82071,7.885c28.36831,9.9317 22.76958,21.47431 22.76958,39.99312z" fill="url(#color-56)"/><path d="M779.0209,-390.65743c0,26.26944 -39.54927,39.93497 -95.55647,49.15452c-17.51349,2.88297 -36.63625,13.28411 -56.66224,13.28411c-16.97792,0 -31.25702,-13.58349 -45.70151,-14.444c-57.07901,-3.40049 -94.15428,-1.37602 -94.15428,-28.89574c0,-10.06558 -7.55843,-14.88739 -7.21513,-27.16624c0.20425,-7.30516 14.02287,-16.54799 23.07639,-20.19525c8.63114,-3.47709 17.57779,-1.57751 24.71177,-9.18646c1.94456,-2.07401 17.42004,3.06082 24.97216,-0.10324c6.19783,-2.59667 4.53639,-13.66069 7.15272,-14.38946c20.25641,-5.64231 30.68989,-19.3117 54.79497,-19.3117c4.30991,0 16.60176,-8.00384 27.05339,-8.13504c9.07649,-0.11393 16.38527,7.51522 20.60838,8.97212c21.08479,7.27397 18.51109,20.06555 33.77267,24.81169c5.01983,1.5611 20.2795,1.11691 30.55691,-2.27342c10.09048,-3.32865 26.02875,6.55744 29.82071,7.885c28.36831,9.9317 22.76958,21.47431 22.76958,39.99312z" fill="url(#color-57)"/><path d="M1065.16429,-75.34136c0,26.26944 -39.54927,39.93497 -95.55647,49.15452c-17.51349,2.88297 -36.63625,13.28411 -56.66224,13.28411c-16.97792,0 -31.25702,-13.58349 -45.70151,-14.444c-57.07901,-3.40049 -94.15428,-1.37602 -94.15428,-28.89574c0,-10.06558 -7.55843,-14.88739 -7.21513,-27.16624c0.20425,-7.30516 14.02287,-16.54799 23.07639,-20.19525c8.63114,-3.47709 17.57779,-1.57751 24.71177,-9.18646c1.94456,-2.07401 17.42004,3.06082 24.97216,-0.10324c6.19783,-2.59667 4.53639,-13.66069 7.15272,-14.38946c20.25641,-5.64231 30.68989,-19.3117 54.79497,-19.3117c4.30991,0 16.60176,-8.00384 27.05339,-8.13504c9.07649,-0.11393 16.38527,7.51522 20.60838,8.97212c21.08479,7.27397 18.51109,20.06555 33.77267,24.81169c5.01983,1.5611 20.2795,1.11691 30.55691,-2.27342c10.09048,-3.32865 26.02875,6.55744 29.82071,7.885c28.36831,9.9317 22.76958,21.47431 22.76958,39.99312z" fill="url(#color-58)"/><path d="M844.6012,-75.28442c0,26.26944 -39.54927,39.93497 -95.55647,49.15452c-17.51349,2.88297 -36.63625,13.28411 -56.66224,13.28411c-16.97792,0 -31.25702,-13.58349 -45.70151,-14.444c-57.07901,-3.40049 -94.15428,-1.37602 -94.15428,-28.89574c0,-10.06558 -7.55843,-14.88739 -7.21513,-27.16624c0.20425,-7.30516 14.02287,-16.54799 23.07639,-20.19525c8.63114,-3.47709 17.57779,-1.57751 24.71177,-9.18646c1.94456,-2.07401 17.42004,3.06082 24.97216,-0.10324c6.19783,-2.59667 4.53639,-13.66069 7.15272,-14.38946c20.25641,-5.64231 30.68989,-19.3117 54.79497,-19.3117c4.30991,0 16.60176,-8.00384 27.05339,-8.13504c9.07649,-0.11393 16.38527,7.51522 20.60838,8.97212c21.08479,7.27397 18.51109,20.06555 33.77267,24.81169c5.01983,1.5611 20.2795,1.11691 30.55691,-2.27342c10.09048,-3.32865 26.02875,6.55744 29.82071,7.885c28.36831,9.9317 22.76958,21.47431 22.76958,39.99312z" fill="url(#color-59)"/><path d="M415.90109,-139.15904c0,26.26944 -39.54927,39.93497 -95.55647,49.15452c-17.51349,2.88297 -36.63625,13.28411 -56.66224,13.28411c-16.97792,0 -31.25702,-13.58349 -45.70151,-14.444c-57.07901,-3.40049 -94.15428,-1.37602 -94.15428,-28.89574c0,-10.06558 -7.55843,-14.88739 -7.21513,-27.16624c0.20425,-7.30516 14.02287,-16.54799 23.07639,-20.19525c8.63114,-3.47709 17.57779,-1.57751 24.71177,-9.18646c1.94456,-2.07401 17.42004,3.06082 24.97216,-0.10324c6.19783,-2.59667 4.53639,-13.66069 7.15272,-14.38946c20.25641,-5.64231 30.68989,-19.3117 54.79497,-19.3117c4.30991,0 16.60176,-8.00384 27.05339,-8.13504c9.07649,-0.11393 16.38527,7.51522 20.60838,8.97212c21.08479,7.27397 18.51109,20.06555 33.77267,24.81169c5.01983,1.5611 20.2795,1.11691 30.55691,-2.27342c10.09048,-3.32865 26.02875,6.55744 29.82071,7.885c28.36831,9.9317 22.76958,21.47431 22.76958,39.99312z" fill="url(#color-60)"/><path d="M666.53716,473.32608c0,26.26944 -39.54927,39.93497 -95.55647,49.15452c-17.51349,2.88297 -36.63625,13.28411 -56.66224,13.28411c-16.97792,0 -31.25702,-13.58349 -45.70151,-14.444c-57.07901,-3.40049 -94.15428,-1.37602 -94.15428,-28.89574c0,-10.06558 -7.55843,-14.88739 -7.21513,-27.16624c0.20425,-7.30516 14.02287,-16.54799 23.07639,-20.19525c8.63114,-3.47709 17.57779,-1.57751 24.71177,-9.18646c1.94456,-2.07401 17.42004,3.06082 24.97216,-0.10324c6.19783,-2.59667 4.53639,-13.66069 7.15272,-14.38946c20.25641,-5.64231 30.68989,-19.3117 54.79497,-19.3117c4.30991,0 16.60176,-8.00384 27.05339,-8.13504c9.07649,-0.11393 16.38527,7.51522 20.60838,8.97212c21.08479,7.27397 18.51109,20.06555 33.77267,24.81169c5.01983,1.5611 20.2795,1.11691 30.55691,-2.27342c10.09048,-3.32865 26.02875,6.55744 29.82071,7.885c28.36831,9.9317 22.76958,21.47431 22.76958,39.99312z" fill="url(#color-61)"/></g></g></svg>