<svg version="1.1" xmlns="http://www.w3.org/2000/svg" xmlns:xlink="http://www.w3.org/1999/xlink" width="740.74942" height="371.8284" viewBox="0,0,740.74942,371.8284"><defs><linearGradient x1="449.80815" y1="151.01346" x2="449.80815" y2="275.89071" gradientUnits="userSpaceOnUse" id="color-1"><stop offset="0" stop-color="#ffffff"/><stop offset="1" stop-color="#adb6ad"/></linearGradient><linearGradient x1="8.80815" y1="28.01346" x2="8.80815" y2="152.89071" gradientUnits="userSpaceOnUse" id="color-2"><stop offset="0" stop-color="#ffffff"/><stop offset="1" stop-color="#adb6ad"/></linearGradient><linearGradient x1="230.80815" y1="103.01346" x2="230.80815" y2="227.89071" gradientUnits="userSpaceOnUse" id="color-3"><stop offset="0" stop-color="#ffffff"/><stop offset="1" stop-color="#adb6ad"/></linearGradient><linearGradient x1="49.80815" y1="140.01346" x2="49.80815" y2="264.89071" gradientUnits="userSpaceOnUse" id="color-4"><stop offset="0" stop-color="#ffffff"/><stop offset="1" stop-color="#adb6ad"/></linearGradient><linearGradient x1="242.80815" y1="199.01346" x2="242.80815" y2="323.89071" gradientUnits="userSpaceOnUse" id="color-5"><stop offset="0" stop-color="#ffffff"/><stop offset="1" stop-color="#adb6ad"/></linearGradient><linearGradient x1="390.80815" y1="35.01346" x2="390.80815" y2="159.89071" gradientUnits="userSpaceOnUse" id="color-6"><stop offset="0" stop-color="#ffffff"/><stop offset="1" stop-color="#adb6ad"/></linearGradient><linearGradient x1="217.80816" y1="-30.98654" x2="217.80816" y2="93.89071" gradientUnits="userSpaceOnUse" id="color-7"><stop offset="0" stop-color="#ffffff"/><stop offset="1" stop-color="#adb6ad"/></linearGradient></defs><g transform="translate(138.27411,47.93767)"><g data-paper-data="{&quot;isPaintingLayer&quot;:true}" fill-rule="nonzero" stroke="none" stroke-width="0" stroke-linecap="butt" stroke-linejoin="miter" stroke-miterlimit="10" stroke-dasharray="" stroke-dashoffset="0" style="mix-blend-mode: normal"><path d="M602.02687,213.45209c0,26.26944 -39.54927,39.93497 -95.55647,49.15452c-17.51349,2.88297 -36.63625,13.28411 -56.66224,13.28411c-16.97792,0 -31.25702,-13.58349 -45.70151,-14.444c-57.07901,-3.40049 -94.15428,-1.37602 -94.15428,-28.89574c0,-10.06558 -7.55843,-14.88739 -7.21513,-27.16624c0.20425,-7.30516 14.02287,-16.54799 23.07639,-20.19525c8.63114,-3.47709 17.57779,-1.57751 24.71177,-9.18646c1.94456,-2.07401 17.42004,3.06082 24.97216,-0.10324c6.19783,-2.59667 4.53639,-13.66069 7.15272,-14.38946c20.25641,-5.64231 30.68989,-19.3117 54.79497,-19.3117c4.30991,0 16.60176,-8.00384 27.05339,-8.13504c9.07649,-0.11393 16.38527,7.51522 20.60838,8.97212c21.08479,7.27397 18.51109,20.06555 33.77267,24.81169c5.01983,1.5611 20.2795,1.11691 30.55691,-2.27342c10.09048,-3.32865 26.02875,6.55744 29.82071,7.885c28.36831,9.9317 22.76958,21.47431 22.76958,39.99312z" fill="url(#color-1)"/><path d="M161.02687,90.45209c0,26.26944 -39.54927,39.93497 -95.55647,49.15452c-17.51349,2.88297 -36.63625,13.28411 -56.66224,13.28411c-16.97792,0 -31.25702,-13.58349 -45.70151,-14.444c-57.07901,-3.40049 -94.15428,-1.37602 -94.15428,-28.89574c0,-10.06558 -7.55843,-14.88739 -7.21513,-27.16624c0.20425,-7.30516 14.02287,-16.54799 23.07639,-20.19525c8.63114,-3.47709 17.57779,-1.57751 24.71177,-9.18646c1.94456,-2.07401 17.42004,3.06082 24.97216,-0.10324c6.19783,-2.59667 4.53639,-13.66069 7.15272,-14.38946c20.25641,-5.64231 30.68989,-19.3117 54.79497,-19.3117c4.30991,0 16.60176,-8.00384 27.05339,-8.13504c9.07649,-0.11393 16.38527,7.51522 20.60838,8.97212c21.08479,7.27397 18.51109,20.06555 33.77267,24.81169c5.01983,1.5611 20.2795,1.11691 30.55691,-2.27342c10.09048,-3.32865 26.02875,6.55744 29.82071,7.885c28.36831,9.9317 22.76958,21.47431 22.76958,39.99312z" fill="url(#color-2)"/><path d="M383.02687,165.45209c0,26.26944 -39.54927,39.93497 -95.55647,49.15452c-17.51349,2.88297 -36.63625,13.28411 -56.66224,13.28411c-16.97792,0 -31.25702,-13.58349 -45.70151,-14.444c-57.07901,-3.40049 -94.15428,-1.37602 -94.15428,-28.89574c0,-10.06558 -7.55843,-14.88739 -7.21513,-27.16624c0.20425,-7.30516 14.02287,-16.54799 23.07639,-20.19525c8.63114,-3.47709 17.57779,-1.57751 24.71177,-9.18646c1.94456,-2.07401 17.42004,3.06082 24.97216,-0.10324c6.19783,-2.59667 4.53639,-13.66069 7.15272,-14.38946c20.25641,-5.64231 30.68989,-19.3117 54.79497,-19.3117c4.30991,0 16.60176,-8.00384 27.05339,-8.13504c9.07649,-0.11393 16.38527,7.51522 20.60838,8.97212c21.08479,7.27397 18.51109,20.06555 33.77267,24.81169c5.01983,1.5611 20.2795,1.11691 30.55691,-2.27342c10.09048,-3.32865 26.02875,6.55744 29.82071,7.885c28.36831,9.9317 22.76958,21.47431 22.76958,39.99312z" fill="url(#color-3)"/><path d="M202.02687,202.45209c0,26.26944 -39.54927,39.93497 -95.55647,49.15452c-17.51349,2.88297 -36.63625,13.28411 -56.66224,13.28411c-16.97792,0 -31.25702,-13.58349 -45.70151,-14.444c-57.07901,-3.40049 -94.15428,-1.37602 -94.15428,-28.89574c0,-10.06558 -7.55843,-14.88739 -7.21513,-27.16624c0.20425,-7.30516 14.02287,-16.54799 23.07639,-20.19525c8.63114,-3.47709 17.57779,-1.57751 24.71177,-9.18646c1.94456,-2.07401 17.42004,3.06082 24.97216,-0.10324c6.19783,-2.59667 4.53639,-13.66069 7.15272,-14.38946c20.25641,-5.64231 30.68989,-19.3117 54.79497,-19.3117c4.30991,0 16.60176,-8.00384 27.05339,-8.13504c9.07649,-0.11393 16.38527,7.51522 20.60838,8.97212c21.08479,7.27397 18.51109,20.06555 33.77267,24.81169c5.01983,1.5611 20.2795,1.11691 30.55691,-2.27342c10.09048,-3.32865 26.02875,6.55744 29.82071,7.885c28.36831,9.9317 22.76958,21.47431 22.76958,39.99312z" fill="url(#color-4)"/><path d="M395.02687,261.45209c0,26.26944 -39.54927,39.93497 -95.55647,49.15452c-17.51349,2.88297 -36.63625,13.28411 -56.66224,13.28411c-16.97792,0 -31.25702,-13.58349 -45.70151,-14.444c-57.07901,-3.40049 -94.15428,-1.37602 -94.15428,-28.89574c0,-10.06558 -7.55843,-14.88739 -7.21513,-27.16624c0.20425,-7.30516 14.02287,-16.54799 23.07639,-20.19525c8.63114,-3.47709 17.57779,-1.57751 24.71177,-9.18646c1.94456,-2.07401 17.42004,3.06082 24.97216,-0.10324c6.19783,-2.59667 4.53639,-13.66069 7.15272,-14.38946c20.25641,-5.64231 30.68989,-19.3117 54.79497,-19.3117c4.30991,0 16.60176,-8.00384 27.05339,-8.13504c9.07649,-0.11393 16.38527,7.51522 20.60838,8.97212c21.08479,7.27397 18.51109,20.06555 33.77267,24.81169c5.01983,1.5611 20.2795,1.11691 30.55691,-2.27342c10.09048,-3.32865 26.02875,6.55744 29.82071,7.885c28.36831,9.9317 22.76958,21.47431 22.76958,39.99312z" fill="url(#color-5)"/><path d="M543.02687,97.45209c0,26.26944 -39.54927,39.93497 -95.55647,49.15452c-17.51349,2.88297 -36.63625,13.28411 -56.66224,13.28411c-16.97792,0 -31.25702,-13.58349 -45.70151,-14.444c-57.07901,-3.40049 -94.15428,-1.37602 -94.15428,-28.89574c0,-10.06558 -7.55843,-14.88739 -7.21513,-27.16624c0.20425,-7.30516 14.02287,-16.54799 23.07639,-20.19525c8.63114,-3.47709 17.57779,-1.57751 24.71177,-9.18646c1.94456,-2.07401 17.42004,3.06082 24.97216,-0.10324c6.19783,-2.59667 4.53639,-13.66069 7.15272,-14.38946c20.25641,-5.64231 30.68989,-19.3117 54.79497,-19.3117c4.30991,0 16.60176,-8.00384 27.05339,-8.13504c9.07649,-0.11393 16.38527,7.51522 20.60838,8.97212c21.08479,7.27397 18.51109,20.06555 33.77267,24.81169c5.01983,1.5611 20.2795,1.11691 30.55691,-2.27342c10.09048,-3.32865 26.02875,6.55744 29.82071,7.885c28.36831,9.9317 22.76958,21.47431 22.76958,39.99312z" fill="url(#color-6)"/><path d="M370.02688,31.45209c0,26.26944 -39.54927,39.93497 -95.55647,49.15452c-17.51349,2.88297 -36.63625,13.28411 -56.66224,13.28411c-16.97792,0 -31.25702,-13.58349 -45.70151,-14.444c-57.07901,-3.40049 -94.15428,-1.37602 -94.15428,-28.89574c0,-10.06558 -7.55843,-14.88739 -7.21513,-27.16624c0.20425,-7.30516 14.02287,-16.54799 23.07639,-20.19525c8.63114,-3.47709 17.57779,-1.57751 24.71177,-9.18646c1.94456,-2.07401 17.42004,3.06082 24.97216,-0.10324c6.19783,-2.59667 4.53639,-13.66069 7.15272,-14.38946c20.25641,-5.64231 30.68989,-19.3117 54.79497,-19.3117c4.30991,0 16.60176,-8.00384 27.05339,-8.13504c9.07649,-0.11393 16.38527,7.51522 20.60838,8.97212c21.08479,7.27397 18.51109,20.06555 33.77267,24.81169c5.01983,1.5611 20.2795,1.11691 30.55691,-2.27342c10.09048,-3.32865 26.02875,6.55744 29.82071,7.885c28.36831,9.9317 22.76958,21.47431 22.76958,39.99312z" fill="url(#color-7)"/></g></g></svg>