<svg version="1.1" xmlns="http://www.w3.org/2000/svg" xmlns:xlink="http://www.w3.org/1999/xlink" width="129.62116" height="74.12683" viewBox="0,0,129.62116,74.12683"><g transform="translate(-173.57437,-125.55702)"><g data-paper-data="{&quot;isPaintingLayer&quot;:true}" fill-rule="nonzero" stroke="none" stroke-linecap="butt" stroke-linejoin="miter" stroke-miterlimit="10" stroke-dasharray="" stroke-dashoffset="0" style="mix-blend-mode: normal"><path d="M176.80449,199.68385v-39.3677h126.39105v39.3677z" fill="#00c1ff" stroke-width="0"/><text transform="translate(180.00001,185.76875) scale(0.5,0.5)" font-size="40" xml:space="preserve" fill="#86e1ff" fill-rule="nonzero" stroke="none" stroke-width="1" stroke-linecap="butt" stroke-linejoin="miter" stroke-miterlimit="10" stroke-dasharray="" stroke-dashoffset="0" font-family="Sans Serif" font-weight="normal" text-anchor="start" style="mix-blend-mode: normal"><tspan x="0" dy="0">恭喜完成飞行</tspan></text><g stroke-width="1"><g fill="#a9a9a9"><path d="M198.3849,126.30131c-2.89459,0 -5.2929,2.39836 -5.45831,5.2929c0,2.56377 1.8194,4.6313 4.30048,5.12753c-1.81944,4.21779 -6.03723,7.19507 -10.99935,7.19507c-1.57134,0 -3.05996,-0.33082 -4.46589,-0.90974c0.82701,-0.74433 1.40593,-1.98485 1.40593,-3.22537c0,-2.48108 -1.98485,-4.46589 -4.46593,-4.46589c-2.48104,0 -4.46589,1.90212 -4.46589,4.46589c0,2.56377 2.06753,4.54858 4.54861,4.54858c0.2481,0 0.49619,-0.08269 0.74429,-0.08269c0.99242,6.11992 3.05996,11.82637 6.03723,17.03658c3.96966,1.57134 8.27018,2.48108 12.81879,2.48108c4.54858,0 8.84913,-0.82705 12.81879,-2.48108c2.97727,-5.12753 5.04481,-10.91663 6.03723,-17.03658c0.16541,0 0.41351,0 0.57892,0c2.48104,0 4.46593,-1.98485 4.46593,-4.46589c0,-2.48108 -1.98485,-4.46589 -4.46593,-4.46589c-2.48108,0 -4.46589,1.98485 -4.46589,4.46589c0,1.32321 0.49619,2.48104 1.40593,3.30806c-1.32324,0.49619 -2.81186,0.82701 -4.3832,0.82701c-4.8794,0 -9.09719,-2.89455 -10.99931,-7.19507c2.48104,-0.41351 4.30048,-2.56373 4.30048,-5.12753c0,-2.89459 -2.39836,-5.2929 -5.2929,-5.2929M198.3849,125.55702c3.30809,0 6.03723,2.72914 6.11992,5.95451c0,2.48108 -1.65403,4.79671 -3.9697,5.62372c1.90212,3.63888 5.70641,5.95454 9.9242,5.95454c1.07515,0 2.06757,-0.16541 3.06,-0.41351c-0.57892,-0.90974 -0.90974,-1.90212 -0.90974,-2.97727c0,-2.89459 2.39832,-5.2929 5.2929,-5.2929c2.89459,0 5.2929,2.39836 5.2929,5.2929c0,2.89459 -2.31563,5.2929 -5.21022,5.2929c-0.99242,5.87182 -2.97724,11.49555 -5.95451,16.62304c-0.08272,0.16541 -0.2481,0.24813 -0.41351,0.33082c-4.21779,1.73671 -8.601,2.56373 -13.14957,2.56373c-4.54858,0 -8.93182,-0.82701 -13.14957,-2.56373c-0.16541,-0.08272 -0.33082,-0.16541 -0.41351,-0.33082c-2.89459,-5.21022 -4.96208,-10.75126 -5.95454,-16.62304h-0.08269c-2.89459,0 -5.2929,-2.39836 -5.2929,-5.2929c0,-2.89459 2.31563,-5.21022 5.21022,-5.21022c2.89455,0 5.2929,2.39836 5.2929,5.29294c0,0.99242 -0.24813,2.06753 -0.82705,2.89459c0.99242,0.33078 2.06753,0.49619 3.14268,0.49619c4.21779,0 8.02208,-2.31567 9.9242,-5.95454c-2.39836,-0.82701 -3.96966,-3.05996 -3.96966,-5.62372c0,-3.30806 2.72914,-6.03723 6.03723,-6.03723z"/></g><path d="M210.37664,143.91681c2.72914,0 5.21022,-0.90974 7.19507,-2.39836c-0.74433,7.11234 -2.97727,13.81121 -6.36805,19.76572c-3.96966,1.57134 -8.27018,2.48108 -12.81879,2.48108c-4.54858,0 -8.84913,-0.82705 -12.81879,-2.48108c-3.39078,-5.95451 -5.62372,-12.65338 -6.36805,-19.76572c1.98485,1.48865 4.46593,2.39836 7.19507,2.39836c6.61615,0 11.99178,-5.37559 11.99178,-11.99178c0,6.69887 5.37559,12.07446 11.99178,11.99178z" fill="#f9f9f9"/><path d="M212.775,158.30691c-0.49619,1.07515 -0.99239,2.06753 -1.5713,3.06c-3.96966,1.57134 -8.27018,2.48108 -12.81879,2.48108c-4.54858,0 -8.84913,-0.82705 -12.81879,-2.48108c-0.66164,-0.99242 -1.15783,-2.06753 -1.73675,-3.22537c4.46589,1.98485 9.51073,3.14265 14.72095,3.14265c5.12749,0 9.9242,-1.07515 14.22468,-2.97727z" fill="#e4e3e1"/><path d="M198.55031,161.28418c5.12749,0 9.9242,-1.07515 14.30741,-2.97727c-0.08272,0.16541 -0.16541,0.24813 -0.16541,0.33082c-4.21779,2.15026 -9.09719,3.39078 -14.142,3.39078c-5.29294,0 -10.25502,-1.32321 -14.63823,-3.63888c0,-0.08272 -0.08269,-0.16537 -0.08269,-0.2481c4.46589,1.98485 9.51073,3.14265 14.72095,3.14265z" fill="#cdcccb"/><path d="M218.48145,142.59357c-1.48865,-0.57892 -2.15026,-3.47347 -3.4735,-4.54861c-0.2481,-0.2481 -0.57892,-0.49619 -0.9097,-0.6616c0.82701,-1.24052 2.23295,-2.06753 3.80429,-2.06753c2.48108,0 4.46593,1.98485 4.46593,4.46589c0,0.90974 -0.33082,1.81944 -0.74433,2.56377c-1.07515,0.33078 -2.23295,0.6616 -3.14268,0.2481z" fill="#f9f9f9"/><path d="M214.92526,138.04499c1.32324,1.07515 1.98481,4.05238 3.47347,4.54861c0.90974,0.41351 2.06753,0.08269 3.14268,-0.2481c-0.82701,1.24052 -2.15026,1.98485 -3.7216,1.98485c-2.48108,0 -4.46589,-1.98481 -4.46589,-4.46589c0,-0.90974 0.2481,-1.73675 0.74433,-2.48108c0.2481,0.16541 0.57895,0.41354 0.82701,0.6616z" fill="#e4e3e1"/><path d="M219.39115,135.89474c0.90974,0.6616 3.22537,4.13511 0.57892,3.9697c-1.57134,-0.16541 -1.40593,-2.48108 -0.99242,-3.4735z" fill="#ffffff"/><path d="M203.2643,133.49638c-0.74433,1.98485 -2.72918,3.39078 -4.96212,3.39078c-2.81186,0 -5.21022,-2.39836 -5.21022,-5.2929c0,-0.41351 0,-0.74433 0.08269,-1.15783c1.40593,0.16541 2.64645,1.15783 4.30052,2.39836c2.15022,1.57134 4.13511,1.57134 5.78913,0.66164z" fill="#e4e3e1"/><path d="M203.67781,131.59426c0,0.57892 -0.08272,1.24052 -0.33082,1.81944c-1.73671,0.90974 -3.63888,0.90974 -5.7891,-0.6616c-1.65403,-1.15783 -2.89459,-2.23295 -4.30052,-2.39836c0.57892,-2.31567 2.64645,-4.05238 5.12753,-4.05238c2.89459,0 5.2929,2.39836 5.2929,5.2929z" fill="#f9f9f9"/><path d="M199.12919,127.70725c2.89459,-0.16541 1.65407,4.13507 -0.82701,2.48104c-1.15783,-0.82701 -0.66164,-2.15026 0.33078,-2.48104z" fill="#ffffff"/><path d="M200.78326,153.84102l0.74429,4.3832l-3.88697,-2.06757l-3.88701,2.06757l0.74433,-4.3832l-3.14268,-3.05996l4.30052,-0.57892l1.98485,-3.9697l1.90212,3.9697l4.3832,0.57892z" fill="#d1d5d7"/><g><path d="M198.3849,151.52539l-1.90212,-2.06753l1.90212,-3.96966z" fill="#c7cdcc"/><path d="M198.30218,151.52539l-6.28533,-1.40593l4.3832,-0.6616z" fill="#eeeeee"/><path d="M192.09954,157.4799v-11.99174h12.57069v11.99174z" fill="none"/><path d="M198.46759,151.52539v-6.03723l1.90212,3.96966z" fill="#eeeeee"/><path d="M198.3849,151.52539l1.90212,-2.06753l4.3832,0.6616z" fill="#ffffff"/><path d="M198.3849,151.52539l6.28537,-1.40593l-3.14268,3.05996z" fill="#b4b9b8"/><path d="M201.52755,153.09673l0.74433,4.38317l-3.88697,-5.95451z" fill="#ffffff"/><path d="M198.3849,151.52539l-3.14268,1.65403l-3.14268,-3.05996z" fill="#b4b9b8"/><path d="M192.09954,157.4799v-11.99174h12.57069v11.99174z" fill="none"/><path d="M198.3849,151.60807l-3.88701,5.95451l0.74433,-4.3832z" fill="#eeeeee"/><path d="M198.3849,151.52539v3.88701l-3.88701,2.06753z" fill="#c7cdcc"/><path d="M202.27188,157.56262l-3.88697,-2.06753v-3.96966z" fill="#eeeeee"/></g><path d="M181.84451,143.25521c11.57823,3.39078 15.38252,-6.36805 15.38252,-6.36805c-4.13507,13.14957 -15.38252,6.36805 -15.38252,6.36805z" fill="#e4e3e1"/><path d="M199.46001,136.88716c0,0 3.80429,9.75883 15.38252,6.36805c0.08269,0 -11.16476,6.78152 -15.38252,-6.36805z" fill="#e4e3e1"/><path d="M191.93416,163.26903c-2.23295,-0.41351 -4.3832,-1.07511 -6.45074,-1.90212c-3.39078,-5.95451 -5.62372,-12.65338 -6.36805,-19.76572c0.33078,0.2481 0.66164,0.49619 0.99242,0.6616c1.40593,8.43559 5.78913,15.79603 11.82637,21.00624z" fill="#cdcccb" opacity="0.5"/><path d="M174.98027,142.34547c-0.41351,-0.74433 -0.74433,-1.65403 -0.74433,-2.56377c0,-2.48108 2.06753,-4.46589 4.54861,-4.46589c1.57134,0 2.97727,0.82701 3.80429,2.06753c-0.33082,0.16541 -0.66164,0.41354 -0.90974,0.6616c-1.32321,1.07515 -1.98485,3.9697 -3.4735,4.54861c-0.99242,0.41351 -2.06753,0.08269 -3.22537,-0.2481z" fill="#f9f9f9"/><path d="M182.50615,137.38335c0.49623,0.74433 0.74433,1.57134 0.74433,2.48108c0,2.48108 -1.98481,4.46589 -4.46589,4.46589c-1.57134,0 -2.89459,-0.74433 -3.7216,-1.98485c1.07515,0.33078 2.23295,0.6616 3.14265,0.2481c1.48865,-0.49619 2.15026,-3.47347 3.4735,-4.54861c0.2481,-0.2481 0.57892,-0.49619 0.82701,-0.6616z" fill="#e4e3e1"/><path d="M180.02507,138.04499c-0.08269,1.24052 -1.98481,1.90212 -2.64645,0.6616c-0.41351,-0.82701 -0.16541,-1.40593 0.33082,-1.81944c-0.08272,0 -0.08272,0 0,0c0.9097,-0.74433 2.39836,-0.33082 2.31563,1.15783z" fill="#ffffff"/><path d="M211.6172,160.45717c-0.16541,0.33078 -0.33078,0.66164 -0.49619,0.90974c-3.96966,1.57134 -8.27018,2.48108 -12.81879,2.48108c-4.54858,0 -8.84909,-0.82705 -12.81879,-2.48108c-0.08272,-0.2481 -0.2481,-0.57892 -0.41351,-0.82701c3.96966,1.90212 8.51827,2.97727 13.2323,2.97727c4.79671,0 9.34532,-1.07511 13.31498,-3.05996z" fill="#cdcccb"/><path d="M185.06992,153.17942c0,-0.41108 0.33325,-0.74429 0.74433,-0.74429c0.41108,0 0.74433,0.33321 0.74433,0.74429c0,0.41108 -0.33325,0.74433 -0.74433,0.74433c-0.41108,0 -0.74433,-0.33325 -0.74433,-0.74433z" fill="#cdcccb" opacity="0.5"/><path d="M189.86659,154.41994c0,-0.41108 0.33325,-0.74433 0.74433,-0.74433c0.41108,0 0.74433,0.33325 0.74433,0.74433c0,0.41108 -0.33321,0.74433 -0.74433,0.74433c-0.41108,0 -0.74433,-0.33321 -0.74433,-0.74433z" fill="#cdcccb" opacity="0.5"/><path d="M209.79776,153.17942c0,-0.41108 0.33325,-0.74429 0.74433,-0.74429c0.41108,0 0.74429,0.33321 0.74429,0.74429c0,0.41108 -0.33321,0.74433 -0.74429,0.74433c-0.41108,0 -0.74433,-0.33325 -0.74433,-0.74433z" fill="#cdcccb" opacity="0.5"/><path d="M204.91833,154.41994c0,-0.41108 0.33321,-0.74433 0.74429,-0.74433c0.41108,0 0.74433,0.33325 0.74433,0.74433c0,0.41108 -0.33325,0.74433 -0.74433,0.74433c-0.41108,0 -0.74429,-0.33321 -0.74429,-0.74433z" fill="#cdcccb" opacity="0.5"/><path d="M185.31802,152.93132c0,-0.41108 0.33321,-0.74433 0.74433,-0.74433c0.41108,0 0.74433,0.33321 0.74433,0.74433c0,0.41108 -0.33325,0.74433 -0.74433,0.74433c-0.41108,0 -0.74433,-0.33321 -0.74433,-0.74433z" fill="#ffffff"/><path d="M190.19741,154.17184c0,-0.41108 0.33321,-0.74433 0.74433,-0.74433c0.41108,0 0.74433,0.33321 0.74433,0.74433c0,0.41108 -0.33321,0.74433 -0.74433,0.74433c-0.41108,0 -0.74433,-0.33325 -0.74433,-0.74433z" fill="#ffffff"/><path d="M210.04586,152.93132c0,-0.41108 0.33321,-0.74433 0.74433,-0.74433c0.41108,0 0.74433,0.33321 0.74433,0.74433c0,0.41108 -0.33325,0.74433 -0.74433,0.74433c-0.41108,0 -0.74433,-0.33321 -0.74433,-0.74433z" fill="#ffffff"/><path d="M205.16642,154.17184c0,-0.41108 0.33325,-0.74433 0.74433,-0.74433c0.41108,0 0.74433,0.33321 0.74433,0.74433c0,0.41108 -0.33321,0.74433 -0.74433,0.74433c-0.41108,0 -0.74433,-0.33325 -0.74433,-0.74433z" fill="#ffffff"/></g></g></g></svg>