<svg version="1.1" xmlns="http://www.w3.org/2000/svg" xmlns:xlink="http://www.w3.org/1999/xlink" width="2736.38211" height="456.06183" viewBox="0,0,2736.38211,456.06183"><defs><linearGradient x1="624.33924" y1="-90.89915" x2="624.33924" y2="301.21091" gradientUnits="userSpaceOnUse" id="color-1"><stop offset="0" stop-color="#52d4ff"/><stop offset="1" stop-color="#b9e3f0"/></linearGradient><linearGradient x1="1669.81425" y1="-79.50205" x2="1669.81425" y2="312.20495" gradientUnits="userSpaceOnUse" id="color-2"><stop offset="0" stop-color="#52d4ff"/><stop offset="1" stop-color="#b9e3f0"/></linearGradient><linearGradient x1="-39.42805" y1="222.30883" x2="-39.42805" y2="238.03876" gradientUnits="userSpaceOnUse" id="color-3"><stop offset="0" stop-color="#ffffff"/><stop offset="1" stop-color="#a1c6d1"/></linearGradient><linearGradient x1="1424.63269" y1="-95.8647" x2="1424.63269" y2="293.02419" gradientUnits="userSpaceOnUse" id="color-4"><stop offset="0" stop-color="#54d4ff"/><stop offset="1" stop-color="#b7e3f0"/></linearGradient><linearGradient x1="493.68716" y1="-19.76961" x2="493.68716" y2="5.21915" gradientUnits="userSpaceOnUse" id="color-5"><stop offset="0" stop-color="#ffffff"/><stop offset="1" stop-color="#c7d2c7"/></linearGradient><linearGradient x1="432.35076" y1="34.78921" x2="432.35076" y2="59.77798" gradientUnits="userSpaceOnUse" id="color-6"><stop offset="0" stop-color="#ffffff"/><stop offset="1" stop-color="#bfcbd1"/></linearGradient><linearGradient x1="369.05145" y1="5.73096" x2="369.05145" y2="30.71972" gradientUnits="userSpaceOnUse" id="color-7"><stop offset="0" stop-color="#efefef"/><stop offset="1" stop-color="#abb4ab"/></linearGradient><linearGradient x1="635.86807" y1="91.55727" x2="635.86807" y2="116.54604" gradientUnits="userSpaceOnUse" id="color-8"><stop offset="0" stop-color="#ffffff"/><stop offset="1" stop-color="#dae6da"/></linearGradient><linearGradient x1="607.87481" y1="109.26549" x2="607.87481" y2="134.25426" gradientUnits="userSpaceOnUse" id="color-9"><stop offset="0" stop-color="#efefef"/><stop offset="1" stop-color="#abb4ab"/></linearGradient><linearGradient x1="521.78706" y1="20.00711" x2="521.78706" y2="44.99587" gradientUnits="userSpaceOnUse" id="color-10"><stop offset="0" stop-color="#efefef"/><stop offset="1" stop-color="#abb4ab"/></linearGradient></defs><g transform="translate(847.22731,95.8647)"><g data-paper-data="{&quot;isPaintingLayer&quot;:true}" fill-rule="nonzero" stroke-linejoin="miter" stroke-miterlimit="10" stroke-dasharray="" stroke-dashoffset="0" style="mix-blend-mode: normal"><path d="M-60.38445,301.21091v-392.11008h1369.44742v392.11008z" fill="url(#color-1)" stroke="none" stroke-width="0" stroke-linecap="butt"/><path d="M-686.56965,299.52916l58,1l-8,8l-58,-1z" fill="#ffffff" stroke="#ffffff" stroke-width="0" stroke-linecap="round"/><path d="M-839.2273,298.52315l58,1l-8,8l-58,-1z" fill="#ffffff" stroke="#ffffff" stroke-width="0" stroke-linecap="round"/><path d="M1406.74634,326.49439l57.54139,1l-7.93674,8l-57.54139,-1z" fill="#ffffff" stroke="#888888" stroke-width="0" stroke-linecap="round"/><path d="M1483.3317,316.47938l58,1l-8,8l-58,-1z" fill="#ffffff" stroke="#888888" stroke-width="0" stroke-linecap="round"/><path d="M1470.24898,337.54622l57.54139,1l-7.93674,8l-57.54139,-1z" fill="#ffffff" stroke="#888888" stroke-width="0" stroke-linecap="round"/><path d="M1450.47369,312.20495v-391.70699h438.68112v391.70699z" fill="url(#color-2)" stroke="#888888" stroke-width="0" stroke-linecap="butt"/><path d="M1488.57903,333.96416l58,1l-8,8l-58,-1z" fill="#ffffff" stroke="#888888" stroke-width="0" stroke-linecap="round"/><path d="M1639.22468,334.45961l58,1l-8,8l-58,-1z" fill="#ffffff" stroke="#888888" stroke-width="0" stroke-linecap="round"/><path d="M719.48276,360.19713v-63h758.02902v63z" fill="#888888" stroke="#888888" stroke-width="0" stroke-linecap="butt"/><path d="M-62.10182,360.04841v-65.30947h1611.37775v65.30947z" fill="#888888" stroke="#888888" stroke-width="0" stroke-linecap="butt"/><path d="M296.9035,318.68646l58,1l-8,8l-58,-1z" fill="#ffffff" stroke="#888888" stroke-width="0" stroke-linecap="round"/><path d="M447.54914,319.18191l58,1l-8,8l-58,-1z" fill="#ffffff" stroke="#888888" stroke-width="0" stroke-linecap="round"/><path d="M592.12415,319.67743l58,1l-8,8l-58,-1z" fill="#ffffff" stroke="#888888" stroke-width="0" stroke-linecap="round"/><path d="M922.84242,318.19094l58,1l-8,8l-58,-1z" fill="#ffffff" stroke="#888888" stroke-width="0" stroke-linecap="round"/><path d="M770.18475,317.18493l58,1l-8,8l-58,-1z" fill="#ffffff" stroke="#888888" stroke-width="0" stroke-linecap="round"/><path d="M588.97051,241.05596l3.003,15.01502l51.05105,7.50751l69.06907,31.53153l-63.06306,3.003l-19.51952,-15.01502l-48.04805,-12.01201l-34.53453,9.00901l-31.53153,19.51952l-82.58258,-3.003l90.09009,-25.52553l54.05405,-15.01502v-15.01502z" fill="#888888" stroke="#888888" stroke-width="0" stroke-linecap="round"/><path d="M558.94048,298.11301v-22.52252h52.55255v22.52252z" fill="#ffea00" stroke="#888888" stroke-width="0" stroke-linecap="butt"/><text transform="translate(563.59484,295.63224) scale(0.55342,0.53266)" font-size="40" xml:space="preserve" fill="#ff0000" fill-rule="nonzero" stroke="#888888" stroke-width="0" stroke-linecap="butt" stroke-linejoin="miter" stroke-miterlimit="10" stroke-dasharray="" stroke-dashoffset="0" font-family="Sans Serif" font-weight="normal" text-anchor="start" style="mix-blend-mode: normal"><tspan x="0" dy="0">EXIT</tspan></text><path d="M157.56169,317.91279l58,1l-8,8l-58,-1z" fill="#ffffff" stroke="#888888" stroke-width="0" stroke-linecap="round"/><path d="M12.44623,317.13912l58,1l-8,8l-58,-1z" fill="#ffffff" stroke="#888888" stroke-width="0" stroke-linecap="round"/><path d="M473.51656,238.85211l-537.41943,1.60199" fill="none" stroke="#888888" stroke-width="0" stroke-linecap="round"/><path d="M1001.03909,237.8461l-537.41943,1.60199" fill="none" stroke="#888888" stroke-width="0" stroke-linecap="round"/><path d="M-20.22753,238.24416v-13.4356h1.69875v13.4356z" fill="#000000" stroke="#888888" stroke-width="0" stroke-linecap="butt"/><path d="M-19.04301,238.03876l-40.46123,-0.15443l-1.08102,-12.66343c0,0 5.07378,-2.62535 9.42036,-2.62535c2.55393,0 7.12452,2.44473 12.04542,2.30609c3.56857,-0.10055 7.32138,-2.87759 10.62292,-2.56887c5.9009,0.55177 10.22572,2.88813 10.22572,2.88813z" fill="url(#color-3)" stroke="#888888" stroke-width="0" stroke-linecap="round"/><text transform="translate(-50.08389,228.77284) scale(0.09776,0.09776)" font-size="40" xml:space="preserve" fill="#c3c3c3" fill-rule="nonzero" stroke="#888888" stroke-width="0" stroke-linecap="butt" stroke-linejoin="miter" stroke-miterlimit="10" stroke-dasharray="" stroke-dashoffset="0" font-family="Sans Serif" font-weight="normal" text-anchor="start" style="mix-blend-mode: normal"><tspan x="0" dy="0">GITBLOCK</tspan></text><path d="M-59.04094,228.92727h39.99793" fill="none" stroke="#888888" stroke-width="0" stroke-linecap="round"/><path d="M-19.66077,231.86148l-39.68906,-0.15443" fill="none" stroke="#888888" stroke-width="0" stroke-linecap="round"/><path d="M-59.50427,233.8691l39.99793,-0.15443" fill="none" stroke="#888888" stroke-width="0" stroke-linecap="round"/><path d="M-58.42322,238.1932l5.25069,-4.16967l6.02286,4.16967l6.48615,-4.3241l7.25831,4.3241l6.17729,-4.47853l7.25831,4.16966" fill="none" stroke="#888888" stroke-width="0" stroke-linecap="round"/><path d="M-52.51093,295.01942l12.01202,-54.05405l18.01802,55.55555z" fill="#888888" stroke="#888888" stroke-width="0" stroke-linecap="round"/><path d="M1147.66133,237.46863h-292.79279" fill="none" stroke="#888888" stroke-width="0" stroke-linecap="round"/><path d="M1194.90296,293.02419v-388.88889h459.45946v388.88889z" fill="url(#color-4)" stroke="none" stroke-width="NaN" stroke-linecap="butt"/><path d="M1219.9854,240.21789h-1264" fill="none" stroke="#888888" stroke-width="1.5" stroke-linecap="round"/><path d="M524.14714,-7.27523c0,5.25669 -7.91408,7.99125 -19.12149,9.83614c-3.50456,0.5769 -7.33115,2.65824 -11.33849,2.65824c-3.3974,0 -6.25473,-2.71814 -9.14517,-2.89034c-11.42189,-0.68046 -18.8409,-0.27535 -18.8409,-5.78223c0,-2.01419 -1.51249,-2.97906 -1.44379,-5.43614c0.04087,-1.46181 2.80607,-3.31137 4.61774,-4.04121c1.72715,-0.69579 3.51743,-0.31567 4.94499,-1.83827c0.38912,-0.41503 3.48587,0.61249 4.9971,-0.02066c1.24023,-0.51961 0.90776,-2.73359 1.4313,-2.87942c4.05344,-1.12907 6.14125,-3.8644 10.96483,-3.8644c0.86244,0 3.32213,-1.60162 5.41357,-1.62788c1.81626,-0.0228 3.2788,1.50385 4.12387,1.79538c4.2192,1.45557 3.70419,4.01525 6.75814,4.96499c1.0045,0.31239 4.05806,0.2235 6.11464,-0.45493c2.01917,-0.66609 5.20853,1.31218 5.96732,1.57784c5.67668,1.9874 4.55634,4.29715 4.55634,8.00289z" fill="url(#color-5)" stroke="none" stroke-width="0" stroke-linecap="butt"/><path d="M462.81074,47.28359c0,5.25669 -7.91408,7.99125 -19.12149,9.83614c-3.50456,0.5769 -7.33115,2.65824 -11.33849,2.65824c-3.3974,0 -6.25474,-2.71815 -9.14518,-2.89034c-11.42189,-0.68046 -18.84089,-0.27535 -18.84089,-5.78223c0,-2.01419 -1.51249,-2.97906 -1.4438,-5.43615c0.04087,-1.46181 2.80607,-3.31136 4.61774,-4.0412c1.72715,-0.69579 3.51743,-0.31567 4.94499,-1.83828c0.38912,-0.41503 3.48586,0.61249 4.99709,-0.02066c1.24023,-0.51961 0.90776,-2.7336 1.43131,-2.87943c4.05344,-1.12907 6.14125,-3.8644 10.96483,-3.8644c0.86244,0 3.32213,-1.60162 5.41356,-1.62788c1.81627,-0.0228 3.2788,1.50385 4.12387,1.79538c4.2192,1.45557 3.70419,4.01525 6.75813,4.96499c1.0045,0.31239 4.05806,0.2235 6.11464,-0.45493c2.01917,-0.66609 5.20853,1.31218 5.96733,1.57784c5.67669,1.9874 4.55634,4.29715 4.55634,8.00289z" fill="url(#color-6)" stroke="none" stroke-width="0" stroke-linecap="butt"/><path d="M399.51143,18.22534c0,5.25669 -7.91407,7.99125 -19.12148,9.83615c-3.50456,0.5769 -7.33116,2.65824 -11.33849,2.65824c-3.3974,0 -6.25474,-2.71815 -9.14517,-2.89034c-11.42189,-0.68046 -18.8409,-0.27535 -18.8409,-5.78223c0,-2.01419 -1.51249,-2.97906 -1.4438,-5.43614c0.04087,-1.46181 2.80607,-3.31136 4.61774,-4.0412c1.72715,-0.69579 3.51743,-0.31567 4.94499,-1.83828c0.38912,-0.41503 3.48586,0.61249 4.9971,-0.02066c1.24023,-0.51961 0.90776,-2.7336 1.4313,-2.87943c4.05344,-1.12907 6.14126,-3.8644 10.96484,-3.8644c0.86244,0 3.32212,-1.60162 5.41356,-1.62788c1.81627,-0.0228 3.27881,1.50384 4.12387,1.79538c4.21921,1.45557 3.70419,4.01525 6.75814,4.96499c1.0045,0.31239 4.05806,0.2235 6.11464,-0.45493c2.01917,-0.66609 5.20853,1.31219 5.96732,1.57784c5.67668,1.9874 4.55634,4.29715 4.55634,8.00289z" fill="url(#color-7)" stroke="none" stroke-width="0" stroke-linecap="butt"/><path d="M666.32804,104.05165c0,5.25669 -7.91408,7.99125 -19.12149,9.83614c-3.50456,0.5769 -7.33115,2.65824 -11.33849,2.65824c-3.39739,0 -6.25473,-2.71814 -9.14517,-2.89034c-11.42189,-0.68046 -18.8409,-0.27535 -18.8409,-5.78223c0,-2.01419 -1.51249,-2.97907 -1.4438,-5.43615c0.04087,-1.46181 2.80607,-3.31136 4.61774,-4.0412c1.72715,-0.69579 3.51743,-0.31567 4.94499,-1.83827c0.38912,-0.41503 3.48587,0.61249 4.9971,-0.02066c1.24023,-0.51961 0.90776,-2.7336 1.4313,-2.87943c4.05344,-1.12906 6.14125,-3.8644 10.96483,-3.8644c0.86244,0 3.32213,-1.60162 5.41357,-1.62788c1.81627,-0.0228 3.27881,1.50385 4.12387,1.79539c4.2192,1.45557 3.70419,4.01525 6.75813,4.96498c1.0045,0.31238 4.05806,0.2235 6.11464,-0.45493c2.01917,-0.66608 5.20853,1.31218 5.96732,1.57784c5.67669,1.9874 4.55634,4.29716 4.55634,8.00289z" fill="url(#color-8)" stroke="none" stroke-width="0" stroke-linecap="butt"/><path d="M638.33479,121.75987c0,5.25669 -7.91407,7.99125 -19.12148,9.83614c-3.50456,0.5769 -7.33115,2.65824 -11.33849,2.65824c-3.39739,0 -6.25473,-2.71814 -9.14517,-2.89034c-11.42189,-0.68046 -18.8409,-0.27535 -18.8409,-5.78223c0,-2.01419 -1.51249,-2.97907 -1.4438,-5.43615c0.04087,-1.46181 2.80606,-3.31136 4.61774,-4.0412c1.72715,-0.69579 3.51743,-0.31568 4.94499,-1.83828c0.38912,-0.41502 3.48587,0.6125 4.9971,-0.02065c1.24023,-0.51961 0.90776,-2.7336 1.4313,-2.87943c4.05344,-1.12906 6.14126,-3.8644 10.96484,-3.8644c0.86244,0 3.32212,-1.60162 5.41356,-1.62788c1.81627,-0.0228 3.27881,1.50385 4.12387,1.79538c4.2192,1.45557 3.70419,4.01525 6.75813,4.96498c1.0045,0.31239 4.05806,0.2235 6.11464,-0.45493c2.01917,-0.66608 5.20853,1.31218 5.96732,1.57784c5.67669,1.9874 4.55635,4.29716 4.55635,8.00289z" fill="url(#color-9)" stroke="none" stroke-width="0" stroke-linecap="butt"/><path d="M552.24703,32.50149c0,5.25669 -7.91407,7.99125 -19.12148,9.83614c-3.50456,0.5769 -7.33115,2.65824 -11.33849,2.65824c-3.39739,0 -6.25474,-2.71815 -9.14518,-2.89034c-11.42189,-0.68046 -18.84089,-0.27535 -18.84089,-5.78223c0,-2.01419 -1.51249,-2.97906 -1.4438,-5.43614c0.04087,-1.46181 2.80606,-3.31136 4.61774,-4.0412c1.72715,-0.69579 3.51743,-0.31567 4.94499,-1.83827c0.38912,-0.41503 3.48587,0.61249 4.9971,-0.02066c1.24023,-0.51961 0.90776,-2.73359 1.4313,-2.87942c4.05344,-1.12906 6.14126,-3.8644 10.96484,-3.8644c0.86244,0 3.32212,-1.60162 5.41356,-1.62787c1.81627,-0.0228 3.27881,1.50384 4.12388,1.79538c4.2192,1.45557 3.70419,4.01524 6.75813,4.96498c1.0045,0.31239 4.05806,0.2235 6.11464,-0.45493c2.01917,-0.66609 5.20853,1.31218 5.96732,1.57784c5.67669,1.9874 4.55635,4.29716 4.55635,8.00289z" fill="url(#color-10)" stroke="none" stroke-width="0" stroke-linecap="butt"/></g></g></svg>