<svg version="1.1" xmlns="http://www.w3.org/2000/svg" xmlns:xlink="http://www.w3.org/1999/xlink" width="76.89259" height="102.46223" viewBox="0,0,76.89259,102.46223"><defs><radialGradient cx="239.91567" cy="188.12477" r="50" gradientUnits="userSpaceOnUse" id="color-1"><stop offset="0" stop-color="#66d7ff"/><stop offset="1" stop-color="#1464ff"/></radialGradient><linearGradient x1="243.81672" y1="133.80541" x2="243.81672" y2="186.45832" gradientTransform="translate(-390.38691,-279.96222) scale(1.80786,1.82325)" gradientUnits="userSpaceOnUse" id="color-2"><stop offset="0" stop-color="#a5f200"/><stop offset="1" stop-color="#11ff00"/></linearGradient><linearGradient x1="224.65905" y1="186.92938" x2="224.65905" y2="208.02682" gradientUnits="userSpaceOnUse" id="color-3"><stop offset="0" stop-color="#ffebeb"/><stop offset="1" stop-color="#ffebeb" stop-opacity="0"/></linearGradient><linearGradient x1="230.77259" y1="191.19066" x2="230.77259" y2="212.2881" gradientUnits="userSpaceOnUse" id="color-4"><stop offset="0" stop-color="#ffebeb"/><stop offset="1" stop-color="#ffebeb" stop-opacity="0"/></linearGradient><linearGradient x1="249.03054" y1="203.09802" x2="249.03054" y2="224.19547" gradientUnits="userSpaceOnUse" id="color-5"><stop offset="0" stop-color="#ebfff9"/><stop offset="1" stop-color="#ebfff9" stop-opacity="0"/></linearGradient><linearGradient x1="250.91035" y1="197.3042" x2="250.91035" y2="218.40164" gradientUnits="userSpaceOnUse" id="color-6"><stop offset="0" stop-color="#ebfff9"/><stop offset="1" stop-color="#ebfff9" stop-opacity="0"/></linearGradient></defs><g transform="translate(-199.81017,-128.0845)"><g data-paper-data="{&quot;isPaintingLayer&quot;:true}" fill-rule="nonzero" stroke-linejoin="miter" stroke-miterlimit="10" stroke-dasharray="" stroke-dashoffset="0" style="mix-blend-mode: normal"><path d="M206.5,229.20618v-100h67v100z" fill="url(#color-1)" stroke="none" stroke-width="0" stroke-linecap="butt"/><path d="M273.41074,229.80786l-8.64868,0.20592c0,0 4.04329,-0.55135 5.67783,-2.6633c1.80297,-2.32957 2.76493,-6.60314 2.76493,-6.60314z" data-paper-data="{&quot;index&quot;:null}" fill="#affaf4" stroke="#affaf4" stroke-width="0.5" stroke-linecap="round"/><path d="M205.81703,221.03036c0,0 0.96196,4.27357 2.76493,6.60314c1.63454,2.11195 5.67783,2.6633 5.67783,2.6633l-8.64868,-0.20592z" data-paper-data="{&quot;index&quot;:null}" fill="#affaf4" stroke="#affaf4" stroke-width="0.5" stroke-linecap="round"/><text transform="translate(215.93862,153.55088) scale(0.55314,0.54847)" font-size="40" xml:space="preserve" fill="url(#color-2)" fill-rule="nonzero" stroke="none" stroke-width="1" stroke-linecap="butt" stroke-linejoin="miter" stroke-miterlimit="10" stroke-dasharray="" stroke-dashoffset="0" font-family="Sans Serif" font-weight="normal" text-anchor="start" style="mix-blend-mode: normal"><tspan x="0" dy="0">练习 </tspan><tspan x="0" dy="48px"> 模式</tspan></text><path d="M273.81271,137.60094c0,0 -0.96196,-4.27357 -2.76493,-6.60314c-1.63454,-2.11195 -5.67783,-2.6633 -5.67783,-2.6633l8.64868,0.20592z" data-paper-data="{&quot;index&quot;:null}" fill="#affaf4" stroke="#b0fecf" stroke-width="0.5" stroke-linecap="round"/><path d="M206.01086,128.7696l8.64868,-0.20592c0,0 -4.04329,0.55135 -5.67783,2.6633c-1.80297,2.32957 -2.76493,6.60314 -2.76493,6.60314z" data-paper-data="{&quot;index&quot;:null}" fill="#affaf4" stroke="#b0fecf" stroke-width="0.5" stroke-linecap="round"/><path d="M250.37571,197.4781c0,4.43811 -6.68166,6.74683 -16.14383,8.30443c-2.95882,0.48706 -6.18953,2.24429 -9.57283,2.24429c-2.86835,0 -5.28073,-2.29487 -7.72106,-2.44025c-9.64324,-0.5745 -15.90694,-0.23247 -15.90694,-4.88181c0,-1.70053 -1.27696,-2.51516 -1.21896,-4.58961c0.0345,-1.23417 2.3691,-2.7957 3.89866,-3.41189c1.45819,-0.58744 2.96968,-0.26652 4.17494,-1.55202c0.32853,-0.35039 2.94303,0.51711 4.21893,-0.01744c1.0471,-0.43869 0.7664,-2.30791 1.20842,-2.43104c3.42223,-0.95324 5.18491,-3.26262 9.25736,-3.26262c0.72814,0 2.80479,-1.35222 4.57055,-1.37439c1.53343,-0.01925 2.76822,1.26967 3.48169,1.51581c3.56218,1.2289 3.12736,3.38998 5.70574,4.19183c0.84808,0.26374 3.42613,0.18869 5.16245,-0.38409c1.70475,-0.56236 4.39745,1.10785 5.03807,1.33213c4.79269,1.67792 3.84681,3.62799 3.84681,6.75666z" data-paper-data="{&quot;index&quot;:null}" fill="url(#color-3)" stroke="none" stroke-width="0" stroke-linecap="butt"/><path d="M256.48925,201.73938c0,4.43811 -6.68166,6.74683 -16.14383,8.30443c-2.95882,0.48706 -6.18953,2.24429 -9.57283,2.24429c-2.86835,0 -5.28073,-2.29487 -7.72106,-2.44025c-9.64324,-0.5745 -15.90694,-0.23247 -15.90694,-4.88181c0,-1.70053 -1.27696,-2.51516 -1.21896,-4.58961c0.0345,-1.23417 2.3691,-2.7957 3.89866,-3.41189c1.45819,-0.58744 2.96968,-0.26652 4.17494,-1.55202c0.32853,-0.35039 2.94303,0.51711 4.21893,-0.01744c1.0471,-0.43869 0.7664,-2.30791 1.20842,-2.43104c3.42223,-0.95324 5.18491,-3.26262 9.25736,-3.26262c0.72814,0 2.80479,-1.35222 4.57055,-1.37439c1.53343,-0.01925 2.76822,1.26967 3.48169,1.51581c3.56218,1.2289 3.12736,3.38998 5.70574,4.19183c0.84808,0.26374 3.42613,0.18869 5.16245,-0.38409c1.70475,-0.56236 4.39745,1.10785 5.03807,1.33213c4.79269,1.67792 3.84681,3.62799 3.84681,6.75666z" fill="url(#color-4)" stroke="none" stroke-width="0" stroke-linecap="butt"/><path d="M274.7472,213.64674c0,4.43811 -6.68167,6.74683 -16.14383,8.30443c-2.95882,0.48706 -6.18953,2.24429 -9.57283,2.24429c-2.86835,0 -5.28073,-2.29487 -7.72106,-2.44025c-9.64324,-0.5745 -15.90694,-0.23247 -15.90694,-4.88181c0,-1.70053 -1.27696,-2.51515 -1.21896,-4.58961c0.0345,-1.23417 2.3691,-2.79571 3.89865,-3.4119c1.45819,-0.58744 2.96968,-0.26652 4.17494,-1.55201c0.32853,-0.35039 2.94304,0.51712 4.21894,-0.01744c1.0471,-0.43869 0.7664,-2.30791 1.20842,-2.43104c3.42223,-0.95324 5.18492,-3.26263 9.25736,-3.26263c0.72814,0 2.80479,-1.35221 4.57054,-1.37438c1.53343,-0.01925 2.76822,1.26966 3.48169,1.5158c3.56218,1.2289 3.12737,3.38998 5.70574,4.19182c0.84808,0.26374 3.42613,0.1887 5.16245,-0.38408c1.70475,-0.56236 4.39745,1.10785 5.03808,1.33213c4.79269,1.67792 3.84681,3.62799 3.84681,6.75666z" fill="url(#color-5)" stroke="none" stroke-width="0" stroke-linecap="butt"/><path d="M276.62701,207.85292c0,4.43811 -6.68167,6.74683 -16.14383,8.30443c-2.95882,0.48706 -6.18953,2.24429 -9.57283,2.24429c-2.86835,0 -5.28073,-2.29487 -7.72106,-2.44025c-9.64324,-0.5745 -15.90694,-0.23247 -15.90694,-4.88181c0,-1.70053 -1.27696,-2.51515 -1.21896,-4.58961c0.0345,-1.23417 2.3691,-2.79571 3.89865,-3.4119c1.45819,-0.58744 2.96968,-0.26652 4.17494,-1.55201c0.32853,-0.35039 2.94304,0.51712 4.21894,-0.01744c1.0471,-0.43869 0.7664,-2.30791 1.20842,-2.43104c3.42223,-0.95324 5.18492,-3.26263 9.25736,-3.26263c0.72814,0 2.80479,-1.35221 4.57054,-1.37438c1.53343,-0.01925 2.76821,1.26966 3.48169,1.5158c3.56218,1.2289 3.12736,3.38998 5.70574,4.19182c0.84808,0.26374 3.42613,0.1887 5.16245,-0.38408c1.70475,-0.56236 4.39745,1.10785 5.03807,1.33213c4.79269,1.67792 3.84681,3.62799 3.84681,6.75666z" fill="url(#color-6)" stroke="none" stroke-width="0" stroke-linecap="butt"/></g></g></svg>