<svg version="1.1" xmlns="http://www.w3.org/2000/svg" xmlns:xlink="http://www.w3.org/1999/xlink" width="69.30735" height="103.77883" viewBox="0,0,69.30735,103.77883"><defs><linearGradient x1="240" y1="129.47479" x2="240" y2="229.47479" gradientUnits="userSpaceOnUse" id="color-1"><stop offset="0" stop-color="#66d7ff"/><stop offset="1" stop-color="#1464ff"/></linearGradient><radialGradient cx="240.31382" cy="160.71978" r="30.77127" gradientTransform="translate(-285.20713,-241.83384) scale(1.35437,1.55989)" gradientUnits="userSpaceOnUse" id="color-2"><stop offset="0" stop-color="#275389"/><stop offset="1" stop-color="#104974"/></radialGradient><linearGradient x1="237.39501" y1="214.13117" x2="245.52025" y2="211.19903" gradientUnits="userSpaceOnUse" id="color-3"><stop offset="0" stop-color="#d5d5d5"/><stop offset="1" stop-color="#ffffff"/></linearGradient><linearGradient x1="253.67116" y1="208.48876" x2="245.54592" y2="211.4209" gradientUnits="userSpaceOnUse" id="color-4"><stop offset="0" stop-color="#d5d5d5"/><stop offset="1" stop-color="#ffffff"/></linearGradient><linearGradient x1="246.44516" y1="200.40006" x2="238.21467" y2="203.37017" gradientUnits="userSpaceOnUse" id="color-5"><stop offset="0" stop-color="#9c9c9c"/><stop offset="1" stop-color="#e9e9e9"/></linearGradient><linearGradient x1="243.291" y1="197.55159" x2="241.6449" y2="198.14561" gradientUnits="userSpaceOnUse" id="color-6"><stop offset="0" stop-color="#ffffff"/><stop offset="1" stop-color="#dbdbdb"/></linearGradient><linearGradient x1="245.64408" y1="204.80872" x2="243.99799" y2="205.40275" gradientUnits="userSpaceOnUse" id="color-7"><stop offset="0" stop-color="#ffffff"/><stop offset="1" stop-color="#dbdbdb"/></linearGradient><linearGradient x1="253.41638" y1="218.87318" x2="245.18589" y2="221.84328" gradientUnits="userSpaceOnUse" id="color-8"><stop offset="0" stop-color="#9c9c9c"/><stop offset="1" stop-color="#e9e9e9"/></linearGradient><linearGradient x1="250.26222" y1="216.02471" x2="248.61612" y2="216.61873" gradientUnits="userSpaceOnUse" id="color-9"><stop offset="0" stop-color="#ffffff"/><stop offset="1" stop-color="#dbdbdb"/></linearGradient><linearGradient x1="252.6153" y1="223.28184" x2="250.96921" y2="223.87586" gradientUnits="userSpaceOnUse" id="color-10"><stop offset="0" stop-color="#ffffff"/><stop offset="1" stop-color="#dbdbdb"/></linearGradient><linearGradient x1="250.00925" y1="209.59037" x2="245.74877" y2="211.12784" gradientUnits="userSpaceOnUse" id="color-11"><stop offset="0" stop-color="#000000"/><stop offset="1" stop-color="#ffffff"/></linearGradient><linearGradient x1="241.46831" y1="212.60997" x2="245.7288" y2="211.0725" gradientUnits="userSpaceOnUse" id="color-12"><stop offset="0" stop-color="#000000"/><stop offset="1" stop-color="#ffffff"/></linearGradient></defs><g transform="translate(-205.10682,-127.14588)"><g data-paper-data="{&quot;isPaintingLayer&quot;:true}" fill-rule="nonzero" stroke-linejoin="miter" stroke-miterlimit="10" stroke-dasharray="" stroke-dashoffset="0" style="mix-blend-mode: normal"><path d="M206.5,229.47479v-100h67v100z" fill="url(#color-1)" stroke="none" stroke-width="0" stroke-linecap="butt"/><text transform="translate(210.58268,155.03242) scale(0.73835,0.64107)" font-size="40" xml:space="preserve" fill="url(#color-2)" fill-rule="nonzero" stroke="none" stroke-width="1" stroke-linecap="butt" stroke-linejoin="miter" stroke-miterlimit="10" stroke-dasharray="" stroke-dashoffset="0" font-family="Sans Serif" font-weight="normal" text-anchor="start" style="mix-blend-mode: normal"><tspan x="0" dy="0">长途</tspan><tspan x="0" dy="48px">航行</tspan></text><g><path d="M214.04979,215.57154l48.47797,-16.02876l3.58686,10.84822l-48.47798,16.02876z" fill="#656565" stroke="#000000" stroke-width="1" stroke-linecap="butt"/><path d="M226.27511,217.28704l35.68625,-11.49556" fill="none" stroke="#ffffff" stroke-width="3.5" stroke-linecap="round"/><path d="M226.17027,217.36278l-8.06008,2.5832" fill="none" stroke="#ff9708" stroke-width="3.5" stroke-linecap="round"/><path d="M225.36746,216.97397l-4.46553,-1.38587" fill="none" stroke="#ff9708" stroke-width="1" stroke-linecap="round"/><path d="M218.49748,216.45826l4.46552,1.38587" fill="none" stroke="#ff9708" stroke-width="1" stroke-linecap="round"/><path d="M216.33857,217.32903l4.46552,1.38587" fill="none" stroke="#ff9708" stroke-width="1" stroke-linecap="round"/><text transform="translate(260.46964,207.27729) rotate(71.69938) scale(0.04586,0.04586)" font-size="40" xml:space="preserve" fill="#ffffff" fill-rule="nonzero" stroke="none" stroke-width="1" stroke-linecap="butt" stroke-linejoin="miter" stroke-miterlimit="10" stroke-dasharray="" stroke-dashoffset="0" font-family="Sans Serif" font-weight="normal" text-anchor="start" style="mix-blend-mode: normal"><tspan x="0" dy="0">MAX</tspan></text><text transform="translate(218.02956,221.30968) rotate(71.7052) scale(0.05559,0.05559)" font-size="40" xml:space="preserve" fill="#ffffff" fill-rule="nonzero" stroke="none" stroke-width="1" stroke-linecap="butt" stroke-linejoin="miter" stroke-miterlimit="10" stroke-dasharray="" stroke-dashoffset="0" font-family="Sans Serif" font-weight="normal" text-anchor="start" style="mix-blend-mode: normal"><tspan x="0" dy="0">反推</tspan></text></g><path d="M247.98619,218.03242l-8.12524,2.93214l-4.93189,-13.66676l8.12524,-2.93214z" data-paper-data="{&quot;index&quot;:null}" fill="url(#color-3)" stroke="#000000" stroke-width="0.35" stroke-linecap="butt"/><path d="M243.07997,204.58751l8.12524,-2.93214l4.93189,13.66677l-8.12524,2.93214z" fill="url(#color-4)" stroke="#000000" stroke-width="0.35" stroke-linecap="butt"/><g><path d="M239.57551,203.27612c-0.87154,-2.35401 -3.94909,-7.07823 -3.94909,-7.07823l8.11291,-2.92769c0,0 -0.46905,4.9605 0.63184,8.01117c1.10089,3.05067 4.66222,6.29096 4.66222,6.29096l-8.15534,2.81011c0,0 -0.4236,-4.7323 -1.30255,-7.10632z" fill="url(#color-5)" stroke="#000000" stroke-width="0.25" stroke-linecap="round"/><path d="M243.69333,194.61571l-7.52502,2.71553" fill="none" stroke="#000000" stroke-width="0.25" stroke-linecap="round"/><path d="M248.09636,206.4487l-7.52502,2.71553" fill="none" stroke="#000000" stroke-width="0.25" stroke-linecap="round"/><path d="M242.65454,195.78791l-0.21318,4.19652l-1.47535,-3.72008z" fill="url(#color-6)" stroke="none" stroke-width="0" stroke-linecap="round"/><path d="M244.67687,207.284l-1.24019,-3.80494l2.84386,3.09334z" data-paper-data="{&quot;index&quot;:null}" fill="url(#color-7)" stroke="none" stroke-width="0" stroke-linecap="round"/><path d="M240.43385,195.52617l-0.38187,-1.05821" fill="none" stroke="#000000" stroke-width="0.25" stroke-linecap="round"/><path d="M245.02602,208.6198l-0.38187,-1.05821" fill="none" stroke="#000000" stroke-width="0.25" stroke-linecap="round"/><path d="M247.84928,228.85555c0,0 -0.4236,-4.7323 -1.30255,-7.10632c-0.87154,-2.354 -3.94908,-7.07822 -3.94908,-7.07822l8.11291,-2.92769c0,0 -0.46905,4.9605 0.63184,8.01117c1.10089,3.05068 4.66222,6.29096 4.66222,6.29096l-8.15534,2.81011z" fill="url(#color-8)" stroke="#000000" stroke-width="0.25" stroke-linecap="round"/><path d="M250.66455,213.08883l-7.52502,2.71553" fill="none" stroke="#000000" stroke-width="0.25" stroke-linecap="round"/><path d="M255.06758,224.92181l-7.52502,2.71553" fill="none" stroke="#000000" stroke-width="0.25" stroke-linecap="round"/><path d="M249.62576,214.26103l-0.21318,4.19652l-1.47535,-3.72008z" fill="url(#color-9)" stroke="none" stroke-width="0" stroke-linecap="round"/><path d="M251.64809,225.75712l-1.24019,-3.80494l2.84386,3.09334z" data-paper-data="{&quot;index&quot;:null}" fill="url(#color-10)" stroke="none" stroke-width="0" stroke-linecap="round"/><path d="M247.40507,213.99929l-0.38187,-1.05821" fill="none" stroke="#000000" stroke-width="0.25" stroke-linecap="round"/><path d="M251.99724,227.09292l-0.38187,-1.05821" fill="none" stroke="#000000" stroke-width="0.25" stroke-linecap="round"/><path d="M245.02995,209.13592l4.26049,-1.53747l1.43764,3.98384l-4.26049,1.53747z" fill="url(#color-11)" stroke="none" stroke-width="NaN" stroke-linecap="butt"/><path d="M246.44762,213.06442l-4.26049,1.53747l-1.43764,-3.98384l4.26049,-1.53747z" data-paper-data="{&quot;index&quot;:null}" fill="url(#color-12)" stroke="none" stroke-width="NaN" stroke-linecap="butt"/></g><path d="M205.74177,128.88887l8.64868,-0.20592c0,0 -4.04329,0.55135 -5.67783,2.6633c-1.80297,2.32957 -2.76493,6.60314 -2.76493,6.60314z" fill="#b0fecf" stroke="#b0fecf" stroke-width="0.5" stroke-linecap="round"/><path d="M273.68326,138.02064c0,0 -0.96196,-4.27357 -2.76493,-6.60314c-1.63454,-2.11195 -5.67783,-2.6633 -5.67783,-2.6633l8.64868,0.20592z" data-paper-data="{&quot;index&quot;:null}" fill="#b0fecf" stroke="#b0fecf" stroke-width="0.5" stroke-linecap="round"/><path d="M205.56835,220.55429c0,0 0.96196,4.27357 2.76493,6.60314c1.63454,2.11195 5.67783,2.6633 5.67783,2.6633l-8.64868,-0.20592z" data-paper-data="{&quot;index&quot;:null}" fill="#b0fecf" stroke="#affbe1" stroke-width="0.5" stroke-linecap="round"/><path d="M274.15856,230.46886l-8.64868,0.20592c0,0 4.04329,-0.55135 5.67783,-2.6633c1.80297,-2.32957 2.76493,-6.60314 2.76493,-6.60314z" data-paper-data="{&quot;index&quot;:null}" fill="#affbe1" stroke="#b0fecf" stroke-width="0.5" stroke-linecap="round"/></g></g></svg>