<svg version="1.1" xmlns="http://www.w3.org/2000/svg" xmlns:xlink="http://www.w3.org/1999/xlink" width="201.7634" height="53.99023" viewBox="0,0,201.7634,53.99023"><g transform="translate(-278.2991,-43.79688)"><g data-paper-data="{&quot;isPaintingLayer&quot;:true}" fill-rule="nonzero" stroke-linecap="butt" stroke-linejoin="miter" stroke-miterlimit="10" stroke-dasharray="" stroke-dashoffset="0" style="mix-blend-mode: normal"><path d="M279.2991,96.78711v-50.625h199.7634v50.625z" fill="#989898" stroke="#000000" stroke-width="2"/><text transform="translate(330.49107,65.93577) scale(0.50894,0.50894)" font-size="40" xml:space="preserve" fill="#e70000" fill-rule="nonzero" stroke="none" stroke-width="1" stroke-linecap="butt" stroke-linejoin="miter" stroke-miterlimit="10" stroke-dasharray="" stroke-dashoffset="0" font-family="Sans Serif" font-weight="normal" text-anchor="start" style="mix-blend-mode: normal"><tspan x="0" dy="0">达成成就！</tspan></text><text transform="translate(330.84821,88.43577) scale(0.50894,0.50894)" font-size="40" xml:space="preserve" fill="#af00fd" fill-rule="nonzero" stroke="none" stroke-width="1" stroke-linecap="butt" stroke-linejoin="miter" stroke-miterlimit="10" stroke-dasharray="" stroke-dashoffset="0" font-family="Sans Serif" font-weight="normal" text-anchor="start" style="mix-blend-mode: normal"><tspan x="0" dy="0">五星上将！</tspan></text><g stroke="none" stroke-width="1"><path d="M302.8156,71.18071l-3.16796,-3.44343l3.16796,-6.61139z" fill="#b20000"/><path d="M302.67781,71.18071l-10.46808,-2.34157l7.30014,-1.10188z" fill="#dc0000"/><path d="M302.95328,71.18071v-10.05489l3.16796,6.61139z" fill="#e80000"/><path d="M302.8156,71.18071l3.16796,-3.44343l7.30014,1.1019z" fill="#ff0000"/><path d="M302.8156,71.18071l10.46817,-2.34157l-5.23409,5.0963z" fill="#b20000"/><path d="M308.04961,73.79773l1.23967,7.30008l-6.47367,-9.91712z" fill="#ff0000"/><path d="M302.8156,71.18071l-5.23409,2.75475l-5.23409,-5.0963z" fill="#b20000"/><path d="M302.8156,71.31841l-6.47373,9.91712l1.23967,-7.30014z" fill="#dc0000"/><path d="M302.8156,71.18071v6.47373l-6.47373,3.44343z" fill="#b20000"/><path d="M309.28927,81.2356l-6.47367,-3.44343v-6.61139c0,0 0.57518,0.89337 1.06815,1.65903c1.10896,1.72244 5.40552,8.39579 5.40552,8.39579z" fill="#e80000"/></g><g stroke="none" stroke-width="1"><path d="M290.3156,61.18071l-3.16796,-3.44343l3.16796,-6.61139z" fill="#b20000"/><path d="M290.17781,61.18071l-10.46808,-2.34157l7.30014,-1.10188z" fill="#dc0000"/><path d="M290.45328,61.18071v-10.05489l3.16796,6.61139z" fill="#e80000"/><path d="M290.3156,61.18071l3.16796,-3.44343l7.30014,1.1019z" fill="#ff0000"/><path d="M290.3156,61.18071l10.46817,-2.34157l-5.23409,5.0963z" fill="#b20000"/><path d="M295.54961,63.79772l1.23967,7.30008l-6.47367,-9.91712z" fill="#ff0000"/><path d="M290.3156,61.18071l-5.23409,2.75475l-5.23409,-5.0963z" fill="#b20000"/><path d="M290.3156,61.31841l-6.47373,9.91712l1.23967,-7.30014z" fill="#dc0000"/><path d="M290.3156,61.18071v6.47373l-6.47373,3.44343z" fill="#b20000"/><path d="M296.78927,71.23559l-6.47367,-3.44343v-6.61139c0,0 0.57518,0.89337 1.06815,1.65903c1.10896,1.72244 5.40552,8.39579 5.40552,8.39579z" fill="#e80000"/></g><g stroke="none" stroke-width="1"><path d="M314.24417,60.46642l-3.16796,-3.44343l3.16796,-6.61139z" fill="#b20000"/><path d="M314.10638,60.46642l-10.46808,-2.34157l7.30014,-1.10188z" fill="#dc0000"/><path d="M314.38185,60.46642v-10.05489l3.16796,6.61139z" fill="#e80000"/><path d="M314.24417,60.46642l3.16796,-3.44343l7.30014,1.1019z" fill="#ff0000"/><path d="M314.24417,60.46642l10.46817,-2.34157l-5.23409,5.0963z" fill="#b20000"/><path d="M319.47818,63.08344l1.23967,7.30008l-6.47367,-9.91712z" fill="#ff0000"/><path d="M314.24417,60.46642l-5.23409,2.75475l-5.23409,-5.0963z" fill="#b20000"/><path d="M314.24417,60.60412l-6.47373,9.91712l1.23967,-7.30014z" fill="#dc0000"/><path d="M314.24417,60.46642v6.47373l-6.47373,3.44343z" fill="#b20000"/><path d="M320.71784,70.52131l-6.47367,-3.44343v-6.61139c0,0 0.57518,0.89337 1.06815,1.65903c1.10896,1.72244 5.40552,8.39579 5.40552,8.39579z" fill="#e80000"/></g><g stroke="none" stroke-width="1"><path d="M291.38703,81.53785l-3.16796,-3.44343l3.16796,-6.61139z" fill="#b20000"/><path d="M291.24924,81.53785l-10.46808,-2.34157l7.30014,-1.10188z" fill="#dc0000"/><path d="M291.52471,81.53785v-10.05489l3.16796,6.61139z" fill="#e80000"/><path d="M291.38703,81.53785l3.16796,-3.44343l7.30014,1.1019z" fill="#ff0000"/><path d="M291.38703,81.53785l10.46817,-2.34157l-5.23409,5.0963z" fill="#b20000"/><path d="M296.62104,84.15487l1.23967,7.30008l-6.47367,-9.91712z" fill="#ff0000"/><path d="M291.38703,81.53785l-5.23409,2.75475l-5.23409,-5.0963z" fill="#b20000"/><path d="M291.38703,81.67555l-6.47373,9.91712l1.23967,-7.30014z" fill="#dc0000"/><path d="M291.38703,81.53785v6.47373l-6.47373,3.44343z" fill="#b20000"/><path d="M297.8607,91.59274l-6.47367,-3.44343v-6.61139c0,0 0.57518,0.89337 1.06815,1.65903c1.10896,1.72244 5.40552,8.39579 5.40552,8.39579z" fill="#e80000"/></g><g stroke="none" stroke-width="1"><path d="M313.52989,82.25213l-3.16796,-3.44343l3.16796,-6.61139z" fill="#b20000"/><path d="M313.3921,82.25213l-10.46808,-2.34157l7.30014,-1.10188z" fill="#dc0000"/><path d="M313.66757,82.25213v-10.05489l3.16796,6.61139z" fill="#e80000"/><path d="M313.52989,82.25213l3.16796,-3.44343l7.30014,1.1019z" fill="#ff0000"/><path d="M313.52989,82.25213l10.46817,-2.34157l-5.23409,5.0963z" fill="#b20000"/><path d="M318.7639,84.86915l1.23967,7.30008l-6.47367,-9.91712z" fill="#ff0000"/><path d="M313.52989,82.25213l-5.23409,2.75475l-5.23409,-5.0963z" fill="#b20000"/><path d="M313.52989,82.38983l-6.47373,9.91712l1.23967,-7.30014z" fill="#dc0000"/><path d="M313.52989,82.25213v6.47373l-6.47373,3.44343z" fill="#b20000"/><path d="M320.00356,92.30702l-6.47367,-3.44343v-6.61139c0,0 0.57518,0.89337 1.06815,1.65903c1.10896,1.72244 5.40552,8.39579 5.40552,8.39579z" fill="#e80000"/></g></g></g></svg>