<svg version="1.1" xmlns="http://www.w3.org/2000/svg" xmlns:xlink="http://www.w3.org/1999/xlink" width="214.13068" height="42.01598" viewBox="0,0,214.13068,42.01598"><defs><linearGradient x1="266.45211" y1="161.69962" x2="266.45211" y2="195.48642" gradientUnits="userSpaceOnUse" id="color-1"><stop offset="0" stop-color="#dedede"/><stop offset="1" stop-color="#ffffff"/></linearGradient><linearGradient x1="310.85015" y1="180" x2="310.85015" y2="180" gradientUnits="userSpaceOnUse" id="color-2"><stop offset="0" stop-color="#ffffff"/><stop offset="1" stop-color="#1a1a1a"/></linearGradient><linearGradient x1="372.70801" y1="161.48592" x2="372.70801" y2="194.51687" gradientUnits="userSpaceOnUse" id="color-3"><stop offset="0" stop-color="#d0d0d0"/><stop offset="1" stop-color="#1a1a1a"/></linearGradient></defs><g transform="translate(-168.48473,-159.6658)"><g data-paper-data="{&quot;isPaintingLayer&quot;:true}" fill-rule="nonzero" stroke-linejoin="miter" stroke-miterlimit="10" stroke-dasharray="" stroke-dashoffset="0" style="mix-blend-mode: normal"><path d="M363.91949,186.54966c0,0 -4.27735,1.00372 -5.69551,2.33232c-1.26378,1.18397 -2.06632,5.63488 -2.06632,5.63488c0,0 -30.10725,0.60265 -36.44546,0.6921c-2.30928,0.03259 -3.88229,-0.12301 -3.88229,-0.12301c0,0 0.60696,-6.39719 -2.46073,-6.84197c-0.15311,-0.14109 -0.541,-0.27003 -1.11019,-0.38593c-4.18342,-0.85183 -18.16098,-0.99909 -20.70931,-0.08835c-3.57449,1.27749 -3.0549,6.74717 -3.0549,6.74717l-7.07145,0.36203c0,0 -28.92611,-0.15613 -35.26432,-0.06668c-2.30928,0.03259 -3.88228,-0.123 -3.88228,-0.123c0,0 0.60696,-6.39719 -2.46073,-6.84197c-0.15311,-0.14109 -0.541,-0.27003 -1.11019,-0.38594c-4.18342,-0.85183 -18.16099,-0.9991 -20.70932,-0.08834c-3.57449,1.27749 -3.0549,7.50595 -3.0549,7.50595c0,0 -40.05665,1.21617 -43.88664,0.20705c-1.98505,-1.78131 -3.58273,-29.59725 0.33748,-33.00695c0.66158,-0.57543 3.30127,0.05616 7.25854,-0.0893c13.65767,-0.50203 41.1685,0.0893 41.1685,0.0893l59.90105,-0.1897l84.19894,-0.1897z" data-paper-data="{&quot;index&quot;:null}" fill="url(#color-1)" stroke="#000000" stroke-width="1" stroke-linecap="round"/><path d="" data-paper-data="{&quot;index&quot;:null}" fill="url(#color-2)" stroke="#000000" stroke-width="1.5" stroke-linecap="butt"/><path d="M186.83508,194.84174v-13.79697h4.83724v13.79697z" data-paper-data="{&quot;index&quot;:null}" fill="#ffffff" stroke="#000000" stroke-width="1" stroke-linecap="butt"/><path d="M182.01425,194.38827v-13.79697h4.83723c0,0 0,0.97945 0,1.87415c0,2.25667 0,11.92282 0,11.92282z" data-paper-data="{&quot;index&quot;:null}" fill="#ffffff" stroke="#000000" stroke-width="1" stroke-linecap="butt"/><path d="M169.70509,170.4256c0,0 0.29035,-8.06985 1.85609,-8.15689c7.42163,-0.41253 191.17715,0 191.17715,0v8.15689z" data-paper-data="{&quot;index&quot;:null}" fill="#fffa6f" stroke="none" stroke-width="0" stroke-linecap="butt"/><path d="M371.05347,194.51688c0,0 -0.27915,-4.92998 -2.04162,-6.49785c-1.61028,-1.43248 -5.32141,-1.59679 -5.32141,-1.59679l-0.13983,-24.91642c0,0 9.05772,-0.58278 15.36719,4.55998c0.80063,0.65259 1.03912,0.43521 1.41201,1.72784c3.37157,11.68783 0.13982,26.72323 0.13982,26.72323h-9.41616z" data-paper-data="{&quot;index&quot;:null}" fill="url(#color-3)" stroke="#000000" stroke-width="1.5" stroke-linecap="butt"/><path d="M380.88912,178.95452l-2.23723,-0.47159l-0.55931,-7.85978l2.23723,-1.25756" data-paper-data="{&quot;index&quot;:null}" fill="none" stroke="#000000" stroke-width="1.5" stroke-linecap="round"/><path d="M368.61267,194.61172c0,2.88105 -1.98162,5.21662 -4.42606,5.21662c-2.44444,0 -4.42605,-2.33556 -4.42605,-5.21662c0,-2.88105 1.98162,-5.21662 4.42605,-5.21662c2.44444,0 4.42606,2.33556 4.42606,5.21662z" data-paper-data="{&quot;index&quot;:null}" fill="none" stroke="#000000" stroke-width="1.5" stroke-linecap="butt"/><path d="M366.42003,194.61172c0,1.4627 -0.97939,2.64844 -2.18753,2.64844c-1.20814,0 -2.18753,-1.18574 -2.18753,-2.64844c0,-1.4627 0.97939,-2.64844 2.18753,-2.64844c1.20814,0 2.18753,1.18574 2.18753,2.64844z" data-paper-data="{&quot;index&quot;:null}" fill="#000000" stroke="#000000" stroke-width="1.5" stroke-linecap="butt"/><path d="M300.59688,194.97375c0,2.88105 -1.98162,5.21661 -4.42606,5.21661c-2.44444,0 -4.42605,-2.33556 -4.42605,-5.21661c0,-2.88105 1.98162,-5.21662 4.42605,-5.21662c2.44444,0 4.42606,2.33556 4.42606,5.21662z" data-paper-data="{&quot;index&quot;:null}" fill="none" stroke="#000000" stroke-width="1.5" stroke-linecap="butt"/><path d="M298.40424,194.97375c0,1.4627 -0.97939,2.64844 -2.18753,2.64844c-1.20814,0 -2.18753,-1.18574 -2.18753,-2.64844c0,-1.4627 0.97939,-2.64844 2.18753,-2.64844c1.20814,0 2.18753,1.18574 2.18753,2.64844z" data-paper-data="{&quot;index&quot;:null}" fill="#000000" stroke="#000000" stroke-width="1.5" stroke-linecap="butt"/><path d="M312.22417,194.9564c0,2.88105 -1.98162,5.21662 -4.42605,5.21662c-2.44444,0 -4.42605,-2.33556 -4.42605,-5.21662c0,-2.88105 1.98162,-5.21662 4.42605,-5.21662c2.44444,0 4.42605,2.33556 4.42605,5.21662z" data-paper-data="{&quot;index&quot;:null}" fill="none" stroke="#000000" stroke-width="1.5" stroke-linecap="butt"/><path d="M310.03154,194.9564c0,1.4627 -0.97939,2.64844 -2.18753,2.64844c-1.20814,0 -2.18753,-1.18574 -2.18753,-2.64844c0,-1.4627 0.97939,-2.64844 2.18753,-2.64844c1.20814,0 2.18753,1.18574 2.18753,2.64844z" data-paper-data="{&quot;index&quot;:null}" fill="#000000" stroke="#000000" stroke-width="1.5" stroke-linecap="butt"/><path d="M298.71102,188.44664l-2.69977,6.07024v-7.01872" data-paper-data="{&quot;index&quot;:null}" fill="none" stroke="#000000" stroke-width="1.5" stroke-linecap="round"/><path d="M309.84755,188.25694l-2.02483,6.25994l-0.33747,-6.44964" data-paper-data="{&quot;index&quot;:null}" fill="none" stroke="#000000" stroke-width="1.5" stroke-linecap="round"/><text transform="translate(358.50117,170.32504) rotate(-180) scale(0.21797,-0.24504)" font-size="40" xml:space="preserve" data-paper-data="{&quot;index&quot;:null}" fill="#ffffff" fill-rule="nonzero" stroke="none" stroke-width="1" stroke-linecap="butt" stroke-linejoin="miter" stroke-miterlimit="10" stroke-dasharray="" stroke-dashoffset="0" font-family="Sans Serif" font-weight="normal" text-anchor="start" style="mix-blend-mode: normal"><tspan x="0" dy="0">COBUS</tspan></text><path d="M227.21244,195.71517c0,2.88105 -1.98162,5.21661 -4.42606,5.21661c-2.44444,0 -4.42605,-2.33556 -4.42605,-5.21661c0,-2.88105 1.98162,-5.21662 4.42605,-5.21662c2.44444,0 4.42606,2.33556 4.42606,5.21662z" data-paper-data="{&quot;index&quot;:null}" fill="none" stroke="#000000" stroke-width="1.5" stroke-linecap="butt"/><path d="M225.01981,195.71517c0,1.4627 -0.97939,2.64844 -2.18753,2.64844c-1.20814,0 -2.18753,-1.18574 -2.18753,-2.64844c0,-1.4627 0.97939,-2.64844 2.18753,-2.64844c1.20814,0 2.18753,1.18574 2.18753,2.64844z" data-paper-data="{&quot;index&quot;:null}" fill="#000000" stroke="#000000" stroke-width="1.5" stroke-linecap="butt"/><path d="M238.83975,195.69782c0,2.88105 -1.98162,5.21662 -4.42605,5.21662c-2.44444,0 -4.42605,-2.33556 -4.42605,-5.21662c0,-2.88105 1.98162,-5.21662 4.42605,-5.21662c2.44444,0 4.42605,2.33556 4.42605,5.21662z" data-paper-data="{&quot;index&quot;:null}" fill="none" stroke="#000000" stroke-width="1.5" stroke-linecap="butt"/><path d="M236.64711,195.69782c0,1.4627 -0.97939,2.64844 -2.18753,2.64844c-1.20814,0 -2.18753,-1.18574 -2.18753,-2.64844c0,-1.4627 0.97939,-2.64844 2.18753,-2.64844c1.20814,0 2.18753,1.18574 2.18753,2.64844z" data-paper-data="{&quot;index&quot;:null}" fill="#000000" stroke="#000000" stroke-width="1.5" stroke-linecap="butt"/><path d="M225.32659,189.18806l-2.69977,6.07024v-7.01872" data-paper-data="{&quot;index&quot;:null}" fill="none" stroke="#000000" stroke-width="1.5" stroke-linecap="round"/><path d="M236.46312,188.99836l-2.02483,6.25994l-0.33747,-6.44964" data-paper-data="{&quot;index&quot;:null}" fill="none" stroke="#000000" stroke-width="1.5" stroke-linecap="round"/><path d="M343.21686,194.32718v-15.74469h4.55585v15.74469z" data-paper-data="{&quot;index&quot;:null}" fill="#ffffff" stroke="#000000" stroke-width="1" stroke-linecap="butt"/><path d="M338.33898,194.30982v-15.7447h4.55585v15.7447z" data-paper-data="{&quot;index&quot;:null}" fill="#ffffff" stroke="#000000" stroke-width="1" stroke-linecap="butt"/><path d="M265.95151,194.30982v-15.7447h4.55585v15.7447z" data-paper-data="{&quot;index&quot;:null}" fill="#ffffff" stroke="#000000" stroke-width="1" stroke-linecap="butt"/><path d="M261.07362,194.29246v-15.74469h4.55586v15.74469z" data-paper-data="{&quot;index&quot;:null}" fill="#ffffff" stroke="#000000" stroke-width="1" stroke-linecap="butt"/><path d="M290.4027,184.46303v-9.67445h23.79168v9.67445z" data-paper-data="{&quot;index&quot;:null}" fill="#d0d0d0" stroke="#000000" stroke-width="1" stroke-linecap="butt"/><path d="M215.66838,184.25597v-9.67445h23.79168v9.67445z" data-paper-data="{&quot;index&quot;:null}" fill="#d0d0d0" stroke="#000000" stroke-width="1" stroke-linecap="butt"/></g></g></svg>