<svg version="1.1" xmlns="http://www.w3.org/2000/svg" xmlns:xlink="http://www.w3.org/1999/xlink" width="1699.19047" height="477.07905" viewBox="0,0,1699.19047,477.07905"><defs><linearGradient x1="237.76154" y1="-89.72435" x2="237.76154" y2="300.57149" gradientUnits="userSpaceOnUse" id="color-1"><stop offset="0" stop-color="#52d4ff"/><stop offset="1" stop-color="#b9e3f0"/></linearGradient><linearGradient x1="715.75854" y1="-89.47028" x2="715.75854" y2="302.2367" gradientUnits="userSpaceOnUse" id="color-2"><stop offset="0" stop-color="#52d4ff"/><stop offset="1" stop-color="#b9e3f0"/></linearGradient><linearGradient x1="978.49727" y1="-87.72735" x2="978.49727" y2="302.56849" gradientUnits="userSpaceOnUse" id="color-3"><stop offset="0" stop-color="#52d4ff"/><stop offset="1" stop-color="#b9e3f0"/></linearGradient><linearGradient x1="1456.49427" y1="-87.47328" x2="1456.49427" y2="304.2337" gradientUnits="userSpaceOnUse" id="color-4"><stop offset="0" stop-color="#52d4ff"/><stop offset="1" stop-color="#b9e3f0"/></linearGradient><linearGradient x1="143.51218" y1="1.97407" x2="143.51218" y2="26.96284" gradientUnits="userSpaceOnUse" id="color-5"><stop offset="0" stop-color="#efefef"/><stop offset="1" stop-color="#abb4ab"/></linearGradient><linearGradient x1="260.25566" y1="-52.40117" x2="260.25566" y2="-27.41241" gradientUnits="userSpaceOnUse" id="color-6"><stop offset="0" stop-color="#efefef"/><stop offset="1" stop-color="#abb4ab"/></linearGradient><linearGradient x1="401.14961" y1="0.41312" x2="401.14961" y2="25.40189" gradientUnits="userSpaceOnUse" id="color-7"><stop offset="0" stop-color="#ffffff"/><stop offset="1" stop-color="#dae6da"/></linearGradient><linearGradient x1="464.59407" y1="-75.37923" x2="464.59407" y2="-50.39045" gradientUnits="userSpaceOnUse" id="color-8"><stop offset="0" stop-color="#ffffff"/><stop offset="1" stop-color="#c7d2c7"/></linearGradient><linearGradient x1="43.25767" y1="-65.8204" x2="43.25767" y2="-40.83163" gradientUnits="userSpaceOnUse" id="color-9"><stop offset="0" stop-color="#ffffff"/><stop offset="1" stop-color="#bfcbd1"/></linearGradient><linearGradient x1="202.56623" y1="-77.11001" x2="202.56623" y2="-52.12124" gradientUnits="userSpaceOnUse" id="color-10"><stop offset="0" stop-color="#efefef"/><stop offset="1" stop-color="#abb4ab"/></linearGradient><linearGradient x1="320.8112" y1="-12.86664" x2="320.8112" y2="12.12213" gradientUnits="userSpaceOnUse" id="color-11"><stop offset="0" stop-color="#efefef"/><stop offset="1" stop-color="#abb4ab"/></linearGradient><linearGradient x1="589.741" y1="14.8816" x2="589.741" y2="39.87036" gradientUnits="userSpaceOnUse" id="color-12"><stop offset="0" stop-color="#ffffff"/><stop offset="1" stop-color="#dae6da"/></linearGradient><linearGradient x1="300.18631" y1="69.06075" x2="300.18631" y2="94.04952" gradientUnits="userSpaceOnUse" id="color-13"><stop offset="0" stop-color="#ffffff"/><stop offset="1" stop-color="#c7d2c7"/></linearGradient><linearGradient x1="362.98747" y1="-101.91075" x2="362.98747" y2="-76.92199" gradientUnits="userSpaceOnUse" id="color-14"><stop offset="0" stop-color="#ffffff"/><stop offset="1" stop-color="#c7d2c7"/></linearGradient><linearGradient x1="618.84906" y1="44.64807" x2="618.84906" y2="69.63683" gradientUnits="userSpaceOnUse" id="color-15"><stop offset="0" stop-color="#ffffff"/><stop offset="1" stop-color="#bfcbd1"/></linearGradient><linearGradient x1="121.60701" y1="-51.41018" x2="121.60701" y2="-26.42142" gradientUnits="userSpaceOnUse" id="color-16"><stop offset="0" stop-color="#efefef"/><stop offset="1" stop-color="#abb4ab"/></linearGradient><linearGradient x1="622.87353" y1="-38.54783" x2="622.87353" y2="-13.55908" gradientUnits="userSpaceOnUse" id="color-17"><stop offset="0" stop-color="#ffffff"/><stop offset="1" stop-color="#dae6da"/></linearGradient><linearGradient x1="548.88155" y1="-20.01013" x2="548.88155" y2="7.62008" gradientUnits="userSpaceOnUse" id="color-18"><stop offset="0" stop-color="#ffffff"/><stop offset="1" stop-color="#c7d2c7"/></linearGradient><linearGradient x1="243.50692" y1="0.72915" x2="243.50692" y2="25.71792" gradientUnits="userSpaceOnUse" id="color-19"><stop offset="0" stop-color="#ffffff"/><stop offset="1" stop-color="#bfcbd1"/></linearGradient><linearGradient x1="466.31999" y1="-1.04394" x2="466.31999" y2="23.94482" gradientUnits="userSpaceOnUse" id="color-20"><stop offset="0" stop-color="#efefef"/><stop offset="1" stop-color="#abb4ab"/></linearGradient><linearGradient x1="413.04085" y1="-38.54958" x2="412.92555" y2="-13.56108" gradientUnits="userSpaceOnUse" id="color-21"><stop offset="0" stop-color="#efefef"/><stop offset="1" stop-color="#abb4ab"/></linearGradient><linearGradient x1="722.79164" y1="-20.05535" x2="722.79164" y2="4.93342" gradientUnits="userSpaceOnUse" id="color-22"><stop offset="0" stop-color="#ffffff"/><stop offset="1" stop-color="#dae6da"/></linearGradient><linearGradient x1="71.18566" y1="-33.35219" x2="71.18566" y2="-8.36344" gradientUnits="userSpaceOnUse" id="color-23"><stop offset="0" stop-color="#ffffff"/><stop offset="1" stop-color="#c7d2c7"/></linearGradient><linearGradient x1="501.58151" y1="50.71113" x2="501.58151" y2="75.6999" gradientUnits="userSpaceOnUse" id="color-24"><stop offset="0" stop-color="#ffffff"/><stop offset="1" stop-color="#bfcbd1"/></linearGradient><linearGradient x1="208.55722" y1="-26.07397" x2="208.55722" y2="-1.08521" gradientUnits="userSpaceOnUse" id="color-25"><stop offset="0" stop-color="#efefef"/><stop offset="1" stop-color="#abb4ab"/></linearGradient><linearGradient x1="564.79839" y1="62.65287" x2="564.79839" y2="87.64164" gradientUnits="userSpaceOnUse" id="color-26"><stop offset="0" stop-color="#efefef"/><stop offset="1" stop-color="#abb4ab"/></linearGradient></defs><g transform="translate(2.85564,105.30278)"><g data-paper-data="{&quot;isPaintingLayer&quot;:true}" fill-rule="nonzero" stroke-linejoin="miter" stroke-miterlimit="10" stroke-dasharray="" stroke-dashoffset="0" style="mix-blend-mode: normal"><path d="M995.7165,318.15997c0,0 2.19947,-8.73915 3.99625,-10.94164c1.63174,-2.0002 6.00375,-3.39168 6.00375,-3.39168" fill="none" stroke="#54ea2d" stroke-width="5" stroke-linecap="round"/><path d="M998.05551,345.44294c0,0 6,6.20327 6,9.3837c0,4.19939 1.33333,12.94964 1.33333,12.94964" fill="none" stroke="#54ea2d" stroke-width="5" stroke-linecap="round"/><path d="M1004.21649,360.15997c0,0 2.19948,-8.73915 3.99626,-10.94164c1.63174,-2.0002 6.00374,-3.39168 6.00374,-3.39168" fill="none" stroke="#54ea2d" stroke-width="5" stroke-linecap="round"/><path d="M1084.02889,303.94293c0,0 6,6.20327 6,9.3837c0,4.19939 1.33333,12.94964 1.33333,12.94964" fill="none" stroke="#54ea2d" stroke-width="5" stroke-linecap="round"/><path d="M1090.18988,318.65997c0,0 2.19947,-8.73915 3.99625,-10.94164c1.63174,-2.0002 6.00375,-3.39168 6.00375,-3.39168" fill="none" stroke="#54ea2d" stroke-width="5" stroke-linecap="round"/><path d="M1019.5289,303.94293c0,0 6,6.20327 6,9.3837c0,4.19939 1.33333,12.94964 1.33333,12.94964" fill="none" stroke="#54ea2d" stroke-width="5" stroke-linecap="round"/><path d="M1025.68988,318.65997c0,0 2.19948,-8.73915 3.99626,-10.94164c1.63174,-2.0002 6.00375,-3.39168 6.00375,-3.39168" fill="none" stroke="#54ea2d" stroke-width="5" stroke-linecap="round"/><path d="M1046.52889,303.44293c0,0 6,6.20327 6,9.3837c0,4.19939 1.33333,12.94964 1.33333,12.94964" fill="none" stroke="#54ea2d" stroke-width="5" stroke-linecap="round"/><path d="M1052.68988,318.15997c0,0 2.19948,-8.73915 3.99626,-10.94164c1.63174,-2.0002 6.00374,-3.39168 6.00374,-3.39168" fill="none" stroke="#54ea2d" stroke-width="5" stroke-linecap="round"/><path d="M1034.02889,325.44293c0,0 6,6.20327 6,9.3837c0,4.19939 1.33333,12.94964 1.33333,12.94964" fill="none" stroke="#54ea2d" stroke-width="5" stroke-linecap="round"/><path d="M1040.18988,340.15996c0,0 2.19948,-8.73915 3.99626,-10.94164c1.63174,-2.0002 6.00374,-3.39168 6.00374,-3.39168" fill="none" stroke="#54ea2d" stroke-width="5" stroke-linecap="round"/><path d="M1020.0289,344.44294c0,0 6,6.20327 6,9.3837c0,4.19939 1.33333,12.94964 1.33333,12.94964" fill="none" stroke="#54ea2d" stroke-width="5" stroke-linecap="round"/><path d="M1026.18988,359.15997c0,0 2.19948,-8.73915 3.99626,-10.94164c1.63174,-2.0002 6.00374,-3.39168 6.00374,-3.39168" fill="none" stroke="#54ea2d" stroke-width="5" stroke-linecap="round"/><path d="M1050.52889,345.94294c0,0 6,6.20327 6,9.3837c0,4.19939 1.33333,12.94964 1.33333,12.94964" fill="none" stroke="#54ea2d" stroke-width="5" stroke-linecap="round"/><path d="M1056.68988,360.65997c0,0 2.19948,-8.73915 3.99626,-10.94164c1.63174,-2.0002 6.00374,-3.39168 6.00374,-3.39168" fill="none" stroke="#54ea2d" stroke-width="5" stroke-linecap="round"/><path d="M1066.52889,303.44293c0,0 6,6.20327 6,9.3837c0,4.19939 1.33333,12.94964 1.33333,12.94964" fill="none" stroke="#54ea2d" stroke-width="5" stroke-linecap="round"/><path d="M1072.68988,318.15996c0,0 2.19948,-8.73915 3.99626,-10.94164c1.63174,-2.0002 6.00374,-3.39168 6.00374,-3.39168" fill="none" stroke="#54ea2d" stroke-width="5" stroke-linecap="round"/><path d="M1058.52889,319.94293c0,0 6,6.20327 6,9.3837c0,4.19939 1.33333,12.94964 1.33333,12.94964" fill="none" stroke="#54ea2d" stroke-width="5" stroke-linecap="round"/><path d="M1064.68988,334.65996c0,0 2.19948,-8.73915 3.99626,-10.94164c1.63174,-2.0002 6.00374,-3.39168 6.00374,-3.39168" fill="none" stroke="#54ea2d" stroke-width="5" stroke-linecap="round"/><path d="M1079.02889,319.94293c0,0 6,6.20327 6,9.3837c0,4.19939 1.33333,12.94964 1.33333,12.94964" fill="none" stroke="#54ea2d" stroke-width="5" stroke-linecap="round"/><path d="M1085.18988,334.65996c0,0 2.19948,-8.73915 3.99626,-10.94164c1.63174,-2.0002 6.00374,-3.39168 6.00374,-3.39168" fill="none" stroke="#54ea2d" stroke-width="5" stroke-linecap="round"/><path d="M1072.52889,345.44294c0,0 6,6.20327 6,9.3837c0,4.19939 1.33333,12.94964 1.33333,12.94964" fill="none" stroke="#54ea2d" stroke-width="5" stroke-linecap="round"/><path d="M1078.68988,360.15997c0,0 2.19947,-8.73915 3.99626,-10.94164c1.63174,-2.0002 6.00374,-3.39168 6.00374,-3.39168" fill="none" stroke="#54ea2d" stroke-width="5" stroke-linecap="round"/><path d="M1092.52889,345.94294c0,0 6,6.20327 6,9.3837c0,4.19939 1.33333,12.94964 1.33333,12.94964" fill="none" stroke="#54ea2d" stroke-width="5" stroke-linecap="round"/><path d="M1098.68988,360.65997c0,0 2.19948,-8.73915 3.99626,-10.94164c1.63174,-2.0002 6.00374,-3.39168 6.00374,-3.39168" fill="none" stroke="#54ea2d" stroke-width="5" stroke-linecap="round"/><path d="M1084.55552,304.94293c0,0 6,6.20327 6,9.3837c0,4.19939 1.33333,12.94964 1.33333,12.94964" fill="none" stroke="#54ea2d" stroke-width="5" stroke-linecap="round"/><path d="M1090.71648,319.65997c0,0 2.19947,-8.73915 3.99625,-10.94164c1.63174,-2.0002 6.00375,-3.39168 6.00375,-3.39168" fill="none" stroke="#54ea2d" stroke-width="5" stroke-linecap="round"/><path d="M1020.05552,304.94293c0,0 6,6.20327 6,9.3837c0,4.19939 1.33333,12.94964 1.33333,12.94964" fill="none" stroke="#54ea2d" stroke-width="5" stroke-linecap="round"/><path d="M1026.21648,319.65997c0,0 2.19948,-8.73915 3.99626,-10.94164c1.63174,-2.0002 6.00375,-3.39168 6.00375,-3.39168" fill="none" stroke="#54ea2d" stroke-width="5" stroke-linecap="round"/><path d="M1047.05552,304.44293c0,0 6,6.20327 6,9.3837c0,4.19939 1.33333,12.94964 1.33333,12.94964" fill="none" stroke="#54ea2d" stroke-width="5" stroke-linecap="round"/><path d="M1053.21648,319.15997c0,0 2.19948,-8.73915 3.99626,-10.94164c1.63174,-2.0002 6.00374,-3.39168 6.00374,-3.39168" fill="none" stroke="#54ea2d" stroke-width="5" stroke-linecap="round"/><path d="M1034.55551,326.44293c0,0 6,6.20327 6,9.3837c0,4.19939 1.33333,12.94964 1.33333,12.94964" fill="none" stroke="#54ea2d" stroke-width="5" stroke-linecap="round"/><path d="M1040.71648,341.15996c0,0 2.19948,-8.73915 3.99626,-10.94164c1.63174,-2.0002 6.00374,-3.39168 6.00374,-3.39168" fill="none" stroke="#54ea2d" stroke-width="5" stroke-linecap="round"/><path d="M1020.55551,345.44294c0,0 6,6.20327 6,9.3837c0,4.19939 1.33333,12.94964 1.33333,12.94964" fill="none" stroke="#54ea2d" stroke-width="5" stroke-linecap="round"/><path d="M1026.71648,360.15997c0,0 2.19948,-8.73915 3.99626,-10.94164c1.63174,-2.0002 6.00374,-3.39168 6.00374,-3.39168" fill="none" stroke="#54ea2d" stroke-width="5" stroke-linecap="round"/><path d="M1051.05551,346.94294c0,0 6,6.20327 6,9.3837c0,4.19939 1.33333,12.94964 1.33333,12.94964" fill="none" stroke="#54ea2d" stroke-width="5" stroke-linecap="round"/><path d="M1057.21648,361.65997c0,0 2.19948,-8.73915 3.99626,-10.94164c1.63174,-2.0002 6.00374,-3.39168 6.00374,-3.39168" fill="none" stroke="#54ea2d" stroke-width="5" stroke-linecap="round"/><path d="M1067.05551,304.44293c0,0 6,6.20327 6,9.3837c0,4.19939 1.33333,12.94964 1.33333,12.94964" fill="none" stroke="#54ea2d" stroke-width="5" stroke-linecap="round"/><path d="M1073.21648,319.15996c0,0 2.19948,-8.73915 3.99626,-10.94164c1.63174,-2.0002 6.00374,-3.39168 6.00374,-3.39168" fill="none" stroke="#54ea2d" stroke-width="5" stroke-linecap="round"/><path d="M1059.05551,320.94293c0,0 6,6.20327 6,9.3837c0,4.19939 1.33333,12.94964 1.33333,12.94964" fill="none" stroke="#54ea2d" stroke-width="5" stroke-linecap="round"/><path d="M1065.21648,335.65996c0,0 2.19948,-8.73915 3.99626,-10.94164c1.63174,-2.0002 6.00374,-3.39168 6.00374,-3.39168" fill="none" stroke="#54ea2d" stroke-width="5" stroke-linecap="round"/><path d="M1079.55551,320.94293c0,0 6,6.20327 6,9.3837c0,4.19939 1.33333,12.94964 1.33333,12.94964" fill="none" stroke="#54ea2d" stroke-width="5" stroke-linecap="round"/><path d="M1085.71648,335.65996c0,0 2.19948,-8.73915 3.99626,-10.94164c1.63174,-2.0002 6.00374,-3.39168 6.00374,-3.39168" fill="none" stroke="#54ea2d" stroke-width="5" stroke-linecap="round"/><path d="M1073.05551,346.44294c0,0 6,6.20327 6,9.3837c0,4.19939 1.33333,12.94964 1.33333,12.94964" fill="none" stroke="#54ea2d" stroke-width="5" stroke-linecap="round"/><path d="M1079.21648,361.15997c0,0 2.19948,-8.73915 3.99626,-10.94164c1.63174,-2.0002 6.00374,-3.39168 6.00374,-3.39168" fill="none" stroke="#54ea2d" stroke-width="5" stroke-linecap="round"/><path d="M1093.05551,346.94294c0,0 6,6.20327 6,9.3837c0,4.19939 1.33333,12.94964 1.33333,12.94964" fill="none" stroke="#54ea2d" stroke-width="5" stroke-linecap="round"/><path d="M1099.21648,361.65997c0,0 2.19948,-8.73915 3.99626,-10.94164c1.63174,-2.0002 6.00374,-3.39168 6.00374,-3.39168" fill="none" stroke="#54ea2d" stroke-width="5" stroke-linecap="round"/><path d="M1176.55552,304.44293c0,0 6,6.20327 6,9.3837c0,4.19939 1.33333,12.94964 1.33333,12.94964" fill="none" stroke="#54ea2d" stroke-width="5" stroke-linecap="round"/><path d="M1182.71648,319.15997c0,0 2.19947,-8.73915 3.99625,-10.94164c1.63174,-2.0002 6.00375,-3.39168 6.00375,-3.39168" fill="none" stroke="#54ea2d" stroke-width="5" stroke-linecap="round"/><path d="M1112.05552,304.44293c0,0 6,6.20327 6,9.3837c0,4.19939 1.33333,12.94964 1.33333,12.94964" fill="none" stroke="#54ea2d" stroke-width="5" stroke-linecap="round"/><path d="M1118.21648,319.15997c0,0 2.19948,-8.73915 3.99626,-10.94164c1.63174,-2.0002 6.00375,-3.39168 6.00375,-3.39168" fill="none" stroke="#54ea2d" stroke-width="5" stroke-linecap="round"/><path d="M1139.05552,303.94293c0,0 6,6.20327 6,9.3837c0,4.19939 1.33333,12.94964 1.33333,12.94964" fill="none" stroke="#54ea2d" stroke-width="5" stroke-linecap="round"/><path d="M1145.21648,318.65997c0,0 2.19948,-8.73915 3.99626,-10.94164c1.63174,-2.0002 6.00374,-3.39168 6.00374,-3.39168" fill="none" stroke="#54ea2d" stroke-width="5" stroke-linecap="round"/><path d="M1126.55551,325.94293c0,0 6,6.20327 6,9.3837c0,4.19939 1.33333,12.94964 1.33333,12.94964" fill="none" stroke="#54ea2d" stroke-width="5" stroke-linecap="round"/><path d="M1132.71648,340.65996c0,0 2.19948,-8.73915 3.99626,-10.94164c1.63174,-2.0002 6.00374,-3.39168 6.00374,-3.39168" fill="none" stroke="#54ea2d" stroke-width="5" stroke-linecap="round"/><path d="M1112.55551,344.94294c0,0 6,6.20327 6,9.3837c0,4.19939 1.33333,12.94964 1.33333,12.94964" fill="none" stroke="#54ea2d" stroke-width="5" stroke-linecap="round"/><path d="M1118.71648,359.65997c0,0 2.19948,-8.73915 3.99626,-10.94164c1.63174,-2.0002 6.00374,-3.39168 6.00374,-3.39168" fill="none" stroke="#54ea2d" stroke-width="5" stroke-linecap="round"/><path d="M1143.05551,346.44294c0,0 6,6.20327 6,9.3837c0,4.19939 1.33333,12.94964 1.33333,12.94964" fill="none" stroke="#54ea2d" stroke-width="5" stroke-linecap="round"/><path d="M1149.21648,361.15997c0,0 2.19948,-8.73915 3.99626,-10.94164c1.63174,-2.0002 6.00374,-3.39168 6.00374,-3.39168" fill="none" stroke="#54ea2d" stroke-width="5" stroke-linecap="round"/><path d="M1159.05551,303.94293c0,0 6,6.20327 6,9.3837c0,4.19939 1.33333,12.94964 1.33333,12.94964" fill="none" stroke="#54ea2d" stroke-width="5" stroke-linecap="round"/><path d="M1165.21648,318.65996c0,0 2.19948,-8.73915 3.99626,-10.94164c1.63174,-2.0002 6.00374,-3.39168 6.00374,-3.39168" fill="none" stroke="#54ea2d" stroke-width="5" stroke-linecap="round"/><path d="M1151.05551,320.44293c0,0 6,6.20327 6,9.3837c0,4.19939 1.33333,12.94964 1.33333,12.94964" fill="none" stroke="#54ea2d" stroke-width="5" stroke-linecap="round"/><path d="M1157.21648,335.15996c0,0 2.19948,-8.73915 3.99626,-10.94164c1.63174,-2.0002 6.00374,-3.39168 6.00374,-3.39168" fill="none" stroke="#54ea2d" stroke-width="5" stroke-linecap="round"/><path d="M1171.55551,320.44293c0,0 6,6.20327 6,9.3837c0,4.19939 1.33333,12.94964 1.33333,12.94964" fill="none" stroke="#54ea2d" stroke-width="5" stroke-linecap="round"/><path d="M1177.71648,335.15996c0,0 2.19948,-8.73915 3.99625,-10.94164c1.63174,-2.0002 6.00374,-3.39168 6.00374,-3.39168" fill="none" stroke="#54ea2d" stroke-width="5" stroke-linecap="round"/><path d="M1165.05551,345.94294c0,0 6,6.20327 6,9.3837c0,4.19939 1.33333,12.94964 1.33333,12.94964" fill="none" stroke="#54ea2d" stroke-width="5" stroke-linecap="round"/><path d="M1171.21648,360.65997c0,0 2.19947,-8.73915 3.99626,-10.94164c1.63174,-2.0002 6.00374,-3.39168 6.00374,-3.39168" fill="none" stroke="#54ea2d" stroke-width="5" stroke-linecap="round"/><path d="M1185.05551,346.44294c0,0 6,6.20327 6,9.3837c0,4.19939 1.33333,12.94964 1.33333,12.94964" fill="none" stroke="#54ea2d" stroke-width="5" stroke-linecap="round"/><g><path d="M-2.07901,300.57149v-390.2959h479.68112v390.2959z" fill="url(#color-1)" stroke="none" stroke-width="0" stroke-linecap="butt"/><path d="M475.91799,302.2367v-391.70699h479.68112v391.70699z" fill="url(#color-2)" stroke="none" stroke-width="0" stroke-linecap="butt"/><path d="M-2.10563,360.53511v-60h743.02661v60z" fill="#9a9c4f" stroke="#000000" stroke-width="1.5" stroke-linecap="butt"/><path d="M65.11108,289.93843c0,0 6,6.20327 6,9.3837c0,4.19939 1.33333,12.94964 1.33333,12.94964" fill="none" stroke="#54ea2d" stroke-width="5" stroke-linecap="round"/><path d="M71.27205,304.65547c0,0 2.19947,-8.73915 3.99625,-10.94164c1.63174,-2.0002 6.00375,-3.39168 6.00375,-3.39168" fill="none" stroke="#54ea2d" stroke-width="5" stroke-linecap="round"/><path d="M0.61108,289.93843c0,0 6,6.20327 6,9.3837c0,4.19939 1.33333,12.94964 1.33333,12.94964" fill="none" stroke="#54ea2d" stroke-width="5" stroke-linecap="round"/><path d="M6.77206,304.65547c0,0 2.19948,-8.73915 3.99626,-10.94164c1.63174,-2.0002 6.00375,-3.39168 6.00375,-3.39168" fill="none" stroke="#54ea2d" stroke-width="5" stroke-linecap="round"/><path d="M27.61108,289.43843c0,0 6,6.20327 6,9.3837c0,4.19939 1.33333,12.94964 1.33333,12.94964" fill="none" stroke="#54ea2d" stroke-width="5" stroke-linecap="round"/><path d="M33.77206,304.15547c0,0 2.19948,-8.73915 3.99626,-10.94164c1.63174,-2.0002 6.00374,-3.39168 6.00374,-3.39168" fill="none" stroke="#54ea2d" stroke-width="5" stroke-linecap="round"/><path d="M15.11107,311.43843c0,0 6,6.20327 6,9.3837c0,4.19939 1.33333,12.94964 1.33333,12.94964" fill="none" stroke="#54ea2d" stroke-width="5" stroke-linecap="round"/><path d="M21.27205,326.15545c0,0 2.19947,-8.73915 3.99625,-10.94164c1.63174,-2.0002 6.00374,-3.39168 6.00374,-3.39168" fill="none" stroke="#54ea2d" stroke-width="5" stroke-linecap="round"/><path d="M1.11105,330.43843c0,0 6,6.20327 6,9.3837c0,4.19939 1.33333,12.94964 1.33333,12.94964" fill="none" stroke="#54ea2d" stroke-width="5" stroke-linecap="round"/><path d="M7.27204,345.15546c0,0 2.19947,-8.73915 3.99625,-10.94164c1.63174,-2.0002 6.00375,-3.39168 6.00375,-3.39168" fill="none" stroke="#54ea2d" stroke-width="5" stroke-linecap="round"/><path d="M31.61107,331.93843c0,0 6,6.20327 6,9.3837c0,4.19939 1.33333,12.94964 1.33333,12.94964" fill="none" stroke="#54ea2d" stroke-width="5" stroke-linecap="round"/><path d="M37.77205,346.65546c0,0 2.19948,-8.73915 3.99626,-10.94164c1.63174,-2.0002 6.00374,-3.39168 6.00374,-3.39168" fill="none" stroke="#54ea2d" stroke-width="5" stroke-linecap="round"/><path d="M47.61107,289.43843c0,0 6,6.20327 6,9.3837c0,4.19939 1.33333,12.94964 1.33333,12.94964" fill="none" stroke="#54ea2d" stroke-width="5" stroke-linecap="round"/><path d="M53.77205,304.15545c0,0 2.19948,-8.73915 3.99626,-10.94164c1.63174,-2.0002 6.00375,-3.39168 6.00375,-3.39168" fill="none" stroke="#54ea2d" stroke-width="5" stroke-linecap="round"/><path d="M39.61107,305.93843c0,0 6,6.20327 6,9.3837c0,4.19939 1.33333,12.94964 1.33333,12.94964" fill="none" stroke="#54ea2d" stroke-width="5" stroke-linecap="round"/><path d="M45.77205,320.65545c0,0 2.19948,-8.73915 3.99626,-10.94164c1.63174,-2.0002 6.00374,-3.39168 6.00374,-3.39168" fill="none" stroke="#54ea2d" stroke-width="5" stroke-linecap="round"/><path d="M60.11107,305.93843c0,0 6,6.20327 6,9.3837c0,4.19939 1.33333,12.94964 1.33333,12.94964" fill="none" stroke="#54ea2d" stroke-width="5" stroke-linecap="round"/><path d="M66.27205,320.65545c0,0 2.19947,-8.73915 3.99625,-10.94164c1.63174,-2.0002 6.00375,-3.39168 6.00375,-3.39168" fill="none" stroke="#54ea2d" stroke-width="5" stroke-linecap="round"/><path d="M53.61107,331.43843c0,0 6,6.20327 6,9.3837c0,4.19939 1.33333,12.94964 1.33333,12.94964" fill="none" stroke="#54ea2d" stroke-width="5" stroke-linecap="round"/><path d="M59.77205,346.15546c0,0 2.19947,-8.73915 3.99625,-10.94164c1.63174,-2.0002 6.00375,-3.39168 6.00375,-3.39168" fill="none" stroke="#54ea2d" stroke-width="5" stroke-linecap="round"/><path d="M73.61105,331.93843c0,0 6,6.20327 6,9.3837c0,4.19939 1.33333,12.94964 1.33333,12.94964" fill="none" stroke="#54ea2d" stroke-width="5" stroke-linecap="round"/><path d="M79.77205,346.65546c0,0 2.19947,-8.73915 3.99625,-10.94164c1.63174,-2.0002 6.00375,-3.39168 6.00375,-3.39168" fill="none" stroke="#54ea2d" stroke-width="5" stroke-linecap="round"/><path d="M161.11108,290.93843c0,0 6,6.20327 6,9.3837c0,4.19939 1.33333,12.94964 1.33333,12.94964" fill="none" stroke="#54ea2d" stroke-width="5" stroke-linecap="round"/><path d="M167.27206,305.65547c0,0 2.19947,-8.73915 3.99625,-10.94164c1.63174,-2.0002 6.00375,-3.39168 6.00375,-3.39168" fill="none" stroke="#54ea2d" stroke-width="5" stroke-linecap="round"/><path d="M96.61108,290.93843c0,0 6,6.20327 6,9.3837c0,4.19939 1.33333,12.94964 1.33333,12.94964" fill="none" stroke="#54ea2d" stroke-width="5" stroke-linecap="round"/><path d="M102.77206,305.65547c0,0 2.19948,-8.73915 3.99626,-10.94164c1.63174,-2.0002 6.00375,-3.39168 6.00375,-3.39168" fill="none" stroke="#54ea2d" stroke-width="5" stroke-linecap="round"/><path d="M123.61108,290.43843c0,0 6,6.20327 6,9.3837c0,4.19939 1.33333,12.94964 1.33333,12.94964" fill="none" stroke="#54ea2d" stroke-width="5" stroke-linecap="round"/><path d="M129.77206,305.15547c0,0 2.19948,-8.73915 3.99626,-10.94164c1.63174,-2.0002 6.00374,-3.39168 6.00374,-3.39168" fill="none" stroke="#54ea2d" stroke-width="5" stroke-linecap="round"/><path d="M111.11107,312.43843c0,0 6,6.20327 6,9.3837c0,4.19939 1.33333,12.94964 1.33333,12.94964" fill="none" stroke="#54ea2d" stroke-width="5" stroke-linecap="round"/><path d="M117.27205,327.15545c0,0 2.19947,-8.73915 3.99625,-10.94164c1.63174,-2.0002 6.00375,-3.39168 6.00375,-3.39168" fill="none" stroke="#54ea2d" stroke-width="5" stroke-linecap="round"/><path d="M97.11107,331.43843c0,0 6,6.20327 6,9.3837c0,4.19939 1.33333,12.94964 1.33333,12.94964" fill="none" stroke="#54ea2d" stroke-width="5" stroke-linecap="round"/><path d="M103.27205,346.15546c0,0 2.19947,-8.73915 3.99625,-10.94164c1.63174,-2.0002 6.00375,-3.39168 6.00375,-3.39168" fill="none" stroke="#54ea2d" stroke-width="5" stroke-linecap="round"/><path d="M127.61107,332.93843c0,0 6,6.20327 6,9.3837c0,4.19939 1.33333,12.94964 1.33333,12.94964" fill="none" stroke="#54ea2d" stroke-width="5" stroke-linecap="round"/><path d="M133.77203,347.65546c0,0 2.19947,-8.73915 3.99625,-10.94164c1.63174,-2.0002 6.00375,-3.39168 6.00375,-3.39168" fill="none" stroke="#54ea2d" stroke-width="5" stroke-linecap="round"/><path d="M143.61107,290.43843c0,0 6,6.20327 6,9.3837c0,4.19939 1.33333,12.94964 1.33333,12.94964" fill="none" stroke="#54ea2d" stroke-width="5" stroke-linecap="round"/><path d="M149.77203,305.15545c0,0 2.19947,-8.73915 3.99625,-10.94164c1.63174,-2.0002 6.00375,-3.39168 6.00375,-3.39168" fill="none" stroke="#54ea2d" stroke-width="5" stroke-linecap="round"/><path d="M135.61107,306.93843c0,0 6,6.20327 6,9.3837c0,4.19939 1.33333,12.94964 1.33333,12.94964" fill="none" stroke="#54ea2d" stroke-width="5" stroke-linecap="round"/><path d="M141.77203,321.65545c0,0 2.19947,-8.73915 3.99625,-10.94164c1.63174,-2.0002 6.00375,-3.39168 6.00375,-3.39168" fill="none" stroke="#54ea2d" stroke-width="5" stroke-linecap="round"/><path d="M156.11107,306.93843c0,0 6,6.20327 6,9.3837c0,4.19939 1.33333,12.94964 1.33333,12.94964" fill="none" stroke="#54ea2d" stroke-width="5" stroke-linecap="round"/><path d="M162.27203,321.65545c0,0 2.19947,-8.73915 3.99625,-10.94164c1.63174,-2.0002 6.00375,-3.39168 6.00375,-3.39168" fill="none" stroke="#54ea2d" stroke-width="5" stroke-linecap="round"/><path d="M149.61107,332.43843c0,0 6,6.20327 6,9.3837c0,4.19939 1.33333,12.94964 1.33333,12.94964" fill="none" stroke="#54ea2d" stroke-width="5" stroke-linecap="round"/><path d="M155.77203,347.15546c0,0 2.19947,-8.73915 3.99625,-10.94164c1.63174,-2.0002 6.00375,-3.39168 6.00375,-3.39168" fill="none" stroke="#54ea2d" stroke-width="5" stroke-linecap="round"/><path d="M169.61107,332.93843c0,0 6,6.20327 6,9.3837c0,4.19939 1.33333,12.94964 1.33333,12.94964" fill="none" stroke="#54ea2d" stroke-width="5" stroke-linecap="round"/><path d="M175.77205,347.65546c0,0 2.19947,-8.73915 3.99625,-10.94164c1.63174,-2.0002 6.00375,-3.39168 6.00375,-3.39168" fill="none" stroke="#54ea2d" stroke-width="5" stroke-linecap="round"/><path d="M258.11108,292.43843c0,0 6,6.20327 6,9.3837c0,4.19939 1.33333,12.94964 1.33333,12.94964" fill="none" stroke="#54ea2d" stroke-width="5" stroke-linecap="round"/><path d="M264.27206,307.15547c0,0 2.19947,-8.73915 3.99625,-10.94164c1.63174,-2.0002 6.00375,-3.39168 6.00375,-3.39168" fill="none" stroke="#54ea2d" stroke-width="5" stroke-linecap="round"/><path d="M193.61108,292.43843c0,0 6,6.20327 6,9.3837c0,4.19939 1.33333,12.94964 1.33333,12.94964" fill="none" stroke="#54ea2d" stroke-width="5" stroke-linecap="round"/><path d="M199.77206,307.15547c0,0 2.19948,-8.73915 3.99626,-10.94164c1.63174,-2.0002 6.00375,-3.39168 6.00375,-3.39168" fill="none" stroke="#54ea2d" stroke-width="5" stroke-linecap="round"/><path d="M220.61108,291.93843c0,0 6,6.20327 6,9.3837c0,4.19939 1.33333,12.94964 1.33333,12.94964" fill="none" stroke="#54ea2d" stroke-width="5" stroke-linecap="round"/><path d="M226.77206,306.65547c0,0 2.19948,-8.73915 3.99626,-10.94164c1.63174,-2.0002 6.00374,-3.39168 6.00374,-3.39168" fill="none" stroke="#54ea2d" stroke-width="5" stroke-linecap="round"/><path d="M208.11107,313.93843c0,0 6,6.20327 6,9.3837c0,4.19939 1.33333,12.94964 1.33333,12.94964" fill="none" stroke="#54ea2d" stroke-width="5" stroke-linecap="round"/><path d="M214.27205,328.65545c0,0 2.19947,-8.73915 3.99625,-10.94164c1.63174,-2.0002 6.00375,-3.39168 6.00375,-3.39168" fill="none" stroke="#54ea2d" stroke-width="5" stroke-linecap="round"/><path d="M194.11107,332.93843c0,0 6,6.20327 6,9.3837c0,4.19939 1.33333,12.94964 1.33333,12.94964" fill="none" stroke="#54ea2d" stroke-width="5" stroke-linecap="round"/><path d="M200.27205,347.65546c0,0 2.19947,-8.73915 3.99625,-10.94164c1.63174,-2.0002 6.00375,-3.39168 6.00375,-3.39168" fill="none" stroke="#54ea2d" stroke-width="5" stroke-linecap="round"/><path d="M224.61107,334.43843c0,0 6,6.20327 6,9.3837c0,4.19939 1.33333,12.94964 1.33333,12.94964" fill="none" stroke="#54ea2d" stroke-width="5" stroke-linecap="round"/><path d="M230.77205,349.15546c0,0 2.19947,-8.73915 3.99625,-10.94164c1.63174,-2.0002 6.00375,-3.39168 6.00375,-3.39168" fill="none" stroke="#54ea2d" stroke-width="5" stroke-linecap="round"/><path d="M240.61107,291.93843c0,0 6,6.20327 6,9.3837c0,4.19939 1.33333,12.94964 1.33333,12.94964" fill="none" stroke="#54ea2d" stroke-width="5" stroke-linecap="round"/><path d="M246.77205,306.65545c0,0 2.19947,-8.73915 3.99625,-10.94164c1.63174,-2.0002 6.00374,-3.39168 6.00374,-3.39168" fill="none" stroke="#54ea2d" stroke-width="5" stroke-linecap="round"/><path d="M232.61107,308.43843c0,0 6,6.20327 6,9.3837c0,4.19939 1.33333,12.94964 1.33333,12.94964" fill="none" stroke="#54ea2d" stroke-width="5" stroke-linecap="round"/><path d="M238.77205,323.15545c0,0 2.19947,-8.73915 3.99625,-10.94164c1.63174,-2.0002 6.00375,-3.39168 6.00375,-3.39168" fill="none" stroke="#54ea2d" stroke-width="5" stroke-linecap="round"/><path d="M253.11107,308.43843c0,0 6,6.20327 6,9.3837c0,4.19939 1.33333,12.94964 1.33333,12.94964" fill="none" stroke="#54ea2d" stroke-width="5" stroke-linecap="round"/><path d="M259.27205,323.15545c0,0 2.19948,-8.73915 3.99626,-10.94164c1.63174,-2.0002 6.00374,-3.39168 6.00374,-3.39168" fill="none" stroke="#54ea2d" stroke-width="5" stroke-linecap="round"/><path d="M246.61107,333.93843c0,0 6,6.20327 6,9.3837c0,4.19939 1.33333,12.94964 1.33333,12.94964" fill="none" stroke="#54ea2d" stroke-width="5" stroke-linecap="round"/><path d="M252.77205,348.65546c0,0 2.19947,-8.73915 3.99625,-10.94164c1.63174,-2.0002 6.00374,-3.39168 6.00374,-3.39168" fill="none" stroke="#54ea2d" stroke-width="5" stroke-linecap="round"/><path d="M266.61107,334.43843c0,0 6,6.20327 6,9.3837c0,4.19939 1.33333,12.94964 1.33333,12.94964" fill="none" stroke="#54ea2d" stroke-width="5" stroke-linecap="round"/><path d="M272.77205,349.15546c0,0 2.19948,-8.73915 3.99626,-10.94164c1.63174,-2.0002 6.00374,-3.39168 6.00374,-3.39168" fill="none" stroke="#54ea2d" stroke-width="5" stroke-linecap="round"/><path d="M352.11108,293.43843c0,0 6,6.20327 6,9.3837c0,4.19939 1.33333,12.94964 1.33333,12.94964" fill="none" stroke="#54ea2d" stroke-width="5" stroke-linecap="round"/><path d="M358.27206,308.15547c0,0 2.19947,-8.73915 3.99625,-10.94164c1.63174,-2.0002 6.00375,-3.39168 6.00375,-3.39168" fill="none" stroke="#54ea2d" stroke-width="5" stroke-linecap="round"/><path d="M287.61108,293.43843c0,0 6,6.20327 6,9.3837c0,4.19939 1.33333,12.94964 1.33333,12.94964" fill="none" stroke="#54ea2d" stroke-width="5" stroke-linecap="round"/><path d="M293.77206,308.15547c0,0 2.19948,-8.73915 3.99626,-10.94164c1.63174,-2.0002 6.00375,-3.39168 6.00375,-3.39168" fill="none" stroke="#54ea2d" stroke-width="5" stroke-linecap="round"/><path d="M314.61108,292.93843c0,0 6,6.20327 6,9.3837c0,4.19939 1.33333,12.94964 1.33333,12.94964" fill="none" stroke="#54ea2d" stroke-width="5" stroke-linecap="round"/><path d="M320.77206,307.65547c0,0 2.19948,-8.73915 3.99626,-10.94164c1.63174,-2.0002 6.00374,-3.39168 6.00374,-3.39168" fill="none" stroke="#54ea2d" stroke-width="5" stroke-linecap="round"/><path d="M302.11107,314.93843c0,0 6,6.20327 6,9.3837c0,4.19939 1.33333,12.94964 1.33333,12.94964" fill="none" stroke="#54ea2d" stroke-width="5" stroke-linecap="round"/><path d="M308.27205,329.65545c0,0 2.19948,-8.73915 3.99626,-10.94164c1.63174,-2.0002 6.00375,-3.39168 6.00375,-3.39168" fill="none" stroke="#54ea2d" stroke-width="5" stroke-linecap="round"/><path d="M288.11107,333.93843c0,0 6,6.20327 6,9.3837c0,4.19939 1.33333,12.94964 1.33333,12.94964" fill="none" stroke="#54ea2d" stroke-width="5" stroke-linecap="round"/><path d="M294.27205,348.65546c0,0 2.19948,-8.73915 3.99626,-10.94164c1.63174,-2.0002 6.00375,-3.39168 6.00375,-3.39168" fill="none" stroke="#54ea2d" stroke-width="5" stroke-linecap="round"/><path d="M318.61107,335.43843c0,0 6,6.20327 6,9.3837c0,4.19939 1.33333,12.94964 1.33333,12.94964" fill="none" stroke="#54ea2d" stroke-width="5" stroke-linecap="round"/><path d="M324.77205,350.15546c0,0 2.19948,-8.73915 3.99625,-10.94164c1.63174,-2.0002 6.00375,-3.39168 6.00375,-3.39168" fill="none" stroke="#54ea2d" stroke-width="5" stroke-linecap="round"/><path d="M334.61107,292.93843c0,0 6,6.20327 6,9.3837c0,4.19939 1.33333,12.94964 1.33333,12.94964" fill="none" stroke="#54ea2d" stroke-width="5" stroke-linecap="round"/><path d="M340.77205,307.65545c0,0 2.19947,-8.73915 3.99625,-10.94164c1.63174,-2.0002 6.00375,-3.39168 6.00375,-3.39168" fill="none" stroke="#54ea2d" stroke-width="5" stroke-linecap="round"/><path d="M326.61107,309.43843c0,0 6,6.20327 6,9.3837c0,4.19939 1.33333,12.94964 1.33333,12.94964" fill="none" stroke="#54ea2d" stroke-width="5" stroke-linecap="round"/><path d="M332.77205,324.15545c0,0 2.19947,-8.73915 3.99625,-10.94164c1.63174,-2.0002 6.00375,-3.39168 6.00375,-3.39168" fill="none" stroke="#54ea2d" stroke-width="5" stroke-linecap="round"/><path d="M347.11107,309.43843c0,0 6,6.20327 6,9.3837c0,4.19939 1.33333,12.94964 1.33333,12.94964" fill="none" stroke="#54ea2d" stroke-width="5" stroke-linecap="round"/><path d="M353.27205,324.15545c0,0 2.19948,-8.73915 3.99626,-10.94164c1.63174,-2.0002 6.00374,-3.39168 6.00374,-3.39168" fill="none" stroke="#54ea2d" stroke-width="5" stroke-linecap="round"/><path d="M340.61107,334.93843c0,0 6,6.20327 6,9.3837c0,4.19939 1.33333,12.94964 1.33333,12.94964" fill="none" stroke="#54ea2d" stroke-width="5" stroke-linecap="round"/><path d="M346.77205,349.65546c0,0 2.19948,-8.73915 3.99626,-10.94164c1.63174,-2.0002 6.00374,-3.39168 6.00374,-3.39168" fill="none" stroke="#54ea2d" stroke-width="5" stroke-linecap="round"/><path d="M360.61107,335.43843c0,0 6,6.20327 6,9.3837c0,4.19939 1.33333,12.94964 1.33333,12.94964" fill="none" stroke="#54ea2d" stroke-width="5" stroke-linecap="round"/><path d="M366.77205,350.15546c0,0 2.19948,-8.73915 3.99626,-10.94164c1.63174,-2.0002 6.00374,-3.39168 6.00374,-3.39168" fill="none" stroke="#54ea2d" stroke-width="5" stroke-linecap="round"/><path d="M448.11108,295.43843c0,0 6,6.20327 6,9.3837c0,4.19939 1.33333,12.94964 1.33333,12.94964" fill="none" stroke="#54ea2d" stroke-width="5" stroke-linecap="round"/><path d="M454.27206,310.15547c0,0 2.19947,-8.73915 3.99625,-10.94164c1.63174,-2.0002 6.00375,-3.39168 6.00375,-3.39168" fill="none" stroke="#54ea2d" stroke-width="5" stroke-linecap="round"/><path d="M383.61108,295.43843c0,0 6,6.20327 6,9.3837c0,4.19939 1.33333,12.94964 1.33333,12.94964" fill="none" stroke="#54ea2d" stroke-width="5" stroke-linecap="round"/><path d="M389.77206,310.15547c0,0 2.19948,-8.73915 3.99626,-10.94164c1.63174,-2.0002 6.00375,-3.39168 6.00375,-3.39168" fill="none" stroke="#54ea2d" stroke-width="5" stroke-linecap="round"/><path d="M410.61108,294.93843c0,0 6,6.20327 6,9.3837c0,4.19939 1.33333,12.94964 1.33333,12.94964" fill="none" stroke="#54ea2d" stroke-width="5" stroke-linecap="round"/><path d="M416.77206,309.65547c0,0 2.19948,-8.73915 3.99626,-10.94164c1.63174,-2.0002 6.00374,-3.39168 6.00374,-3.39168" fill="none" stroke="#54ea2d" stroke-width="5" stroke-linecap="round"/><path d="M398.11107,316.93843c0,0 6,6.20327 6,9.3837c0,4.19939 1.33333,12.94964 1.33333,12.94964" fill="none" stroke="#54ea2d" stroke-width="5" stroke-linecap="round"/><path d="M404.27205,331.65545c0,0 2.19948,-8.73915 3.99626,-10.94164c1.63174,-2.0002 6.00374,-3.39168 6.00374,-3.39168" fill="none" stroke="#54ea2d" stroke-width="5" stroke-linecap="round"/><path d="M384.11107,335.93843c0,0 6,6.20327 6,9.3837c0,4.19939 1.33333,12.94964 1.33333,12.94964" fill="none" stroke="#54ea2d" stroke-width="5" stroke-linecap="round"/><path d="M390.27205,350.65546c0,0 2.19948,-8.73915 3.99626,-10.94164c1.63174,-2.0002 6.00374,-3.39168 6.00374,-3.39168" fill="none" stroke="#54ea2d" stroke-width="5" stroke-linecap="round"/><path d="M414.61107,337.43843c0,0 6,6.20327 6,9.3837c0,4.19939 1.33333,12.94964 1.33333,12.94964" fill="none" stroke="#54ea2d" stroke-width="5" stroke-linecap="round"/><path d="M420.77205,352.15546c0,0 2.19948,-8.73915 3.99626,-10.94164c1.63174,-2.0002 6.00374,-3.39168 6.00374,-3.39168" fill="none" stroke="#54ea2d" stroke-width="5" stroke-linecap="round"/><path d="M430.61107,294.93843c0,0 6,6.20327 6,9.3837c0,4.19939 1.33333,12.94964 1.33333,12.94964" fill="none" stroke="#54ea2d" stroke-width="5" stroke-linecap="round"/><path d="M436.77205,309.65545c0,0 2.19948,-8.73915 3.99626,-10.94164c1.63174,-2.0002 6.00374,-3.39168 6.00374,-3.39168" fill="none" stroke="#54ea2d" stroke-width="5" stroke-linecap="round"/><path d="M422.61107,311.43843c0,0 6,6.20327 6,9.3837c0,4.19939 1.33333,12.94964 1.33333,12.94964" fill="none" stroke="#54ea2d" stroke-width="5" stroke-linecap="round"/><path d="M428.77205,326.15545c0,0 2.19948,-8.73915 3.99626,-10.94164c1.63174,-2.0002 6.00374,-3.39168 6.00374,-3.39168" fill="none" stroke="#54ea2d" stroke-width="5" stroke-linecap="round"/><path d="M443.11107,311.43843c0,0 6,6.20327 6,9.3837c0,4.19939 1.33333,12.94964 1.33333,12.94964" fill="none" stroke="#54ea2d" stroke-width="5" stroke-linecap="round"/><path d="M449.27205,326.15545c0,0 2.19948,-8.73915 3.99626,-10.94164c1.63174,-2.0002 6.00374,-3.39168 6.00374,-3.39168" fill="none" stroke="#54ea2d" stroke-width="5" stroke-linecap="round"/><path d="M436.61107,336.93843c0,0 6,6.20327 6,9.3837c0,4.19939 1.33333,12.94964 1.33333,12.94964" fill="none" stroke="#54ea2d" stroke-width="5" stroke-linecap="round"/><path d="M442.77205,351.65546c0,0 2.19948,-8.73915 3.99626,-10.94164c1.63174,-2.0002 6.00374,-3.39168 6.00374,-3.39168" fill="none" stroke="#54ea2d" stroke-width="5" stroke-linecap="round"/><path d="M456.61107,337.43843c0,0 6,6.20327 6,9.3837c0,4.19939 1.33333,12.94964 1.33333,12.94964" fill="none" stroke="#54ea2d" stroke-width="5" stroke-linecap="round"/><path d="M462.77205,352.15546c0,0 2.19948,-8.73915 3.99626,-10.94164c1.63174,-2.0002 6.00374,-3.39168 6.00374,-3.39168" fill="none" stroke="#54ea2d" stroke-width="5" stroke-linecap="round"/><path d="M540.11108,294.93843c0,0 6,6.20327 6,9.3837c0,4.19939 1.33333,12.94964 1.33333,12.94964" fill="none" stroke="#54ea2d" stroke-width="5" stroke-linecap="round"/><path d="M546.27206,309.65547c0,0 2.19947,-8.73915 3.99625,-10.94164c1.63174,-2.0002 6.00375,-3.39168 6.00375,-3.39168" fill="none" stroke="#54ea2d" stroke-width="5" stroke-linecap="round"/><path d="M475.61108,294.93843c0,0 6,6.20327 6,9.3837c0,4.19939 1.33333,12.94964 1.33333,12.94964" fill="none" stroke="#54ea2d" stroke-width="5" stroke-linecap="round"/><path d="M481.77206,309.65547c0,0 2.19948,-8.73915 3.99626,-10.94164c1.63174,-2.0002 6.00375,-3.39168 6.00375,-3.39168" fill="none" stroke="#54ea2d" stroke-width="5" stroke-linecap="round"/><path d="M502.61108,294.43843c0,0 6,6.20327 6,9.3837c0,4.19939 1.33333,12.94964 1.33333,12.94964" fill="none" stroke="#54ea2d" stroke-width="5" stroke-linecap="round"/><path d="M508.77206,309.15547c0,0 2.19948,-8.73915 3.99626,-10.94164c1.63174,-2.0002 6.00374,-3.39168 6.00374,-3.39168" fill="none" stroke="#54ea2d" stroke-width="5" stroke-linecap="round"/><path d="M490.11107,316.43843c0,0 6,6.20327 6,9.3837c0,4.19939 1.33333,12.94964 1.33333,12.94964" fill="none" stroke="#54ea2d" stroke-width="5" stroke-linecap="round"/><path d="M496.27205,331.15545c0,0 2.19948,-8.73915 3.99626,-10.94164c1.63174,-2.0002 6.00374,-3.39168 6.00374,-3.39168" fill="none" stroke="#54ea2d" stroke-width="5" stroke-linecap="round"/><path d="M476.11107,335.43843c0,0 6,6.20327 6,9.3837c0,4.19939 1.33333,12.94964 1.33333,12.94964" fill="none" stroke="#54ea2d" stroke-width="5" stroke-linecap="round"/><path d="M482.27205,350.15546c0,0 2.19948,-8.73915 3.99626,-10.94164c1.63174,-2.0002 6.00374,-3.39168 6.00374,-3.39168" fill="none" stroke="#54ea2d" stroke-width="5" stroke-linecap="round"/><path d="M506.61107,336.93843c0,0 6,6.20327 6,9.3837c0,4.19939 1.33333,12.94964 1.33333,12.94964" fill="none" stroke="#54ea2d" stroke-width="5" stroke-linecap="round"/><path d="M512.77203,351.65546c0,0 2.19948,-8.73915 3.99626,-10.94164c1.63174,-2.0002 6.00374,-3.39168 6.00374,-3.39168" fill="none" stroke="#54ea2d" stroke-width="5" stroke-linecap="round"/><path d="M522.61107,294.43843c0,0 6,6.20327 6,9.3837c0,4.19939 1.33333,12.94964 1.33333,12.94964" fill="none" stroke="#54ea2d" stroke-width="5" stroke-linecap="round"/><path d="M528.77203,309.15545c0,0 2.19948,-8.73915 3.99626,-10.94164c1.63174,-2.0002 6.00374,-3.39168 6.00374,-3.39168" fill="none" stroke="#54ea2d" stroke-width="5" stroke-linecap="round"/><path d="M514.61107,310.93843c0,0 6,6.20327 6,9.3837c0,4.19939 1.33333,12.94964 1.33333,12.94964" fill="none" stroke="#54ea2d" stroke-width="5" stroke-linecap="round"/><path d="M520.77203,325.65545c0,0 2.19948,-8.73915 3.99626,-10.94164c1.63174,-2.0002 6.00374,-3.39168 6.00374,-3.39168" fill="none" stroke="#54ea2d" stroke-width="5" stroke-linecap="round"/><path d="M535.11107,310.93843c0,0 6,6.20327 6,9.3837c0,4.19939 1.33333,12.94964 1.33333,12.94964" fill="none" stroke="#54ea2d" stroke-width="5" stroke-linecap="round"/><path d="M541.27203,325.65545c0,0 2.19948,-8.73915 3.99625,-10.94164c1.63174,-2.0002 6.00374,-3.39168 6.00374,-3.39168" fill="none" stroke="#54ea2d" stroke-width="5" stroke-linecap="round"/><path d="M528.61107,336.43843c0,0 6,6.20327 6,9.3837c0,4.19939 1.33333,12.94964 1.33333,12.94964" fill="none" stroke="#54ea2d" stroke-width="5" stroke-linecap="round"/><path d="M534.77203,351.15546c0,0 2.19947,-8.73915 3.99626,-10.94164c1.63174,-2.0002 6.00374,-3.39168 6.00374,-3.39168" fill="none" stroke="#54ea2d" stroke-width="5" stroke-linecap="round"/><path d="M548.61107,336.93843c0,0 6,6.20327 6,9.3837c0,4.19939 1.33333,12.94964 1.33333,12.94964" fill="none" stroke="#54ea2d" stroke-width="5" stroke-linecap="round"/><path d="M554.77203,351.65546c0,0 2.19948,-8.73915 3.99626,-10.94164c1.63174,-2.0002 6.00374,-3.39168 6.00374,-3.39168" fill="none" stroke="#54ea2d" stroke-width="5" stroke-linecap="round"/><path d="M634.58444,295.43843c0,0 6,6.20327 6,9.3837c0,4.19939 1.33333,12.94964 1.33333,12.94964" fill="none" stroke="#54ea2d" stroke-width="5" stroke-linecap="round"/><path d="M640.74542,310.15547c0,0 2.19947,-8.73915 3.99625,-10.94164c1.63174,-2.0002 6.00375,-3.39168 6.00375,-3.39168" fill="none" stroke="#54ea2d" stroke-width="5" stroke-linecap="round"/><path d="M570.08444,295.43843c0,0 6,6.20327 6,9.3837c0,4.19939 1.33333,12.94964 1.33333,12.94964" fill="none" stroke="#54ea2d" stroke-width="5" stroke-linecap="round"/><path d="M576.24542,310.15547c0,0 2.19948,-8.73915 3.99626,-10.94164c1.63174,-2.0002 6.00375,-3.39168 6.00375,-3.39168" fill="none" stroke="#54ea2d" stroke-width="5" stroke-linecap="round"/><path d="M597.08444,294.93843c0,0 6,6.20327 6,9.3837c0,4.19939 1.33333,12.94964 1.33333,12.94964" fill="none" stroke="#54ea2d" stroke-width="5" stroke-linecap="round"/><path d="M603.24542,309.65547c0,0 2.19948,-8.73915 3.99626,-10.94164c1.63174,-2.0002 6.00374,-3.39168 6.00374,-3.39168" fill="none" stroke="#54ea2d" stroke-width="5" stroke-linecap="round"/><path d="M584.58444,316.93843c0,0 6,6.20327 6,9.3837c0,4.19939 1.33333,12.94964 1.33333,12.94964" fill="none" stroke="#54ea2d" stroke-width="5" stroke-linecap="round"/><path d="M590.74542,331.65545c0,0 2.19948,-8.73915 3.99626,-10.94164c1.63174,-2.0002 6.00374,-3.39168 6.00374,-3.39168" fill="none" stroke="#54ea2d" stroke-width="5" stroke-linecap="round"/><path d="M570.58444,335.93843c0,0 6,6.20327 6,9.3837c0,4.19939 1.33333,12.94964 1.33333,12.94964" fill="none" stroke="#54ea2d" stroke-width="5" stroke-linecap="round"/><path d="M576.74542,350.65546c0,0 2.19948,-8.73915 3.99626,-10.94164c1.63174,-2.0002 6.00374,-3.39168 6.00374,-3.39168" fill="none" stroke="#54ea2d" stroke-width="5" stroke-linecap="round"/><path d="M601.08444,337.43843c0,0 6,6.20327 6,9.3837c0,4.19939 1.33333,12.94964 1.33333,12.94964" fill="none" stroke="#54ea2d" stroke-width="5" stroke-linecap="round"/><path d="M607.24542,352.15546c0,0 2.19948,-8.73915 3.99626,-10.94164c1.63174,-2.0002 6.00374,-3.39168 6.00374,-3.39168" fill="none" stroke="#54ea2d" stroke-width="5" stroke-linecap="round"/><path d="M617.08444,294.93843c0,0 6,6.20327 6,9.3837c0,4.19939 1.33333,12.94964 1.33333,12.94964" fill="none" stroke="#54ea2d" stroke-width="5" stroke-linecap="round"/><path d="M623.24542,309.65545c0,0 2.19948,-8.73915 3.99626,-10.94164c1.63174,-2.0002 6.00374,-3.39168 6.00374,-3.39168" fill="none" stroke="#54ea2d" stroke-width="5" stroke-linecap="round"/><path d="M609.08444,311.43843c0,0 6,6.20327 6,9.3837c0,4.19939 1.33333,12.94964 1.33333,12.94964" fill="none" stroke="#54ea2d" stroke-width="5" stroke-linecap="round"/><path d="M615.24542,326.15545c0,0 2.19948,-8.73915 3.99626,-10.94164c1.63174,-2.0002 6.00374,-3.39168 6.00374,-3.39168" fill="none" stroke="#54ea2d" stroke-width="5" stroke-linecap="round"/><path d="M629.58444,311.43843c0,0 6,6.20327 6,9.3837c0,4.19939 1.33333,12.94964 1.33333,12.94964" fill="none" stroke="#54ea2d" stroke-width="5" stroke-linecap="round"/><path d="M635.74542,326.15545c0,0 2.19948,-8.73915 3.99626,-10.94164c1.63174,-2.0002 6.00374,-3.39168 6.00374,-3.39168" fill="none" stroke="#54ea2d" stroke-width="5" stroke-linecap="round"/><path d="M623.08444,336.93843c0,0 6,6.20327 6,9.3837c0,4.19939 1.33333,12.94964 1.33333,12.94964" fill="none" stroke="#54ea2d" stroke-width="5" stroke-linecap="round"/><path d="M629.24542,351.65546c0,0 2.19947,-8.73915 3.99626,-10.94164c1.63174,-2.0002 6.00374,-3.39168 6.00374,-3.39168" fill="none" stroke="#54ea2d" stroke-width="5" stroke-linecap="round"/><path d="M643.08444,337.43843c0,0 6,6.20327 6,9.3837c0,4.19939 1.33333,12.94964 1.33333,12.94964" fill="none" stroke="#54ea2d" stroke-width="5" stroke-linecap="round"/><path d="M649.24542,352.15546c0,0 2.19948,-8.73915 3.99626,-10.94164c1.63174,-2.0002 6.00374,-3.39168 6.00374,-3.39168" fill="none" stroke="#54ea2d" stroke-width="5" stroke-linecap="round"/><path d="M635.11108,296.43843c0,0 6,6.20327 6,9.3837c0,4.19939 1.33333,12.94964 1.33333,12.94964" fill="none" stroke="#54ea2d" stroke-width="5" stroke-linecap="round"/><path d="M641.27206,311.15547c0,0 2.19947,-8.73915 3.99625,-10.94164c1.63174,-2.0002 6.00375,-3.39168 6.00375,-3.39168" fill="none" stroke="#54ea2d" stroke-width="5" stroke-linecap="round"/><path d="M570.61108,296.43843c0,0 6,6.20327 6,9.3837c0,4.19939 1.33333,12.94964 1.33333,12.94964" fill="none" stroke="#54ea2d" stroke-width="5" stroke-linecap="round"/><path d="M576.77206,311.15547c0,0 2.19948,-8.73915 3.99626,-10.94164c1.63174,-2.0002 6.00375,-3.39168 6.00375,-3.39168" fill="none" stroke="#54ea2d" stroke-width="5" stroke-linecap="round"/><path d="M597.61108,295.93843c0,0 6,6.20327 6,9.3837c0,4.19939 1.33333,12.94964 1.33333,12.94964" fill="none" stroke="#54ea2d" stroke-width="5" stroke-linecap="round"/><path d="M603.77206,310.65547c0,0 2.19948,-8.73915 3.99626,-10.94164c1.63174,-2.0002 6.00374,-3.39168 6.00374,-3.39168" fill="none" stroke="#54ea2d" stroke-width="5" stroke-linecap="round"/><path d="M585.11107,317.93843c0,0 6,6.20327 6,9.3837c0,4.19939 1.33333,12.94964 1.33333,12.94964" fill="none" stroke="#54ea2d" stroke-width="5" stroke-linecap="round"/><path d="M591.27203,332.65545c0,0 2.19948,-8.73915 3.99626,-10.94164c1.63174,-2.0002 6.00374,-3.39168 6.00374,-3.39168" fill="none" stroke="#54ea2d" stroke-width="5" stroke-linecap="round"/><path d="M571.11107,336.93843c0,0 6,6.20327 6,9.3837c0,4.19939 1.33333,12.94964 1.33333,12.94964" fill="none" stroke="#54ea2d" stroke-width="5" stroke-linecap="round"/><path d="M577.27203,351.65546c0,0 2.19948,-8.73915 3.99626,-10.94164c1.63174,-2.0002 6.00374,-3.39168 6.00374,-3.39168" fill="none" stroke="#54ea2d" stroke-width="5" stroke-linecap="round"/><path d="M601.61107,338.43843c0,0 6,6.20327 6,9.3837c0,4.19939 1.33333,12.94964 1.33333,12.94964" fill="none" stroke="#54ea2d" stroke-width="5" stroke-linecap="round"/><path d="M607.77203,353.15546c0,0 2.19948,-8.73915 3.99626,-10.94164c1.63174,-2.0002 6.00374,-3.39168 6.00374,-3.39168" fill="none" stroke="#54ea2d" stroke-width="5" stroke-linecap="round"/><path d="M617.61107,295.93843c0,0 6,6.20327 6,9.3837c0,4.19939 1.33333,12.94964 1.33333,12.94964" fill="none" stroke="#54ea2d" stroke-width="5" stroke-linecap="round"/><path d="M623.77203,310.65545c0,0 2.19948,-8.73915 3.99626,-10.94164c1.63174,-2.0002 6.00374,-3.39168 6.00374,-3.39168" fill="none" stroke="#54ea2d" stroke-width="5" stroke-linecap="round"/><path d="M609.61107,312.43843c0,0 6,6.20327 6,9.3837c0,4.19939 1.33333,12.94964 1.33333,12.94964" fill="none" stroke="#54ea2d" stroke-width="5" stroke-linecap="round"/><path d="M615.77203,327.15545c0,0 2.19948,-8.73915 3.99626,-10.94164c1.63174,-2.0002 6.00374,-3.39168 6.00374,-3.39168" fill="none" stroke="#54ea2d" stroke-width="5" stroke-linecap="round"/><path d="M630.11107,312.43843c0,0 6,6.20327 6,9.3837c0,4.19939 1.33333,12.94964 1.33333,12.94964" fill="none" stroke="#54ea2d" stroke-width="5" stroke-linecap="round"/><path d="M636.27203,327.15545c0,0 2.19948,-8.73915 3.99626,-10.94164c1.63174,-2.0002 6.00374,-3.39168 6.00374,-3.39168" fill="none" stroke="#54ea2d" stroke-width="5" stroke-linecap="round"/><path d="M623.61107,337.93843c0,0 6,6.20327 6,9.3837c0,4.19939 1.33333,12.94964 1.33333,12.94964" fill="none" stroke="#54ea2d" stroke-width="5" stroke-linecap="round"/><path d="M629.77203,352.65546c0,0 2.19948,-8.73915 3.99626,-10.94164c1.63174,-2.0002 6.00374,-3.39168 6.00374,-3.39168" fill="none" stroke="#54ea2d" stroke-width="5" stroke-linecap="round"/><path d="M643.61107,338.43843c0,0 6,6.20327 6,9.3837c0,4.19939 1.33333,12.94964 1.33333,12.94964" fill="none" stroke="#54ea2d" stroke-width="5" stroke-linecap="round"/><path d="M649.77203,353.15546c0,0 2.19948,-8.73915 3.99626,-10.94164c1.63174,-2.0002 6.00374,-3.39168 6.00374,-3.39168" fill="none" stroke="#54ea2d" stroke-width="5" stroke-linecap="round"/><path d="M727.11108,295.93843c0,0 6,6.20327 6,9.3837c0,4.19939 1.33333,12.94964 1.33333,12.94964" fill="none" stroke="#54ea2d" stroke-width="5" stroke-linecap="round"/><path d="M733.27206,310.65547c0,0 2.19947,-8.73915 3.99625,-10.94164c1.63174,-2.0002 6.00375,-3.39168 6.00375,-3.39168" fill="none" stroke="#54ea2d" stroke-width="5" stroke-linecap="round"/><path d="M662.61108,295.93843c0,0 6,6.20327 6,9.3837c0,4.19939 1.33333,12.94964 1.33333,12.94964" fill="none" stroke="#54ea2d" stroke-width="5" stroke-linecap="round"/><path d="M668.77206,310.65547c0,0 2.19948,-8.73915 3.99626,-10.94164c1.63174,-2.0002 6.00375,-3.39168 6.00375,-3.39168" fill="none" stroke="#54ea2d" stroke-width="5" stroke-linecap="round"/><path d="M689.61108,295.43843c0,0 6,6.20327 6,9.3837c0,4.19939 1.33333,12.94964 1.33333,12.94964" fill="none" stroke="#54ea2d" stroke-width="5" stroke-linecap="round"/><path d="M695.77206,310.15547c0,0 2.19948,-8.73915 3.99626,-10.94164c1.63174,-2.0002 6.00374,-3.39168 6.00374,-3.39168" fill="none" stroke="#54ea2d" stroke-width="5" stroke-linecap="round"/><path d="M677.11107,317.43843c0,0 6,6.20327 6,9.3837c0,4.19939 1.33333,12.94964 1.33333,12.94964" fill="none" stroke="#54ea2d" stroke-width="5" stroke-linecap="round"/><path d="M683.27205,332.15545c0,0 2.19948,-8.73915 3.99626,-10.94164c1.63174,-2.0002 6.00374,-3.39168 6.00374,-3.39168" fill="none" stroke="#54ea2d" stroke-width="5" stroke-linecap="round"/><path d="M663.11107,336.43843c0,0 6,6.20327 6,9.3837c0,4.19939 1.33333,12.94964 1.33333,12.94964" fill="none" stroke="#54ea2d" stroke-width="5" stroke-linecap="round"/><path d="M669.27203,351.15546c0,0 2.19948,-8.73915 3.99626,-10.94164c1.63174,-2.0002 6.00374,-3.39168 6.00374,-3.39168" fill="none" stroke="#54ea2d" stroke-width="5" stroke-linecap="round"/><path d="M693.61107,337.93843c0,0 6,6.20327 6,9.3837c0,4.19939 1.33333,12.94964 1.33333,12.94964" fill="none" stroke="#54ea2d" stroke-width="5" stroke-linecap="round"/><path d="M699.77205,352.65546c0,0 2.19948,-8.73915 3.99626,-10.94164c1.63174,-2.0002 6.00374,-3.39168 6.00374,-3.39168" fill="none" stroke="#54ea2d" stroke-width="5" stroke-linecap="round"/><path d="M709.61107,295.43843c0,0 6,6.20327 6,9.3837c0,4.19939 1.33333,12.94964 1.33333,12.94964" fill="none" stroke="#54ea2d" stroke-width="5" stroke-linecap="round"/><path d="M715.77205,310.15545c0,0 2.19948,-8.73915 3.99626,-10.94164c1.63174,-2.0002 6.00374,-3.39168 6.00374,-3.39168" fill="none" stroke="#54ea2d" stroke-width="5" stroke-linecap="round"/><path d="M701.61107,311.93843c0,0 6,6.20327 6,9.3837c0,4.19939 1.33333,12.94964 1.33333,12.94964" fill="none" stroke="#54ea2d" stroke-width="5" stroke-linecap="round"/><path d="M707.77205,326.65545c0,0 2.19948,-8.73915 3.99626,-10.94164c1.63174,-2.0002 6.00374,-3.39168 6.00374,-3.39168" fill="none" stroke="#54ea2d" stroke-width="5" stroke-linecap="round"/><path d="M722.11107,311.93843c0,0 6,6.20327 6,9.3837c0,4.19939 1.33333,12.94964 1.33333,12.94964" fill="none" stroke="#54ea2d" stroke-width="5" stroke-linecap="round"/><path d="M728.27205,326.65545c0,0 2.19948,-8.73915 3.99625,-10.94164c1.63174,-2.0002 6.00374,-3.39168 6.00374,-3.39168" fill="none" stroke="#54ea2d" stroke-width="5" stroke-linecap="round"/><path d="M715.61107,337.43843c0,0 6,6.20327 6,9.3837c0,4.19939 1.33333,12.94964 1.33333,12.94964" fill="none" stroke="#54ea2d" stroke-width="5" stroke-linecap="round"/><path d="M721.77205,352.15546c0,0 2.19947,-8.73915 3.99626,-10.94164c1.63174,-2.0002 6.00374,-3.39168 6.00374,-3.39168" fill="none" stroke="#54ea2d" stroke-width="5" stroke-linecap="round"/><path d="M735.61107,337.93843c0,0 6,6.20327 6,9.3837c0,4.19939 1.33333,12.94964 1.33333,12.94964" fill="none" stroke="#54ea2d" stroke-width="5" stroke-linecap="round"/><path d="M738.65672,302.56849v-390.2959h479.68112v390.2959z" fill="url(#color-3)" stroke="none" stroke-width="0" stroke-linecap="butt"/><path d="M1216.65371,304.2337v-391.70699h479.68112v391.70699z" fill="url(#color-4)" stroke="none" stroke-width="0" stroke-linecap="butt"/><path d="M738.6301,362.53211v-60h743.02661v60z" fill="#9a9c4f" stroke="#000000" stroke-width="1.5" stroke-linecap="butt"/><path d="M805.84681,291.93543c0,0 6,6.20327 6,9.3837c0,4.19939 1.33333,12.94964 1.33333,12.94964" fill="none" stroke="#54ea2d" stroke-width="5" stroke-linecap="round"/><path d="M812.00779,306.65247c0,0 2.19947,-8.73915 3.99625,-10.94164c1.63174,-2.0002 6.00375,-3.39168 6.00375,-3.39168" fill="none" stroke="#54ea2d" stroke-width="5" stroke-linecap="round"/><path d="M741.34681,291.93543c0,0 6,6.20327 6,9.3837c0,4.19939 1.33333,12.94964 1.33333,12.94964" fill="none" stroke="#54ea2d" stroke-width="5" stroke-linecap="round"/><path d="M747.50779,306.65247c0,0 2.19948,-8.73915 3.99626,-10.94164c1.63174,-2.0002 6.00375,-3.39168 6.00375,-3.39168" fill="none" stroke="#54ea2d" stroke-width="5" stroke-linecap="round"/><path d="M768.34681,291.43543c0,0 6,6.20327 6,9.3837c0,4.19939 1.33333,12.94964 1.33333,12.94964" fill="none" stroke="#54ea2d" stroke-width="5" stroke-linecap="round"/><path d="M774.50779,306.15247c0,0 2.19948,-8.73915 3.99626,-10.94164c1.63174,-2.0002 6.00374,-3.39168 6.00374,-3.39168" fill="none" stroke="#54ea2d" stroke-width="5" stroke-linecap="round"/><path d="M755.8468,313.43543c0,0 6,6.20327 6,9.3837c0,4.19939 1.33333,12.94964 1.33333,12.94964" fill="none" stroke="#54ea2d" stroke-width="5" stroke-linecap="round"/><path d="M762.00778,328.15245c0,0 2.19947,-8.73915 3.99625,-10.94164c1.63174,-2.0002 6.00374,-3.39168 6.00374,-3.39168" fill="none" stroke="#54ea2d" stroke-width="5" stroke-linecap="round"/><path d="M741.8468,332.43543c0,0 6,6.20327 6,9.3837c0,4.19939 1.33333,12.94964 1.33333,12.94964" fill="none" stroke="#54ea2d" stroke-width="5" stroke-linecap="round"/><path d="M748.00777,347.15246c0,0 2.19947,-8.73915 3.99625,-10.94164c1.63174,-2.0002 6.00375,-3.39168 6.00375,-3.39168" fill="none" stroke="#54ea2d" stroke-width="5" stroke-linecap="round"/><path d="M772.3468,333.93543c0,0 6,6.20327 6,9.3837c0,4.19939 1.33333,12.94964 1.33333,12.94964" fill="none" stroke="#54ea2d" stroke-width="5" stroke-linecap="round"/><path d="M778.50778,348.65246c0,0 2.19948,-8.73915 3.99626,-10.94164c1.63174,-2.0002 6.00374,-3.39168 6.00374,-3.39168" fill="none" stroke="#54ea2d" stroke-width="5" stroke-linecap="round"/><path d="M788.3468,291.43543c0,0 6,6.20327 6,9.3837c0,4.19939 1.33333,12.94964 1.33333,12.94964" fill="none" stroke="#54ea2d" stroke-width="5" stroke-linecap="round"/><path d="M794.50778,306.15245c0,0 2.19948,-8.73915 3.99626,-10.94164c1.63174,-2.0002 6.00375,-3.39168 6.00375,-3.39168" fill="none" stroke="#54ea2d" stroke-width="5" stroke-linecap="round"/><path d="M780.3468,307.93543c0,0 6,6.20327 6,9.3837c0,4.19939 1.33333,12.94964 1.33333,12.94964" fill="none" stroke="#54ea2d" stroke-width="5" stroke-linecap="round"/><path d="M786.50778,322.65245c0,0 2.19948,-8.73915 3.99626,-10.94164c1.63174,-2.0002 6.00374,-3.39168 6.00374,-3.39168" fill="none" stroke="#54ea2d" stroke-width="5" stroke-linecap="round"/><path d="M800.8468,307.93543c0,0 6,6.20327 6,9.3837c0,4.19939 1.33333,12.94964 1.33333,12.94964" fill="none" stroke="#54ea2d" stroke-width="5" stroke-linecap="round"/><path d="M807.00778,322.65245c0,0 2.19947,-8.73915 3.99625,-10.94164c1.63174,-2.0002 6.00375,-3.39168 6.00375,-3.39168" fill="none" stroke="#54ea2d" stroke-width="5" stroke-linecap="round"/><path d="M794.3468,333.43543c0,0 6,6.20327 6,9.3837c0,4.19939 1.33333,12.94964 1.33333,12.94964" fill="none" stroke="#54ea2d" stroke-width="5" stroke-linecap="round"/><path d="M800.50778,348.15246c0,0 2.19947,-8.73915 3.99625,-10.94164c1.63174,-2.0002 6.00375,-3.39168 6.00375,-3.39168" fill="none" stroke="#54ea2d" stroke-width="5" stroke-linecap="round"/><path d="M814.34679,333.93543c0,0 6,6.20327 6,9.3837c0,4.19939 1.33333,12.94964 1.33333,12.94964" fill="none" stroke="#54ea2d" stroke-width="5" stroke-linecap="round"/><path d="M820.50778,348.65246c0,0 2.19947,-8.73915 3.99625,-10.94164c1.63174,-2.0002 6.00375,-3.39168 6.00375,-3.39168" fill="none" stroke="#54ea2d" stroke-width="5" stroke-linecap="round"/><path d="M901.84681,292.93543c0,0 6,6.20327 6,9.3837c0,4.19939 1.33333,12.94964 1.33333,12.94964" fill="none" stroke="#54ea2d" stroke-width="5" stroke-linecap="round"/><path d="M908.00779,307.65247c0,0 2.19947,-8.73915 3.99625,-10.94164c1.63174,-2.0002 6.00375,-3.39168 6.00375,-3.39168" fill="none" stroke="#54ea2d" stroke-width="5" stroke-linecap="round"/><path d="M837.34681,292.93543c0,0 6,6.20327 6,9.3837c0,4.19939 1.33333,12.94964 1.33333,12.94964" fill="none" stroke="#54ea2d" stroke-width="5" stroke-linecap="round"/><path d="M843.50779,307.65247c0,0 2.19948,-8.73915 3.99626,-10.94164c1.63174,-2.0002 6.00375,-3.39168 6.00375,-3.39168" fill="none" stroke="#54ea2d" stroke-width="5" stroke-linecap="round"/><path d="M864.34681,292.43543c0,0 6,6.20327 6,9.3837c0,4.19939 1.33333,12.94964 1.33333,12.94964" fill="none" stroke="#54ea2d" stroke-width="5" stroke-linecap="round"/><path d="M870.50779,307.15247c0,0 2.19948,-8.73915 3.99626,-10.94164c1.63174,-2.0002 6.00374,-3.39168 6.00374,-3.39168" fill="none" stroke="#54ea2d" stroke-width="5" stroke-linecap="round"/><path d="M851.8468,314.43543c0,0 6,6.20327 6,9.3837c0,4.19939 1.33333,12.94964 1.33333,12.94964" fill="none" stroke="#54ea2d" stroke-width="5" stroke-linecap="round"/><path d="M858.00778,329.15245c0,0 2.19947,-8.73915 3.99625,-10.94164c1.63174,-2.0002 6.00375,-3.39168 6.00375,-3.39168" fill="none" stroke="#54ea2d" stroke-width="5" stroke-linecap="round"/><path d="M837.8468,333.43543c0,0 6,6.20327 6,9.3837c0,4.19939 1.33333,12.94964 1.33333,12.94964" fill="none" stroke="#54ea2d" stroke-width="5" stroke-linecap="round"/><path d="M844.00778,348.15246c0,0 2.19947,-8.73915 3.99625,-10.94164c1.63174,-2.0002 6.00375,-3.39168 6.00375,-3.39168" fill="none" stroke="#54ea2d" stroke-width="5" stroke-linecap="round"/><path d="M868.3468,334.93543c0,0 6,6.20327 6,9.3837c0,4.19939 1.33333,12.94964 1.33333,12.94964" fill="none" stroke="#54ea2d" stroke-width="5" stroke-linecap="round"/><path d="M874.50777,349.65246c0,0 2.19947,-8.73915 3.99625,-10.94164c1.63174,-2.0002 6.00375,-3.39168 6.00375,-3.39168" fill="none" stroke="#54ea2d" stroke-width="5" stroke-linecap="round"/><path d="M884.3468,292.43543c0,0 6,6.20327 6,9.3837c0,4.19939 1.33333,12.94964 1.33333,12.94964" fill="none" stroke="#54ea2d" stroke-width="5" stroke-linecap="round"/><path d="M890.50777,307.15245c0,0 2.19947,-8.73915 3.99625,-10.94164c1.63174,-2.0002 6.00375,-3.39168 6.00375,-3.39168" fill="none" stroke="#54ea2d" stroke-width="5" stroke-linecap="round"/><path d="M876.3468,308.93543c0,0 6,6.20327 6,9.3837c0,4.19939 1.33333,12.94964 1.33333,12.94964" fill="none" stroke="#54ea2d" stroke-width="5" stroke-linecap="round"/><path d="M882.50777,323.65245c0,0 2.19947,-8.73915 3.99625,-10.94164c1.63174,-2.0002 6.00375,-3.39168 6.00375,-3.39168" fill="none" stroke="#54ea2d" stroke-width="5" stroke-linecap="round"/><path d="M896.8468,308.93543c0,0 6,6.20327 6,9.3837c0,4.19939 1.33333,12.94964 1.33333,12.94964" fill="none" stroke="#54ea2d" stroke-width="5" stroke-linecap="round"/><path d="M903.00777,323.65245c0,0 2.19947,-8.73915 3.99625,-10.94164c1.63174,-2.0002 6.00375,-3.39168 6.00375,-3.39168" fill="none" stroke="#54ea2d" stroke-width="5" stroke-linecap="round"/><path d="M890.3468,334.43543c0,0 6,6.20327 6,9.3837c0,4.19939 1.33333,12.94964 1.33333,12.94964" fill="none" stroke="#54ea2d" stroke-width="5" stroke-linecap="round"/><path d="M896.50777,349.15246c0,0 2.19947,-8.73915 3.99625,-10.94164c1.63174,-2.0002 6.00375,-3.39168 6.00375,-3.39168" fill="none" stroke="#54ea2d" stroke-width="5" stroke-linecap="round"/><path d="M910.3468,334.93543c0,0 6,6.20327 6,9.3837c0,4.19939 1.33333,12.94964 1.33333,12.94964" fill="none" stroke="#54ea2d" stroke-width="5" stroke-linecap="round"/><path d="M916.50778,349.65246c0,0 2.19947,-8.73915 3.99625,-10.94164c1.63174,-2.0002 6.00375,-3.39168 6.00375,-3.39168" fill="none" stroke="#54ea2d" stroke-width="5" stroke-linecap="round"/><path d="M998.84681,294.43543c0,0 6,6.20327 6,9.3837c0,4.19939 1.33333,12.94964 1.33333,12.94964" fill="none" stroke="#54ea2d" stroke-width="5" stroke-linecap="round"/><path d="M1005.00779,309.15247c0,0 2.19947,-8.73915 3.99625,-10.94164c1.63174,-2.0002 6.00375,-3.39168 6.00375,-3.39168" fill="none" stroke="#54ea2d" stroke-width="5" stroke-linecap="round"/><path d="M934.34681,294.43543c0,0 6,6.20327 6,9.3837c0,4.19939 1.33333,12.94964 1.33333,12.94964" fill="none" stroke="#54ea2d" stroke-width="5" stroke-linecap="round"/><path d="M940.50779,309.15247c0,0 2.19948,-8.73915 3.99626,-10.94164c1.63174,-2.0002 6.00375,-3.39168 6.00375,-3.39168" fill="none" stroke="#54ea2d" stroke-width="5" stroke-linecap="round"/><path d="M961.34681,293.93543c0,0 6,6.20327 6,9.3837c0,4.19939 1.33333,12.94964 1.33333,12.94964" fill="none" stroke="#54ea2d" stroke-width="5" stroke-linecap="round"/><path d="M967.50779,308.65247c0,0 2.19948,-8.73915 3.99626,-10.94164c1.63174,-2.0002 6.00374,-3.39168 6.00374,-3.39168" fill="none" stroke="#54ea2d" stroke-width="5" stroke-linecap="round"/><path d="M948.8468,315.93543c0,0 6,6.20327 6,9.3837c0,4.19939 1.33333,12.94964 1.33333,12.94964" fill="none" stroke="#54ea2d" stroke-width="5" stroke-linecap="round"/><path d="M955.00778,330.65245c0,0 2.19947,-8.73915 3.99625,-10.94164c1.63174,-2.0002 6.00375,-3.39168 6.00375,-3.39168" fill="none" stroke="#54ea2d" stroke-width="5" stroke-linecap="round"/><path d="M934.8468,334.93543c0,0 6,6.20327 6,9.3837c0,4.19939 1.33333,12.94964 1.33333,12.94964" fill="none" stroke="#54ea2d" stroke-width="5" stroke-linecap="round"/><path d="M941.00778,349.65246c0,0 2.19947,-8.73915 3.99625,-10.94164c1.63174,-2.0002 6.00375,-3.39168 6.00375,-3.39168" fill="none" stroke="#54ea2d" stroke-width="5" stroke-linecap="round"/><path d="M965.3468,336.43543c0,0 6,6.20327 6,9.3837c0,4.19939 1.33333,12.94964 1.33333,12.94964" fill="none" stroke="#54ea2d" stroke-width="5" stroke-linecap="round"/><path d="M971.50778,351.15246c0,0 2.19947,-8.73915 3.99625,-10.94164c1.63174,-2.0002 6.00375,-3.39168 6.00375,-3.39168" fill="none" stroke="#54ea2d" stroke-width="5" stroke-linecap="round"/><path d="M981.3468,293.93543c0,0 6,6.20327 6,9.3837c0,4.19939 1.33333,12.94964 1.33333,12.94964" fill="none" stroke="#54ea2d" stroke-width="5" stroke-linecap="round"/><path d="M987.50778,308.65245c0,0 2.19947,-8.73915 3.99625,-10.94164c1.63174,-2.0002 6.00374,-3.39168 6.00374,-3.39168" fill="none" stroke="#54ea2d" stroke-width="5" stroke-linecap="round"/><path d="M973.3468,310.43543c0,0 6,6.20327 6,9.3837c0,4.19939 1.33333,12.94964 1.33333,12.94964" fill="none" stroke="#54ea2d" stroke-width="5" stroke-linecap="round"/><path d="M979.50778,325.15245c0,0 2.19947,-8.73915 3.99625,-10.94164c1.63174,-2.0002 6.00375,-3.39168 6.00375,-3.39168" fill="none" stroke="#54ea2d" stroke-width="5" stroke-linecap="round"/><path d="M993.8468,310.43543c0,0 6,6.20327 6,9.3837c0,4.19939 1.33333,12.94964 1.33333,12.94964" fill="none" stroke="#54ea2d" stroke-width="5" stroke-linecap="round"/><path d="M1000.00778,325.15245c0,0 2.19948,-8.73915 3.99626,-10.94164c1.63174,-2.0002 6.00374,-3.39168 6.00374,-3.39168" fill="none" stroke="#54ea2d" stroke-width="5" stroke-linecap="round"/><path d="M987.3468,335.93543c0,0 6,6.20327 6,9.3837c0,4.19939 1.33333,12.94964 1.33333,12.94964" fill="none" stroke="#54ea2d" stroke-width="5" stroke-linecap="round"/><path d="M993.50778,350.65246c0,0 2.19947,-8.73915 3.99625,-10.94164c1.63174,-2.0002 6.00374,-3.39168 6.00374,-3.39168" fill="none" stroke="#54ea2d" stroke-width="5" stroke-linecap="round"/><path d="M1007.3468,336.43543c0,0 6,6.20327 6,9.3837c0,4.19939 1.33333,12.94964 1.33333,12.94964" fill="none" stroke="#54ea2d" stroke-width="5" stroke-linecap="round"/><path d="M1013.50778,351.15246c0,0 2.19948,-8.73915 3.99626,-10.94164c1.63174,-2.0002 6.00374,-3.39168 6.00374,-3.39168" fill="none" stroke="#54ea2d" stroke-width="5" stroke-linecap="round"/><path d="M1092.8468,295.43543c0,0 6,6.20327 6,9.3837c0,4.19939 1.33333,12.94964 1.33333,12.94964" fill="none" stroke="#54ea2d" stroke-width="5" stroke-linecap="round"/><path d="M1099.00779,310.15247c0,0 2.19947,-8.73915 3.99625,-10.94164c1.63174,-2.0002 6.00375,-3.39168 6.00375,-3.39168" fill="none" stroke="#54ea2d" stroke-width="5" stroke-linecap="round"/><path d="M1028.3468,295.43543c0,0 6,6.20327 6,9.3837c0,4.19939 1.33333,12.94964 1.33333,12.94964" fill="none" stroke="#54ea2d" stroke-width="5" stroke-linecap="round"/><path d="M1034.50779,310.15247c0,0 2.19948,-8.73915 3.99626,-10.94164c1.63174,-2.0002 6.00375,-3.39168 6.00375,-3.39168" fill="none" stroke="#54ea2d" stroke-width="5" stroke-linecap="round"/><path d="M1055.3468,294.93543c0,0 6,6.20327 6,9.3837c0,4.19939 1.33333,12.94964 1.33333,12.94964" fill="none" stroke="#54ea2d" stroke-width="5" stroke-linecap="round"/><path d="M1061.50779,309.65247c0,0 2.19948,-8.73915 3.99626,-10.94164c1.63174,-2.0002 6.00374,-3.39168 6.00374,-3.39168" fill="none" stroke="#54ea2d" stroke-width="5" stroke-linecap="round"/><path d="M1042.8468,316.93543c0,0 6,6.20327 6,9.3837c0,4.19939 1.33333,12.94964 1.33333,12.94964" fill="none" stroke="#54ea2d" stroke-width="5" stroke-linecap="round"/><path d="M1049.00778,331.65245c0,0 2.19948,-8.73915 3.99626,-10.94164c1.63174,-2.0002 6.00375,-3.39168 6.00375,-3.39168" fill="none" stroke="#54ea2d" stroke-width="5" stroke-linecap="round"/><path d="M1028.8468,335.93543c0,0 6,6.20327 6,9.3837c0,4.19939 1.33333,12.94964 1.33333,12.94964" fill="none" stroke="#54ea2d" stroke-width="5" stroke-linecap="round"/><path d="M1035.00778,350.65246c0,0 2.19948,-8.73915 3.99626,-10.94164c1.63174,-2.0002 6.00375,-3.39168 6.00375,-3.39168" fill="none" stroke="#54ea2d" stroke-width="5" stroke-linecap="round"/><path d="M1059.3468,337.43543c0,0 6,6.20327 6,9.3837c0,4.19939 1.33333,12.94964 1.33333,12.94964" fill="none" stroke="#54ea2d" stroke-width="5" stroke-linecap="round"/><path d="M1065.50778,352.15246c0,0 2.19948,-8.73915 3.99625,-10.94164c1.63174,-2.0002 6.00375,-3.39168 6.00375,-3.39168" fill="none" stroke="#54ea2d" stroke-width="5" stroke-linecap="round"/><path d="M1075.3468,294.93543c0,0 6,6.20327 6,9.3837c0,4.19939 1.33333,12.94964 1.33333,12.94964" fill="none" stroke="#54ea2d" stroke-width="5" stroke-linecap="round"/><path d="M1081.50778,309.65245c0,0 2.19947,-8.73915 3.99625,-10.94164c1.63174,-2.0002 6.00375,-3.39168 6.00375,-3.39168" fill="none" stroke="#54ea2d" stroke-width="5" stroke-linecap="round"/><path d="M1067.3468,311.43543c0,0 6,6.20327 6,9.3837c0,4.19939 1.33333,12.94964 1.33333,12.94964" fill="none" stroke="#54ea2d" stroke-width="5" stroke-linecap="round"/><path d="M1073.50778,326.15245c0,0 2.19947,-8.73915 3.99625,-10.94164c1.63174,-2.0002 6.00375,-3.39168 6.00375,-3.39168" fill="none" stroke="#54ea2d" stroke-width="5" stroke-linecap="round"/><path d="M1087.8468,311.43543c0,0 6,6.20327 6,9.3837c0,4.19939 1.33333,12.94964 1.33333,12.94964" fill="none" stroke="#54ea2d" stroke-width="5" stroke-linecap="round"/><path d="M1094.00778,326.15245c0,0 2.19948,-8.73915 3.99626,-10.94164c1.63174,-2.0002 6.00374,-3.39168 6.00374,-3.39168" fill="none" stroke="#54ea2d" stroke-width="5" stroke-linecap="round"/><path d="M1081.3468,336.93543c0,0 6,6.20327 6,9.3837c0,4.19939 1.33333,12.94964 1.33333,12.94964" fill="none" stroke="#54ea2d" stroke-width="5" stroke-linecap="round"/><path d="M1087.50778,351.65246c0,0 2.19948,-8.73915 3.99626,-10.94164c1.63174,-2.0002 6.00374,-3.39168 6.00374,-3.39168" fill="none" stroke="#54ea2d" stroke-width="5" stroke-linecap="round"/><path d="M1101.3468,337.43543c0,0 6,6.20327 6,9.3837c0,4.19939 1.33333,12.94964 1.33333,12.94964" fill="none" stroke="#54ea2d" stroke-width="5" stroke-linecap="round"/><path d="M1107.50778,352.15246c0,0 2.19948,-8.73915 3.99626,-10.94164c1.63174,-2.0002 6.00374,-3.39168 6.00374,-3.39168" fill="none" stroke="#54ea2d" stroke-width="5" stroke-linecap="round"/><path d="M1188.8468,297.43543c0,0 6,6.20327 6,9.3837c0,4.19939 1.33333,12.94964 1.33333,12.94964" fill="none" stroke="#54ea2d" stroke-width="5" stroke-linecap="round"/><path d="M1195.00779,312.15247c0,0 2.19947,-8.73915 3.99625,-10.94164c1.63174,-2.0002 6.00375,-3.39168 6.00375,-3.39168" fill="none" stroke="#54ea2d" stroke-width="5" stroke-linecap="round"/><path d="M1124.3468,297.43543c0,0 6,6.20327 6,9.3837c0,4.19939 1.33333,12.94964 1.33333,12.94964" fill="none" stroke="#54ea2d" stroke-width="5" stroke-linecap="round"/><path d="M1130.50779,312.15247c0,0 2.19948,-8.73915 3.99626,-10.94164c1.63174,-2.0002 6.00375,-3.39168 6.00375,-3.39168" fill="none" stroke="#54ea2d" stroke-width="5" stroke-linecap="round"/><path d="M1151.3468,296.93543c0,0 6,6.20327 6,9.3837c0,4.19939 1.33333,12.94964 1.33333,12.94964" fill="none" stroke="#54ea2d" stroke-width="5" stroke-linecap="round"/><path d="M1157.50779,311.65247c0,0 2.19948,-8.73915 3.99626,-10.94164c1.63174,-2.0002 6.00374,-3.39168 6.00374,-3.39168" fill="none" stroke="#54ea2d" stroke-width="5" stroke-linecap="round"/><path d="M1138.8468,318.93543c0,0 6,6.20327 6,9.3837c0,4.19939 1.33333,12.94964 1.33333,12.94964" fill="none" stroke="#54ea2d" stroke-width="5" stroke-linecap="round"/><path d="M1145.00778,333.65245c0,0 2.19948,-8.73915 3.99626,-10.94164c1.63174,-2.0002 6.00374,-3.39168 6.00374,-3.39168" fill="none" stroke="#54ea2d" stroke-width="5" stroke-linecap="round"/><path d="M1124.8468,337.93543c0,0 6,6.20327 6,9.3837c0,4.19939 1.33333,12.94964 1.33333,12.94964" fill="none" stroke="#54ea2d" stroke-width="5" stroke-linecap="round"/><path d="M1131.00778,352.65246c0,0 2.19948,-8.73915 3.99626,-10.94164c1.63174,-2.0002 6.00374,-3.39168 6.00374,-3.39168" fill="none" stroke="#54ea2d" stroke-width="5" stroke-linecap="round"/><path d="M1155.3468,339.43543c0,0 6,6.20327 6,9.3837c0,4.19939 1.33333,12.94964 1.33333,12.94964" fill="none" stroke="#54ea2d" stroke-width="5" stroke-linecap="round"/><path d="M1161.50778,354.15246c0,0 2.19948,-8.73915 3.99626,-10.94164c1.63174,-2.0002 6.00374,-3.39168 6.00374,-3.39168" fill="none" stroke="#54ea2d" stroke-width="5" stroke-linecap="round"/><path d="M1171.3468,296.93543c0,0 6,6.20327 6,9.3837c0,4.19939 1.33333,12.94964 1.33333,12.94964" fill="none" stroke="#54ea2d" stroke-width="5" stroke-linecap="round"/><path d="M1177.50778,311.65245c0,0 2.19948,-8.73915 3.99626,-10.94164c1.63174,-2.0002 6.00374,-3.39168 6.00374,-3.39168" fill="none" stroke="#54ea2d" stroke-width="5" stroke-linecap="round"/><path d="M1163.3468,313.43543c0,0 6,6.20327 6,9.3837c0,4.19939 1.33333,12.94964 1.33333,12.94964" fill="none" stroke="#54ea2d" stroke-width="5" stroke-linecap="round"/><path d="M1169.50778,328.15245c0,0 2.19948,-8.73915 3.99626,-10.94164c1.63174,-2.0002 6.00374,-3.39168 6.00374,-3.39168" fill="none" stroke="#54ea2d" stroke-width="5" stroke-linecap="round"/><path d="M1183.8468,313.43543c0,0 6,6.20327 6,9.3837c0,4.19939 1.33333,12.94964 1.33333,12.94964" fill="none" stroke="#54ea2d" stroke-width="5" stroke-linecap="round"/><path d="M1190.00778,328.15245c0,0 2.19948,-8.73915 3.99626,-10.94164c1.63174,-2.0002 6.00374,-3.39168 6.00374,-3.39168" fill="none" stroke="#54ea2d" stroke-width="5" stroke-linecap="round"/><path d="M1177.3468,338.93543c0,0 6,6.20327 6,9.3837c0,4.19939 1.33333,12.94964 1.33333,12.94964" fill="none" stroke="#54ea2d" stroke-width="5" stroke-linecap="round"/><path d="M1183.50778,353.65246c0,0 2.19948,-8.73915 3.99626,-10.94164c1.63174,-2.0002 6.00374,-3.39168 6.00374,-3.39168" fill="none" stroke="#54ea2d" stroke-width="5" stroke-linecap="round"/><path d="M1197.3468,339.43543c0,0 6,6.20327 6,9.3837c0,4.19939 1.33333,12.94964 1.33333,12.94964" fill="none" stroke="#54ea2d" stroke-width="5" stroke-linecap="round"/><path d="M1203.50778,354.15246c0,0 2.19948,-8.73915 3.99626,-10.94164c1.63174,-2.0002 6.00374,-3.39168 6.00374,-3.39168" fill="none" stroke="#54ea2d" stroke-width="5" stroke-linecap="round"/><path d="M1280.8468,296.93543c0,0 6,6.20327 6,9.3837c0,4.19939 1.33333,12.94964 1.33333,12.94964" fill="none" stroke="#54ea2d" stroke-width="5" stroke-linecap="round"/><path d="M1216.3468,296.93543c0,0 6,6.20327 6,9.3837c0,4.19939 1.33333,12.94964 1.33333,12.94964" fill="none" stroke="#54ea2d" stroke-width="5" stroke-linecap="round"/><path d="M1222.50779,311.65247c0,0 2.19948,-8.73915 3.99626,-10.94164c1.63174,-2.0002 6.00375,-3.39168 6.00375,-3.39168" fill="none" stroke="#54ea2d" stroke-width="5" stroke-linecap="round"/><path d="M1243.3468,296.43543c0,0 6,6.20327 6,9.3837c0,4.19939 1.33333,12.94964 1.33333,12.94964" fill="none" stroke="#54ea2d" stroke-width="5" stroke-linecap="round"/><path d="M1249.50779,311.15247c0,0 2.19948,-8.73915 3.99626,-10.94164c1.63174,-2.0002 6.00374,-3.39168 6.00374,-3.39168" fill="none" stroke="#54ea2d" stroke-width="5" stroke-linecap="round"/><path d="M1230.8468,318.43543c0,0 6,6.20327 6,9.3837c0,4.19939 1.33333,12.94964 1.33333,12.94964" fill="none" stroke="#54ea2d" stroke-width="5" stroke-linecap="round"/><path d="M1237.00778,333.15245c0,0 2.19948,-8.73915 3.99626,-10.94164c1.63174,-2.0002 6.00374,-3.39168 6.00374,-3.39168" fill="none" stroke="#54ea2d" stroke-width="5" stroke-linecap="round"/><path d="M1216.8468,337.43543c0,0 6,6.20327 6,9.3837c0,4.19939 1.33333,12.94964 1.33333,12.94964" fill="none" stroke="#54ea2d" stroke-width="5" stroke-linecap="round"/><path d="M1223.00778,352.15246c0,0 2.19948,-8.73915 3.99626,-10.94164c1.63174,-2.0002 6.00374,-3.39168 6.00374,-3.39168" fill="none" stroke="#54ea2d" stroke-width="5" stroke-linecap="round"/><path d="M1247.3468,338.93543c0,0 6,6.20327 6,9.3837c0,4.19939 1.33333,12.94964 1.33333,12.94964" fill="none" stroke="#54ea2d" stroke-width="5" stroke-linecap="round"/><path d="M1253.50778,353.65246c0,0 2.19948,-8.73915 3.99626,-10.94164c1.63174,-2.0002 6.00374,-3.39168 6.00374,-3.39168" fill="none" stroke="#54ea2d" stroke-width="5" stroke-linecap="round"/><path d="M1263.3468,296.43543c0,0 6,6.20327 6,9.3837c0,4.19939 1.33333,12.94964 1.33333,12.94964" fill="none" stroke="#54ea2d" stroke-width="5" stroke-linecap="round"/><path d="M1269.50778,311.15245c0,0 2.19948,-8.73915 3.99626,-10.94164c1.63174,-2.0002 6.00374,-3.39168 6.00374,-3.39168" fill="none" stroke="#54ea2d" stroke-width="5" stroke-linecap="round"/><path d="M1255.3468,312.93543c0,0 6,6.20327 6,9.3837c0,4.19939 1.33333,12.94964 1.33333,12.94964" fill="none" stroke="#54ea2d" stroke-width="5" stroke-linecap="round"/><path d="M1261.50778,327.65245c0,0 2.19948,-8.73915 3.99626,-10.94164c1.63174,-2.0002 6.00374,-3.39168 6.00374,-3.39168" fill="none" stroke="#54ea2d" stroke-width="5" stroke-linecap="round"/><path d="M1275.8468,312.93543c0,0 6,6.20327 6,9.3837c0,4.19939 1.33333,12.94964 1.33333,12.94964" fill="none" stroke="#54ea2d" stroke-width="5" stroke-linecap="round"/><path d="M1282.00778,327.65245c0,0 2.19948,-8.73915 3.99625,-10.94164c1.63174,-2.0002 6.00374,-3.39168 6.00374,-3.39168" fill="none" stroke="#54ea2d" stroke-width="5" stroke-linecap="round"/><path d="M1269.3468,338.43543c0,0 6,6.20327 6,9.3837c0,4.19939 1.33333,12.94964 1.33333,12.94964" fill="none" stroke="#54ea2d" stroke-width="5" stroke-linecap="round"/><path d="M1275.50778,353.15246c0,0 2.19947,-8.73915 3.99626,-10.94164c1.63174,-2.0002 6.00374,-3.39168 6.00374,-3.39168" fill="none" stroke="#54ea2d" stroke-width="5" stroke-linecap="round"/></g><path d="M173.97215,14.46846c0,5.25669 -7.91407,7.99125 -19.12148,9.83615c-3.50456,0.5769 -7.33115,2.65824 -11.33849,2.65824c-3.39739,0 -6.25474,-2.71815 -9.14518,-2.89034c-11.42189,-0.68046 -18.84089,-0.27535 -18.84089,-5.78223c0,-2.01419 -1.51249,-2.97906 -1.4438,-5.43614c0.04087,-1.46181 2.80606,-3.31136 4.61774,-4.0412c1.72715,-0.69579 3.51743,-0.31567 4.94499,-1.83827c0.38912,-0.41503 3.48587,0.61249 4.9971,-0.02066c1.24023,-0.51961 0.90776,-2.73359 1.4313,-2.87942c4.05344,-1.12906 6.14126,-3.8644 10.96484,-3.8644c0.86244,0 3.32212,-1.60162 5.41356,-1.62788c1.81627,-0.0228 3.27881,1.50384 4.12388,1.79538c4.2192,1.45557 3.70419,4.01524 6.75813,4.96498c1.0045,0.31239 4.05806,0.2235 6.11464,-0.45493c2.01917,-0.66609 5.20853,1.31218 5.96732,1.57784c5.67669,1.9874 4.55635,4.29716 4.55635,8.00289z" fill="url(#color-5)" stroke="none" stroke-width="0" stroke-linecap="butt"/><path d="M290.71563,-39.9068c0,5.25669 -7.91407,7.99125 -19.12148,9.83614c-3.50456,0.5769 -7.33115,2.65824 -11.33849,2.65824c-3.39739,0 -6.25473,-2.71814 -9.14517,-2.89034c-11.42189,-0.68046 -18.8409,-0.27535 -18.8409,-5.78223c0,-2.01419 -1.51249,-2.97907 -1.4438,-5.43615c0.04087,-1.46181 2.80606,-3.31136 4.61774,-4.0412c1.72715,-0.69579 3.51743,-0.31568 4.94499,-1.83828c0.38912,-0.41502 3.48587,0.6125 4.9971,-0.02065c1.24023,-0.51961 0.90776,-2.7336 1.4313,-2.87943c4.05344,-1.12906 6.14126,-3.8644 10.96484,-3.8644c0.86244,0 3.32212,-1.60162 5.41356,-1.62788c1.81627,-0.0228 3.27881,1.50385 4.12387,1.79538c4.2192,1.45557 3.70419,4.01525 6.75813,4.96499c1.0045,0.31239 4.05806,0.2235 6.11464,-0.45493c2.01917,-0.66609 5.20853,1.31218 5.96732,1.57784c5.67669,1.9874 4.55635,4.29715 4.55635,8.00289z" fill="url(#color-6)" stroke="none" stroke-width="0" stroke-linecap="butt"/><path d="M431.60958,12.90751c0,5.25669 -7.91407,7.99125 -19.12148,9.83614c-3.50457,0.5769 -7.33116,2.65824 -11.33849,2.65824c-3.39739,0 -6.25473,-2.71814 -9.14517,-2.89034c-11.42189,-0.68046 -18.8409,-0.27535 -18.8409,-5.78223c0,-2.01419 -1.51249,-2.97907 -1.4438,-5.43615c0.04087,-1.46181 2.80607,-3.31136 4.61774,-4.0412c1.72715,-0.69579 3.51743,-0.31567 4.94499,-1.83828c0.38912,-0.41502 3.48587,0.6125 4.9971,-0.02065c1.24023,-0.51961 0.90776,-2.7336 1.4313,-2.87943c4.05344,-1.12906 6.14125,-3.8644 10.96483,-3.8644c0.86244,0 3.32213,-1.60162 5.41357,-1.62788c1.81627,-0.0228 3.27881,1.50385 4.12388,1.79538c4.2192,1.45557 3.70419,4.01524 6.75813,4.96498c1.0045,0.31239 4.05806,0.2235 6.11464,-0.45493c2.01917,-0.66609 5.20853,1.31218 5.96732,1.57784c5.67668,1.9874 4.55634,4.29715 4.55634,8.00289z" fill="url(#color-7)" stroke="none" stroke-width="0" stroke-linecap="butt"/><path d="M495.05405,-62.88483c0,5.25669 -7.91408,7.99125 -19.12149,9.83615c-3.50456,0.5769 -7.33116,2.65824 -11.33849,2.65824c-3.39739,0 -6.25473,-2.71815 -9.14517,-2.89034c-11.42189,-0.68046 -18.84089,-0.27535 -18.84089,-5.78223c0,-2.01419 -1.51249,-2.97907 -1.4438,-5.43614c0.04087,-1.46181 2.80607,-3.31136 4.61774,-4.04121c1.72715,-0.69579 3.51743,-0.31567 4.94499,-1.83827c0.38912,-0.41502 3.48587,0.61249 4.9971,-0.02066c1.24023,-0.51961 0.90776,-2.73359 1.4313,-2.87942c4.05344,-1.12906 6.14125,-3.8644 10.96483,-3.8644c0.86244,0 3.32213,-1.60162 5.41357,-1.62788c1.81627,-0.0228 3.2788,1.50385 4.12387,1.79538c4.2192,1.45557 3.70419,4.01525 6.75814,4.96498c1.0045,0.31239 4.05806,0.2235 6.11464,-0.45493c2.01917,-0.66608 5.20853,1.31218 5.96733,1.57784c5.67668,1.9874 4.55634,4.29715 4.55634,8.00288z" fill="url(#color-8)" stroke="none" stroke-width="0" stroke-linecap="butt"/><path d="M73.71765,-53.32601c0,5.25669 -7.91407,7.99125 -19.12148,9.83615c-3.50457,0.5769 -7.33116,2.65824 -11.33849,2.65824c-3.39739,0 -6.25473,-2.71815 -9.14517,-2.89034c-11.42189,-0.68046 -18.8409,-0.27535 -18.8409,-5.78223c0,-2.01419 -1.51249,-2.97907 -1.4438,-5.43615c0.04087,-1.46181 2.80607,-3.31136 4.61774,-4.0412c1.72715,-0.69579 3.51743,-0.31567 4.94499,-1.83827c0.38912,-0.41502 3.48587,0.61249 4.9971,-0.02066c1.24023,-0.51961 0.90776,-2.7336 1.4313,-2.87942c4.05344,-1.12906 6.14125,-3.8644 10.96483,-3.8644c0.86244,0 3.32212,-1.60162 5.41357,-1.62788c1.81626,-0.0228 3.2788,1.50384 4.12387,1.79538c4.21921,1.45557 3.70419,4.01525 6.75814,4.96498c1.0045,0.31238 4.05806,0.2235 6.11464,-0.45493c2.01917,-0.66609 5.20853,1.31218 5.96733,1.57784c5.67668,1.9874 4.55634,4.29716 4.55634,8.00289z" fill="url(#color-9)" stroke="none" stroke-width="0" stroke-linecap="butt"/><path d="M233.02621,-64.61562c0,5.25669 -7.91407,7.99125 -19.12148,9.83614c-3.50456,0.5769 -7.33115,2.65824 -11.33849,2.65824c-3.39739,0 -6.25474,-2.71815 -9.14518,-2.89034c-11.42189,-0.68046 -18.84089,-0.27535 -18.84089,-5.78223c0,-2.01419 -1.51249,-2.97906 -1.4438,-5.43614c0.04087,-1.46181 2.80606,-3.31136 4.61774,-4.0412c1.72715,-0.69579 3.51743,-0.31567 4.94499,-1.83827c0.38912,-0.41503 3.48587,0.61249 4.9971,-0.02066c1.24023,-0.51961 0.90776,-2.7336 1.4313,-2.87943c4.05344,-1.12907 6.14126,-3.8644 10.96484,-3.8644c0.86244,0 3.32212,-1.60162 5.41356,-1.62788c1.81627,-0.0228 3.27881,1.50385 4.12388,1.79538c4.2192,1.45557 3.70419,4.01525 6.75813,4.96498c1.0045,0.31239 4.05806,0.2235 6.11464,-0.45493c2.01917,-0.66609 5.20852,1.31218 5.96732,1.57784c5.67669,1.9874 4.55635,4.29716 4.55635,8.00289z" fill="url(#color-10)" stroke="none" stroke-width="0" stroke-linecap="butt"/><path d="M351.27119,-0.37226c0,5.25669 -7.91407,7.99125 -19.12148,9.83615c-3.50456,0.5769 -7.33115,2.65824 -11.33849,2.65824c-3.39739,0 -6.25473,-2.71814 -9.14517,-2.89034c-11.42189,-0.68046 -18.8409,-0.27535 -18.8409,-5.78223c0,-2.01419 -1.51249,-2.97907 -1.4438,-5.43615c0.04087,-1.46181 2.80606,-3.31136 4.61774,-4.0412c1.72715,-0.69579 3.51743,-0.31568 4.94499,-1.83828c0.38912,-0.41502 3.48587,0.6125 4.9971,-0.02065c1.24023,-0.51961 0.90776,-2.7336 1.4313,-2.87943c4.05344,-1.12906 6.14126,-3.8644 10.96484,-3.8644c0.86244,0 3.32212,-1.60162 5.41356,-1.62788c1.81627,-0.0228 3.27881,1.50385 4.12387,1.79538c4.2192,1.45557 3.70419,4.01525 6.75813,4.96498c1.0045,0.31239 4.05806,0.2235 6.11464,-0.45493c2.01917,-0.66608 5.20853,1.31218 5.96732,1.57784c5.67669,1.9874 4.55635,4.29716 4.55635,8.00289z" fill="url(#color-11)" stroke="none" stroke-width="0" stroke-linecap="butt"/><path d="M620.20098,27.37598c0,5.25669 -7.91407,7.99125 -19.12148,9.83614c-3.50456,0.5769 -7.33115,2.65824 -11.33849,2.65824c-3.39739,0 -6.25473,-2.71814 -9.14517,-2.89034c-11.42189,-0.68046 -18.8409,-0.27535 -18.8409,-5.78223c0,-2.01419 -1.51249,-2.97907 -1.4438,-5.43615c0.04087,-1.46181 2.80607,-3.31136 4.61774,-4.0412c1.72715,-0.69579 3.51743,-0.31567 4.94499,-1.83828c0.38912,-0.41502 3.48587,0.61249 4.9971,-0.02066c1.24023,-0.51961 0.90776,-2.7336 1.4313,-2.87943c4.05344,-1.12906 6.14125,-3.8644 10.96483,-3.8644c0.86244,0 3.32213,-1.60163 5.41357,-1.62788c1.81627,-0.0228 3.27881,1.50385 4.12387,1.79539c4.2192,1.45557 3.70419,4.01524 6.75813,4.96498c1.0045,0.31239 4.05806,0.2235 6.11464,-0.45493c2.01917,-0.66609 5.20853,1.31218 5.96732,1.57784c5.67668,1.9874 4.55635,4.29715 4.55635,8.00289z" fill="url(#color-12)" stroke="none" stroke-width="0" stroke-linecap="butt"/><path d="M330.64628,81.55514c0,5.25669 -7.91408,7.99125 -19.12149,9.83615c-3.50456,0.5769 -7.33115,2.65824 -11.33849,2.65824c-3.39739,0 -6.25473,-2.71814 -9.14517,-2.89034c-11.42189,-0.68046 -18.84089,-0.27535 -18.84089,-5.78223c0,-2.01419 -1.51249,-2.97906 -1.4438,-5.43614c0.04087,-1.46181 2.80607,-3.31137 4.61774,-4.04121c1.72715,-0.69579 3.51743,-0.31567 4.94499,-1.83827c0.38912,-0.41502 3.48586,0.61249 4.99709,-0.02066c1.24023,-0.51961 0.90776,-2.73359 1.43131,-2.87942c4.05344,-1.12906 6.14125,-3.8644 10.96483,-3.8644c0.86244,0 3.32212,-1.60162 5.41356,-1.62788c1.81627,-0.0228 3.2788,1.50385 4.12387,1.79538c4.2192,1.45557 3.70419,4.01525 6.75814,4.96498c1.0045,0.31239 4.05806,0.22349 6.11464,-0.45493c2.01917,-0.66609 5.20853,1.31219 5.96732,1.57784c5.67669,1.9874 4.55635,4.29715 4.55635,8.00289z" fill="url(#color-13)" stroke="none" stroke-width="0" stroke-linecap="butt"/><path d="M393.44745,-89.41637c0,5.25669 -7.91408,7.99125 -19.12149,9.83615c-3.50456,0.5769 -7.33116,2.65824 -11.33849,2.65824c-3.39739,0 -6.25473,-2.71815 -9.14517,-2.89034c-11.42189,-0.68046 -18.84089,-0.27535 -18.84089,-5.78223c0,-2.01419 -1.51249,-2.97907 -1.4438,-5.43615c0.04087,-1.46181 2.80607,-3.31136 4.61774,-4.0412c1.72715,-0.69579 3.51743,-0.31567 4.94499,-1.83827c0.38912,-0.41502 3.48587,0.61249 4.9971,-0.02066c1.24023,-0.51961 0.90776,-2.73359 1.4313,-2.87942c4.05344,-1.12906 6.14125,-3.8644 10.96483,-3.8644c0.86244,0 3.32213,-1.60162 5.41357,-1.62787c1.81627,-0.0228 3.2788,1.50384 4.12387,1.79538c4.2192,1.45557 3.70419,4.01525 6.75814,4.96498c1.0045,0.31239 4.05806,0.2235 6.11464,-0.45492c2.01917,-0.66609 5.20853,1.31218 5.96733,1.57784c5.67668,1.9874 4.55634,4.29715 4.55634,8.00288z" fill="url(#color-14)" stroke="none" stroke-width="0" stroke-linecap="butt"/><path d="M649.30904,57.14245c0,5.25669 -7.91408,7.99125 -19.12149,9.83615c-3.50456,0.5769 -7.33115,2.65824 -11.33849,2.65824c-3.39739,0 -6.25473,-2.71815 -9.14517,-2.89034c-11.42189,-0.68046 -18.8409,-0.27535 -18.8409,-5.78223c0,-2.01419 -1.51249,-2.97907 -1.4438,-5.43615c0.04087,-1.46181 2.80607,-3.31136 4.61774,-4.0412c1.72715,-0.69579 3.51743,-0.31567 4.94499,-1.83827c0.38912,-0.41502 3.48587,0.61249 4.9971,-0.02066c1.24023,-0.51961 0.90776,-2.7336 1.4313,-2.87942c4.05344,-1.12906 6.14125,-3.8644 10.96483,-3.8644c0.86244,0 3.32213,-1.60162 5.41357,-1.62788c1.81627,-0.0228 3.2788,1.50385 4.12387,1.79538c4.2192,1.45557 3.70419,4.01525 6.75813,4.96498c1.0045,0.31238 4.05806,0.2235 6.11464,-0.45493c2.01917,-0.66609 5.20853,1.31218 5.96733,1.57784c5.67669,1.9874 4.55634,4.29716 4.55634,8.00289z" fill="url(#color-15)" stroke="none" stroke-width="0" stroke-linecap="butt"/><path d="M152.06698,-38.9158c0,5.25669 -7.91407,7.99125 -19.12148,9.83614c-3.50456,0.5769 -7.33115,2.65824 -11.33849,2.65824c-3.39739,0 -6.25473,-2.71814 -9.14517,-2.89034c-11.42189,-0.68046 -18.8409,-0.27535 -18.8409,-5.78223c0,-2.01419 -1.51249,-2.97907 -1.4438,-5.43615c0.04087,-1.46181 2.80606,-3.31136 4.61774,-4.0412c1.72715,-0.69579 3.51743,-0.31568 4.94499,-1.83828c0.38912,-0.41502 3.48587,0.6125 4.9971,-0.02065c1.24023,-0.51961 0.90776,-2.7336 1.4313,-2.87943c4.05344,-1.12906 6.14126,-3.8644 10.96484,-3.8644c0.86244,0 3.32212,-1.60162 5.41356,-1.62788c1.81627,-0.0228 3.27881,1.50385 4.12387,1.79538c4.21921,1.45557 3.70419,4.01525 6.75814,4.96498c1.0045,0.31239 4.05806,0.2235 6.11464,-0.45493c2.01917,-0.66608 5.20852,1.31218 5.96732,1.57784c5.67668,1.9874 4.55634,4.29716 4.55634,8.00289z" fill="url(#color-16)" stroke="none" stroke-width="0" stroke-linecap="butt"/><path d="M653.3335,-26.05345c0,5.25669 -7.91408,7.99125 -19.12149,9.83614c-3.50456,0.5769 -7.33115,2.65824 -11.33849,2.65824c-3.39739,0 -6.25473,-2.71815 -9.14517,-2.89034c-11.42189,-0.68046 -18.8409,-0.27535 -18.8409,-5.78223c0,-2.01419 -1.51249,-2.97907 -1.4438,-5.43615c0.04087,-1.46181 2.80607,-3.31136 4.61774,-4.0412c1.72715,-0.69579 3.51743,-0.31567 4.94499,-1.83827c0.38912,-0.41502 3.48587,0.61249 4.9971,-0.02065c1.24023,-0.51961 0.90776,-2.7336 1.4313,-2.87943c4.05344,-1.12907 6.14125,-3.8644 10.96483,-3.8644c0.86244,0 3.32213,-1.60163 5.41357,-1.62788c1.81627,-0.0228 3.27881,1.50385 4.12387,1.79539c4.21921,1.45557 3.70419,4.01525 6.75814,4.96498c1.0045,0.31239 4.05806,0.2235 6.11464,-0.45493c2.01917,-0.66609 5.20853,1.31218 5.96732,1.57784c5.67669,1.9874 4.55634,4.29715 4.55634,8.00289z" fill="url(#color-17)" stroke="none" stroke-width="0" stroke-linecap="butt"/><path d="M582.56131,-6.19502c0,5.81235 -8.75064,8.83597 -21.14273,10.87588c-3.87501,0.63788 -8.10609,2.93923 -12.53703,2.93923c-3.75651,0 -6.91589,-3.00546 -10.11186,-3.19586c-12.62924,-0.75239 -20.83247,-0.30446 -20.83247,-6.39344c0,-2.2271 -1.67237,-3.29397 -1.59642,-6.01077c0.04519,-1.61633 3.10269,-3.66139 5.10586,-4.46839c1.90972,-0.76934 3.88924,-0.34904 5.4677,-2.03258c0.43025,-0.45889 3.85433,0.67723 5.52531,-0.02284c1.37133,-0.57454 1.00372,-3.02254 1.58261,-3.18379c4.48191,-1.24841 6.79041,-4.27289 12.12387,-4.27289c0.9536,0 3.67329,-1.77092 5.9858,-1.79996c2.00826,-0.02521 3.62539,1.66281 4.55978,1.98516c4.66519,1.60943 4.09574,4.43968 7.47251,5.4898c1.11068,0.34541 4.48702,0.24711 6.76099,-0.50302c2.23261,-0.73649 5.7591,1.4509 6.5981,1.74464c6.27675,2.19748 5.03798,4.75138 5.03798,8.84883z" fill="url(#color-18)" stroke="none" stroke-width="0" stroke-linecap="butt"/><path d="M273.9669,13.22353c0,5.25669 -7.91407,7.99125 -19.12148,9.83615c-3.50456,0.5769 -7.33115,2.65824 -11.33849,2.65824c-3.39739,0 -6.25473,-2.71815 -9.14517,-2.89034c-11.42189,-0.68046 -18.8409,-0.27535 -18.8409,-5.78223c0,-2.01419 -1.51249,-2.97907 -1.4438,-5.43615c0.04087,-1.46181 2.80607,-3.31136 4.61774,-4.0412c1.72715,-0.69579 3.51743,-0.31567 4.94499,-1.83827c0.38912,-0.41503 3.48587,0.61249 4.9971,-0.02066c1.24023,-0.51961 0.90776,-2.73359 1.4313,-2.87942c4.05344,-1.12906 6.14125,-3.8644 10.96483,-3.8644c0.86244,0 3.32213,-1.60162 5.41357,-1.62788c1.81626,-0.0228 3.2788,1.50384 4.12387,1.79538c4.21921,1.45557 3.70419,4.01525 6.75814,4.96498c1.0045,0.31239 4.05806,0.2235 6.11464,-0.45492c2.01917,-0.66609 5.20853,1.31218 5.96733,1.57784c5.67668,1.9874 4.55634,4.29716 4.55634,8.00289z" fill="url(#color-19)" stroke="none" stroke-width="0" stroke-linecap="butt"/><path d="M496.77996,11.45044c0,5.25669 -7.91407,7.99125 -19.12148,9.83614c-3.50456,0.5769 -7.33115,2.65824 -11.33849,2.65824c-3.39739,0 -6.25474,-2.71815 -9.14518,-2.89034c-11.42189,-0.68046 -18.84089,-0.27535 -18.84089,-5.78223c0,-2.01419 -1.51249,-2.97906 -1.4438,-5.43614c0.04087,-1.46181 2.80606,-3.31136 4.61774,-4.0412c1.72715,-0.69579 3.51743,-0.31567 4.94499,-1.83827c0.38912,-0.41503 3.48587,0.61249 4.9971,-0.02066c1.24023,-0.51961 0.90776,-2.73359 1.4313,-2.87942c4.05344,-1.12906 6.14126,-3.8644 10.96484,-3.8644c0.86244,0 3.32212,-1.60162 5.41356,-1.62787c1.81627,-0.0228 3.27881,1.50384 4.12388,1.79538c4.2192,1.45557 3.70419,4.01524 6.75813,4.96498c1.0045,0.31239 4.05806,0.2235 6.11464,-0.45493c2.01917,-0.66609 5.20853,1.31218 5.96732,1.57784c5.67668,1.9874 4.55635,4.29716 4.55635,8.00289z" fill="url(#color-20)" stroke="none" stroke-width="0" stroke-linecap="butt"/><path d="M443.44285,-25.91478c-0.02426,5.25663 -7.95086,7.95465 -19.16666,9.74781c-3.50719,0.56072 -7.34334,2.62438 -11.35064,2.60589c-3.39736,-0.01568 -6.24213,-2.74698 -9.13174,-2.93251c-11.41863,-0.73316 -18.83942,-0.36228 -18.81401,-5.86911c0.00929,-2.01417 -1.49873,-2.98601 -1.4187,-5.44275c0.04761,-1.46161 2.82131,-3.29838 4.63633,-4.01985c1.73034,-0.68781 3.51885,-0.29944 4.95342,-1.81544c0.39103,-0.41323 3.483,0.62857 4.99714,0.0024c1.24261,-0.51388 0.92036,-2.72938 1.44458,-2.87279c4.05861,-1.11035 6.15902,-3.83602 10.98255,-3.81376c0.86243,0.00398 3.32947,-1.58627 5.42101,-1.60288c1.81635,-0.01442 3.27183,1.51896 4.11555,1.81439c4.21244,1.47502 3.68562,4.0323 6.73515,4.99612c1.00305,0.31702 4.05699,0.24222 6.11667,-0.42671c2.02222,-0.65676 5.20241,1.3362 5.95998,1.60536c5.66745,2.01357 4.53647,4.31813 4.51937,8.02383z" fill="url(#color-21)" stroke="none" stroke-width="0" stroke-linecap="butt"/><path d="M753.25162,-7.56097c0,5.25669 -7.91408,7.99125 -19.12149,9.83614c-3.50456,0.5769 -7.33115,2.65824 -11.33849,2.65824c-3.39739,0 -6.25473,-2.71814 -9.14517,-2.89034c-11.42189,-0.68046 -18.8409,-0.27535 -18.8409,-5.78223c0,-2.01419 -1.51249,-2.97907 -1.4438,-5.43615c0.04087,-1.46181 2.80607,-3.31136 4.61774,-4.0412c1.72715,-0.69579 3.51743,-0.31567 4.94499,-1.83828c0.38912,-0.41502 3.48587,0.6125 4.9971,-0.02065c1.24023,-0.51961 0.90776,-2.7336 1.4313,-2.87943c4.05344,-1.12906 6.14125,-3.8644 10.96483,-3.8644c0.86244,0 3.32213,-1.60162 5.41357,-1.62788c1.81627,-0.0228 3.27881,1.50385 4.12387,1.79539c4.2192,1.45557 3.70419,4.01524 6.75813,4.96498c1.0045,0.31239 4.05806,0.2235 6.11464,-0.45493c2.01917,-0.66609 5.20853,1.31218 5.96732,1.57784c5.67669,1.9874 4.55634,4.29715 4.55634,8.00289z" fill="url(#color-22)" stroke="none" stroke-width="0" stroke-linecap="butt"/><path d="M101.64564,-20.85781c0,5.25669 -7.91408,7.99125 -19.12149,9.83615c-3.50456,0.5769 -7.33116,2.65824 -11.33849,2.65824c-3.39739,0 -6.25473,-2.71815 -9.14517,-2.89034c-11.42189,-0.68046 -18.84089,-0.27535 -18.84089,-5.78223c0,-2.01419 -1.51249,-2.97907 -1.4438,-5.43615c0.04087,-1.46181 2.80607,-3.31136 4.61774,-4.0412c1.72715,-0.69579 3.51743,-0.31567 4.94499,-1.83827c0.38912,-0.41502 3.48587,0.61249 4.9971,-0.02066c1.24023,-0.51961 0.90776,-2.73359 1.4313,-2.87943c4.05344,-1.12907 6.14125,-3.8644 10.96483,-3.8644c0.86244,0 3.32213,-1.60162 5.41357,-1.62787c1.81627,-0.0228 3.2788,1.50385 4.12387,1.79538c4.2192,1.45557 3.70419,4.01525 6.75814,4.96499c1.0045,0.31239 4.05806,0.2235 6.11464,-0.45493c2.01917,-0.66608 5.20853,1.31218 5.96732,1.57784c5.67669,1.9874 4.55635,4.29715 4.55635,8.00288z" fill="url(#color-23)" stroke="none" stroke-width="0" stroke-linecap="butt"/><path d="M532.04149,63.20551c0,5.25669 -7.91408,7.99125 -19.12149,9.83615c-3.50456,0.5769 -7.33115,2.65824 -11.33849,2.65824c-3.39739,0 -6.25473,-2.71815 -9.14517,-2.89034c-11.42189,-0.68046 -18.8409,-0.27535 -18.8409,-5.78223c0,-2.01419 -1.51249,-2.97907 -1.4438,-5.43615c0.04087,-1.46181 2.80607,-3.31136 4.61774,-4.0412c1.72715,-0.69579 3.51743,-0.31567 4.94499,-1.83827c0.38912,-0.41503 3.48587,0.61249 4.9971,-0.02066c1.24023,-0.51961 0.90776,-2.73359 1.4313,-2.87942c4.05344,-1.12906 6.14125,-3.8644 10.96483,-3.8644c0.86244,0 3.32213,-1.60162 5.41357,-1.62788c1.81627,-0.0228 3.2788,1.50384 4.12387,1.79538c4.2192,1.45557 3.70419,4.01525 6.75813,4.96498c1.0045,0.31239 4.05806,0.2235 6.11464,-0.45493c2.01917,-0.66608 5.20853,1.31218 5.96733,1.57784c5.67669,1.9874 4.55634,4.29716 4.55634,8.00289z" fill="url(#color-24)" stroke="none" stroke-width="0" stroke-linecap="butt"/><path d="M239.0172,-13.57959c0,5.25669 -7.91407,7.99125 -19.12148,9.83614c-3.50456,0.5769 -7.33115,2.65824 -11.33849,2.65824c-3.39739,0 -6.25474,-2.71815 -9.14518,-2.89034c-11.42189,-0.68046 -18.84089,-0.27535 -18.84089,-5.78223c0,-2.01419 -1.51249,-2.97906 -1.4438,-5.43614c0.04087,-1.46181 2.80606,-3.31136 4.61774,-4.0412c1.72715,-0.69579 3.51743,-0.31567 4.94499,-1.83827c0.38912,-0.41503 3.48587,0.61249 4.9971,-0.02066c1.24023,-0.51961 0.90776,-2.73359 1.4313,-2.87942c4.05344,-1.12906 6.14126,-3.8644 10.96484,-3.8644c0.86244,0 3.32212,-1.60162 5.41356,-1.62787c1.81626,-0.0228 3.2788,1.50384 4.12387,1.79538c4.2192,1.45557 3.70419,4.01524 6.75813,4.96498c1.0045,0.31239 4.05806,0.2235 6.11464,-0.45493c2.01917,-0.66609 5.20853,1.31218 5.96732,1.57784c5.67669,1.9874 4.55635,4.29716 4.55635,8.00289z" fill="url(#color-25)" stroke="none" stroke-width="0" stroke-linecap="butt"/><path d="M595.25836,75.14725c0,5.25669 -7.91407,7.99125 -19.12148,9.83614c-3.50456,0.5769 -7.33115,2.65824 -11.33849,2.65824c-3.39739,0 -6.25473,-2.71814 -9.14517,-2.89034c-11.42189,-0.68046 -18.8409,-0.27535 -18.8409,-5.78223c0,-2.01419 -1.51249,-2.97906 -1.4438,-5.43615c0.04087,-1.46181 2.80606,-3.31136 4.61774,-4.0412c1.72715,-0.69579 3.51743,-0.31568 4.94499,-1.83828c0.38912,-0.41502 3.48587,0.6125 4.9971,-0.02065c1.24023,-0.51961 0.90776,-2.7336 1.4313,-2.87943c4.05344,-1.12906 6.14126,-3.8644 10.96484,-3.8644c0.86244,0 3.32212,-1.60162 5.41356,-1.62788c1.81627,-0.0228 3.27881,1.50385 4.12387,1.79538c4.2192,1.45557 3.70419,4.01525 6.75813,4.96498c1.0045,0.31239 4.05806,0.2235 6.11464,-0.45493c2.01917,-0.66608 5.20853,1.31218 5.96732,1.57784c5.67669,1.9874 4.55635,4.29716 4.55635,8.00289z" fill="url(#color-26)" stroke="none" stroke-width="0" stroke-linecap="butt"/></g></g></svg>