<svg version="1.1" xmlns="http://www.w3.org/2000/svg" xmlns:xlink="http://www.w3.org/1999/xlink" width="207.1822" height="69.80182" viewBox="0,0,207.1822,69.80182"><defs><radialGradient cx="238.75" cy="179.375" r="35.375" gradientUnits="userSpaceOnUse" id="color-1"><stop offset="0" stop-color="#ffffff"/><stop offset="1" stop-color="#868686"/></radialGradient></defs><g transform="translate(-202.375,-144.07318)"><g data-paper-data="{&quot;isPaintingLayer&quot;:true}" fill-rule="nonzero" stroke-linejoin="miter" stroke-miterlimit="10" stroke-dasharray="" stroke-dashoffset="0" style="mix-blend-mode: normal"><path d="M203.375,212.875v-67h70.75v67z" fill="url(#color-1)" stroke="#000000" stroke-width="2" stroke-linecap="butt"/><text transform="translate(278.2447,165.82318) scale(0.5,0.5)" font-size="40" xml:space="preserve" fill="#ffffff" fill-rule="nonzero" stroke="none" stroke-width="1" stroke-linecap="butt" stroke-linejoin="miter" stroke-miterlimit="10" stroke-dasharray="" stroke-dashoffset="0" font-family="Sans Serif" font-weight="normal" text-anchor="start" style="mix-blend-mode: normal"><tspan x="0" dy="0">油价26币/单位</tspan></text><path d="M246.50492,187.27172c0,4.13288 -3.14934,7.48325 -7.03425,7.48325c-3.88491,0 -7.03425,-3.35036 -7.03425,-7.48325c0,-4.13288 7.18392,-16.16381 7.18392,-16.16381c0,0 6.88459,12.03093 6.88459,16.16381z" fill="#ff9708" stroke="#ff9708" stroke-width="0.5" stroke-linecap="butt"/><path d="M253.87536,178.11077c0,2.73499 -2.08412,4.95215 -4.65502,4.95215c-2.5709,0 -4.65502,-2.21716 -4.65502,-4.95215c0,-2.73499 4.75406,-10.69664 4.75406,-10.69664c0,0 4.55598,7.96165 4.55598,10.69664z" fill="#ff9708" stroke="#ff9708" stroke-width="0.5" stroke-linecap="butt"/><text transform="translate(234.0013,189.79951) scale(0.26641,0.26641)" font-size="40" xml:space="preserve" fill="#ffffff" fill-rule="nonzero" stroke="none" stroke-width="1" stroke-linecap="butt" stroke-linejoin="miter" stroke-miterlimit="10" stroke-dasharray="" stroke-dashoffset="0" font-family="Sans Serif" font-weight="normal" text-anchor="start" style="mix-blend-mode: normal"><tspan x="0" dy="0">油</tspan></text><path d="M236.09767,174.62787c0,3.19471 -2.43444,5.78453 -5.43746,5.78453c-3.00302,0 -5.43746,-2.58983 -5.43746,-5.78453c0,-3.19471 5.55315,-12.49459 5.55315,-12.49459c0,0 5.32177,9.29988 5.32177,12.49459z" fill="#ff9708" stroke="#ff9708" stroke-width="0.5" stroke-linecap="butt"/><path d="M262.99611,178.85041l-2.95762,3.34842l-0.12859,-13.39369l-0.74021,0.0371l-0.12859,13.39369l-2.95762,-3.34842" fill="none" stroke="#9bff08" stroke-width="1.5" stroke-linecap="round"/><path d="M223.83175,198.1082l-2.95762,3.34841l-0.12859,-13.39369l-0.74021,0.0371l-0.12859,13.3937l-2.95762,-3.34843" fill="none" stroke="#9bff08" stroke-width="1.5" stroke-linecap="round"/></g></g></svg>