<svg version="1.1" xmlns="http://www.w3.org/2000/svg" xmlns:xlink="http://www.w3.org/1999/xlink" width="208.80278" height="71.43365" viewBox="0,0,208.80278,71.43365"><defs><radialGradient cx="238.75003" cy="179.37501" r="35.375" gradientUnits="userSpaceOnUse" id="color-1"><stop offset="0" stop-color="#ffffff"/><stop offset="1" stop-color="#72d857"/></radialGradient><linearGradient x1="240.17995" y1="180.41971" x2="240.17995" y2="172.34668" gradientUnits="userSpaceOnUse" id="color-2"><stop offset="0" stop-color="#d5d5d5"/><stop offset="1" stop-color="#ffffff"/></linearGradient><linearGradient x1="240.35995" y1="165.53179" x2="240.35995" y2="173.60482" gradientUnits="userSpaceOnUse" id="color-3"><stop offset="0" stop-color="#d5d5d5"/><stop offset="1" stop-color="#ffffff"/></linearGradient><linearGradient x1="231.60023" y1="168.277" x2="231.60023" y2="176.45461" gradientUnits="userSpaceOnUse" id="color-4"><stop offset="0" stop-color="#9c9c9c"/><stop offset="1" stop-color="#e9e9e9"/></linearGradient><linearGradient x1="228.49531" y1="170.14616" x2="228.49531" y2="171.78169" gradientUnits="userSpaceOnUse" id="color-5"><stop offset="0" stop-color="#ffffff"/><stop offset="1" stop-color="#dbdbdb"/></linearGradient><linearGradient x1="234.80865" y1="170.37982" x2="234.80865" y2="172.01534" gradientUnits="userSpaceOnUse" id="color-6"><stop offset="0" stop-color="#ffffff"/><stop offset="1" stop-color="#dbdbdb"/></linearGradient><linearGradient x1="247.94671" y1="168.00899" x2="247.94671" y2="176.1866" gradientUnits="userSpaceOnUse" id="color-7"><stop offset="0" stop-color="#9c9c9c"/><stop offset="1" stop-color="#e9e9e9"/></linearGradient><linearGradient x1="244.8418" y1="169.87816" x2="244.8418" y2="171.51368" gradientUnits="userSpaceOnUse" id="color-8"><stop offset="0" stop-color="#ffffff"/><stop offset="1" stop-color="#dbdbdb"/></linearGradient><linearGradient x1="251.15513" y1="170.1118" x2="251.15513" y2="171.74732" gradientUnits="userSpaceOnUse" id="color-9"><stop offset="0" stop-color="#ffffff"/><stop offset="1" stop-color="#dbdbdb"/></linearGradient><linearGradient x1="239.75952" y1="168.05933" x2="239.75952" y2="172.29244" gradientUnits="userSpaceOnUse" id="color-10"><stop offset="0" stop-color="#000000"/><stop offset="1" stop-color="#ffffff"/></linearGradient><linearGradient x1="239.7108" y1="176.52555" x2="239.7108" y2="172.29244" gradientUnits="userSpaceOnUse" id="color-11"><stop offset="0" stop-color="#000000"/><stop offset="1" stop-color="#ffffff"/></linearGradient></defs><g transform="translate(-202.37502,-142.44136)"><g data-paper-data="{&quot;isPaintingLayer&quot;:true}" fill-rule="nonzero" stroke-linejoin="miter" stroke-miterlimit="10" stroke-dasharray="" stroke-dashoffset="0" style="mix-blend-mode: normal"><path d="M203.37503,212.87501v-67h70.75v67z" fill="url(#color-1)" stroke="#000000" stroke-width="2" stroke-linecap="butt"/><path d="M233.74656,207.94508v-55.89016h12.50689v55.89016z" fill="#656565" stroke="#000000" stroke-width="1" stroke-linecap="butt"/><path d="M240.04608,154.7908l-0.31568,41.03823" fill="none" stroke="#ffffff" stroke-width="1.5" stroke-linecap="round"/><path d="M239.77309,195.96401l-0.08499,9.26435" fill="none" stroke="#ff9708" stroke-width="1.5" stroke-linecap="round"/><path d="M236.11835,200.82946l2.97479,-4.16471" fill="none" stroke="#ff9708" stroke-width="0.5" stroke-linecap="round"/><path d="M239.17124,199.46267l-2.97479,4.16471" fill="none" stroke="#ff9708" stroke-width="0.5" stroke-linecap="round"/><path d="M239.33435,202.00561l-2.97479,4.16471" fill="none" stroke="#ff9708" stroke-width="0.5" stroke-linecap="round"/><text transform="translate(241.07765,156.85168) scale(0.0502,0.0502)" font-size="40" xml:space="preserve" fill="#ffffff" fill-rule="nonzero" stroke="none" stroke-width="1" stroke-linecap="butt" stroke-linejoin="miter" stroke-miterlimit="10" stroke-dasharray="" stroke-dashoffset="0" font-family="Sans Serif" font-weight="normal" text-anchor="start" style="mix-blend-mode: normal"><tspan x="0" dy="0">MAX</tspan></text><text transform="translate(241.07765,205.78076) scale(0.06085,0.06085)" font-size="40" xml:space="preserve" fill="#ffffff" fill-rule="nonzero" stroke="none" stroke-width="1" stroke-linecap="butt" stroke-linejoin="miter" stroke-miterlimit="10" stroke-dasharray="" stroke-dashoffset="0" font-family="Sans Serif" font-weight="normal" text-anchor="start" style="mix-blend-mode: normal"><tspan x="0" dy="0">反推</tspan></text><text transform="translate(279.06061,164.19136) scale(0.5,0.5)" font-size="40" xml:space="preserve" fill="#ffffff" fill-rule="nonzero" stroke="none" stroke-width="1" stroke-linecap="butt" stroke-linejoin="miter" stroke-miterlimit="10" stroke-dasharray="" stroke-dashoffset="0" font-family="Sans Serif" font-weight="normal" text-anchor="start" style="mix-blend-mode: normal"><tspan x="0" dy="0">最大推力105%</tspan></text><g><path d="M246.19497,172.34668v8.07304h-12.03004v-8.07304z" data-paper-data="{&quot;index&quot;:null}" fill="url(#color-2)" stroke="#000000" stroke-width="0.35" stroke-linecap="butt"/><path d="M234.34492,173.60482v-8.07304h12.03005v8.07304z" fill="url(#color-3)" stroke="#000000" stroke-width="0.35" stroke-linecap="butt"/><g><path d="M231.90945,175.22846c-2.07829,0.01939 -6.62256,1.22614 -6.62256,1.22614v-8.06078c0,0 3.73151,1.98599 6.41683,1.98599c2.68532,0 6.20984,-2.10281 6.20984,-2.10281l-0.1035,8.06078c0,0 -3.80466,-1.12888 -5.90062,-1.10932z" fill="url(#color-4)" stroke="#000000" stroke-width="0.25" stroke-linecap="round"/><path d="M226.32187,176.33778v-7.47667" fill="none" stroke="#000000" stroke-width="0.25" stroke-linecap="round"/><path d="M236.7751,176.22096v-7.47667" fill="none" stroke="#000000" stroke-width="0.25" stroke-linecap="round"/><path d="M226.94286,170.14616l3.20841,1.5187l-3.31191,0.11683z" fill="url(#color-5)" stroke="none" stroke-width="0" stroke-linecap="round"/><path d="M236.46461,172.01534l-3.31191,-0.11683l3.20841,-1.5187z" data-paper-data="{&quot;index&quot;:null}" fill="url(#color-6)" stroke="none" stroke-width="0" stroke-linecap="round"/><path d="M225.1834,172.01534h0.93148" fill="none" stroke="#000000" stroke-width="0.25" stroke-linecap="round"/><path d="M237.60308,172.13216h-0.93148" fill="none" stroke="#000000" stroke-width="0.25" stroke-linecap="round"/><path d="M254.15655,176.06977c0,0 -3.80466,-1.12888 -5.90062,-1.10932c-2.07828,0.01939 -6.62254,1.22614 -6.62254,1.22614v-8.06078c0,0 3.73151,1.98599 6.41683,1.98599c2.68533,0 6.20984,-2.10281 6.20984,-2.10281l-0.1035,8.06078z" fill="url(#color-7)" stroke="#000000" stroke-width="0.25" stroke-linecap="round"/><path d="M242.66835,168.59311v7.47667" fill="none" stroke="#000000" stroke-width="0.25" stroke-linecap="round"/><path d="M253.12158,168.47628v7.47667" fill="none" stroke="#000000" stroke-width="0.25" stroke-linecap="round"/><path d="M243.28933,169.87816l3.20841,1.5187l-3.31191,0.11683z" fill="url(#color-8)" stroke="none" stroke-width="0" stroke-linecap="round"/><path d="M252.81109,171.74732l-3.31191,-0.11683l3.20841,-1.5187z" data-paper-data="{&quot;index&quot;:null}" fill="url(#color-9)" stroke="none" stroke-width="0" stroke-linecap="round"/><path d="M242.46136,171.74732h-0.93148" fill="none" stroke="#000000" stroke-width="0.25" stroke-linecap="round"/><path d="M253.01809,171.86415h0.93148" fill="none" stroke="#000000" stroke-width="0.25" stroke-linecap="round"/><path d="M238.00615,172.29244v-4.23311h3.50674v4.23311z" fill="url(#color-10)" stroke="none" stroke-width="NaN" stroke-linecap="butt"/><path d="M241.46417,172.29244v4.23311h-3.50674v-4.23311z" data-paper-data="{&quot;index&quot;:null}" fill="url(#color-11)" stroke="none" stroke-width="NaN" stroke-linecap="butt"/></g></g><text transform="translate(240.3439,177.34591) scale(0.5,0.5)" font-size="40" xml:space="preserve" fill="#ff3b3b" fill-rule="nonzero" stroke="none" stroke-width="1" stroke-linecap="butt" stroke-linejoin="miter" stroke-miterlimit="10" stroke-dasharray="" stroke-dashoffset="0" font-family="Sans Serif" font-weight="normal" text-anchor="start" style="mix-blend-mode: normal"><tspan x="0" dy="0">＋</tspan></text><text transform="translate(218.50373,177.1422) scale(0.5,0.5)" font-size="40" xml:space="preserve" fill="#e43535" fill-rule="nonzero" stroke="none" stroke-width="1" stroke-linecap="butt" stroke-linejoin="miter" stroke-miterlimit="10" stroke-dasharray="" stroke-dashoffset="0" font-family="Sans Serif" font-weight="normal" text-anchor="start" style="mix-blend-mode: normal"><tspan x="0" dy="0">＋</tspan></text><g stroke="none" stroke-width="1" stroke-linecap="butt"><path d="M212.26349,154.43047l-1.82577,-1.98453l1.82577,-3.8103z" fill="#b20000"/><path d="M212.18408,154.43047l-6.033,-1.3495l4.20724,-0.63504z" fill="#dc0000"/><path d="M212.34284,154.43047v-5.79487l1.82577,3.8103z" fill="#e80000"/><path d="M212.26349,154.43047l1.82577,-1.98453l4.20724,0.63505z" fill="#ff0000"/><path d="M212.26349,154.43047l6.03305,-1.3495l-3.01653,2.93712z" fill="#b20000"/><path d="M215.27997,155.93872l0.71445,4.20721l-3.73093,-5.71547z" fill="#ff0000"/><path d="M212.26349,154.43047l-3.01653,1.58763l-3.01653,-2.93712z" fill="#b20000"/><path d="M212.26349,154.50983l-3.73096,5.71547l0.71445,-4.20724z" fill="#dc0000"/><path d="M212.26349,154.43047v3.73096l-3.73096,1.98453z" fill="#b20000"/><path d="M215.99442,160.22534l-3.73093,-1.98453v-3.8103c0,0 0.33149,0.51487 0.6156,0.95614c0.63912,0.99268 3.11533,4.83869 3.11533,4.83869z" fill="#e80000"/></g></g></g></svg>