<svg version="1.1" xmlns="http://www.w3.org/2000/svg" xmlns:xlink="http://www.w3.org/1999/xlink" width="591.69934" height="446.99952" viewBox="0,0,591.69934,446.99952"><defs><linearGradient x1="237.79288" y1="-87.49304" x2="237.79288" y2="304.21392" gradientUnits="userSpaceOnUse" id="color-1"><stop offset="0" stop-color="#52d4ff"/><stop offset="1" stop-color="#b9e3f0"/></linearGradient><linearGradient x1="141.39068" y1="220.66821" x2="141.39068" y2="301.12366" gradientUnits="userSpaceOnUse" id="color-2"><stop offset="0" stop-color="#ffffff"/><stop offset="1" stop-color="#a1c6d1"/></linearGradient><linearGradient x1="129.54234" y1="290.06522" x2="129.54234" y2="302.70346" gradientUnits="userSpaceOnUse" id="color-3"><stop offset="0" stop-color="#b9e3f0" stop-opacity="0"/><stop offset="1" stop-color="#b9e3f0"/></linearGradient><linearGradient x1="135.46651" y1="290.06522" x2="135.46651" y2="302.70346" gradientUnits="userSpaceOnUse" id="color-4"><stop offset="0" stop-color="#b9e3f0" stop-opacity="0"/><stop offset="1" stop-color="#b9e3f0"/></linearGradient><linearGradient x1="202.21217" y1="291.64501" x2="202.21217" y2="302.70346" gradientUnits="userSpaceOnUse" id="color-5"><stop offset="0" stop-color="#b9e3f0" stop-opacity="0"/><stop offset="1" stop-color="#b9e3f0"/></linearGradient><linearGradient x1="207.74139" y1="290.8551" x2="207.74139" y2="302.70346" gradientUnits="userSpaceOnUse" id="color-6"><stop offset="0" stop-color="#b9e3f0" stop-opacity="0"/><stop offset="1" stop-color="#b9e3f0"/></linearGradient><linearGradient x1="67.93096" y1="290.8551" x2="67.93096" y2="302.70346" gradientUnits="userSpaceOnUse" id="color-7"><stop offset="0" stop-color="#b9e3f0" stop-opacity="0"/><stop offset="1" stop-color="#b9e3f0"/></linearGradient><linearGradient x1="73.46019" y1="291.64501" x2="73.46019" y2="301.91355" gradientUnits="userSpaceOnUse" id="color-8"><stop offset="0" stop-color="#b9e3f0" stop-opacity="0"/><stop offset="1" stop-color="#b9e3f0"/></linearGradient><linearGradient x1="282.55031" y1="290.52835" x2="282.55031" y2="302.44937" gradientUnits="userSpaceOnUse" id="color-9"><stop offset="0" stop-color="#efefef"/><stop offset="1" stop-color="#ffffff"/></linearGradient><linearGradient x1="262.58465" y1="289.64738" x2="262.58465" y2="299.97483" gradientUnits="userSpaceOnUse" id="color-10"><stop offset="0" stop-color="#d8d8d8"/><stop offset="1" stop-color="#b0b0b0"/></linearGradient><linearGradient x1="326.51632" y1="291.58194" x2="326.51632" y2="300.12985" gradientUnits="userSpaceOnUse" id="color-11"><stop offset="0" stop-color="#efefef"/><stop offset="1" stop-color="#ffffff"/></linearGradient><linearGradient x1="312.20004" y1="290.95025" x2="312.20004" y2="298.35549" gradientUnits="userSpaceOnUse" id="color-12"><stop offset="0" stop-color="#d8d8d8"/><stop offset="1" stop-color="#b0b0b0"/></linearGradient><linearGradient x1="210.68751" y1="294.96343" x2="210.68751" y2="304.44654" gradientUnits="userSpaceOnUse" id="color-13"><stop offset="0" stop-color="#dedede"/><stop offset="1" stop-color="#ffffff"/></linearGradient><linearGradient x1="180.86414" y1="294.90344" x2="180.86414" y2="304.1744" gradientUnits="userSpaceOnUse" id="color-14"><stop offset="0" stop-color="#d0d0d0"/><stop offset="1" stop-color="#1a1a1a"/></linearGradient><linearGradient x1="399.70853" y1="296.09772" x2="399.70853" y2="306.1942" gradientUnits="userSpaceOnUse" id="color-15"><stop offset="0" stop-color="#dedede"/><stop offset="1" stop-color="#ffffff"/></linearGradient><linearGradient x1="431.46089" y1="296.03386" x2="431.46089" y2="305.90447" gradientUnits="userSpaceOnUse" id="color-16"><stop offset="0" stop-color="#d0d0d0"/><stop offset="1" stop-color="#1a1a1a"/></linearGradient><linearGradient x1="368.87884" y1="215.8156" x2="368.87884" y2="231.61339" gradientUnits="userSpaceOnUse" id="color-17"><stop offset="0" stop-color="#b5f1ff"/><stop offset="1" stop-color="#b5f1ff" stop-opacity="0"/></linearGradient><linearGradient x1="368.34961" y1="205.8077" x2="368.34961" y2="216.07627" gradientUnits="userSpaceOnUse" id="color-18"><stop offset="0" stop-color="#b5f1ff"/><stop offset="1" stop-color="#b5f1ff" stop-opacity="0"/></linearGradient></defs><g transform="translate(2.04767,87.49307)"><g data-paper-data="{&quot;isPaintingLayer&quot;:true}" fill-rule="nonzero" stroke-linejoin="miter" stroke-miterlimit="10" stroke-dasharray="" stroke-dashoffset="0" style="mix-blend-mode: normal"><path d="M-2.04767,304.21392v-391.70699h479.68112v391.70699z" fill="url(#color-1)" stroke="none" stroke-width="0" stroke-linecap="butt"/><path d="M364.1395,301.91355l-1.57978,-69.51027h13.42812v68.72038z" fill="#dcdcdc" stroke="#000000" stroke-width="0" stroke-linecap="round"/><path d="M0.4805,359.50645v-57h153.42117v57z" fill="#888888" stroke="#ffffff" stroke-width="0" stroke-linecap="butt"/><path d="M152.4805,359.50645v-57h153.42117v57z" fill="#888888" stroke="#ffffff" stroke-width="0" stroke-linecap="butt"/><path d="M303.4805,359.50645v-57h153.42117v57z" fill="#888888" stroke="#ffffff" stroke-width="0" stroke-linecap="butt"/><path d="M436.2305,359.50645v-57h153.42117v57z" fill="#888888" stroke="#ffffff" stroke-width="0" stroke-linecap="butt"/><path d="M227.7305,303.22207l-58,55" fill="none" stroke="#000000" stroke-width="1.5" stroke-linecap="round"/><path d="M34.7305,303.22204l-36,38" fill="none" stroke="#000000" stroke-width="1.5" stroke-linecap="round"/><path d="M245.65609,301.12366l-206.95103,-0.78989l-5.52923,-64.77091c0,0 25.95136,-13.42812 48.18325,-13.42812c13.06286,0 36.44047,12.50429 61.60988,11.79514c18.25254,-0.51427 37.44739,-14.71824 54.33411,-13.13921c30.18192,2.82223 52.30246,14.77219 52.30246,14.77219z" fill="url(#color-2)" stroke="#000000" stroke-width="1.5" stroke-linecap="round"/><text transform="translate(86.88831,253.7303) scale(0.5,0.5)" font-size="40" xml:space="preserve" fill="#c3c3c3" fill-rule="nonzero" stroke="none" stroke-width="1" stroke-linecap="butt" stroke-linejoin="miter" stroke-miterlimit="10" stroke-dasharray="" stroke-dashoffset="0" font-family="Sans Serif" font-weight="normal" text-anchor="start" style="mix-blend-mode: normal"><tspan x="0" dy="0">GITBLOCK</tspan></text><path d="M33.96572,302.70346v-68.72038h8.68878v68.72038z" fill="#000000" stroke="#000000" stroke-width="0.5" stroke-linecap="butt"/><path d="M239.59763,302.17422v-68.72038h8.68878v68.72038z" fill="#000000" stroke="#000000" stroke-width="0.5" stroke-linecap="butt"/><path d="M245.65608,254.52021h-204.58136" fill="none" stroke="#000000" stroke-width="0.5" stroke-linecap="round"/><path d="M39.49495,268.73821l203.00158,0.78989" fill="none" stroke="#000000" stroke-width="0.5" stroke-linecap="round"/><path d="M243.28642,279.00678l-204.58136,0.78989" fill="none" stroke="#000000" stroke-width="0.5" stroke-linecap="round"/><path d="M44.23428,301.91355l26.85624,-21.32701l30.80569,21.32701l33.17536,-22.1169l37.1248,22.1169l31.59558,-22.90679l37.1248,21.32701" fill="none" stroke="#000000" stroke-width="0.5" stroke-linecap="round"/><path d="M126.38278,302.70346v-12.63823h6.31912v12.63823z" fill="url(#color-3)" stroke="#000000" stroke-width="0.5" stroke-linecap="butt"/><path d="M132.7019,302.70346v-12.63823h5.52923v12.63823z" fill="url(#color-4)" stroke="#000000" stroke-width="0.5" stroke-linecap="butt"/><path d="M199.8425,302.70346v-11.05845h4.73934v11.05845z" fill="url(#color-5)" stroke="#000000" stroke-width="0.5" stroke-linecap="butt"/><path d="M204.58183,302.70346v-11.84834h6.31912v11.84834z" fill="url(#color-6)" stroke="#000000" stroke-width="0.5" stroke-linecap="butt"/><path d="M65.5613,302.70346v-11.84834h4.73934v11.84834z" fill="url(#color-7)" stroke="#000000" stroke-width="0.5" stroke-linecap="butt"/><path d="M69.51074,301.91355v-10.26856h7.89889v10.26856z" fill="url(#color-8)" stroke="#000000" stroke-width="0.5" stroke-linecap="butt"/><path d="M281.87901,302.44937c0,0 -0.11326,-1.77925 -0.82836,-2.3451c-0.65335,-0.51699 -2.15909,-0.57629 -2.15909,-0.57629l-0.05674,-8.99245c0,0 3.67504,-0.21033 6.23501,1.64572c0.32484,0.23552 0.42161,0.15707 0.5729,0.62358c1.36797,4.2182 0.05673,9.64454 0.05673,9.64454h-3.82047z" fill="url(#color-9)" stroke="#000000" stroke-width="1.5" stroke-linecap="butt"/><path d="M285.86967,296.83285l-0.90772,-0.1702l-0.22693,-2.83663l0.90772,-0.45386" fill="none" stroke="#000000" stroke-width="1.5" stroke-linecap="round"/><path d="M280.88869,302.48359c0,1.03979 -0.80401,1.8827 -1.79581,1.8827c-0.9918,0 -1.79581,-0.84291 -1.79581,-1.8827c0,-1.03979 0.80401,-1.8827 1.79581,-1.8827c0.9918,0 1.79581,0.84291 1.79581,1.8827z" fill="none" stroke="#000000" stroke-width="1.5" stroke-linecap="butt"/><path d="M279.99906,302.48359c0,0.52789 -0.39737,0.95583 -0.88756,0.95583c-0.49019,0 -0.88756,-0.42794 -0.88756,-0.95583c0,-0.52789 0.39737,-0.95583 0.88756,-0.95583c0.49019,0 0.88756,0.42794 0.88756,0.95583z" fill="#000000" stroke="#000000" stroke-width="1.5" stroke-linecap="butt"/><path d="M249.46469,299.57397c-2.74564,-0.75745 -2.62193,-4.73735 -1.65299,-7.17185c0.31769,-0.79821 1.56533,-1.86317 1.65299,-2.20742c0.16334,-0.64143 26.41753,-0.97528 26.97398,0.47923c0.17869,0.46707 1.09229,1.30419 1.2927,2.28512c0.56033,2.74257 0.22187,6.60571 -1.2927,6.61493c-3.1885,0.01939 -23.74011,0.89214 -26.97398,0z" fill="url(#color-10)" stroke="#000000" stroke-width="1.5" stroke-linecap="butt"/><path d="M253.29229,302.61426c0,1.03979 -0.80401,1.8827 -1.79581,1.8827c-0.9918,0 -1.79581,-0.84291 -1.79581,-1.8827c0,-1.03979 0.80401,-1.8827 1.79581,-1.8827c0.9918,0 1.79581,0.84291 1.79581,1.8827z" fill="none" stroke="#000000" stroke-width="1.5" stroke-linecap="butt"/><path d="M252.40266,302.61426c0,0.52789 -0.39737,0.95583 -0.88756,0.95583c-0.49019,0 -0.88756,-0.42794 -0.88756,-0.95583c0,-0.52789 0.39737,-0.95583 0.88756,-0.95583c0.49019,0 0.88756,0.42794 0.88756,0.95583z" fill="#000000" stroke="#000000" stroke-width="1.5" stroke-linecap="butt"/><path d="M258.0099,302.608c0,1.03979 -0.80401,1.8827 -1.79581,1.8827c-0.9918,0 -1.79581,-0.84291 -1.79581,-1.8827c0,-1.03979 0.80401,-1.8827 1.79581,-1.8827c0.9918,0 1.79581,0.84291 1.79581,1.8827z" fill="none" stroke="#000000" stroke-width="1.5" stroke-linecap="butt"/><path d="M257.12027,302.608c0,0.52789 -0.39737,0.95583 -0.88756,0.95583c-0.49019,0 -0.88756,-0.42794 -0.88756,-0.95583c0,-0.52789 0.39737,-0.95583 0.88756,-0.95583c0.49019,0 0.88756,0.42794 0.88756,0.95583z" fill="#000000" stroke="#000000" stroke-width="1.5" stroke-linecap="butt"/><path d="M252.52713,300.2586l-1.09539,2.19078v-2.53309" fill="none" stroke="#000000" stroke-width="1.5" stroke-linecap="round"/><path d="M257.04561,300.19013l-0.82155,2.25924l-0.13692,-2.32771" fill="none" stroke="#000000" stroke-width="1.5" stroke-linecap="round"/><path d="M276.35186,302.44937c0,0 0.6848,-1.93988 1.27444,-2.33297c0.48531,-0.32354 1.60095,-0.54243 1.60095,-0.54243l-0.06846,2.53309l1.57462,-1.84847" fill="none" stroke="#000000" stroke-width="1.5" stroke-linecap="round"/><path d="M279.02187,299.36859l-2.53309,0.34231h-0.47923" fill="none" stroke="#000000" stroke-width="1.5" stroke-linecap="round"/><path d="M273.88723,302.31245l-4.45002,0.20539l-0.06846,-1.78001l4.38156,-0.20539z" fill="none" stroke="#000000" stroke-width="1.5" stroke-linecap="round"/><path d="M273.88723,301.35398h2.94386" fill="none" stroke="#000000" stroke-width="1.5" stroke-linecap="round"/><path d="M270.66952,300.05321v0.68462" fill="none" stroke="#000000" stroke-width="1.5" stroke-linecap="round"/><path d="M272.51799,299.64243v0.75308" fill="none" stroke="#000000" stroke-width="1.5" stroke-linecap="round"/><path d="M269.77952,300.73783c0,0 -7.78072,0.2227 -9.92864,0.06047c-1.27124,-0.09601 -1.64141,-0.81355 -1.64141,-0.81355" fill="none" stroke="#000000" stroke-width="1.5" stroke-linecap="round"/><path d="M273.68185,300.39552l3.56002,0.06846" fill="none" stroke="#000000" stroke-width="1.5" stroke-linecap="round"/><path d="M253.88658,296.43451l-4.30332,0.19561l2.15166,-3.42309z" fill="none" stroke="#ff0000" stroke-width="1.5" stroke-linecap="round"/><text transform="translate(251.02097,296.49319) scale(0.07832,0.07832)" font-size="40" xml:space="preserve" fill="#d6ff00" fill-rule="nonzero" stroke="none" stroke-width="1" stroke-linecap="butt" stroke-linejoin="miter" stroke-miterlimit="10" stroke-dasharray="" stroke-dashoffset="0" font-family="Sans Serif" font-weight="normal" text-anchor="start" style="mix-blend-mode: normal"><tspan x="0" dy="0">！</tspan></text><text transform="translate(257.09086,296.11753) scale(0.12275,0.12275)" font-size="40" xml:space="preserve" fill="#ffffff" fill-rule="nonzero" stroke="none" stroke-width="1" stroke-linecap="butt" stroke-linejoin="miter" stroke-miterlimit="10" stroke-dasharray="" stroke-dashoffset="0" font-family="Sans Serif" font-weight="normal" text-anchor="start" style="mix-blend-mode: normal"><tspan x="0" dy="0">中国航油</tspan></text><path d="M326.03497,300.12985c0,0 -0.08121,-1.2758 -0.59397,-1.68154c-0.46848,-0.3707 -1.54816,-0.41322 -1.54816,-0.41322l-0.04068,-6.44799c0,0 2.63517,-0.15081 4.47078,1.18005c0.23293,0.16888 0.30231,0.11263 0.4108,0.44714c0.98089,3.02464 0.04068,6.91557 0.04068,6.91557h-2.73945z" fill="url(#color-11)" stroke="#000000" stroke-width="1.5" stroke-linecap="butt"/><path d="M328.89645,296.10255l-0.65088,-0.12204l-0.16272,-2.03399l0.65088,-0.32544" fill="none" stroke="#000000" stroke-width="1.5" stroke-linecap="round"/><path d="M325.32486,300.1544c0,0.74557 -0.57651,1.34998 -1.28768,1.34998c-0.71116,0 -1.28767,-0.60441 -1.28767,-1.34998c0,-0.74557 0.57651,-1.34998 1.28767,-1.34998c0.71116,0 1.28768,0.60441 1.28768,1.34998z" fill="none" stroke="#000000" stroke-width="1.5" stroke-linecap="butt"/><path d="M324.68696,300.1544c0,0.37852 -0.28493,0.68538 -0.63642,0.68538c-0.35149,0 -0.63642,-0.30685 -0.63642,-0.68538c0,-0.37852 0.28493,-0.68538 0.63642,-0.68538c0.35149,0 0.63642,0.30685 0.63642,0.68538z" fill="#000000" stroke="#000000" stroke-width="1.5" stroke-linecap="butt"/><path d="M302.79244,298.06807c-1.96875,-0.54312 -1.88004,-3.39689 -1.18527,-5.14254c0.2278,-0.57235 1.12241,-1.33598 1.18527,-1.58282c0.11712,-0.45994 18.94256,-0.69932 19.34155,0.34363c0.12813,0.33491 0.78322,0.93516 0.92692,1.63853c0.40178,1.96655 0.15909,4.73659 -0.92692,4.7432c-2.2863,0.01391 -17.02272,0.6397 -19.34155,0z" fill="url(#color-12)" stroke="#000000" stroke-width="1.5" stroke-linecap="butt"/><path d="M305.537,300.24809c0,0.74557 -0.57651,1.34998 -1.28768,1.34998c-0.71116,0 -1.28767,-0.60441 -1.28767,-1.34998c0,-0.74557 0.57651,-1.34998 1.28767,-1.34998c0.71116,0 1.28768,0.60441 1.28768,1.34998z" fill="none" stroke="#000000" stroke-width="1.5" stroke-linecap="butt"/><path d="M304.8991,300.24809c0,0.37852 -0.28493,0.68538 -0.63642,0.68538c-0.35149,0 -0.63642,-0.30685 -0.63642,-0.68538c0,-0.37852 0.28493,-0.68538 0.63642,-0.68538c0.35149,0 0.63642,0.30685 0.63642,0.68538z" fill="#000000" stroke="#000000" stroke-width="1.5" stroke-linecap="butt"/><path d="M308.91974,300.2436c0,0.74557 -0.57651,1.34998 -1.28767,1.34998c-0.71116,0 -1.28767,-0.60441 -1.28767,-1.34998c0,-0.74557 0.57651,-1.34998 1.28767,-1.34998c0.71116,0 1.28767,0.60441 1.28767,1.34998z" fill="none" stroke="#000000" stroke-width="1.5" stroke-linecap="butt"/><path d="M308.28183,300.2436c0,0.37852 -0.28493,0.68538 -0.63642,0.68538c-0.35149,0 -0.63642,-0.30685 -0.63642,-0.68538c0,-0.37852 0.28493,-0.68538 0.63642,-0.68538c0.35149,0 0.63642,0.30685 0.63642,0.68538z" fill="#000000" stroke="#000000" stroke-width="1.5" stroke-linecap="butt"/><path d="M304.98835,298.55897l-0.78544,1.57089v-1.81634" fill="none" stroke="#000000" stroke-width="1.5" stroke-linecap="round"/><path d="M308.2283,298.50988l-0.58908,1.61998l-0.09818,-1.66907" fill="none" stroke="#000000" stroke-width="1.5" stroke-linecap="round"/><path d="M322.07175,300.12986c0,0 0.49103,-1.39098 0.91383,-1.67285c0.34799,-0.23199 1.14795,-0.38895 1.14795,-0.38895l-0.04909,1.81634l1.12908,-1.32543" fill="none" stroke="#000000" stroke-width="1.5" stroke-linecap="round"/><path d="M323.98627,297.92079l-1.81634,0.24545h-0.34363" fill="none" stroke="#000000" stroke-width="1.5" stroke-linecap="round"/><path d="M320.3045,300.03168l-3.19087,0.14727l-0.04909,-1.27635l3.14177,-0.14727z" fill="none" stroke="#000000" stroke-width="1.5" stroke-linecap="round"/><path d="M322.41538,299.34441h-2.11088" fill="none" stroke="#000000" stroke-width="1.5" stroke-linecap="round"/><path d="M317.99726,298.4117v0.4909" fill="none" stroke="#000000" stroke-width="1.5" stroke-linecap="round"/><path d="M319.3227,298.65715v-0.53999" fill="none" stroke="#000000" stroke-width="1.5" stroke-linecap="round"/><path d="M317.35908,298.9026c0,0 -5.57912,0.15969 -7.11928,0.04336c-0.91154,-0.06885 -1.17697,-0.58336 -1.17697,-0.58336" fill="none" stroke="#000000" stroke-width="1.5" stroke-linecap="round"/><path d="M322.70992,298.70624l-2.55269,-0.04909" fill="none" stroke="#000000" stroke-width="1.5" stroke-linecap="round"/><path d="M305.96314,295.81693l-3.08567,0.14026l1.54284,-2.45451z" fill="none" stroke="#ff0000" stroke-width="1.5" stroke-linecap="round"/><text transform="translate(303.90836,295.859) scale(0.05616,0.05616)" font-size="40" xml:space="preserve" fill="#d6ff00" fill-rule="nonzero" stroke="none" stroke-width="1" stroke-linecap="butt" stroke-linejoin="miter" stroke-miterlimit="10" stroke-dasharray="" stroke-dashoffset="0" font-family="Sans Serif" font-weight="normal" text-anchor="start" style="mix-blend-mode: normal"><tspan x="0" dy="0">！</tspan></text><text transform="translate(308.26075,295.58965) scale(0.08802,0.08802)" font-size="40" xml:space="preserve" fill="#ffffff" fill-rule="nonzero" stroke="none" stroke-width="1" stroke-linecap="butt" stroke-linejoin="miter" stroke-miterlimit="10" stroke-dasharray="" stroke-dashoffset="0" font-family="Sans Serif" font-weight="normal" text-anchor="start" style="mix-blend-mode: normal"><tspan x="0" dy="0">中国航油</tspan></text><path d="M183.33086,294.96343l23.63253,0.05324l16.81272,0.05325c0,0 7.72159,-0.16597 11.55496,-0.02506c1.11071,0.04083 1.8516,-0.13645 2.03729,0.02506c1.1003,0.95702 0.65188,8.76426 0.09472,9.26422c-1.07498,0.28324 -12.31788,-0.05811 -12.31788,-0.05811c0,0 0.14584,-1.74818 -0.85743,-2.10674c-0.71525,-0.25563 -4.63841,-0.21429 -5.81259,0.0248c-0.15975,0.03253 -0.26862,0.06872 -0.3116,0.10832c-0.86102,0.12484 -0.69066,1.92037 -0.69066,1.92037c0,0 -0.44151,0.04366 -1.08966,0.03452c-1.77898,-0.0251 -9.89781,0.01872 -9.89781,0.01872l-1.98478,-0.10162c0,0 0.14584,-1.5352 -0.85743,-1.89376c-0.71525,-0.25563 -4.63841,-0.21429 -5.81259,0.02479c-0.15975,0.03253 -0.26862,0.06872 -0.3116,0.10832c-0.86102,0.12484 -0.69066,1.92037 -0.69066,1.92037c0,0 -0.44151,0.04368 -1.08966,0.03453c-1.77898,-0.02511 -10.22933,-0.19426 -10.22933,-0.19426c0,0 -0.22525,-1.24926 -0.57996,-1.58157c-0.39804,-0.37291 -1.59858,-0.65462 -1.59858,-0.65462z" fill="url(#color-13)" stroke="#000000" stroke-width="1" stroke-linecap="round"/><path d="M231.67632,304.26559v-3.87246h1.35769v3.87246z" fill="#ffffff" stroke="#000000" stroke-width="1" stroke-linecap="butt"/><path d="M233.02941,304.13831c0,0 0,-2.71304 0,-3.34643c0,-0.25112 0,-0.52603 0,-0.52603h1.35769v3.87246z" fill="#ffffff" stroke="#000000" stroke-width="1" stroke-linecap="butt"/><path d="M183.66238,297.41259v-2.28943c0,0 51.57557,-0.11579 53.65863,0c0.43947,0.02443 0.52096,2.28943 0.52096,2.28943z" fill="#fffa6f" stroke="none" stroke-width="0" stroke-linecap="butt"/><path d="M181.32853,304.1744h-2.64288c0,0 -0.90707,-4.22006 0.03924,-7.50054c0.10466,-0.36281 0.1716,-0.30179 0.39631,-0.48495c1.77092,-1.44344 4.31319,-1.27988 4.31319,-1.27988l-0.03925,6.99341c0,0 -1.04163,0.04612 -1.49359,0.44819c-0.49468,0.44006 -0.57302,1.82378 -0.57302,1.82378z" data-paper-data="{&quot;index&quot;:null}" fill="url(#color-14)" stroke="#000000" stroke-width="1.5" stroke-linecap="butt"/><path d="M178.72489,297.11507l0.62794,0.35297l-0.15699,2.20605l-0.62793,0.13236" data-paper-data="{&quot;index&quot;:null}" fill="none" stroke="#000000" stroke-width="1.5" stroke-linecap="round"/><path d="M183.25588,302.73686c0.68609,0 1.24228,0.65553 1.24228,1.46417c0,0.80864 -0.55619,1.46418 -1.24228,1.46418c-0.68609,0 -1.24228,-0.65553 -1.24228,-1.46418c0,-0.80864 0.55619,-1.46417 1.24228,-1.46417z" data-paper-data="{&quot;index&quot;:null}" fill="none" stroke="#000000" stroke-width="1.5" stroke-linecap="butt"/><path d="M183.243,303.45768c0.33909,0 0.61398,0.33281 0.61398,0.74336c0,0.41055 -0.27489,0.74335 -0.61398,0.74335c-0.33909,0 -0.61399,-0.33281 -0.61399,-0.74335c0,-0.41055 0.2749,-0.74336 0.61399,-0.74336z" data-paper-data="{&quot;index&quot;:null}" fill="#000000" stroke="#000000" stroke-width="1.5" stroke-linecap="butt"/><path d="M202.34621,302.83847c0.68609,0 1.24228,0.65554 1.24228,1.46418c0,0.80864 -0.55619,1.46417 -1.24228,1.46417c-0.68609,0 -1.24229,-0.65553 -1.24229,-1.46417c0,-0.80864 0.55619,-1.46418 1.24229,-1.46418z" data-paper-data="{&quot;index&quot;:null}" fill="none" stroke="#000000" stroke-width="1.5" stroke-linecap="butt"/><path d="M202.33333,303.55929c0.33909,0 0.61398,0.33281 0.61398,0.74336c0,0.41055 -0.27489,0.74335 -0.61398,0.74335c-0.33909,0 -0.61399,-0.33281 -0.61399,-0.74335c0,-0.41055 0.2749,-0.74336 0.61399,-0.74336z" data-paper-data="{&quot;index&quot;:null}" fill="#000000" stroke="#000000" stroke-width="1.5" stroke-linecap="butt"/><path d="M199.08272,302.8336c0.68609,0 1.24228,0.65553 1.24228,1.46418c0,0.80864 -0.55619,1.46418 -1.24228,1.46418c-0.68609,0 -1.24228,-0.65553 -1.24228,-1.46418c0,-0.80864 0.55618,-1.46418 1.24228,-1.46418z" data-paper-data="{&quot;index&quot;:null}" fill="none" stroke="#000000" stroke-width="1.5" stroke-linecap="butt"/><path d="M199.06984,303.55442c0.33909,0 0.61398,0.33281 0.61398,0.74336c0,0.41055 -0.27489,0.74334 -0.61398,0.74334c-0.33909,0 -0.61399,-0.3328 -0.61399,-0.74334c0,-0.41055 0.2749,-0.74336 0.61399,-0.74336z" data-paper-data="{&quot;index&quot;:null}" fill="#000000" stroke="#000000" stroke-width="1.5" stroke-linecap="butt"/><path d="M202.391,302.20444v1.96998l-0.75777,-1.70377" data-paper-data="{&quot;index&quot;:null}" fill="none" stroke="#000000" stroke-width="1.5" stroke-linecap="round"/><path d="M199.17053,302.36416l-0.09472,1.81026l-0.56832,-1.75702" data-paper-data="{&quot;index&quot;:null}" fill="none" stroke="#000000" stroke-width="1.5" stroke-linecap="round"/><text transform="translate(184.85164,297.38437) scale(0.06118,0.06878)" font-size="40" xml:space="preserve" data-paper-data="{&quot;index&quot;:null}" fill="#ffffff" fill-rule="nonzero" stroke="none" stroke-width="1" stroke-linecap="butt" stroke-linejoin="miter" stroke-miterlimit="10" stroke-dasharray="" stroke-dashoffset="0" font-family="Sans Serif" font-weight="normal" text-anchor="start" style="mix-blend-mode: normal"><tspan x="0" dy="0">COBUS</tspan></text><path d="M222.94338,303.04657c0.68609,0 1.24228,0.65553 1.24228,1.46418c0,0.80864 -0.55619,1.46417 -1.24228,1.46417c-0.68609,0 -1.24229,-0.65553 -1.24229,-1.46417c0,-0.80864 0.5562,-1.46418 1.24229,-1.46418z" data-paper-data="{&quot;index&quot;:null}" fill="none" stroke="#000000" stroke-width="1.5" stroke-linecap="butt"/><path d="M222.9305,303.76739c0.33909,0 0.61398,0.33281 0.61398,0.74335c0,0.41055 -0.27489,0.74336 -0.61398,0.74336c-0.33909,0 -0.61399,-0.33281 -0.61399,-0.74336c0,-0.41055 0.2749,-0.74335 0.61399,-0.74335z" data-paper-data="{&quot;index&quot;:null}" fill="#000000" stroke="#000000" stroke-width="1.5" stroke-linecap="butt"/><path d="M219.67989,303.0417c0.68609,0 1.24227,0.65553 1.24227,1.46417c0,0.80864 -0.55618,1.46418 -1.24227,1.46418c-0.68609,0 -1.24229,-0.65554 -1.24229,-1.46418c0,-0.80864 0.55619,-1.46417 1.24229,-1.46417z" data-paper-data="{&quot;index&quot;:null}" fill="none" stroke="#000000" stroke-width="1.5" stroke-linecap="butt"/><path d="M219.66701,303.76252c0.33909,0 0.61399,0.3328 0.61399,0.74334c0,0.41055 -0.2749,0.74336 -0.61399,0.74336c-0.33909,0 -0.61399,-0.33281 -0.61399,-0.74336c0,-0.41055 0.2749,-0.74334 0.61399,-0.74334z" data-paper-data="{&quot;index&quot;:null}" fill="#000000" stroke="#000000" stroke-width="1.5" stroke-linecap="butt"/><path d="M222.98817,302.41253v1.96998l-0.75776,-1.70377" data-paper-data="{&quot;index&quot;:null}" fill="none" stroke="#000000" stroke-width="1.5" stroke-linecap="round"/><path d="M219.7677,302.57226l-0.09472,1.81026l-0.56832,-1.75701" data-paper-data="{&quot;index&quot;:null}" fill="none" stroke="#000000" stroke-width="1.5" stroke-linecap="round"/><path d="M187.86285,304.12117v-4.41914h1.27872v4.41914z" fill="#ffffff" stroke="#000000" stroke-width="1" stroke-linecap="butt"/><path d="M189.23195,304.11629v-4.41914h1.27871v4.41914z" fill="#ffffff" stroke="#000000" stroke-width="1" stroke-linecap="butt"/><path d="M209.54929,304.11629v-4.41914h1.27872v4.41914z" fill="#ffffff" stroke="#000000" stroke-width="1" stroke-linecap="butt"/><path d="M210.9184,304.11142v-4.41913h1.27872v4.41913z" fill="#ffffff" stroke="#000000" stroke-width="1" stroke-linecap="butt"/><path d="M197.28745,301.35255v-2.71537h6.67773v2.71537z" fill="#d0d0d0" stroke="#000000" stroke-width="1" stroke-linecap="butt"/><path d="M218.2635,301.29443v-2.71537h6.67772v2.71537z" fill="#d0d0d0" stroke="#000000" stroke-width="1" stroke-linecap="butt"/><path d="M428.83463,303.52364c0,0 -1.2782,0.29994 -1.70199,0.69696c-0.37766,0.35381 -0.61748,1.68387 -0.61748,1.68387c0,0 -8.99692,0.18009 -10.89096,0.20682c-0.69008,0.00974 -1.16014,-0.03676 -1.16014,-0.03676c0,0 0.18138,-1.91166 -0.73534,-2.04458c-0.04575,-0.04216 -0.16167,-0.08069 -0.33176,-0.11533c-1.25013,-0.25455 -5.42703,-0.29856 -6.18854,-0.0264c-1.06816,0.38175 -0.91289,2.01625 -0.91289,2.01625l-2.11316,0.10818c0,0 -8.64396,-0.04665 -10.538,-0.01993c-0.69008,0.00974 -1.16014,-0.03675 -1.16014,-0.03675c0,0 0.18138,-1.91166 -0.73534,-2.04458c-0.04575,-0.04216 -0.16166,-0.0807 -0.33175,-0.11533c-1.25013,-0.25455 -5.42704,-0.29856 -6.18855,-0.0264c-1.06816,0.38175 -0.91289,2.243 -0.91289,2.243c0,0 -11.97009,0.36343 -13.11461,0.06188c-0.59319,-0.53231 -1.07063,-8.84452 0.10085,-9.86344c0.1977,-0.17196 0.98651,0.01679 2.16906,-0.02668c4.08131,-0.15002 12.30235,0.02668 12.30235,0.02668l17.90018,-0.05669l25.1611,-0.05669z" data-paper-data="{&quot;index&quot;:null}" fill="url(#color-15)" stroke="#000000" stroke-width="1" stroke-linecap="round"/><path d="M375.91664,306.00155v-4.12293h1.44551v4.12293z" data-paper-data="{&quot;index&quot;:null}" fill="#ffffff" stroke="#000000" stroke-width="1" stroke-linecap="butt"/><path d="M374.47604,305.86604v-4.12293h1.4455c0,0 0,0.29269 0,0.56005c0,0.67436 0,3.56288 0,3.56288z" data-paper-data="{&quot;index&quot;:null}" fill="#ffffff" stroke="#000000" stroke-width="1" stroke-linecap="butt"/><path d="M370.7977,298.70529c0,0 0.08676,-2.4115 0.55465,-2.43751c2.2178,-0.12327 57.12931,0 57.12931,0v2.43751z" data-paper-data="{&quot;index&quot;:null}" fill="#fffa6f" stroke="none" stroke-width="0" stroke-linecap="butt"/><path d="M430.96647,305.90448c0,0 -0.08342,-1.47323 -0.6101,-1.94175c-0.4812,-0.42807 -1.5902,-0.47716 -1.5902,-0.47716l-0.04178,-7.44576c0,0 2.70671,-0.17415 4.59216,1.36266c0.23925,0.19502 0.31052,0.13005 0.42195,0.51633c1.00752,3.49266 0.04179,7.98568 0.04179,7.98568z" data-paper-data="{&quot;index&quot;:null}" fill="url(#color-16)" stroke="#000000" stroke-width="1.5" stroke-linecap="butt"/><path d="M433.90565,301.25399l-0.66855,-0.14092l-0.16714,-2.34873l0.66855,-0.37579" data-paper-data="{&quot;index&quot;:null}" fill="none" stroke="#000000" stroke-width="1.5" stroke-linecap="round"/><path d="M430.23709,305.93282c0,0.86094 -0.59217,1.55888 -1.32264,1.55888c-0.73047,0 -1.32263,-0.69793 -1.32263,-1.55888c0,-0.86094 0.59217,-1.55888 1.32263,-1.55888c0.73047,0 1.32264,0.69793 1.32264,1.55888z" data-paper-data="{&quot;index&quot;:null}" fill="none" stroke="#000000" stroke-width="1.5" stroke-linecap="butt"/><path d="M429.58186,305.93282c0,0.43709 -0.29268,0.79143 -0.6537,0.79143c-0.36102,0 -0.6537,-0.35433 -0.6537,-0.79143c0,-0.43709 0.29268,-0.79143 0.6537,-0.79143c0.36102,0 0.6537,0.35433 0.6537,0.79143z" data-paper-data="{&quot;index&quot;:null}" fill="#000000" stroke="#000000" stroke-width="1.5" stroke-linecap="butt"/><path d="M409.91198,306.041c0,0.86094 -0.59217,1.55888 -1.32264,1.55888c-0.73047,0 -1.32263,-0.69793 -1.32263,-1.55888c0,-0.86094 0.59217,-1.55888 1.32263,-1.55888c0.73047,0 1.32264,0.69793 1.32264,1.55888z" data-paper-data="{&quot;index&quot;:null}" fill="none" stroke="#000000" stroke-width="1.5" stroke-linecap="butt"/><path d="M409.25676,306.041c0,0.43709 -0.29267,0.79143 -0.65369,0.79143c-0.36102,0 -0.6537,-0.35433 -0.6537,-0.79143c0,-0.43709 0.29268,-0.79143 0.6537,-0.79143c0.36102,0 0.65369,0.35433 0.65369,0.79143z" data-paper-data="{&quot;index&quot;:null}" fill="#000000" stroke="#000000" stroke-width="1.5" stroke-linecap="butt"/><path d="M413.38656,306.03582c0,0.86094 -0.59217,1.55888 -1.32263,1.55888c-0.73047,0 -1.32263,-0.69793 -1.32263,-1.55888c0,-0.86094 0.59217,-1.55888 1.32263,-1.55888c0.73047,0 1.32263,0.69793 1.32263,1.55888z" data-paper-data="{&quot;index&quot;:null}" fill="none" stroke="#000000" stroke-width="1.5" stroke-linecap="butt"/><path d="M412.73134,306.03582c0,0.43709 -0.29268,0.79143 -0.6537,0.79143c-0.36102,0 -0.6537,-0.35433 -0.6537,-0.79143c0,-0.43709 0.29268,-0.79143 0.6537,-0.79143c0.36102,0 0.6537,0.35433 0.6537,0.79143z" data-paper-data="{&quot;index&quot;:null}" fill="#000000" stroke="#000000" stroke-width="1.5" stroke-linecap="butt"/><path d="M409.34843,304.09051l-0.80677,1.81396v-2.0974" data-paper-data="{&quot;index&quot;:null}" fill="none" stroke="#000000" stroke-width="1.5" stroke-linecap="round"/><path d="M412.67635,304.03382l-0.60507,1.87065l-0.10085,-1.92734" data-paper-data="{&quot;index&quot;:null}" fill="none" stroke="#000000" stroke-width="1.5" stroke-linecap="round"/><text transform="translate(427.21547,298.67525) rotate(-180) scale(0.06514,-0.07322)" font-size="40" xml:space="preserve" data-paper-data="{&quot;index&quot;:null}" fill="#ffffff" fill-rule="nonzero" stroke="none" stroke-width="1" stroke-linecap="butt" stroke-linejoin="miter" stroke-miterlimit="10" stroke-dasharray="" stroke-dashoffset="0" font-family="Sans Serif" font-weight="normal" text-anchor="start" style="mix-blend-mode: normal"><tspan x="0" dy="0">COBUS</tspan></text><path d="M387.98257,306.26256c0,0.86094 -0.59216,1.55888 -1.32263,1.55888c-0.73047,0 -1.32263,-0.69794 -1.32263,-1.55888c0,-0.86094 0.59217,-1.55888 1.32263,-1.55888c0.73047,0 1.32263,0.69793 1.32263,1.55888z" data-paper-data="{&quot;index&quot;:null}" fill="none" stroke="#000000" stroke-width="1.5" stroke-linecap="butt"/><path d="M387.32735,306.26256c0,0.43709 -0.29268,0.79143 -0.6537,0.79143c-0.36102,0 -0.6537,-0.35434 -0.6537,-0.79143c0,-0.43709 0.29267,-0.79143 0.6537,-0.79143c0.36102,0 0.6537,0.35434 0.6537,0.79143z" data-paper-data="{&quot;index&quot;:null}" fill="#000000" stroke="#000000" stroke-width="1.5" stroke-linecap="butt"/><path d="M391.45715,306.25738c0,0.86094 -0.59217,1.55888 -1.32263,1.55888c-0.73047,0 -1.32263,-0.69793 -1.32263,-1.55888c0,-0.86094 0.59217,-1.55888 1.32263,-1.55888c0.73047,0 1.32263,0.69794 1.32263,1.55888z" data-paper-data="{&quot;index&quot;:null}" fill="none" stroke="#000000" stroke-width="1.5" stroke-linecap="butt"/><path d="M390.80193,306.25738c0,0.43709 -0.29267,0.79143 -0.65369,0.79143c-0.36102,0 -0.6537,-0.35433 -0.6537,-0.79143c0,-0.43709 0.29268,-0.79144 0.6537,-0.79144c0.36102,0 0.65369,0.35434 0.65369,0.79144z" data-paper-data="{&quot;index&quot;:null}" fill="#000000" stroke="#000000" stroke-width="1.5" stroke-linecap="butt"/><path d="M387.41903,304.31207l-0.80677,1.81396v-2.0974" data-paper-data="{&quot;index&quot;:null}" fill="none" stroke="#000000" stroke-width="1.5" stroke-linecap="round"/><path d="M390.74695,304.25538l-0.60508,1.87065l-0.10084,-1.92734" data-paper-data="{&quot;index&quot;:null}" fill="none" stroke="#000000" stroke-width="1.5" stroke-linecap="round"/><path d="M422.64808,305.84779v-4.70497h1.36142v4.70497z" data-paper-data="{&quot;index&quot;:null}" fill="#ffffff" stroke="#000000" stroke-width="1" stroke-linecap="butt"/><path d="M421.19042,305.8426v-4.70498h1.36142v4.70498z" data-paper-data="{&quot;index&quot;:null}" fill="#ffffff" stroke="#000000" stroke-width="1" stroke-linecap="butt"/><path d="M399.55894,305.8426v-4.70498h1.36142v4.70498z" data-paper-data="{&quot;index&quot;:null}" fill="#ffffff" stroke="#000000" stroke-width="1" stroke-linecap="butt"/><path d="M398.10128,305.83741v-4.70497h1.36143v4.70497z" data-paper-data="{&quot;index&quot;:null}" fill="#ffffff" stroke="#000000" stroke-width="1" stroke-linecap="butt"/><path d="M406.86567,302.90009v-2.89101h7.10965v2.89101z" data-paper-data="{&quot;index&quot;:null}" fill="#d0d0d0" stroke="#000000" stroke-width="1" stroke-linecap="butt"/><path d="M384.53287,302.83822v-2.89101h7.10965v2.89101z" data-paper-data="{&quot;index&quot;:null}" fill="#d0d0d0" stroke="#000000" stroke-width="1" stroke-linecap="butt"/><path d="M360.19005,231.61339l-7.109,-15.79779h31.59557l-6.31912,15.79779z" fill="url(#color-17)" stroke="#000000" stroke-width="1" stroke-linecap="butt"/><path d="M362.7019,216.07627l-4.62086,-10.26856h20.53713l-4.10743,10.26856z" fill="url(#color-18)" stroke="#000000" stroke-width="0.5" stroke-linecap="butt"/><path d="M364.1395,205.54704l3.94944,-15.00789l3.94945,14.21801" fill="none" stroke="#000000" stroke-width="1" stroke-linecap="round"/><path d="M368.08894,178.6908v11.84834" fill="none" stroke="#000000" stroke-width="0.5" stroke-linecap="round"/><path d="M334.25534,302.70344v-15.40285h6.84571v15.40285z" fill="#dcdcdc" stroke="none" stroke-width="0" stroke-linecap="butt"/><path d="M343.60237,302.70344v-15.0079h7.109v15.0079z" fill="#dcdcdc" stroke="none" stroke-width="0" stroke-linecap="butt"/><path d="M346.76193,290.8551h-7.89889" fill="none" stroke="#000000" stroke-width="0.5" stroke-linecap="round"/><path d="M338.86304,298.75399h9.47867" fill="none" stroke="#000000" stroke-width="0.5" stroke-linecap="round"/></g></g></svg>