<svg version="1.1" xmlns="http://www.w3.org/2000/svg" xmlns:xlink="http://www.w3.org/1999/xlink" width="66.2528" height="62.18798" viewBox="0,0,66.2528,62.18798"><g transform="translate(-206.8736,-148.90598)"><g data-paper-data="{&quot;isPaintingLayer&quot;:true}" fill-rule="nonzero" stroke-linejoin="miter" stroke-miterlimit="10" stroke-dasharray="" stroke-dashoffset="0" style="mix-blend-mode: normal"><path d="M208.0582,210.10343v-60.20683h63.8836v60.20683z" fill="#30b8ee" stroke="#000000" stroke-width="0" stroke-linecap="butt"/><path d="M207.71362,149.45203l12.43392,-0.29605c0,0 -5.8129,0.79266 -8.16283,3.82894c-2.59207,3.34914 -3.97505,9.49311 -3.97505,9.49311z" fill="#b0fecf" stroke="#b0fecf" stroke-width="0.5" stroke-linecap="round"/><path d="M272.27005,162.61622c0,0 -1.38297,-6.14398 -3.97504,-9.49312c-2.34992,-3.03628 -8.16283,-3.82894 -8.16283,-3.82894l12.43392,0.29605z" data-paper-data="{&quot;index&quot;:null}" fill="#b0fecf" stroke="#b0fecf" stroke-width="0.5" stroke-linecap="round"/><path d="M272.87079,209.74381l-12.43392,0.29604c0,0 5.8129,-0.79265 8.16283,-3.82893c2.59207,-3.34914 3.97505,-9.49312 3.97505,-9.49312z" data-paper-data="{&quot;index&quot;:null}" fill="#b0fecf" stroke="#b0fecf" stroke-width="0.5" stroke-linecap="round"/><path d="M207.42525,197.52198c0,0 1.38297,6.14398 3.97505,9.49312c2.34992,3.03628 8.16283,3.82893 8.16283,3.82893l-12.43392,-0.29605z" data-paper-data="{&quot;index&quot;:null}" fill="#b0fecf" stroke="#b0fecf" stroke-width="0.5" stroke-linecap="round"/><g fill="none" stroke="#000000" stroke-width="1"><path d="M227.88986,176.36237c-2.79171,2.34707 -6.97215,1.96921 -9.33728,-0.84396c-2.36514,-2.81318 -2.01933,-6.99639 0.77237,-9.34347c2.79171,-2.34707 6.97215,-1.96922 9.33728,0.84396c2.36514,2.81318 2.01933,6.9964 -0.77238,9.34348z" stroke-linecap="butt"/><g stroke-linecap="round"><path d="M227.61015,161.13261l5.6457,-1.49454l3.52156,4.30359l-2.44203,5.3051"/><path d="M234.33745,169.21267l3.79702,4.43736l-2.34841,5.04055l-5.83927,0.10281"/><path d="M227.47467,161.12234l5.6457,-1.49453l3.63477,4.20841l-2.44203,5.3051" data-paper-data="{&quot;index&quot;:null}"/><path d="M217.31611,163.80596l1.10422,-5.73482l5.36901,-1.44774l3.71925,4.50275" data-paper-data="{&quot;index&quot;:null}"/><path d="M219.72241,181.42988l-5.64571,1.49453l-3.63477,-4.2084l2.44203,-5.3051" data-paper-data="{&quot;index&quot;:null}"/><path d="M229.88098,178.74624l-1.10423,5.73483l-5.36901,1.44774l-3.71925,-4.50275" data-paper-data="{&quot;index&quot;:null}"/><path d="M219.62238,181.38981l-5.64571,1.49453l-3.52156,-4.30359l2.44203,-5.3051" data-paper-data="{&quot;index&quot;:null}"/><path d="M212.89509,173.30974l-3.79702,-4.43737l2.34842,-5.04055l5.83926,-0.10281" data-paper-data="{&quot;index&quot;:null}"/></g></g><g fill="none" stroke="#000000" stroke-width="1"><path d="M257.34091,167.57089c-1.37298,3.37895 -5.24626,4.99654 -8.6512,3.613c-3.40495,-1.38354 -5.05218,-5.2443 -3.6792,-8.62325c1.37298,-3.37895 5.24626,-4.99655 8.6512,-3.61301c3.40495,1.38354 5.05218,5.24431 3.6792,8.62327z" stroke-linecap="butt"/><g stroke-linecap="round"><path d="M249.98317,154.23343l4.29486,-3.95749l5.12343,2.16164l0.31727,5.83154"/><path d="M259.70465,158.23802l5.42948,2.15133l0.27655,5.55389l-5.11581,2.81712"/><path d="M249.85857,154.28761l4.29486,-3.95748l5.17911,2.02462l0.31727,5.83154" data-paper-data="{&quot;index&quot;:null}"/><path d="M242.12804,161.40358l-1.70095,-5.58697l4.07203,-3.78692l5.39124,2.24547" data-paper-data="{&quot;index&quot;:null}"/><path d="M252.48412,175.86537l-4.29487,3.95748l-5.17911,-2.02461l-0.31727,-5.83154" data-paper-data="{&quot;index&quot;:null}"/><path d="M260.21467,168.7494l1.70095,5.58698l-4.07203,3.78692l-5.39124,-2.24547" data-paper-data="{&quot;index&quot;:null}"/><path d="M252.37697,175.87665l-4.29487,3.95748l-5.12343,-2.16164l-0.31727,-5.83154" data-paper-data="{&quot;index&quot;:null}"/><path d="M242.65549,171.87204l-5.42948,-2.15134l-0.27654,-5.55389l5.1158,-2.81712" data-paper-data="{&quot;index&quot;:null}"/></g></g><g fill="none" stroke="#000000" stroke-width="1"><path d="M254.97091,199.19694c-3.42049,1.26596 -7.22749,-0.50197 -8.50319,-3.94877c-1.27571,-3.4468 0.463,-7.26724 3.88346,-8.53321c3.42049,-1.26596 7.2275,0.50196 8.5032,3.94876c1.27571,3.4468 -0.463,7.26725 -3.88348,8.53321z" stroke-linecap="butt"/><g stroke-linecap="round"><path d="M259.85273,184.76809l5.81867,0.50061l1.86063,5.24025l-4.09067,4.16821"/><path d="M263.45481,194.64579l2.07471,5.45923l-3.91319,3.95084l-5.53069,-1.87593"/><path d="M259.72869,184.71266l5.81867,0.50062l1.99934,5.18892l-4.09067,4.16821" data-paper-data="{&quot;index&quot;:null}"/><path d="M249.26076,183.80664l2.9767,-5.02461l5.54244,0.45119l1.97941,5.4945" data-paper-data="{&quot;index&quot;:null}"/><path d="M245.57169,201.20729l-5.81867,-0.50063l-1.99935,-5.18891l4.09067,-4.16821" data-paper-data="{&quot;index&quot;:null}"/><path d="M256.03962,202.11332l-2.9767,5.02462l-5.54244,-0.45119l-1.97941,-5.4945" data-paper-data="{&quot;index&quot;:null}"/><path d="M245.49108,201.1358l-5.81867,-0.50063l-1.86063,-5.24025l4.09067,-4.16821" data-paper-data="{&quot;index&quot;:null}"/><path d="M241.88901,191.25809l-2.0747,-5.45922l3.91319,-3.95083l5.53069,1.87592" data-paper-data="{&quot;index&quot;:null}"/></g></g><text transform="translate(210.62347,198.08598) scale(0.33191,0.33191)" font-size="40" xml:space="preserve" fill="#ff0000" fill-rule="nonzero" stroke="none" stroke-width="1" stroke-linecap="butt" stroke-linejoin="miter" stroke-miterlimit="10" stroke-dasharray="" stroke-dashoffset="0" font-family="Sans Serif" font-weight="normal" text-anchor="start" style="mix-blend-mode: normal"><tspan x="0" dy="0">设置</tspan></text></g></g></svg>